M48
; DRILL file {KiCad 8.0.1-rc1} date 2024-04-16T22:30:45-0600
; FORMAT={-:-/ absolute / inch / decimal}
; #@! TF.CreationDate,2024-04-16T22:30:45-06:00
; #@! TF.GenerationSoftware,Kicad,Pcbnew,8.0.1-rc1
; #@! TF.FileFunction,Plated,1,4,PTH
FMAT,2
INCH
; #@! TA.AperFunction,Plated,PTH,ViaDrill
T1C0.0118
; #@! TA.AperFunction,Plated,PTH,ComponentDrill
T2C0.0118
; #@! TA.AperFunction,Plated,PTH,ComponentDrill
T3C0.0197
; #@! TA.AperFunction,Plated,PTH,ViaDrill
T4C0.0236
; #@! TA.AperFunction,Plated,PTH,ComponentDrill
T5C0.0236
; #@! TA.AperFunction,Plated,PTH,ComponentDrill
T6C0.0394
; #@! TA.AperFunction,Plated,PTH,ComponentDrill
T7C0.1260
%
G90
G05
T1
X5.2677Y-2.9665
X5.2677Y-3.4606
X5.2677Y-3.5571
X5.3031Y-3.1339
X5.3248Y-3.4331
X5.4016Y-3.0197
X5.4606Y-3.189
X5.4862Y-3.2303
X5.5669Y-3.8563
X5.6909Y-3.498
X5.6949Y-3.4587
X5.7992Y-3.7224
X5.9272Y-3.002
X5.9291Y-3.0413
X5.9291Y-3.2972
X5.9291Y-3.3346
X5.9547Y-3.9823
X5.9705Y-2.9665
X5.9764Y-3.4665
X5.9803Y-3.5669
X5.9823Y-3.1594
X6.111Y-4.0354
X6.1201Y-3.4665
X6.1263Y-3.2792
X6.1319Y-3.0492
X6.1319Y-3.8976
X6.1339Y-3.1634
X6.1339Y-3.3976
X6.1368Y-3.1053
X6.1413Y-3.4429
X6.1496Y-3.0197
X6.1516Y-3.0748
X6.1516Y-3.7579
X6.1575Y-3.189
X6.1575Y-3.3701
X6.1594Y-3.1319
X6.1594Y-3.2894
X6.1713Y-3.2539
X6.2047Y-3.1378
X6.235Y-3.1291
X6.2559Y-3.1056
X6.2854Y-3.8543
X6.3839Y-2.9547
X6.4173Y-2.9547
X6.435Y-2.9843
X6.4488Y-2.8878
X6.4587Y-3.0079
X6.4764Y-3.3169
X6.4764Y-3.3484
X6.4823Y-2.8642
X6.4823Y-3.0315
X6.4888Y-3.7362
X6.5039Y-3.0039
X6.5059Y-3.0531
X6.5285Y-3.0754
X6.5472Y-3.0039
X6.6299Y-3.5906
X6.6457Y-3.1024
X6.6768Y-3.557
X6.6772Y-3.9724
X6.6811Y-3.0394
X6.7005Y-3.579
X6.752Y-3.0256
X6.752Y-3.063
X6.752Y-3.0984
X6.7579Y-3.7272
X6.7657Y-2.9094
X6.7874Y-3.5906
X6.8196Y-3.5761
X6.8425Y-3.8681
X6.8504Y-3.1555
X6.8834Y-3.4228
X6.8839Y-2.9094
X6.8937Y-3.8681
X6.8937Y-4.0
X6.901Y-3.2421
X6.9015Y-3.4685
X6.9025Y-3.5009
X6.9124Y-3.3179
X6.9189Y-3.2707
X6.9232Y-3.4213
X6.939Y-3.1358
X6.9429Y-4.0
X6.9685Y-3.685
X7.2008Y-3.3563
X7.2028Y-3.2067
X7.2028Y-3.2559
X7.2028Y-3.3071
T2
X6.6339Y-3.25
X6.6339Y-3.3189
X6.6339Y-3.3878
X6.7028Y-3.25
X6.7028Y-3.3189
X6.7028Y-3.3878
X6.7717Y-3.25
X6.7717Y-3.3189
X6.7717Y-3.3878
T3
X5.1643Y-2.5984
X5.1643Y-3.937
X5.192Y-2.5316
X5.192Y-2.6652
X5.192Y-3.8702
X5.192Y-4.0038
X5.2588Y-2.5039
X5.2588Y-2.6929
X5.2588Y-3.8425
X5.2588Y-4.0315
X5.3256Y-2.5316
X5.3256Y-2.6652
X5.3256Y-3.8702
X5.3256Y-4.0038
X5.3533Y-2.5984
X5.3533Y-3.937
X7.1102Y-2.5984
X7.1102Y-3.937
X7.1379Y-2.5316
X7.1379Y-2.6652
X7.1379Y-3.8702
X7.1379Y-4.0038
X7.2047Y-2.5039
X7.2047Y-2.6929
X7.2047Y-3.8425
X7.2047Y-4.0315
X7.2715Y-2.5316
X7.2715Y-2.6652
X7.2715Y-3.8702
X7.2715Y-4.0038
X7.2992Y-2.5984
X7.2992Y-3.937
T4
X5.5217Y-2.8543
X5.6181Y-2.6201
X5.6496Y-3.0669
X5.6949Y-3.0669
X5.7165Y-2.8504
X6.1358Y-2.7382
X6.1752Y-2.9409
X6.1752Y-3.5965
X6.3268Y-3.5118
X6.3563Y-3.2343
X6.4114Y-3.2323
X6.4921Y-3.6004
X6.4963Y-3.502
X6.689Y-2.813
X6.8602Y-3.5827
X6.9114Y-3.5807
X6.9409Y-2.813
T6
X5.9803Y-2.5984
X6.0803Y-2.5984
X6.1803Y-2.5984
X6.2803Y-2.5984
X6.3803Y-2.5984
X6.4803Y-2.5984
T7
X5.2588Y-2.5984
X5.2588Y-3.937
X7.2047Y-2.5984
X7.2047Y-3.937
T5
G00X6.6449Y-2.5285
M15
G01X6.6449Y-2.56
M16
G05
G00X6.6449Y-2.6872
M15
G01X6.6449Y-2.7305
M16
G05
G00X6.985Y-2.5285
M15
G01X6.985Y-2.56
M16
G05
G00X6.985Y-2.6872
M15
G01X6.985Y-2.7305
M16
G05
M30
