%TF.GenerationSoftware,KiCad,Pcbnew,8.0.1-rc1*%
%TF.CreationDate,2024-04-16T22:30:49-06:00*%
%TF.ProjectId,bitaxe-ESP-OLED,62697461-7865-42d4-9553-502d4f4c4544,rev?*%
%TF.SameCoordinates,Original*%
%TF.FileFunction,Copper,L1,Top*%
%TF.FilePolarity,Positive*%
%FSLAX46Y46*%
G04 Gerber Fmt 4.6, Leading zero omitted, Abs format (unit mm)*
G04 Created by KiCad (PCBNEW 8.0.1-rc1) date 2024-04-16 22:30:49*
%MOMM*%
%LPD*%
G01*
G04 APERTURE LIST*
%TA.AperFunction,SMDPad,CuDef*%
%ADD10C,1.000000*%
%TD*%
%TA.AperFunction,ConnectorPad*%
%ADD11C,0.787400*%
%TD*%
%TA.AperFunction,SMDPad,CuDef*%
%ADD12R,1.550000X1.400000*%
%TD*%
%TA.AperFunction,ComponentPad*%
%ADD13C,0.800000*%
%TD*%
%TA.AperFunction,ComponentPad*%
%ADD14C,6.400000*%
%TD*%
%TA.AperFunction,ComponentPad*%
%ADD15O,1.000000X1.800000*%
%TD*%
%TA.AperFunction,ComponentPad*%
%ADD16O,1.000000X2.100000*%
%TD*%
%TA.AperFunction,HeatsinkPad*%
%ADD17C,0.500000*%
%TD*%
%TA.AperFunction,HeatsinkPad*%
%ADD18R,4.000000X4.000000*%
%TD*%
%TA.AperFunction,ComponentPad*%
%ADD19R,1.700000X1.700000*%
%TD*%
%TA.AperFunction,ComponentPad*%
%ADD20O,1.700000X1.700000*%
%TD*%
%TA.AperFunction,ViaPad*%
%ADD21C,0.600000*%
%TD*%
%TA.AperFunction,ViaPad*%
%ADD22C,1.000000*%
%TD*%
%TA.AperFunction,Conductor*%
%ADD23C,0.200000*%
%TD*%
%TA.AperFunction,Profile*%
%ADD24C,0.100000*%
%TD*%
G04 APERTURE END LIST*
D10*
%TO.P,TP7,1,1*%
%TO.N,/P_RX*%
X173250000Y-96850000D03*
%TD*%
%TO.P,TP6,1,1*%
%TO.N,/P_TX*%
X175750000Y-96850000D03*
%TD*%
%TO.P,TP4,1,1*%
%TO.N,/GPIO2*%
X163450000Y-71250000D03*
%TD*%
%TO.P,TP3,1,1*%
%TO.N,/GPIO1*%
X162050000Y-68850000D03*
%TD*%
D11*
%TO.P,J3,1,Pin_1*%
%TO.N,/RESET*%
X176355000Y-99285000D03*
%TO.P,J3,2,Pin_2*%
%TO.N,/3V3*%
X176355000Y-100555000D03*
%TO.P,J3,3,Pin_3*%
%TO.N,/P_TX*%
X175085000Y-99285000D03*
%TO.P,J3,4,Pin_4*%
%TO.N,GND*%
X175085000Y-100555000D03*
%TO.P,J3,5,Pin_5*%
%TO.N,/P_RX*%
X173815000Y-99285000D03*
%TO.P,J3,6,Pin_6*%
%TO.N,/GPIO0*%
X173815000Y-100555000D03*
%TD*%
D12*
%TO.P,SW4,1*%
%TO.N,GND*%
X161100000Y-97950000D03*
%TO.P,SW4,2*%
%TO.N,/UI2*%
X169600000Y-102450000D03*
%TO.P,SW4,3*%
%TO.N,N/C*%
X169600000Y-97950000D03*
%TO.P,SW4,4*%
X161100000Y-102450000D03*
%TD*%
%TO.P,SW2,1*%
%TO.N,GND*%
X142750000Y-97950000D03*
%TO.P,SW2,2*%
%TO.N,/UI1*%
X151250000Y-102450000D03*
%TO.P,SW2,3*%
%TO.N,N/C*%
X151250000Y-97950000D03*
%TO.P,SW2,4*%
X142750000Y-102450000D03*
%TD*%
D13*
%TO.P,H1,1*%
%TO.N,N/C*%
X131173000Y-66000000D03*
X131875944Y-64302944D03*
X131875944Y-67697056D03*
X133573000Y-63600000D03*
D14*
X133573000Y-66000000D03*
D13*
X133573000Y-68400000D03*
X135270056Y-64302944D03*
X135270056Y-67697056D03*
X135973000Y-66000000D03*
%TD*%
%TO.P,H3,1*%
%TO.N,N/C*%
X131173000Y-100000000D03*
X131875944Y-98302944D03*
X131875944Y-101697056D03*
X133573000Y-97600000D03*
D14*
X133573000Y-100000000D03*
D13*
X133573000Y-102400000D03*
X135270056Y-98302944D03*
X135270056Y-101697056D03*
X135973000Y-100000000D03*
%TD*%
%TO.P,H2,1*%
%TO.N,N/C*%
X180600000Y-66000000D03*
X181302944Y-64302944D03*
X181302944Y-67697056D03*
X183000000Y-63600000D03*
D14*
X183000000Y-66000000D03*
D13*
X183000000Y-68400000D03*
X184697056Y-64302944D03*
X184697056Y-67697056D03*
X185400000Y-66000000D03*
%TD*%
%TO.P,H4,1*%
%TO.N,N/C*%
X180600000Y-100000000D03*
X181302944Y-98302944D03*
X181302944Y-101697056D03*
X183000000Y-97600000D03*
D14*
X183000000Y-100000000D03*
D13*
X183000000Y-102400000D03*
X184697056Y-98302944D03*
X184697056Y-101697056D03*
X185400000Y-100000000D03*
%TD*%
D15*
%TO.P,J2,S1,SHIELD*%
%TO.N,GND*%
X168780000Y-64625000D03*
D16*
X168780000Y-68805000D03*
D15*
X177420000Y-64625000D03*
D16*
X177420000Y-68805000D03*
%TD*%
D17*
%TO.P,U2,57,PAD*%
%TO.N,GND*%
X168500000Y-82550000D03*
X168500000Y-84300000D03*
X168500000Y-86050000D03*
X170250000Y-82550000D03*
X170250000Y-84300000D03*
D18*
X170250000Y-84300000D03*
D17*
X170250000Y-86050000D03*
X172000000Y-82550000D03*
X172000000Y-84300000D03*
X172000000Y-86050000D03*
%TD*%
D19*
%TO.P,J1,1,Pin_1*%
%TO.N,/5V_BAP*%
X151900000Y-66000000D03*
D20*
%TO.P,J1,2,Pin_2*%
%TO.N,GND*%
X154440000Y-66000000D03*
%TO.P,J1,3,Pin_3*%
%TO.N,/BAP_TX*%
X156980000Y-66000000D03*
%TO.P,J1,4,Pin_4*%
%TO.N,/BAP_RX*%
X159520000Y-66000000D03*
%TO.P,J1,5,Pin_5*%
%TO.N,/GPIO1*%
X162060000Y-66000000D03*
%TO.P,J1,6,Pin_6*%
%TO.N,/GPIO2*%
X164600000Y-66000000D03*
%TD*%
D21*
%TO.N,/LCD_BLK*%
X144550000Y-88850000D03*
X177000000Y-93600000D03*
%TO.N,/TP_RESET*%
X174000000Y-80150000D03*
%TO.N,/BAP_RX*%
X164650000Y-72750000D03*
%TO.N,/BAP_TX*%
X163800000Y-73350000D03*
X165200000Y-76300000D03*
%TO.N,/BAP_RX*%
X166300000Y-76300000D03*
%TO.N,/P_RX*%
X173800000Y-98250000D03*
%TO.N,/P_TX*%
X175100000Y-98250000D03*
%TO.N,/3V3*%
X176350000Y-101600000D03*
%TO.N,GND*%
X175100000Y-101600000D03*
X134700000Y-79600000D03*
X150600000Y-77250000D03*
X164815000Y-94900000D03*
D22*
X145200000Y-72400000D03*
D21*
X169700000Y-77200000D03*
X151800000Y-88050000D03*
X155750000Y-99000000D03*
X171650000Y-94670000D03*
X159650000Y-97900000D03*
X141400000Y-97950000D03*
D22*
X140250000Y-72500000D03*
X142700000Y-66550000D03*
D21*
X133800000Y-75350000D03*
X174850000Y-73900000D03*
X171850000Y-73900000D03*
X151950000Y-80250000D03*
X182900000Y-85250000D03*
X144650000Y-87850000D03*
D22*
X156850000Y-74700000D03*
D21*
X176250000Y-79650000D03*
X168400000Y-91200000D03*
X133800000Y-90350000D03*
X151650000Y-75350000D03*
D22*
X175550000Y-90950000D03*
X160700000Y-89200000D03*
D21*
X133800000Y-87900000D03*
D22*
X156850000Y-91350000D03*
D21*
X150600000Y-83750000D03*
D22*
X161450000Y-82150000D03*
D21*
X151900000Y-90600000D03*
D22*
%TO.N,/VBUS*%
X176300000Y-71450000D03*
X169900000Y-71450000D03*
X155850000Y-69550000D03*
D21*
%TO.N,/RESET*%
X164500000Y-85050000D03*
X139350000Y-82050000D03*
%TO.N,/UI1*%
X151250000Y-101150000D03*
%TO.N,/UI2*%
X169600000Y-100900000D03*
%TO.N,/3V3*%
X137200000Y-76700000D03*
X155220000Y-102500000D03*
D22*
X162850000Y-82100000D03*
X174250000Y-91000000D03*
X165005971Y-88950000D03*
D21*
X150600000Y-84700000D03*
D22*
X144650000Y-77900000D03*
D21*
X150550000Y-76250000D03*
X156250000Y-95450000D03*
D22*
X143500000Y-77900000D03*
D21*
X135250000Y-87200000D03*
D22*
X164900000Y-91450000D03*
D21*
X147300000Y-94550000D03*
X168800000Y-78800000D03*
%TO.N,/GPIO0*%
X164500000Y-84250000D03*
X138700000Y-81000000D03*
%TO.N,/I2C_SCL*%
X157600000Y-79699997D03*
X171500000Y-78700000D03*
%TO.N,/I2C_SCK*%
X158369222Y-79480223D03*
X171500000Y-77800000D03*
%TO.N,/TP_INT*%
X158900811Y-78882380D03*
X171500000Y-76850000D03*
%TO.N,/SPI_CS*%
X175739951Y-83075735D03*
X182950000Y-81450000D03*
%TO.N,/SPI_Q*%
X182950000Y-82700000D03*
X175574265Y-84275735D03*
%TO.N,/SPI_WP*%
X175284597Y-82349023D03*
X182950000Y-84000000D03*
%TO.N,/LCD_D5*%
X169591469Y-90346804D03*
X156400000Y-85600000D03*
%TO.N,/LCD_WR*%
X165250000Y-77550000D03*
X155874265Y-78874265D03*
%TO.N,/LCD_D2*%
X156750000Y-82650000D03*
X173217157Y-90832843D03*
%TO.N,/LCD_D3*%
X156450000Y-83550000D03*
X172400000Y-91200000D03*
%TO.N,/LCD_D4*%
X170191469Y-90906468D03*
X155607108Y-83292892D03*
%TO.N,/LCD_CS*%
X164050000Y-76400000D03*
X155750000Y-77450000D03*
%TO.N,/LCD_D0*%
X155800000Y-80350000D03*
X175299264Y-88099264D03*
%TO.N,/LCD_D6*%
X174838815Y-86937935D03*
X155800000Y-86300000D03*
%TO.N,/TP_RESET*%
X155450000Y-88050000D03*
%TO.N,/LCD_DC*%
X156250000Y-78100000D03*
X164650000Y-77000000D03*
%TO.N,/LCD_RD*%
X156450000Y-79550000D03*
X165825078Y-78115687D03*
%TO.N,/LCD_D1*%
X175323529Y-88923529D03*
X156400000Y-81000000D03*
%TO.N,/LCD_D7*%
X155988140Y-87450000D03*
X175850000Y-86900000D03*
%TO.N,/LCD_RES*%
X163450000Y-75800000D03*
X156200000Y-76700000D03*
%TO.N,/GPIO2*%
X163000000Y-75050000D03*
%TO.N,/GPIO1*%
X162150000Y-75050000D03*
%TD*%
D23*
%TO.N,/BAP_RX*%
X166300000Y-74400000D02*
X166300000Y-76300000D01*
X164650000Y-72750000D02*
X166300000Y-74400000D01*
%TO.N,/BAP_TX*%
X165200000Y-74750000D02*
X165200000Y-76300000D01*
X163800000Y-73350000D02*
X165200000Y-74750000D01*
%TO.N,/RESET*%
X176355000Y-97995000D02*
X176355000Y-99285000D01*
X177200000Y-97150000D02*
X176355000Y-97995000D01*
X175750000Y-94450000D02*
X177200000Y-95900000D01*
X173000000Y-94450000D02*
X175750000Y-94450000D01*
X171100000Y-96350000D02*
X173000000Y-94450000D01*
X177200000Y-95900000D02*
X177200000Y-97150000D01*
X163100000Y-96350000D02*
X171100000Y-96350000D01*
X161050000Y-94300000D02*
X163100000Y-96350000D01*
X153500000Y-95600000D02*
X154800000Y-94300000D01*
X154800000Y-94300000D02*
X161050000Y-94300000D01*
X141600000Y-95600000D02*
X153500000Y-95600000D01*
X139350000Y-93350000D02*
X141600000Y-95600000D01*
X139350000Y-82050000D02*
X139350000Y-93350000D01*
X157631372Y-82050000D02*
X160631372Y-85050000D01*
X160631372Y-85050000D02*
X164500000Y-85050000D01*
X139350000Y-82050000D02*
X157631372Y-82050000D01*
%TO.N,/GPIO0*%
X160400000Y-84250000D02*
X164500000Y-84250000D01*
X157800000Y-81650000D02*
X160400000Y-84250000D01*
X139650000Y-81000000D02*
X140300000Y-81650000D01*
X140300000Y-81650000D02*
X157800000Y-81650000D01*
X138700000Y-81000000D02*
X139650000Y-81000000D01*
X173815000Y-102235000D02*
X173815000Y-100555000D01*
X173400000Y-102650000D02*
X173815000Y-102235000D01*
X171650000Y-102650000D02*
X173400000Y-102650000D01*
X171150000Y-102150000D02*
X171650000Y-102650000D01*
X169850000Y-99750000D02*
X171150000Y-101050000D01*
X155000000Y-94800000D02*
X160900000Y-94800000D01*
X140950000Y-96100000D02*
X153700000Y-96100000D01*
X137450000Y-82250000D02*
X137450000Y-92600000D01*
X171150000Y-101050000D02*
X171150000Y-102150000D01*
X160900000Y-94800000D02*
X165850000Y-99750000D01*
X165850000Y-99750000D02*
X169850000Y-99750000D01*
X137450000Y-92600000D02*
X140950000Y-96100000D01*
X153700000Y-96100000D02*
X155000000Y-94800000D01*
X138700000Y-81000000D02*
X137450000Y-82250000D01*
%TO.N,/LCD_BLK*%
X144550000Y-89600000D02*
X144550000Y-88850000D01*
X148550000Y-93600000D02*
X144550000Y-89600000D01*
X177000000Y-93600000D02*
X148550000Y-93600000D01*
%TO.N,/TP_RESET*%
X156650000Y-88050000D02*
X155450000Y-88050000D01*
X159700000Y-91100000D02*
X156650000Y-88050000D01*
X163200000Y-91100000D02*
X159700000Y-91100000D01*
X164700000Y-92600000D02*
X163200000Y-91100000D01*
X176500000Y-92600000D02*
X164700000Y-92600000D01*
X177600000Y-91500000D02*
X176500000Y-92600000D01*
X177600000Y-87550000D02*
X177600000Y-91500000D01*
X175500000Y-85450000D02*
X177600000Y-87550000D01*
X174250000Y-82050000D02*
X174250000Y-84550000D01*
X174250000Y-84550000D02*
X175150000Y-85450000D01*
X174550000Y-81750000D02*
X174250000Y-82050000D01*
X174550000Y-80700000D02*
X174550000Y-81750000D01*
X174000000Y-80150000D02*
X174550000Y-80700000D01*
X175150000Y-85450000D02*
X175500000Y-85450000D01*
%TO.N,/LCD_D7*%
X156700000Y-87450000D02*
X155988140Y-87450000D01*
X165400000Y-90650000D02*
X159900000Y-90650000D01*
X159900000Y-90650000D02*
X156700000Y-87450000D01*
X176250000Y-92200000D02*
X166950000Y-92200000D01*
X166950000Y-92200000D02*
X165400000Y-90650000D01*
X177100000Y-88085785D02*
X177100000Y-91350000D01*
X175914215Y-86900000D02*
X177100000Y-88085785D01*
X177100000Y-91350000D02*
X176250000Y-92200000D01*
X175850000Y-86900000D02*
X175914215Y-86900000D01*
%TO.N,/LCD_D6*%
X156400000Y-86900000D02*
X155800000Y-86300000D01*
X156800000Y-86900000D02*
X156400000Y-86900000D01*
X160150000Y-90250000D02*
X156800000Y-86900000D01*
X165700000Y-90250000D02*
X160150000Y-90250000D01*
X175950000Y-91800000D02*
X167250000Y-91800000D01*
X176650000Y-91100000D02*
X175950000Y-91800000D01*
X176650000Y-88201471D02*
X176650000Y-91100000D01*
X175950000Y-87850000D02*
X176298529Y-87850000D01*
X175037935Y-86937935D02*
X175950000Y-87850000D01*
X176298529Y-87850000D02*
X176650000Y-88201471D01*
X174838815Y-86937935D02*
X175037935Y-86937935D01*
X167250000Y-91800000D02*
X165700000Y-90250000D01*
%TO.N,/I2C_SCL*%
X157740467Y-79699997D02*
X157600000Y-79699997D01*
X158390470Y-80350000D02*
X157740467Y-79699997D01*
X171500000Y-78700000D02*
X169850000Y-80350000D01*
X169850000Y-80350000D02*
X158390470Y-80350000D01*
%TO.N,/I2C_SCK*%
X171500000Y-77800000D02*
X169400000Y-79900000D01*
X169400000Y-79900000D02*
X158788999Y-79900000D01*
X158788999Y-79900000D02*
X158369222Y-79480223D01*
%TO.N,/TP_INT*%
X159468431Y-79450000D02*
X158900811Y-78882380D01*
X168998529Y-79450000D02*
X159468431Y-79450000D01*
X169400000Y-79048529D02*
X168998529Y-79450000D01*
X169400000Y-79000000D02*
X169400000Y-79048529D01*
X171500000Y-76900000D02*
X169400000Y-79000000D01*
X171500000Y-76850000D02*
X171500000Y-76900000D01*
%TO.N,/P_TX*%
X175100000Y-98250000D02*
X175100000Y-97500000D01*
X175100000Y-97500000D02*
X175750000Y-96850000D01*
%TO.N,/P_RX*%
X173800000Y-98250000D02*
X173800000Y-97400000D01*
X173800000Y-97400000D02*
X173250000Y-96850000D01*
%TO.N,/GPIO2*%
X164600000Y-70100000D02*
X164600000Y-66000000D01*
X162950000Y-71750000D02*
X164600000Y-70100000D01*
X162950000Y-75000000D02*
X162950000Y-71750000D01*
X163000000Y-75050000D02*
X162950000Y-75000000D01*
%TO.N,/P_RX*%
X173815000Y-98265000D02*
X173800000Y-98250000D01*
X173815000Y-99285000D02*
X173815000Y-98265000D01*
%TO.N,/P_TX*%
X175085000Y-98265000D02*
X175100000Y-98250000D01*
X175085000Y-99285000D02*
X175085000Y-98265000D01*
%TO.N,/3V3*%
X176350000Y-100560000D02*
X176355000Y-100555000D01*
X176350000Y-101600000D02*
X176350000Y-100560000D01*
%TO.N,GND*%
X175085000Y-101585000D02*
X175100000Y-101600000D01*
X175085000Y-100555000D02*
X175085000Y-101585000D01*
X161100000Y-97900000D02*
X159650000Y-97900000D01*
X142750000Y-97950000D02*
X141400000Y-97950000D01*
%TO.N,/UI1*%
X151250000Y-101150000D02*
X151250000Y-102450000D01*
%TO.N,/UI2*%
X169600000Y-100900000D02*
X169600000Y-102450000D01*
%TO.N,/SPI_CS*%
X177365686Y-81450000D02*
X182950000Y-81450000D01*
X175739951Y-83075735D02*
X177365686Y-81450000D01*
%TO.N,/SPI_Q*%
X175574265Y-84275735D02*
X175924265Y-84275735D01*
X177500000Y-82700000D02*
X182950000Y-82700000D01*
X175924265Y-84275735D02*
X177500000Y-82700000D01*
%TO.N,/SPI_WP*%
X175275735Y-84875735D02*
X174700000Y-84300000D01*
X176524265Y-84875735D02*
X175275735Y-84875735D01*
X182950000Y-84000000D02*
X177400000Y-84000000D01*
X174700000Y-84300000D02*
X174700000Y-82933620D01*
X174700000Y-82933620D02*
X175284597Y-82349023D01*
X177400000Y-84000000D02*
X176524265Y-84875735D01*
%TO.N,/LCD_D5*%
X156600000Y-85600000D02*
X159150000Y-88150000D01*
X165350000Y-88150000D02*
X167546804Y-90346804D01*
X167546804Y-90346804D02*
X169591469Y-90346804D01*
X159150000Y-88150000D02*
X165350000Y-88150000D01*
X156400000Y-85600000D02*
X156600000Y-85600000D01*
%TO.N,/LCD_WR*%
X165200000Y-77600000D02*
X165250000Y-77550000D01*
X158284314Y-77600000D02*
X165200000Y-77600000D01*
X155874265Y-78874265D02*
X157010049Y-78874265D01*
X157010049Y-78874265D02*
X158284314Y-77600000D01*
%TO.N,/LCD_D2*%
X170700000Y-88000000D02*
X173217157Y-90517157D01*
X156750000Y-82650000D02*
X158300000Y-84200000D01*
X173217157Y-90517157D02*
X173217157Y-90832843D01*
X159215686Y-84200000D02*
X161165686Y-86150000D01*
X168065686Y-88000000D02*
X170700000Y-88000000D01*
X161165686Y-86150000D02*
X166215686Y-86150000D01*
X166215686Y-86150000D02*
X168065686Y-88000000D01*
X158300000Y-84200000D02*
X159215686Y-84200000D01*
%TO.N,/LCD_D3*%
X159050000Y-84600000D02*
X157500000Y-84600000D01*
X157500000Y-84600000D02*
X156450000Y-83550000D01*
X172400000Y-91200000D02*
X172400000Y-90500000D01*
X172400000Y-90500000D02*
X170400000Y-88500000D01*
X161000000Y-86550000D02*
X159050000Y-84600000D01*
X170400000Y-88500000D02*
X168000000Y-88500000D01*
X168000000Y-88500000D02*
X166050000Y-86550000D01*
X166050000Y-86550000D02*
X161000000Y-86550000D01*
%TO.N,/LCD_D4*%
X169839998Y-89746804D02*
X170191469Y-90098275D01*
X155607108Y-83292892D02*
X155607108Y-83600000D01*
X167512490Y-89746804D02*
X169839998Y-89746804D01*
X159315686Y-87750000D02*
X165515686Y-87750000D01*
X157450000Y-85442892D02*
X157450000Y-85884314D01*
X170191469Y-90098275D02*
X170191469Y-90906468D01*
X165515686Y-87750000D02*
X167512490Y-89746804D01*
X155607108Y-83600000D02*
X157450000Y-85442892D01*
X157450000Y-85884314D02*
X159315686Y-87750000D01*
%TO.N,/LCD_CS*%
X158250000Y-76400000D02*
X164050000Y-76400000D01*
X157200000Y-77450000D02*
X158250000Y-76400000D01*
X155750000Y-77450000D02*
X157200000Y-77450000D01*
%TO.N,/LCD_D0*%
X171100000Y-87100000D02*
X172099264Y-88099264D01*
X155800000Y-80350000D02*
X157650000Y-80350000D01*
X165850000Y-83934314D02*
X165850000Y-84600000D01*
X160500000Y-83200000D02*
X165115686Y-83200000D01*
X157650000Y-80350000D02*
X160500000Y-83200000D01*
X165850000Y-84600000D02*
X168350000Y-87100000D01*
X172099264Y-88099264D02*
X175299264Y-88099264D01*
X165115686Y-83200000D02*
X165850000Y-83934314D01*
X168350000Y-87100000D02*
X171100000Y-87100000D01*
%TO.N,/LCD_DC*%
X156250000Y-78100000D02*
X157150000Y-78100000D01*
X158250000Y-77000000D02*
X164650000Y-77000000D01*
X157150000Y-78100000D02*
X158250000Y-77000000D01*
%TO.N,/LCD_RD*%
X158300000Y-78150000D02*
X165790765Y-78150000D01*
X156900000Y-79550000D02*
X158300000Y-78150000D01*
X165790765Y-78150000D02*
X165825078Y-78115687D01*
X156450000Y-79550000D02*
X156900000Y-79550000D01*
%TO.N,/LCD_D1*%
X170900000Y-87600000D02*
X172223529Y-88923529D01*
X165450000Y-84818628D02*
X168231372Y-87600000D01*
X168231372Y-87600000D02*
X170900000Y-87600000D01*
X157715686Y-81000000D02*
X160365686Y-83650000D01*
X172223529Y-88923529D02*
X175323529Y-88923529D01*
X165000000Y-83650000D02*
X165450000Y-84100000D01*
X165450000Y-84100000D02*
X165450000Y-84818628D01*
X160365686Y-83650000D02*
X165000000Y-83650000D01*
X156400000Y-81000000D02*
X157715686Y-81000000D01*
%TO.N,/LCD_RES*%
X157300000Y-76700000D02*
X158200000Y-75800000D01*
X156200000Y-76700000D02*
X157300000Y-76700000D01*
X158200000Y-75800000D02*
X163450000Y-75800000D01*
%TO.N,/GPIO1*%
X162060000Y-74960000D02*
X162060000Y-66000000D01*
X162150000Y-75050000D02*
X162060000Y-74960000D01*
%TD*%
D24*
X132573000Y-104000000D02*
G75*
G02*
X129573000Y-101000000I0J3000000D01*
G01*
X184000000Y-62000000D02*
X132573000Y-62000000D01*
X187000000Y-101000000D02*
G75*
G02*
X184000000Y-104000000I-3000000J0D01*
G01*
X132573000Y-104000000D02*
X184000000Y-104000000D01*
X184000000Y-76500000D02*
G75*
G02*
X185500000Y-75000000I1500000J0D01*
G01*
X184000000Y-62000000D02*
G75*
G02*
X187000000Y-65000000I0J-3000000D01*
G01*
X187000000Y-73500000D02*
X187000000Y-65000000D01*
X187000000Y-95500000D02*
X187000000Y-101000000D01*
X129573000Y-65000000D02*
X129573000Y-101000000D01*
X184000000Y-76500000D02*
X184000000Y-92500000D01*
X129573000Y-65000000D02*
G75*
G02*
X132573000Y-62000000I3000000J0D01*
G01*
X185500000Y-94000000D02*
G75*
G02*
X184000000Y-92500000I0J1500000D01*
G01*
X187000000Y-73500000D02*
G75*
G02*
X185500000Y-75000000I-1500000J0D01*
G01*
X185500000Y-94000000D02*
G75*
G02*
X187000000Y-95500000I0J-1500000D01*
G01*
M02*
