%TF.GenerationSoftware,KiCad,Pcbnew,8.0.1-rc1*%
%TF.CreationDate,2024-04-16T22:30:49-06:00*%
%TF.ProjectId,bitaxe-ESP-OLED,62697461-7865-42d4-9553-502d4f4c4544,rev?*%
%TF.SameCoordinates,Original*%
%TF.FileFunction,Copper,L3,Inr*%
%TF.FilePolarity,Positive*%
%FSLAX46Y46*%
G04 Gerber Fmt 4.6, Leading zero omitted, Abs format (unit mm)*
G04 Created by KiCad (PCBNEW 8.0.1-rc1) date 2024-04-16 22:30:49*
%MOMM*%
%LPD*%
G01*
G04 APERTURE LIST*
%TA.AperFunction,ComponentPad*%
%ADD10C,0.800000*%
%TD*%
%TA.AperFunction,ComponentPad*%
%ADD11C,6.400000*%
%TD*%
%TA.AperFunction,ComponentPad*%
%ADD12O,1.000000X1.800000*%
%TD*%
%TA.AperFunction,ComponentPad*%
%ADD13O,1.000000X2.100000*%
%TD*%
%TA.AperFunction,HeatsinkPad*%
%ADD14C,0.500000*%
%TD*%
%TA.AperFunction,ComponentPad*%
%ADD15R,1.700000X1.700000*%
%TD*%
%TA.AperFunction,ComponentPad*%
%ADD16O,1.700000X1.700000*%
%TD*%
%TA.AperFunction,ViaPad*%
%ADD17C,0.600000*%
%TD*%
%TA.AperFunction,ViaPad*%
%ADD18C,1.000000*%
%TD*%
%TA.AperFunction,Profile*%
%ADD19C,0.100000*%
%TD*%
G04 APERTURE END LIST*
D10*
%TO.N,N/C*%
%TO.C,H1*%
X131173000Y-66000000D03*
X131875944Y-64302944D03*
X131875944Y-67697056D03*
X133573000Y-63600000D03*
D11*
X133573000Y-66000000D03*
D10*
X133573000Y-68400000D03*
X135270056Y-64302944D03*
X135270056Y-67697056D03*
X135973000Y-66000000D03*
%TD*%
%TO.N,N/C*%
%TO.C,H3*%
X131173000Y-100000000D03*
X131875944Y-98302944D03*
X131875944Y-101697056D03*
X133573000Y-97600000D03*
D11*
X133573000Y-100000000D03*
D10*
X133573000Y-102400000D03*
X135270056Y-98302944D03*
X135270056Y-101697056D03*
X135973000Y-100000000D03*
%TD*%
%TO.N,N/C*%
%TO.C,H2*%
X180600000Y-66000000D03*
X181302944Y-64302944D03*
X181302944Y-67697056D03*
X183000000Y-63600000D03*
D11*
X183000000Y-66000000D03*
D10*
X183000000Y-68400000D03*
X184697056Y-64302944D03*
X184697056Y-67697056D03*
X185400000Y-66000000D03*
%TD*%
%TO.N,N/C*%
%TO.C,H4*%
X180600000Y-100000000D03*
X181302944Y-98302944D03*
X181302944Y-101697056D03*
X183000000Y-97600000D03*
D11*
X183000000Y-100000000D03*
D10*
X183000000Y-102400000D03*
X184697056Y-98302944D03*
X184697056Y-101697056D03*
X185400000Y-100000000D03*
%TD*%
D12*
%TO.N,GND*%
%TO.C,J2*%
X168780000Y-64625000D03*
D13*
X168780000Y-68805000D03*
D12*
X177420000Y-64625000D03*
D13*
X177420000Y-68805000D03*
%TD*%
D14*
%TO.N,GND*%
%TO.C,U2*%
X168500000Y-82550000D03*
X168500000Y-84300000D03*
X168500000Y-86050000D03*
X170250000Y-82550000D03*
X170250000Y-84300000D03*
X170250000Y-86050000D03*
X172000000Y-82550000D03*
X172000000Y-84300000D03*
X172000000Y-86050000D03*
%TD*%
D15*
%TO.N,/5V_BAP*%
%TO.C,J1*%
X151900000Y-66000000D03*
D16*
%TO.N,GND*%
X154440000Y-66000000D03*
%TO.N,/BAP_TX*%
X156980000Y-66000000D03*
%TO.N,/BAP_RX*%
X159520000Y-66000000D03*
%TO.N,/GPIO1*%
X162060000Y-66000000D03*
%TO.N,/GPIO2*%
X164600000Y-66000000D03*
%TD*%
D17*
%TO.N,/LCD_BLK*%
X144550000Y-88850000D03*
X177000000Y-93600000D03*
%TO.N,/TP_RESET*%
X174000000Y-80150000D03*
%TO.N,/BAP_RX*%
X164650000Y-72750000D03*
%TO.N,/BAP_TX*%
X163800000Y-73350000D03*
X165200000Y-76300000D03*
%TO.N,/BAP_RX*%
X166300000Y-76300000D03*
%TO.N,/P_RX*%
X173800000Y-98250000D03*
%TO.N,/P_TX*%
X175100000Y-98250000D03*
%TO.N,/3V3*%
X176350000Y-101600000D03*
%TO.N,GND*%
X175100000Y-101600000D03*
X134700000Y-79600000D03*
X150600000Y-77250000D03*
X164815000Y-94900000D03*
D18*
X145200000Y-72400000D03*
D17*
X169700000Y-77200000D03*
X151800000Y-88050000D03*
X155750000Y-99000000D03*
X171650000Y-94670000D03*
X159650000Y-97900000D03*
X141400000Y-97950000D03*
D18*
X140250000Y-72500000D03*
X142700000Y-66550000D03*
D17*
X133800000Y-75350000D03*
X174850000Y-73900000D03*
X171850000Y-73900000D03*
X151950000Y-80250000D03*
X182900000Y-85250000D03*
X144650000Y-87850000D03*
D18*
X156850000Y-74700000D03*
D17*
X176250000Y-79650000D03*
X168400000Y-91200000D03*
X133800000Y-90350000D03*
X151650000Y-75350000D03*
D18*
X175550000Y-90950000D03*
X160700000Y-89200000D03*
D17*
X133800000Y-87900000D03*
D18*
X156850000Y-91350000D03*
D17*
X150600000Y-83750000D03*
D18*
X161450000Y-82150000D03*
D17*
X151900000Y-90600000D03*
D18*
%TO.N,/VBUS*%
X176300000Y-71450000D03*
X169900000Y-71450000D03*
X155850000Y-69550000D03*
D17*
%TO.N,/RESET*%
X164500000Y-85050000D03*
X139350000Y-82050000D03*
%TO.N,/UI1*%
X151250000Y-101150000D03*
%TO.N,/UI2*%
X169600000Y-100900000D03*
%TO.N,/3V3*%
X137200000Y-76700000D03*
X155220000Y-102500000D03*
D18*
X162850000Y-82100000D03*
X174250000Y-91000000D03*
X165005971Y-88950000D03*
D17*
X150600000Y-84700000D03*
D18*
X144650000Y-77900000D03*
D17*
X150550000Y-76250000D03*
X156250000Y-95450000D03*
D18*
X143500000Y-77900000D03*
D17*
X135250000Y-87200000D03*
D18*
X164900000Y-91450000D03*
D17*
X147300000Y-94550000D03*
X168800000Y-78800000D03*
%TO.N,/GPIO0*%
X164500000Y-84250000D03*
X138700000Y-81000000D03*
%TO.N,/I2C_SCL*%
X157600000Y-79699997D03*
X171500000Y-78700000D03*
%TO.N,/I2C_SCK*%
X158369222Y-79480223D03*
X171500000Y-77800000D03*
%TO.N,/TP_INT*%
X158900811Y-78882380D03*
X171500000Y-76850000D03*
%TO.N,/SPI_CS*%
X175739951Y-83075735D03*
X182950000Y-81450000D03*
%TO.N,/SPI_Q*%
X182950000Y-82700000D03*
X175574265Y-84275735D03*
%TO.N,/SPI_WP*%
X175284597Y-82349023D03*
X182950000Y-84000000D03*
%TO.N,/LCD_D5*%
X169591469Y-90346804D03*
X156400000Y-85600000D03*
%TO.N,/LCD_WR*%
X165250000Y-77550000D03*
X155874265Y-78874265D03*
%TO.N,/LCD_D2*%
X156750000Y-82650000D03*
X173217157Y-90832843D03*
%TO.N,/LCD_D3*%
X156450000Y-83550000D03*
X172400000Y-91200000D03*
%TO.N,/LCD_D4*%
X170191469Y-90906468D03*
X155607108Y-83292892D03*
%TO.N,/LCD_CS*%
X164050000Y-76400000D03*
X155750000Y-77450000D03*
%TO.N,/LCD_D0*%
X155800000Y-80350000D03*
X175299264Y-88099264D03*
%TO.N,/LCD_D6*%
X174838815Y-86937935D03*
X155800000Y-86300000D03*
%TO.N,/TP_RESET*%
X155450000Y-88050000D03*
%TO.N,/LCD_DC*%
X156250000Y-78100000D03*
X164650000Y-77000000D03*
%TO.N,/LCD_RD*%
X156450000Y-79550000D03*
X165825078Y-78115687D03*
%TO.N,/LCD_D1*%
X175323529Y-88923529D03*
X156400000Y-81000000D03*
%TO.N,/LCD_D7*%
X155988140Y-87450000D03*
X175850000Y-86900000D03*
%TO.N,/LCD_RES*%
X163450000Y-75800000D03*
X156200000Y-76700000D03*
%TO.N,/GPIO2*%
X163000000Y-75050000D03*
%TO.N,/GPIO1*%
X162150000Y-75050000D03*
%TD*%
%TA.AperFunction,Conductor*%
%TO.N,GND*%
G36*
X177715808Y-62528428D02*
G01*
X177736329Y-62544919D01*
X178643434Y-63448248D01*
X179579048Y-64379968D01*
X179612661Y-64441221D01*
X179607822Y-64510923D01*
X179607314Y-64512270D01*
X179475788Y-64854905D01*
X179375397Y-65229570D01*
X179375397Y-65229572D01*
X179314722Y-65612660D01*
X179294422Y-65999999D01*
X179294422Y-66000000D01*
X179314722Y-66387339D01*
X179326811Y-66463664D01*
X179375398Y-66770433D01*
X179411312Y-66904468D01*
X179475788Y-67145094D01*
X179614787Y-67507197D01*
X179790877Y-67852793D01*
X180002122Y-68178082D01*
X180002124Y-68178084D01*
X180246219Y-68479516D01*
X180520484Y-68753781D01*
X180662774Y-68869005D01*
X180821917Y-68997877D01*
X181147206Y-69209122D01*
X181147211Y-69209125D01*
X181492806Y-69385214D01*
X181854913Y-69524214D01*
X182229567Y-69624602D01*
X182612662Y-69685278D01*
X182978576Y-69704455D01*
X182999999Y-69705578D01*
X183000000Y-69705578D01*
X183000001Y-69705578D01*
X183020301Y-69704514D01*
X183387338Y-69685278D01*
X183770433Y-69624602D01*
X184145087Y-69524214D01*
X184458805Y-69403788D01*
X184528443Y-69398141D01*
X184590082Y-69431041D01*
X184591293Y-69432246D01*
X185614053Y-70463746D01*
X185647277Y-70525211D01*
X185650000Y-70551053D01*
X185650000Y-73251299D01*
X185630315Y-73318338D01*
X185613622Y-73339040D01*
X183650000Y-75300000D01*
X183650000Y-75714072D01*
X183640561Y-75761525D01*
X183601608Y-75855565D01*
X183601602Y-75855581D01*
X183533730Y-76108884D01*
X183532168Y-76120750D01*
X183499500Y-76368872D01*
X183499500Y-80625503D01*
X183479815Y-80692542D01*
X183427011Y-80738297D01*
X183357853Y-80748241D01*
X183309532Y-80730499D01*
X183299526Y-80724212D01*
X183129254Y-80664631D01*
X183129249Y-80664630D01*
X182950004Y-80644435D01*
X182949996Y-80644435D01*
X182770750Y-80664630D01*
X182770745Y-80664631D01*
X182600476Y-80724211D01*
X182447737Y-80820184D01*
X182320184Y-80947737D01*
X182224211Y-81100476D01*
X182164631Y-81270745D01*
X182164630Y-81270750D01*
X182144435Y-81449996D01*
X182144435Y-81450003D01*
X182164630Y-81629249D01*
X182164631Y-81629254D01*
X182224211Y-81799523D01*
X182320184Y-81952262D01*
X182355241Y-81987319D01*
X182388726Y-82048642D01*
X182383742Y-82118334D01*
X182355241Y-82162681D01*
X182320184Y-82197737D01*
X182224211Y-82350476D01*
X182164631Y-82520745D01*
X182164630Y-82520750D01*
X182144435Y-82699996D01*
X182144435Y-82700003D01*
X182164630Y-82879249D01*
X182164631Y-82879254D01*
X182224211Y-83049523D01*
X182320184Y-83202262D01*
X182380241Y-83262319D01*
X182413726Y-83323642D01*
X182408742Y-83393334D01*
X182380241Y-83437681D01*
X182320184Y-83497737D01*
X182224211Y-83650476D01*
X182164631Y-83820745D01*
X182164630Y-83820750D01*
X182144435Y-83999996D01*
X182144435Y-84000003D01*
X182164630Y-84179249D01*
X182164631Y-84179254D01*
X182224211Y-84349523D01*
X182290477Y-84454984D01*
X182320184Y-84502262D01*
X182447738Y-84629816D01*
X182503962Y-84665144D01*
X182549736Y-84693906D01*
X182600478Y-84725789D01*
X182738649Y-84774137D01*
X182770745Y-84785368D01*
X182770750Y-84785369D01*
X182949996Y-84805565D01*
X182950000Y-84805565D01*
X182950004Y-84805565D01*
X183129249Y-84785369D01*
X183129252Y-84785368D01*
X183129255Y-84785368D01*
X183299522Y-84725789D01*
X183299524Y-84725788D01*
X183309527Y-84719503D01*
X183376764Y-84700502D01*
X183443599Y-84720869D01*
X183488814Y-84774137D01*
X183499500Y-84824496D01*
X183499500Y-92631127D01*
X183521001Y-92794435D01*
X183533730Y-92891116D01*
X183554916Y-92970184D01*
X183601601Y-93144417D01*
X183640561Y-93238473D01*
X183650000Y-93285926D01*
X183650000Y-94000000D01*
X185263681Y-95613681D01*
X185297166Y-95675004D01*
X185300000Y-95701362D01*
X185300000Y-96852917D01*
X185280315Y-96919956D01*
X185227511Y-96965711D01*
X185158353Y-96975655D01*
X185108465Y-96956912D01*
X184852793Y-96790877D01*
X184507197Y-96614787D01*
X184145094Y-96475788D01*
X184145087Y-96475786D01*
X183770433Y-96375398D01*
X183770429Y-96375397D01*
X183770428Y-96375397D01*
X183387339Y-96314722D01*
X183000001Y-96294422D01*
X182999999Y-96294422D01*
X182612660Y-96314722D01*
X182229572Y-96375397D01*
X182229570Y-96375397D01*
X181854905Y-96475788D01*
X181492802Y-96614787D01*
X181147206Y-96790877D01*
X180821917Y-97002122D01*
X180520488Y-97246215D01*
X180520480Y-97246222D01*
X180246222Y-97520480D01*
X180246215Y-97520488D01*
X180002122Y-97821917D01*
X179790877Y-98147206D01*
X179614787Y-98492802D01*
X179475788Y-98854905D01*
X179375397Y-99229570D01*
X179375397Y-99229572D01*
X179314722Y-99612660D01*
X179294422Y-99999999D01*
X179294422Y-100000000D01*
X179314722Y-100387339D01*
X179367166Y-100718458D01*
X179375398Y-100770433D01*
X179458146Y-101079255D01*
X179475788Y-101145094D01*
X179614787Y-101507197D01*
X179790877Y-101852793D01*
X179990796Y-102160642D01*
X180010800Y-102227587D01*
X179991434Y-102294719D01*
X179974813Y-102315527D01*
X178836118Y-103462850D01*
X178774921Y-103496566D01*
X178748106Y-103499500D01*
X155517114Y-103499500D01*
X155450075Y-103479815D01*
X155404320Y-103427011D01*
X155394376Y-103357853D01*
X155423401Y-103294297D01*
X155476160Y-103258458D01*
X155512531Y-103245730D01*
X155569522Y-103225789D01*
X155722262Y-103129816D01*
X155849816Y-103002262D01*
X155945789Y-102849522D01*
X156005368Y-102679255D01*
X156025565Y-102500000D01*
X156019253Y-102443980D01*
X156005369Y-102320750D01*
X156005368Y-102320745D01*
X155996261Y-102294719D01*
X155945789Y-102150478D01*
X155849816Y-101997738D01*
X155722262Y-101870184D01*
X155569523Y-101774211D01*
X155399254Y-101714631D01*
X155399249Y-101714630D01*
X155220004Y-101694435D01*
X155219996Y-101694435D01*
X155040750Y-101714630D01*
X155040745Y-101714631D01*
X154870476Y-101774211D01*
X154717737Y-101870184D01*
X154590184Y-101997737D01*
X154494211Y-102150476D01*
X154434631Y-102320745D01*
X154434630Y-102320750D01*
X154414435Y-102499996D01*
X154414435Y-102500003D01*
X154434630Y-102679249D01*
X154434631Y-102679254D01*
X154494211Y-102849523D01*
X154587428Y-102997876D01*
X154590184Y-103002262D01*
X154717738Y-103129816D01*
X154850438Y-103213197D01*
X154870478Y-103225789D01*
X154963840Y-103258458D01*
X155020617Y-103299180D01*
X155046364Y-103364133D01*
X155032908Y-103432694D01*
X154984521Y-103483097D01*
X154922886Y-103499500D01*
X137510978Y-103499500D01*
X137443939Y-103479815D01*
X137423980Y-103463859D01*
X136450216Y-102505042D01*
X136416258Y-102443980D01*
X136420704Y-102374252D01*
X136440848Y-102338654D01*
X136570876Y-102178084D01*
X136782125Y-101852789D01*
X136958214Y-101507194D01*
X137095327Y-101150003D01*
X150444435Y-101150003D01*
X150464630Y-101329249D01*
X150464631Y-101329254D01*
X150524211Y-101499523D01*
X150587347Y-101600003D01*
X150620184Y-101652262D01*
X150747738Y-101779816D01*
X150838080Y-101836582D01*
X150891557Y-101870184D01*
X150900478Y-101875789D01*
X150930617Y-101886335D01*
X151070745Y-101935368D01*
X151070750Y-101935369D01*
X151249996Y-101955565D01*
X151250000Y-101955565D01*
X151250004Y-101955565D01*
X151429249Y-101935369D01*
X151429252Y-101935368D01*
X151429255Y-101935368D01*
X151599522Y-101875789D01*
X151752262Y-101779816D01*
X151879816Y-101652262D01*
X151975789Y-101499522D01*
X152035368Y-101329255D01*
X152039873Y-101289275D01*
X152055565Y-101150003D01*
X152055565Y-101149996D01*
X152035369Y-100970750D01*
X152035368Y-100970745D01*
X152010614Y-100900003D01*
X168794435Y-100900003D01*
X168814630Y-101079249D01*
X168814631Y-101079254D01*
X168874211Y-101249523D01*
X168970184Y-101402262D01*
X169097738Y-101529816D01*
X169250478Y-101625789D01*
X169328637Y-101653138D01*
X169420745Y-101685368D01*
X169420750Y-101685369D01*
X169599996Y-101705565D01*
X169600000Y-101705565D01*
X169600004Y-101705565D01*
X169779249Y-101685369D01*
X169779252Y-101685368D01*
X169779255Y-101685368D01*
X169949522Y-101625789D01*
X170102262Y-101529816D01*
X170229816Y-101402262D01*
X170325789Y-101249522D01*
X170385368Y-101079255D01*
X170393232Y-101009459D01*
X171799200Y-101009459D01*
X171827858Y-101153534D01*
X171827861Y-101153544D01*
X171884078Y-101289266D01*
X171884083Y-101289275D01*
X171965698Y-101411419D01*
X171965701Y-101411423D01*
X172069576Y-101515298D01*
X172069580Y-101515301D01*
X172191724Y-101596916D01*
X172191733Y-101596921D01*
X172199174Y-101600003D01*
X172327458Y-101653140D01*
X172471540Y-101681799D01*
X172471544Y-101681800D01*
X172471545Y-101681800D01*
X172618456Y-101681800D01*
X172618457Y-101681799D01*
X172762542Y-101653140D01*
X172890826Y-101600003D01*
X175544435Y-101600003D01*
X175564630Y-101779249D01*
X175564631Y-101779254D01*
X175624211Y-101949523D01*
X175654507Y-101997738D01*
X175720184Y-102102262D01*
X175847738Y-102229816D01*
X175938080Y-102286582D01*
X175992450Y-102320745D01*
X176000478Y-102325789D01*
X176037233Y-102338650D01*
X176170745Y-102385368D01*
X176170750Y-102385369D01*
X176349996Y-102405565D01*
X176350000Y-102405565D01*
X176350004Y-102405565D01*
X176529249Y-102385369D01*
X176529252Y-102385368D01*
X176529255Y-102385368D01*
X176699522Y-102325789D01*
X176852262Y-102229816D01*
X176979816Y-102102262D01*
X177075789Y-101949522D01*
X177135368Y-101779255D01*
X177135369Y-101779249D01*
X177155565Y-101600003D01*
X177155565Y-101599996D01*
X177135369Y-101420750D01*
X177135368Y-101420745D01*
X177132105Y-101411419D01*
X177075789Y-101250478D01*
X177075188Y-101249522D01*
X176979815Y-101097737D01*
X176852262Y-100970184D01*
X176699523Y-100874211D01*
X176529254Y-100814631D01*
X176529249Y-100814630D01*
X176350004Y-100794435D01*
X176349996Y-100794435D01*
X176170750Y-100814630D01*
X176170745Y-100814631D01*
X176000476Y-100874211D01*
X175847737Y-100970184D01*
X175720184Y-101097737D01*
X175624211Y-101250476D01*
X175564631Y-101420745D01*
X175564630Y-101420750D01*
X175544435Y-101599996D01*
X175544435Y-101600003D01*
X172890826Y-101600003D01*
X172898269Y-101596920D01*
X173020420Y-101515301D01*
X173124301Y-101411420D01*
X173205920Y-101289269D01*
X173262140Y-101153542D01*
X173290800Y-101009455D01*
X173290800Y-100862545D01*
X173262140Y-100718458D01*
X173205920Y-100582731D01*
X173205919Y-100582730D01*
X173205916Y-100582724D01*
X173124301Y-100460580D01*
X173124298Y-100460576D01*
X173020423Y-100356701D01*
X173020419Y-100356698D01*
X172898275Y-100275083D01*
X172898266Y-100275078D01*
X172762544Y-100218861D01*
X172762545Y-100218861D01*
X172762542Y-100218860D01*
X172762538Y-100218859D01*
X172762534Y-100218858D01*
X172618459Y-100190200D01*
X172618455Y-100190200D01*
X172471545Y-100190200D01*
X172471540Y-100190200D01*
X172327465Y-100218858D01*
X172327455Y-100218861D01*
X172191733Y-100275078D01*
X172191724Y-100275083D01*
X172069580Y-100356698D01*
X172069576Y-100356701D01*
X171965701Y-100460576D01*
X171965698Y-100460580D01*
X171884083Y-100582724D01*
X171884078Y-100582733D01*
X171827861Y-100718455D01*
X171827858Y-100718465D01*
X171799200Y-100862540D01*
X171799200Y-101009459D01*
X170393232Y-101009459D01*
X170405565Y-100900003D01*
X170405565Y-100899996D01*
X170385369Y-100720750D01*
X170385368Y-100720745D01*
X170366142Y-100665800D01*
X170325789Y-100550478D01*
X170229816Y-100397738D01*
X170102262Y-100270184D01*
X169949523Y-100174211D01*
X169779254Y-100114631D01*
X169779249Y-100114630D01*
X169600004Y-100094435D01*
X169599996Y-100094435D01*
X169420750Y-100114630D01*
X169420745Y-100114631D01*
X169250476Y-100174211D01*
X169097737Y-100270184D01*
X168970184Y-100397737D01*
X168874211Y-100550476D01*
X168814631Y-100720745D01*
X168814630Y-100720750D01*
X168794435Y-100899996D01*
X168794435Y-100900003D01*
X152010614Y-100900003D01*
X151997505Y-100862540D01*
X151975789Y-100800478D01*
X151956910Y-100770433D01*
X151936582Y-100738080D01*
X151879816Y-100647738D01*
X151752262Y-100520184D01*
X151657397Y-100460576D01*
X151599523Y-100424211D01*
X151429254Y-100364631D01*
X151429249Y-100364630D01*
X151250004Y-100344435D01*
X151249996Y-100344435D01*
X151070750Y-100364630D01*
X151070745Y-100364631D01*
X150900476Y-100424211D01*
X150747737Y-100520184D01*
X150620184Y-100647737D01*
X150524211Y-100800476D01*
X150464631Y-100970745D01*
X150464630Y-100970750D01*
X150444435Y-101149996D01*
X150444435Y-101150003D01*
X137095327Y-101150003D01*
X137097214Y-101145087D01*
X137197602Y-100770433D01*
X137258278Y-100387338D01*
X137278578Y-100000000D01*
X137278235Y-99993459D01*
X176879200Y-99993459D01*
X176907858Y-100137534D01*
X176907861Y-100137544D01*
X176964078Y-100273266D01*
X176964083Y-100273275D01*
X177045698Y-100395419D01*
X177045701Y-100395423D01*
X177149576Y-100499298D01*
X177149580Y-100499301D01*
X177271724Y-100580916D01*
X177271730Y-100580919D01*
X177271731Y-100580920D01*
X177407458Y-100637140D01*
X177551540Y-100665799D01*
X177551544Y-100665800D01*
X177551545Y-100665800D01*
X177698456Y-100665800D01*
X177698457Y-100665799D01*
X177842542Y-100637140D01*
X177978269Y-100580920D01*
X178100420Y-100499301D01*
X178204301Y-100395420D01*
X178285920Y-100273269D01*
X178342140Y-100137542D01*
X178370800Y-99993455D01*
X178370800Y-99846545D01*
X178342140Y-99702458D01*
X178285920Y-99566731D01*
X178285919Y-99566730D01*
X178285916Y-99566724D01*
X178204301Y-99444580D01*
X178204298Y-99444576D01*
X178100423Y-99340701D01*
X178100419Y-99340698D01*
X177978275Y-99259083D01*
X177978266Y-99259078D01*
X177842544Y-99202861D01*
X177842545Y-99202861D01*
X177842542Y-99202860D01*
X177842538Y-99202859D01*
X177842534Y-99202858D01*
X177698459Y-99174200D01*
X177698455Y-99174200D01*
X177551545Y-99174200D01*
X177551540Y-99174200D01*
X177407465Y-99202858D01*
X177407455Y-99202861D01*
X177271733Y-99259078D01*
X177271724Y-99259083D01*
X177149580Y-99340698D01*
X177149576Y-99340701D01*
X177045701Y-99444576D01*
X177045698Y-99444580D01*
X176964083Y-99566724D01*
X176964078Y-99566733D01*
X176907861Y-99702455D01*
X176907858Y-99702465D01*
X176879200Y-99846540D01*
X176879200Y-99993459D01*
X137278235Y-99993459D01*
X137258278Y-99612662D01*
X137197602Y-99229567D01*
X137130050Y-98977459D01*
X171799200Y-98977459D01*
X171827858Y-99121534D01*
X171827861Y-99121544D01*
X171884078Y-99257266D01*
X171884083Y-99257275D01*
X171965698Y-99379419D01*
X171965701Y-99379423D01*
X172069576Y-99483298D01*
X172069580Y-99483301D01*
X172191724Y-99564916D01*
X172191730Y-99564919D01*
X172191731Y-99564920D01*
X172327458Y-99621140D01*
X172471540Y-99649799D01*
X172471544Y-99649800D01*
X172471545Y-99649800D01*
X172618456Y-99649800D01*
X172618457Y-99649799D01*
X172762542Y-99621140D01*
X172898269Y-99564920D01*
X173020420Y-99483301D01*
X173124301Y-99379420D01*
X173205920Y-99257269D01*
X173262140Y-99121542D01*
X173273838Y-99062728D01*
X173306222Y-99000820D01*
X173366937Y-98966245D01*
X173436707Y-98969984D01*
X173449264Y-98975204D01*
X173450471Y-98975784D01*
X173450478Y-98975789D01*
X173620745Y-99035368D01*
X173620750Y-99035369D01*
X173799996Y-99055565D01*
X173800000Y-99055565D01*
X173800004Y-99055565D01*
X173979249Y-99035369D01*
X173979252Y-99035368D01*
X173979255Y-99035368D01*
X174149522Y-98975789D01*
X174302262Y-98879816D01*
X174362319Y-98819759D01*
X174423642Y-98786274D01*
X174493334Y-98791258D01*
X174537681Y-98819759D01*
X174597738Y-98879816D01*
X174750478Y-98975789D01*
X174920745Y-99035368D01*
X174920750Y-99035369D01*
X175099996Y-99055565D01*
X175100000Y-99055565D01*
X175100004Y-99055565D01*
X175279249Y-99035369D01*
X175279252Y-99035368D01*
X175279255Y-99035368D01*
X175449522Y-98975789D01*
X175602262Y-98879816D01*
X175729816Y-98752262D01*
X175825789Y-98599522D01*
X175885368Y-98429255D01*
X175885445Y-98428576D01*
X175905565Y-98250003D01*
X175905565Y-98249996D01*
X175885369Y-98070750D01*
X175885368Y-98070745D01*
X175825788Y-97900476D01*
X175776425Y-97821916D01*
X175729816Y-97747738D01*
X175602262Y-97620184D01*
X175449523Y-97524211D01*
X175279254Y-97464631D01*
X175279249Y-97464630D01*
X175100004Y-97444435D01*
X175099996Y-97444435D01*
X174920750Y-97464630D01*
X174920745Y-97464631D01*
X174750476Y-97524211D01*
X174597737Y-97620184D01*
X174537681Y-97680241D01*
X174476358Y-97713726D01*
X174406666Y-97708742D01*
X174362319Y-97680241D01*
X174302262Y-97620184D01*
X174149523Y-97524211D01*
X173979254Y-97464631D01*
X173979249Y-97464630D01*
X173800004Y-97444435D01*
X173799996Y-97444435D01*
X173620750Y-97464630D01*
X173620745Y-97464631D01*
X173450476Y-97524211D01*
X173297737Y-97620184D01*
X173170184Y-97747737D01*
X173074211Y-97900476D01*
X173014631Y-98070745D01*
X173014630Y-98070749D01*
X173009339Y-98117714D01*
X172982272Y-98182128D01*
X172924677Y-98221683D01*
X172854840Y-98223820D01*
X172838667Y-98218391D01*
X172762548Y-98186862D01*
X172762544Y-98186860D01*
X172762542Y-98186860D01*
X172762538Y-98186859D01*
X172762534Y-98186858D01*
X172618459Y-98158200D01*
X172618455Y-98158200D01*
X172471545Y-98158200D01*
X172471540Y-98158200D01*
X172327465Y-98186858D01*
X172327455Y-98186861D01*
X172191733Y-98243078D01*
X172191729Y-98243081D01*
X172069580Y-98324698D01*
X172069576Y-98324701D01*
X171965701Y-98428576D01*
X171965698Y-98428580D01*
X171884083Y-98550724D01*
X171884078Y-98550733D01*
X171827861Y-98686455D01*
X171827858Y-98686465D01*
X171799200Y-98830540D01*
X171799200Y-98977459D01*
X137130050Y-98977459D01*
X137097214Y-98854913D01*
X136958214Y-98492806D01*
X136782125Y-98147211D01*
X136782122Y-98147206D01*
X136570877Y-97821917D01*
X136456150Y-97680241D01*
X136326781Y-97520484D01*
X136052516Y-97246219D01*
X135990887Y-97196313D01*
X135751082Y-97002122D01*
X135425793Y-96790877D01*
X135080197Y-96614787D01*
X134718094Y-96475788D01*
X134718087Y-96475786D01*
X134343433Y-96375398D01*
X134343429Y-96375397D01*
X134343428Y-96375397D01*
X133960339Y-96314722D01*
X133573001Y-96294422D01*
X133572999Y-96294422D01*
X133185660Y-96314722D01*
X132802572Y-96375397D01*
X132802570Y-96375397D01*
X132427905Y-96475788D01*
X132065802Y-96614787D01*
X131720206Y-96790877D01*
X131394918Y-97002122D01*
X131188318Y-97169422D01*
X131123831Y-97196313D01*
X131055042Y-97184070D01*
X131023283Y-97161412D01*
X130287000Y-96436432D01*
X130253041Y-96375370D01*
X130250000Y-96348075D01*
X130250000Y-95450003D01*
X155444435Y-95450003D01*
X155464630Y-95629249D01*
X155464631Y-95629254D01*
X155524211Y-95799523D01*
X155587660Y-95900500D01*
X155620184Y-95952262D01*
X155747738Y-96079816D01*
X155900478Y-96175789D01*
X156070745Y-96235368D01*
X156070750Y-96235369D01*
X156249996Y-96255565D01*
X156250000Y-96255565D01*
X156250004Y-96255565D01*
X156429249Y-96235369D01*
X156429252Y-96235368D01*
X156429255Y-96235368D01*
X156599522Y-96175789D01*
X156752262Y-96079816D01*
X156879816Y-95952262D01*
X156975789Y-95799522D01*
X157035368Y-95629255D01*
X157037123Y-95613681D01*
X157055565Y-95450003D01*
X157055565Y-95449996D01*
X157035369Y-95270750D01*
X157035368Y-95270745D01*
X156975789Y-95100478D01*
X156879816Y-94947738D01*
X156752262Y-94820184D01*
X156615641Y-94734339D01*
X156599523Y-94724211D01*
X156429254Y-94664631D01*
X156429249Y-94664630D01*
X156250004Y-94644435D01*
X156249996Y-94644435D01*
X156070750Y-94664630D01*
X156070745Y-94664631D01*
X155900476Y-94724211D01*
X155747737Y-94820184D01*
X155620184Y-94947737D01*
X155524211Y-95100476D01*
X155464631Y-95270745D01*
X155464630Y-95270750D01*
X155444435Y-95449996D01*
X155444435Y-95450003D01*
X130250000Y-95450003D01*
X130250000Y-94550003D01*
X146494435Y-94550003D01*
X146514630Y-94729249D01*
X146514631Y-94729254D01*
X146574211Y-94899523D01*
X146670184Y-95052262D01*
X146797738Y-95179816D01*
X146888080Y-95236582D01*
X146942450Y-95270745D01*
X146950478Y-95275789D01*
X147120745Y-95335368D01*
X147120750Y-95335369D01*
X147299996Y-95355565D01*
X147300000Y-95355565D01*
X147300004Y-95355565D01*
X147479249Y-95335369D01*
X147479252Y-95335368D01*
X147479255Y-95335368D01*
X147649522Y-95275789D01*
X147802262Y-95179816D01*
X147929816Y-95052262D01*
X148025789Y-94899522D01*
X148085368Y-94729255D01*
X148085369Y-94729249D01*
X148105565Y-94550003D01*
X148105565Y-94549996D01*
X148085369Y-94370750D01*
X148085368Y-94370745D01*
X148025788Y-94200476D01*
X147929815Y-94047737D01*
X147802262Y-93920184D01*
X147649523Y-93824211D01*
X147479254Y-93764631D01*
X147479249Y-93764630D01*
X147300004Y-93744435D01*
X147299996Y-93744435D01*
X147120750Y-93764630D01*
X147120745Y-93764631D01*
X146950476Y-93824211D01*
X146797737Y-93920184D01*
X146670184Y-94047737D01*
X146574211Y-94200476D01*
X146514631Y-94370745D01*
X146514630Y-94370750D01*
X146494435Y-94549996D01*
X146494435Y-94550003D01*
X130250000Y-94550003D01*
X130250000Y-93600003D01*
X176194435Y-93600003D01*
X176214630Y-93779249D01*
X176214631Y-93779254D01*
X176274211Y-93949523D01*
X176335924Y-94047738D01*
X176370184Y-94102262D01*
X176497738Y-94229816D01*
X176588080Y-94286582D01*
X176606320Y-94298043D01*
X176650478Y-94325789D01*
X176778955Y-94370745D01*
X176820745Y-94385368D01*
X176820750Y-94385369D01*
X176999996Y-94405565D01*
X177000000Y-94405565D01*
X177000004Y-94405565D01*
X177179249Y-94385369D01*
X177179252Y-94385368D01*
X177179255Y-94385368D01*
X177349522Y-94325789D01*
X177502262Y-94229816D01*
X177629816Y-94102262D01*
X177725789Y-93949522D01*
X177785368Y-93779255D01*
X177787016Y-93764630D01*
X177805565Y-93600003D01*
X177805565Y-93599996D01*
X177785369Y-93420750D01*
X177785368Y-93420745D01*
X177738193Y-93285926D01*
X177725789Y-93250478D01*
X177629816Y-93097738D01*
X177502262Y-92970184D01*
X177349523Y-92874211D01*
X177179254Y-92814631D01*
X177179249Y-92814630D01*
X177000004Y-92794435D01*
X176999996Y-92794435D01*
X176820750Y-92814630D01*
X176820745Y-92814631D01*
X176650476Y-92874211D01*
X176497737Y-92970184D01*
X176370184Y-93097737D01*
X176274211Y-93250476D01*
X176214631Y-93420745D01*
X176214630Y-93420750D01*
X176194435Y-93599996D01*
X176194435Y-93600003D01*
X130250000Y-93600003D01*
X130250000Y-91343995D01*
X130549499Y-91343995D01*
X130576418Y-91479322D01*
X130576421Y-91479332D01*
X130629221Y-91606804D01*
X130629228Y-91606817D01*
X130705885Y-91721541D01*
X130705888Y-91721545D01*
X130803454Y-91819111D01*
X130803458Y-91819114D01*
X130918182Y-91895771D01*
X130918195Y-91895778D01*
X130990649Y-91925789D01*
X131045672Y-91948580D01*
X131045676Y-91948580D01*
X131045677Y-91948581D01*
X131181004Y-91975500D01*
X131181007Y-91975500D01*
X131318995Y-91975500D01*
X131410041Y-91957389D01*
X131454328Y-91948580D01*
X131581811Y-91895775D01*
X131696542Y-91819114D01*
X131794114Y-91721542D01*
X131870775Y-91606811D01*
X131923580Y-91479328D01*
X131929414Y-91450000D01*
X163894659Y-91450000D01*
X163913975Y-91646129D01*
X163971188Y-91834733D01*
X164064086Y-92008532D01*
X164064090Y-92008539D01*
X164189116Y-92160883D01*
X164341460Y-92285909D01*
X164341467Y-92285913D01*
X164515266Y-92378811D01*
X164515269Y-92378811D01*
X164515273Y-92378814D01*
X164703868Y-92436024D01*
X164900000Y-92455341D01*
X165096132Y-92436024D01*
X165284727Y-92378814D01*
X165458538Y-92285910D01*
X165610883Y-92160883D01*
X165735910Y-92008538D01*
X165828814Y-91834727D01*
X165886024Y-91646132D01*
X165905341Y-91450000D01*
X165886024Y-91253868D01*
X165828814Y-91065273D01*
X165828811Y-91065269D01*
X165828811Y-91065266D01*
X165735913Y-90891467D01*
X165735909Y-90891460D01*
X165610883Y-90739116D01*
X165458539Y-90614090D01*
X165458532Y-90614086D01*
X165284733Y-90521188D01*
X165284727Y-90521186D01*
X165096132Y-90463976D01*
X165096129Y-90463975D01*
X164900000Y-90444659D01*
X164703870Y-90463975D01*
X164515266Y-90521188D01*
X164341467Y-90614086D01*
X164341460Y-90614090D01*
X164189116Y-90739116D01*
X164064090Y-90891460D01*
X164064086Y-90891467D01*
X163971188Y-91065266D01*
X163913975Y-91253870D01*
X163894659Y-91450000D01*
X131929414Y-91450000D01*
X131942396Y-91384733D01*
X131950500Y-91343995D01*
X131950500Y-91206004D01*
X131923581Y-91070677D01*
X131923580Y-91070676D01*
X131923580Y-91070672D01*
X131884623Y-90976620D01*
X131870778Y-90943195D01*
X131870771Y-90943182D01*
X131794114Y-90828458D01*
X131794111Y-90828454D01*
X131696545Y-90730888D01*
X131696541Y-90730885D01*
X131581817Y-90654228D01*
X131581804Y-90654221D01*
X131454332Y-90601421D01*
X131454322Y-90601418D01*
X131318995Y-90574500D01*
X131318993Y-90574500D01*
X131181007Y-90574500D01*
X131181005Y-90574500D01*
X131045677Y-90601418D01*
X131045667Y-90601421D01*
X130918195Y-90654221D01*
X130918182Y-90654228D01*
X130803458Y-90730885D01*
X130803454Y-90730888D01*
X130705888Y-90828454D01*
X130705885Y-90828458D01*
X130629228Y-90943182D01*
X130629221Y-90943195D01*
X130576421Y-91070667D01*
X130576418Y-91070677D01*
X130549500Y-91206004D01*
X130549500Y-91206007D01*
X130549500Y-91343993D01*
X130549500Y-91343995D01*
X130549499Y-91343995D01*
X130250000Y-91343995D01*
X130250000Y-90346807D01*
X168785904Y-90346807D01*
X168806099Y-90526053D01*
X168806100Y-90526058D01*
X168865680Y-90696327D01*
X168892567Y-90739117D01*
X168961653Y-90849066D01*
X169089207Y-90976620D01*
X169241947Y-91072593D01*
X169367404Y-91116492D01*
X169424180Y-91157214D01*
X169443491Y-91192579D01*
X169446088Y-91200000D01*
X169465680Y-91255990D01*
X169561653Y-91408730D01*
X169689207Y-91536284D01*
X169724624Y-91558538D01*
X169801459Y-91606817D01*
X169841947Y-91632257D01*
X170003801Y-91688892D01*
X170012214Y-91691836D01*
X170012219Y-91691837D01*
X170191465Y-91712033D01*
X170191469Y-91712033D01*
X170191473Y-91712033D01*
X170370718Y-91691837D01*
X170370721Y-91691836D01*
X170370724Y-91691836D01*
X170540991Y-91632257D01*
X170693731Y-91536284D01*
X170821285Y-91408730D01*
X170917258Y-91255990D01*
X170936849Y-91200003D01*
X171594435Y-91200003D01*
X171614630Y-91379249D01*
X171614631Y-91379254D01*
X171674211Y-91549523D01*
X171770184Y-91702262D01*
X171897738Y-91829816D01*
X172050478Y-91925789D01*
X172115611Y-91948580D01*
X172220745Y-91985368D01*
X172220750Y-91985369D01*
X172399996Y-92005565D01*
X172400000Y-92005565D01*
X172400004Y-92005565D01*
X172579249Y-91985369D01*
X172579252Y-91985368D01*
X172579255Y-91985368D01*
X172749522Y-91925789D01*
X172902262Y-91829816D01*
X173029816Y-91702262D01*
X173038219Y-91688888D01*
X173090548Y-91642599D01*
X173157094Y-91631640D01*
X173217157Y-91638408D01*
X173217161Y-91638408D01*
X173390444Y-91618884D01*
X173459266Y-91630939D01*
X173500179Y-91663438D01*
X173539118Y-91710885D01*
X173691460Y-91835909D01*
X173691467Y-91835913D01*
X173865266Y-91928811D01*
X173865269Y-91928811D01*
X173865273Y-91928814D01*
X174053868Y-91986024D01*
X174250000Y-92005341D01*
X174446132Y-91986024D01*
X174634727Y-91928814D01*
X174640387Y-91925789D01*
X174808532Y-91835913D01*
X174808538Y-91835910D01*
X174960883Y-91710883D01*
X175085910Y-91558538D01*
X175178814Y-91384727D01*
X175236024Y-91196132D01*
X175255341Y-91000000D01*
X175236024Y-90803868D01*
X175178814Y-90615273D01*
X175178811Y-90615269D01*
X175178811Y-90615266D01*
X175085913Y-90441467D01*
X175085909Y-90441460D01*
X174960883Y-90289116D01*
X174808539Y-90164090D01*
X174808532Y-90164086D01*
X174634733Y-90071188D01*
X174634727Y-90071186D01*
X174446132Y-90013976D01*
X174446129Y-90013975D01*
X174250000Y-89994659D01*
X174053870Y-90013975D01*
X173943437Y-90047475D01*
X173865273Y-90071186D01*
X173865272Y-90071186D01*
X173865267Y-90071188D01*
X173736564Y-90139982D01*
X173668162Y-90154224D01*
X173612139Y-90135618D01*
X173566680Y-90107054D01*
X173396411Y-90047474D01*
X173396406Y-90047473D01*
X173217161Y-90027278D01*
X173217153Y-90027278D01*
X173037907Y-90047473D01*
X173037902Y-90047474D01*
X172867633Y-90107054D01*
X172714894Y-90203027D01*
X172587343Y-90330578D01*
X172587339Y-90330584D01*
X172578934Y-90343959D01*
X172526597Y-90390247D01*
X172460062Y-90401202D01*
X172400000Y-90394435D01*
X172399998Y-90394435D01*
X172399996Y-90394435D01*
X172220750Y-90414630D01*
X172220745Y-90414631D01*
X172050476Y-90474211D01*
X171897737Y-90570184D01*
X171770184Y-90697737D01*
X171674211Y-90850476D01*
X171614631Y-91020745D01*
X171614630Y-91020750D01*
X171594435Y-91199996D01*
X171594435Y-91200003D01*
X170936849Y-91200003D01*
X170976837Y-91085723D01*
X170976838Y-91085717D01*
X170997034Y-90906471D01*
X170997034Y-90906464D01*
X170976838Y-90727218D01*
X170976837Y-90727213D01*
X170966523Y-90697737D01*
X170917258Y-90556946D01*
X170897850Y-90526059D01*
X170846703Y-90444659D01*
X170821285Y-90404206D01*
X170693731Y-90276652D01*
X170576558Y-90203027D01*
X170540992Y-90180679D01*
X170415532Y-90136779D01*
X170358756Y-90096057D01*
X170339445Y-90060690D01*
X170317258Y-89997282D01*
X170317258Y-89997281D01*
X170256953Y-89901308D01*
X170221285Y-89844542D01*
X170093731Y-89716988D01*
X170080854Y-89708897D01*
X169940992Y-89621015D01*
X169770723Y-89561435D01*
X169770718Y-89561434D01*
X169591473Y-89541239D01*
X169591465Y-89541239D01*
X169412219Y-89561434D01*
X169412214Y-89561435D01*
X169241945Y-89621015D01*
X169089206Y-89716988D01*
X168961653Y-89844541D01*
X168865680Y-89997280D01*
X168806100Y-90167549D01*
X168806099Y-90167554D01*
X168785904Y-90346800D01*
X168785904Y-90346807D01*
X130250000Y-90346807D01*
X130250000Y-88850003D01*
X143744435Y-88850003D01*
X143764630Y-89029249D01*
X143764631Y-89029254D01*
X143824211Y-89199523D01*
X143870412Y-89273051D01*
X143920184Y-89352262D01*
X144047738Y-89479816D01*
X144138080Y-89536582D01*
X144164758Y-89553345D01*
X144200478Y-89575789D01*
X144370745Y-89635368D01*
X144370750Y-89635369D01*
X144549996Y-89655565D01*
X144550000Y-89655565D01*
X144550004Y-89655565D01*
X144729249Y-89635369D01*
X144729252Y-89635368D01*
X144729255Y-89635368D01*
X144899522Y-89575789D01*
X145052262Y-89479816D01*
X145179816Y-89352262D01*
X145275789Y-89199522D01*
X145335368Y-89029255D01*
X145344298Y-88950000D01*
X164000630Y-88950000D01*
X164019946Y-89146129D01*
X164077159Y-89334733D01*
X164170057Y-89508532D01*
X164170061Y-89508539D01*
X164295087Y-89660883D01*
X164447431Y-89785909D01*
X164447438Y-89785913D01*
X164621237Y-89878811D01*
X164621240Y-89878811D01*
X164621244Y-89878814D01*
X164809839Y-89936024D01*
X165005971Y-89955341D01*
X165202103Y-89936024D01*
X165390698Y-89878814D01*
X165564509Y-89785910D01*
X165716854Y-89660883D01*
X165841881Y-89508538D01*
X165888333Y-89421632D01*
X165934782Y-89334733D01*
X165934782Y-89334732D01*
X165934785Y-89334727D01*
X165991995Y-89146132D01*
X166011312Y-88950000D01*
X165991995Y-88753868D01*
X165934785Y-88565273D01*
X165934782Y-88565269D01*
X165934782Y-88565266D01*
X165841884Y-88391467D01*
X165841880Y-88391460D01*
X165716854Y-88239116D01*
X165564510Y-88114090D01*
X165564503Y-88114086D01*
X165390704Y-88021188D01*
X165390698Y-88021186D01*
X165202103Y-87963976D01*
X165202100Y-87963975D01*
X165005971Y-87944659D01*
X164809841Y-87963975D01*
X164621237Y-88021188D01*
X164447438Y-88114086D01*
X164447431Y-88114090D01*
X164295087Y-88239116D01*
X164170061Y-88391460D01*
X164170057Y-88391467D01*
X164077159Y-88565266D01*
X164019946Y-88753870D01*
X164000630Y-88950000D01*
X145344298Y-88950000D01*
X145347280Y-88923532D01*
X145355565Y-88850003D01*
X145355565Y-88849996D01*
X145335369Y-88670750D01*
X145335368Y-88670745D01*
X145275788Y-88500476D01*
X145207293Y-88391467D01*
X145179816Y-88347738D01*
X145052262Y-88220184D01*
X144981608Y-88175789D01*
X144899523Y-88124211D01*
X144729254Y-88064631D01*
X144729249Y-88064630D01*
X144599424Y-88050003D01*
X154644435Y-88050003D01*
X154664630Y-88229249D01*
X154664631Y-88229254D01*
X154724211Y-88399523D01*
X154787646Y-88500478D01*
X154820184Y-88552262D01*
X154947738Y-88679816D01*
X155100478Y-88775789D01*
X155270745Y-88835368D01*
X155270750Y-88835369D01*
X155449996Y-88855565D01*
X155450000Y-88855565D01*
X155450004Y-88855565D01*
X155629249Y-88835369D01*
X155629252Y-88835368D01*
X155629255Y-88835368D01*
X155799522Y-88775789D01*
X155952262Y-88679816D01*
X156079816Y-88552262D01*
X156175789Y-88399522D01*
X156222692Y-88265478D01*
X156263412Y-88208705D01*
X156298775Y-88189395D01*
X156337662Y-88175789D01*
X156490402Y-88079816D01*
X156617956Y-87952262D01*
X156713929Y-87799522D01*
X156773508Y-87629255D01*
X156773899Y-87625789D01*
X156793705Y-87450003D01*
X156793705Y-87449996D01*
X156773509Y-87270750D01*
X156773508Y-87270745D01*
X156759017Y-87229332D01*
X156713929Y-87100478D01*
X156709855Y-87093995D01*
X156672805Y-87035030D01*
X156617956Y-86947738D01*
X156608156Y-86937938D01*
X174033250Y-86937938D01*
X174053445Y-87117184D01*
X174053446Y-87117189D01*
X174113026Y-87287458D01*
X174185163Y-87402262D01*
X174208999Y-87440197D01*
X174336553Y-87567751D01*
X174425135Y-87623411D01*
X174495189Y-87667429D01*
X174494194Y-87669011D01*
X174539107Y-87709555D01*
X174557426Y-87776980D01*
X174550494Y-87815416D01*
X174513896Y-87920006D01*
X174513894Y-87920014D01*
X174493699Y-88099260D01*
X174493699Y-88099267D01*
X174513894Y-88278513D01*
X174513897Y-88278526D01*
X174573473Y-88448782D01*
X174573477Y-88448791D01*
X174585433Y-88467819D01*
X174604433Y-88535056D01*
X174597481Y-88574744D01*
X174538161Y-88744271D01*
X174538159Y-88744279D01*
X174517964Y-88923525D01*
X174517964Y-88923532D01*
X174538159Y-89102778D01*
X174538160Y-89102783D01*
X174597740Y-89273052D01*
X174693713Y-89425791D01*
X174821267Y-89553345D01*
X174911609Y-89610111D01*
X174951805Y-89635368D01*
X174974007Y-89649318D01*
X175144274Y-89708897D01*
X175144279Y-89708898D01*
X175323525Y-89729094D01*
X175323529Y-89729094D01*
X175323533Y-89729094D01*
X175502778Y-89708898D01*
X175502781Y-89708897D01*
X175502784Y-89708897D01*
X175673051Y-89649318D01*
X175825791Y-89553345D01*
X175953345Y-89425791D01*
X176049318Y-89273051D01*
X176108897Y-89102784D01*
X176117182Y-89029254D01*
X176129094Y-88923532D01*
X176129094Y-88923525D01*
X176108898Y-88744279D01*
X176108897Y-88744274D01*
X176049317Y-88574004D01*
X176037359Y-88554974D01*
X176018358Y-88487738D01*
X176025309Y-88448052D01*
X176084632Y-88278519D01*
X176086101Y-88265481D01*
X176104829Y-88099267D01*
X176104829Y-88099260D01*
X176084633Y-87920014D01*
X176084630Y-87920001D01*
X176046398Y-87810742D01*
X176042835Y-87740964D01*
X176077564Y-87680336D01*
X176122483Y-87652745D01*
X176199522Y-87625789D01*
X176352262Y-87529816D01*
X176479816Y-87402262D01*
X176575789Y-87249522D01*
X176635368Y-87079255D01*
X176635369Y-87079249D01*
X176655565Y-86900003D01*
X176655565Y-86899996D01*
X176635369Y-86720750D01*
X176635368Y-86720745D01*
X176633347Y-86714969D01*
X176575789Y-86550478D01*
X176479816Y-86397738D01*
X176352262Y-86270184D01*
X176288017Y-86229816D01*
X176199523Y-86174211D01*
X176029254Y-86114631D01*
X176029249Y-86114630D01*
X175850004Y-86094435D01*
X175849996Y-86094435D01*
X175670750Y-86114630D01*
X175670745Y-86114631D01*
X175500476Y-86174211D01*
X175380192Y-86249791D01*
X175312955Y-86268791D01*
X175248247Y-86249790D01*
X175188339Y-86212146D01*
X175018069Y-86152566D01*
X175018064Y-86152565D01*
X174838819Y-86132370D01*
X174838811Y-86132370D01*
X174659565Y-86152565D01*
X174659560Y-86152566D01*
X174489291Y-86212146D01*
X174336552Y-86308119D01*
X174208999Y-86435672D01*
X174113026Y-86588411D01*
X174053446Y-86758680D01*
X174053445Y-86758685D01*
X174033250Y-86937931D01*
X174033250Y-86937938D01*
X156608156Y-86937938D01*
X156516202Y-86845984D01*
X156482717Y-86784661D01*
X156486607Y-86730266D01*
X168173285Y-86730266D01*
X168332056Y-86785824D01*
X168499996Y-86804746D01*
X168500004Y-86804746D01*
X168667943Y-86785824D01*
X168826713Y-86730267D01*
X168826714Y-86730266D01*
X169923285Y-86730266D01*
X170082056Y-86785824D01*
X170249996Y-86804746D01*
X170250004Y-86804746D01*
X170417943Y-86785824D01*
X170576713Y-86730267D01*
X170576714Y-86730266D01*
X171673285Y-86730266D01*
X171832056Y-86785824D01*
X171999996Y-86804746D01*
X172000004Y-86804746D01*
X172167943Y-86785824D01*
X172326713Y-86730267D01*
X172326714Y-86730266D01*
X172000001Y-86403553D01*
X172000000Y-86403553D01*
X171673285Y-86730266D01*
X170576714Y-86730266D01*
X170250001Y-86403553D01*
X170250000Y-86403553D01*
X169923285Y-86730266D01*
X168826714Y-86730266D01*
X168500001Y-86403553D01*
X168500000Y-86403553D01*
X168173285Y-86730266D01*
X156486607Y-86730266D01*
X156487701Y-86714969D01*
X156498890Y-86692330D01*
X156525789Y-86649522D01*
X156585368Y-86479255D01*
X156587907Y-86456712D01*
X156614973Y-86392300D01*
X156670174Y-86353553D01*
X156749522Y-86325789D01*
X156902262Y-86229816D01*
X157029816Y-86102262D01*
X157062653Y-86050003D01*
X167745254Y-86050003D01*
X167764175Y-86217938D01*
X167764176Y-86217943D01*
X167819732Y-86376714D01*
X168116610Y-86079837D01*
X168350000Y-86079837D01*
X168372836Y-86134968D01*
X168415032Y-86177164D01*
X168470163Y-86200000D01*
X168529837Y-86200000D01*
X168584968Y-86177164D01*
X168627164Y-86134968D01*
X168650000Y-86079837D01*
X168650000Y-86050001D01*
X168853553Y-86050001D01*
X169180266Y-86376714D01*
X169180267Y-86376713D01*
X169235824Y-86217943D01*
X169251780Y-86076328D01*
X169262528Y-86050747D01*
X169261789Y-86049252D01*
X169487471Y-86049252D01*
X169497140Y-86068817D01*
X169498220Y-86076328D01*
X169514175Y-86217938D01*
X169514176Y-86217943D01*
X169569732Y-86376714D01*
X169866610Y-86079837D01*
X170100000Y-86079837D01*
X170122836Y-86134968D01*
X170165032Y-86177164D01*
X170220163Y-86200000D01*
X170279837Y-86200000D01*
X170334968Y-86177164D01*
X170377164Y-86134968D01*
X170400000Y-86079837D01*
X170400000Y-86050001D01*
X170603553Y-86050001D01*
X170930266Y-86376714D01*
X170930267Y-86376713D01*
X170985824Y-86217943D01*
X171001780Y-86076328D01*
X171012528Y-86050747D01*
X171011789Y-86049252D01*
X171237471Y-86049252D01*
X171247140Y-86068817D01*
X171248220Y-86076328D01*
X171264175Y-86217938D01*
X171264176Y-86217943D01*
X171319732Y-86376714D01*
X171616610Y-86079837D01*
X171850000Y-86079837D01*
X171872836Y-86134968D01*
X171915032Y-86177164D01*
X171970163Y-86200000D01*
X172029837Y-86200000D01*
X172084968Y-86177164D01*
X172127164Y-86134968D01*
X172150000Y-86079837D01*
X172150000Y-86050001D01*
X172353553Y-86050001D01*
X172680266Y-86376714D01*
X172680267Y-86376713D01*
X172735824Y-86217943D01*
X172754746Y-86050003D01*
X172754746Y-86049996D01*
X172735824Y-85882056D01*
X172680266Y-85723285D01*
X172353553Y-86049999D01*
X172353553Y-86050001D01*
X172150000Y-86050001D01*
X172150000Y-86020163D01*
X172127164Y-85965032D01*
X172084968Y-85922836D01*
X172029837Y-85900000D01*
X171970163Y-85900000D01*
X171915032Y-85922836D01*
X171872836Y-85965032D01*
X171850000Y-86020163D01*
X171850000Y-86079837D01*
X171616610Y-86079837D01*
X171646447Y-86050000D01*
X171319732Y-85723285D01*
X171264176Y-85882053D01*
X171264175Y-85882058D01*
X171248220Y-86023671D01*
X171237471Y-86049252D01*
X171011789Y-86049252D01*
X171002860Y-86031182D01*
X171001780Y-86023671D01*
X170985824Y-85882056D01*
X170930266Y-85723285D01*
X170603553Y-86049999D01*
X170603553Y-86050001D01*
X170400000Y-86050001D01*
X170400000Y-86020163D01*
X170377164Y-85965032D01*
X170334968Y-85922836D01*
X170279837Y-85900000D01*
X170220163Y-85900000D01*
X170165032Y-85922836D01*
X170122836Y-85965032D01*
X170100000Y-86020163D01*
X170100000Y-86079837D01*
X169866610Y-86079837D01*
X169896447Y-86050000D01*
X169569732Y-85723285D01*
X169514176Y-85882053D01*
X169514175Y-85882058D01*
X169498220Y-86023671D01*
X169487471Y-86049252D01*
X169261789Y-86049252D01*
X169252860Y-86031182D01*
X169251780Y-86023671D01*
X169235824Y-85882056D01*
X169180266Y-85723285D01*
X168853553Y-86049999D01*
X168853553Y-86050001D01*
X168650000Y-86050001D01*
X168650000Y-86020163D01*
X168627164Y-85965032D01*
X168584968Y-85922836D01*
X168529837Y-85900000D01*
X168470163Y-85900000D01*
X168415032Y-85922836D01*
X168372836Y-85965032D01*
X168350000Y-86020163D01*
X168350000Y-86079837D01*
X168116610Y-86079837D01*
X168146447Y-86050000D01*
X167819732Y-85723285D01*
X167764176Y-85882053D01*
X167764175Y-85882058D01*
X167745254Y-86049996D01*
X167745254Y-86050003D01*
X157062653Y-86050003D01*
X157125789Y-85949522D01*
X157185368Y-85779255D01*
X157185759Y-85775788D01*
X157205565Y-85600003D01*
X157205565Y-85599996D01*
X157185369Y-85420750D01*
X157185368Y-85420745D01*
X157167518Y-85369732D01*
X157125789Y-85250478D01*
X157029816Y-85097738D01*
X156982081Y-85050003D01*
X163694435Y-85050003D01*
X163714630Y-85229249D01*
X163714631Y-85229254D01*
X163774211Y-85399523D01*
X163828152Y-85485369D01*
X163870184Y-85552262D01*
X163997738Y-85679816D01*
X164150478Y-85775789D01*
X164213202Y-85797737D01*
X164320745Y-85835368D01*
X164320750Y-85835369D01*
X164499996Y-85855565D01*
X164500000Y-85855565D01*
X164500004Y-85855565D01*
X164679249Y-85835369D01*
X164679252Y-85835368D01*
X164679255Y-85835368D01*
X164849522Y-85775789D01*
X165002262Y-85679816D01*
X165129816Y-85552262D01*
X165225789Y-85399522D01*
X165236213Y-85369732D01*
X168173285Y-85369732D01*
X168500000Y-85696447D01*
X168500001Y-85696447D01*
X168826714Y-85369732D01*
X169923285Y-85369732D01*
X170250000Y-85696447D01*
X170250001Y-85696447D01*
X170576714Y-85369732D01*
X171673285Y-85369732D01*
X172000000Y-85696447D01*
X172000001Y-85696447D01*
X172326714Y-85369732D01*
X172167943Y-85314176D01*
X172167938Y-85314175D01*
X172026328Y-85298220D01*
X172000746Y-85287471D01*
X171981182Y-85297140D01*
X171973671Y-85298220D01*
X171832058Y-85314175D01*
X171832053Y-85314176D01*
X171673285Y-85369732D01*
X170576714Y-85369732D01*
X170417943Y-85314176D01*
X170417938Y-85314175D01*
X170276328Y-85298220D01*
X170250746Y-85287471D01*
X170231182Y-85297140D01*
X170223671Y-85298220D01*
X170082058Y-85314175D01*
X170082053Y-85314176D01*
X169923285Y-85369732D01*
X168826714Y-85369732D01*
X168667943Y-85314176D01*
X168667938Y-85314175D01*
X168526328Y-85298220D01*
X168500746Y-85287471D01*
X168481182Y-85297140D01*
X168473671Y-85298220D01*
X168332058Y-85314175D01*
X168332053Y-85314176D01*
X168173285Y-85369732D01*
X165236213Y-85369732D01*
X165285368Y-85229255D01*
X165285369Y-85229249D01*
X165305565Y-85050003D01*
X165305565Y-85049996D01*
X165297708Y-84980266D01*
X168173285Y-84980266D01*
X168332056Y-85035824D01*
X168473671Y-85051780D01*
X168499252Y-85062528D01*
X168518817Y-85052860D01*
X168526328Y-85051780D01*
X168667943Y-85035824D01*
X168826713Y-84980267D01*
X168826714Y-84980266D01*
X169923285Y-84980266D01*
X170082056Y-85035824D01*
X170223671Y-85051780D01*
X170249252Y-85062528D01*
X170268817Y-85052860D01*
X170276328Y-85051780D01*
X170417943Y-85035824D01*
X170576713Y-84980267D01*
X170576714Y-84980266D01*
X171673285Y-84980266D01*
X171832056Y-85035824D01*
X171973671Y-85051780D01*
X171999252Y-85062528D01*
X172018817Y-85052860D01*
X172026328Y-85051780D01*
X172167943Y-85035824D01*
X172326713Y-84980267D01*
X172326714Y-84980266D01*
X172000001Y-84653553D01*
X172000000Y-84653553D01*
X171673285Y-84980266D01*
X170576714Y-84980266D01*
X170250001Y-84653553D01*
X170250000Y-84653553D01*
X169923285Y-84980266D01*
X168826714Y-84980266D01*
X168500001Y-84653553D01*
X168500000Y-84653553D01*
X168173285Y-84980266D01*
X165297708Y-84980266D01*
X165285369Y-84870750D01*
X165285366Y-84870737D01*
X165223489Y-84693905D01*
X165225637Y-84693153D01*
X165216035Y-84634872D01*
X165224392Y-84606411D01*
X165223489Y-84606095D01*
X165285366Y-84429262D01*
X165285369Y-84429249D01*
X165299931Y-84300003D01*
X167745254Y-84300003D01*
X167764175Y-84467938D01*
X167764176Y-84467943D01*
X167819732Y-84626714D01*
X168116610Y-84329837D01*
X168350000Y-84329837D01*
X168372836Y-84384968D01*
X168415032Y-84427164D01*
X168470163Y-84450000D01*
X168529837Y-84450000D01*
X168584968Y-84427164D01*
X168627164Y-84384968D01*
X168650000Y-84329837D01*
X168650000Y-84300001D01*
X168853553Y-84300001D01*
X169180266Y-84626714D01*
X169180267Y-84626713D01*
X169235824Y-84467943D01*
X169251780Y-84326328D01*
X169262528Y-84300747D01*
X169261789Y-84299252D01*
X169487471Y-84299252D01*
X169497140Y-84318817D01*
X169498220Y-84326328D01*
X169514175Y-84467938D01*
X169514176Y-84467943D01*
X169569732Y-84626714D01*
X169866610Y-84329837D01*
X170100000Y-84329837D01*
X170122836Y-84384968D01*
X170165032Y-84427164D01*
X170220163Y-84450000D01*
X170279837Y-84450000D01*
X170334968Y-84427164D01*
X170377164Y-84384968D01*
X170400000Y-84329837D01*
X170400000Y-84300001D01*
X170603553Y-84300001D01*
X170930266Y-84626714D01*
X170930267Y-84626713D01*
X170985824Y-84467943D01*
X171001780Y-84326328D01*
X171012528Y-84300747D01*
X171011789Y-84299252D01*
X171237471Y-84299252D01*
X171247140Y-84318817D01*
X171248220Y-84326328D01*
X171264175Y-84467938D01*
X171264176Y-84467943D01*
X171319732Y-84626714D01*
X171616610Y-84329837D01*
X171850000Y-84329837D01*
X171872836Y-84384968D01*
X171915032Y-84427164D01*
X171970163Y-84450000D01*
X172029837Y-84450000D01*
X172084968Y-84427164D01*
X172127164Y-84384968D01*
X172150000Y-84329837D01*
X172150000Y-84300001D01*
X172353553Y-84300001D01*
X172680266Y-84626714D01*
X172680267Y-84626713D01*
X172735824Y-84467943D01*
X172754746Y-84300003D01*
X172754746Y-84299996D01*
X172735824Y-84132056D01*
X172680266Y-83973285D01*
X172353553Y-84299999D01*
X172353553Y-84300001D01*
X172150000Y-84300001D01*
X172150000Y-84270163D01*
X172127164Y-84215032D01*
X172084968Y-84172836D01*
X172029837Y-84150000D01*
X171970163Y-84150000D01*
X171915032Y-84172836D01*
X171872836Y-84215032D01*
X171850000Y-84270163D01*
X171850000Y-84329837D01*
X171616610Y-84329837D01*
X171646447Y-84300000D01*
X171319732Y-83973285D01*
X171264176Y-84132053D01*
X171264175Y-84132058D01*
X171248220Y-84273671D01*
X171237471Y-84299252D01*
X171011789Y-84299252D01*
X171002860Y-84281182D01*
X171001780Y-84273671D01*
X170985824Y-84132056D01*
X170930266Y-83973285D01*
X170603553Y-84299999D01*
X170603553Y-84300001D01*
X170400000Y-84300001D01*
X170400000Y-84270163D01*
X170377164Y-84215032D01*
X170334968Y-84172836D01*
X170279837Y-84150000D01*
X170220163Y-84150000D01*
X170165032Y-84172836D01*
X170122836Y-84215032D01*
X170100000Y-84270163D01*
X170100000Y-84329837D01*
X169866610Y-84329837D01*
X169896447Y-84300000D01*
X169569732Y-83973285D01*
X169514176Y-84132053D01*
X169514175Y-84132058D01*
X169498220Y-84273671D01*
X169487471Y-84299252D01*
X169261789Y-84299252D01*
X169252860Y-84281182D01*
X169251780Y-84273671D01*
X169235824Y-84132056D01*
X169180266Y-83973285D01*
X168853553Y-84299999D01*
X168853553Y-84300001D01*
X168650000Y-84300001D01*
X168650000Y-84270163D01*
X168627164Y-84215032D01*
X168584968Y-84172836D01*
X168529837Y-84150000D01*
X168470163Y-84150000D01*
X168415032Y-84172836D01*
X168372836Y-84215032D01*
X168350000Y-84270163D01*
X168350000Y-84329837D01*
X168116610Y-84329837D01*
X168146447Y-84300000D01*
X167819732Y-83973285D01*
X167764176Y-84132053D01*
X167764175Y-84132058D01*
X167745254Y-84299996D01*
X167745254Y-84300003D01*
X165299931Y-84300003D01*
X165305565Y-84250003D01*
X165305565Y-84249996D01*
X165285369Y-84070750D01*
X165285368Y-84070745D01*
X165282572Y-84062754D01*
X165225789Y-83900478D01*
X165225188Y-83899522D01*
X165186582Y-83838080D01*
X165129816Y-83747738D01*
X165002262Y-83620184D01*
X165001543Y-83619732D01*
X168173285Y-83619732D01*
X168500000Y-83946447D01*
X168500001Y-83946447D01*
X168826714Y-83619732D01*
X169923285Y-83619732D01*
X170250000Y-83946447D01*
X170250001Y-83946447D01*
X170576714Y-83619732D01*
X171673285Y-83619732D01*
X172000000Y-83946447D01*
X172000001Y-83946447D01*
X172326714Y-83619732D01*
X172167943Y-83564176D01*
X172167938Y-83564175D01*
X172026328Y-83548220D01*
X172000746Y-83537471D01*
X171981182Y-83547140D01*
X171973671Y-83548220D01*
X171832058Y-83564175D01*
X171832053Y-83564176D01*
X171673285Y-83619732D01*
X170576714Y-83619732D01*
X170417943Y-83564176D01*
X170417938Y-83564175D01*
X170276328Y-83548220D01*
X170250746Y-83537471D01*
X170231182Y-83547140D01*
X170223671Y-83548220D01*
X170082058Y-83564175D01*
X170082053Y-83564176D01*
X169923285Y-83619732D01*
X168826714Y-83619732D01*
X168667943Y-83564176D01*
X168667938Y-83564175D01*
X168526328Y-83548220D01*
X168500746Y-83537471D01*
X168481182Y-83547140D01*
X168473671Y-83548220D01*
X168332058Y-83564175D01*
X168332053Y-83564176D01*
X168173285Y-83619732D01*
X165001543Y-83619732D01*
X164913126Y-83564176D01*
X164849523Y-83524211D01*
X164679254Y-83464631D01*
X164679249Y-83464630D01*
X164500004Y-83444435D01*
X164499996Y-83444435D01*
X164320750Y-83464630D01*
X164320745Y-83464631D01*
X164150476Y-83524211D01*
X163997737Y-83620184D01*
X163870184Y-83747737D01*
X163774211Y-83900476D01*
X163714631Y-84070745D01*
X163714630Y-84070750D01*
X163694435Y-84249996D01*
X163694435Y-84250003D01*
X163714630Y-84429249D01*
X163714633Y-84429262D01*
X163776510Y-84606094D01*
X163774364Y-84606844D01*
X163783962Y-84665144D01*
X163775609Y-84693590D01*
X163776510Y-84693906D01*
X163714633Y-84870737D01*
X163714630Y-84870750D01*
X163694435Y-85049996D01*
X163694435Y-85050003D01*
X156982081Y-85050003D01*
X156902262Y-84970184D01*
X156749523Y-84874211D01*
X156579254Y-84814631D01*
X156579249Y-84814630D01*
X156400004Y-84794435D01*
X156399996Y-84794435D01*
X156220750Y-84814630D01*
X156220745Y-84814631D01*
X156050476Y-84874211D01*
X155897737Y-84970184D01*
X155770184Y-85097737D01*
X155674210Y-85250478D01*
X155614630Y-85420750D01*
X155612091Y-85443289D01*
X155585024Y-85507703D01*
X155529827Y-85546445D01*
X155450476Y-85574211D01*
X155450475Y-85574212D01*
X155297737Y-85670184D01*
X155170184Y-85797737D01*
X155074211Y-85950476D01*
X155014631Y-86120745D01*
X155014630Y-86120750D01*
X154994435Y-86299996D01*
X154994435Y-86300003D01*
X155014630Y-86479249D01*
X155014631Y-86479254D01*
X155074211Y-86649523D01*
X155170184Y-86802262D01*
X155271937Y-86904015D01*
X155305422Y-86965338D01*
X155300438Y-87035030D01*
X155289250Y-87057668D01*
X155262351Y-87100476D01*
X155256503Y-87117190D01*
X155217265Y-87229328D01*
X155215449Y-87234517D01*
X155174727Y-87291294D01*
X155139361Y-87310605D01*
X155100478Y-87324210D01*
X154947737Y-87420184D01*
X154820184Y-87547737D01*
X154724211Y-87700476D01*
X154664631Y-87870745D01*
X154664630Y-87870750D01*
X154644435Y-88049996D01*
X154644435Y-88050003D01*
X144599424Y-88050003D01*
X144550004Y-88044435D01*
X144549996Y-88044435D01*
X144370750Y-88064630D01*
X144370745Y-88064631D01*
X144200476Y-88124211D01*
X144047737Y-88220184D01*
X143920184Y-88347737D01*
X143824211Y-88500476D01*
X143764631Y-88670745D01*
X143764630Y-88670750D01*
X143744435Y-88849996D01*
X143744435Y-88850003D01*
X130250000Y-88850003D01*
X130250000Y-87093995D01*
X130549499Y-87093995D01*
X130576418Y-87229322D01*
X130576421Y-87229332D01*
X130629221Y-87356804D01*
X130629228Y-87356817D01*
X130705885Y-87471541D01*
X130705888Y-87471545D01*
X130803454Y-87569111D01*
X130803458Y-87569114D01*
X130918182Y-87645771D01*
X130918195Y-87645778D01*
X131013775Y-87685368D01*
X131045672Y-87698580D01*
X131045676Y-87698580D01*
X131045677Y-87698581D01*
X131181004Y-87725500D01*
X131181007Y-87725500D01*
X131318995Y-87725500D01*
X131435817Y-87702262D01*
X131454328Y-87698580D01*
X131581811Y-87645775D01*
X131696542Y-87569114D01*
X131794114Y-87471542D01*
X131870775Y-87356811D01*
X131923580Y-87229328D01*
X131929413Y-87200003D01*
X134444435Y-87200003D01*
X134464630Y-87379249D01*
X134464631Y-87379254D01*
X134524211Y-87549523D01*
X134589070Y-87652745D01*
X134620184Y-87702262D01*
X134747738Y-87829816D01*
X134900478Y-87925789D01*
X135009610Y-87963976D01*
X135070745Y-87985368D01*
X135070750Y-87985369D01*
X135249996Y-88005565D01*
X135250000Y-88005565D01*
X135250004Y-88005565D01*
X135429249Y-87985369D01*
X135429252Y-87985368D01*
X135429255Y-87985368D01*
X135599522Y-87925789D01*
X135752262Y-87829816D01*
X135879816Y-87702262D01*
X135975789Y-87549522D01*
X136035368Y-87379255D01*
X136045279Y-87291294D01*
X136055565Y-87200003D01*
X136055565Y-87199996D01*
X136035369Y-87020750D01*
X136035368Y-87020745D01*
X136009821Y-86947737D01*
X135975789Y-86850478D01*
X135957057Y-86820667D01*
X135934433Y-86784661D01*
X135879816Y-86697738D01*
X135752262Y-86570184D01*
X135720897Y-86550476D01*
X135599523Y-86474211D01*
X135429254Y-86414631D01*
X135429249Y-86414630D01*
X135250004Y-86394435D01*
X135249996Y-86394435D01*
X135070750Y-86414630D01*
X135070745Y-86414631D01*
X134900476Y-86474211D01*
X134747737Y-86570184D01*
X134620184Y-86697737D01*
X134524211Y-86850476D01*
X134464631Y-87020745D01*
X134464630Y-87020750D01*
X134444435Y-87199996D01*
X134444435Y-87200003D01*
X131929413Y-87200003D01*
X131949210Y-87100478D01*
X131950500Y-87093995D01*
X131950500Y-86956004D01*
X131923581Y-86820677D01*
X131923580Y-86820676D01*
X131923580Y-86820672D01*
X131908664Y-86784661D01*
X131870778Y-86693195D01*
X131870771Y-86693182D01*
X131794114Y-86578458D01*
X131794111Y-86578454D01*
X131696545Y-86480888D01*
X131696541Y-86480885D01*
X131581817Y-86404228D01*
X131581804Y-86404221D01*
X131454332Y-86351421D01*
X131454322Y-86351418D01*
X131318995Y-86324500D01*
X131318993Y-86324500D01*
X131181007Y-86324500D01*
X131181005Y-86324500D01*
X131045677Y-86351418D01*
X131045667Y-86351421D01*
X130918195Y-86404221D01*
X130918182Y-86404228D01*
X130803458Y-86480885D01*
X130803454Y-86480888D01*
X130705888Y-86578454D01*
X130705885Y-86578458D01*
X130629228Y-86693182D01*
X130629221Y-86693195D01*
X130576421Y-86820667D01*
X130576418Y-86820677D01*
X130549500Y-86956004D01*
X130549500Y-86956007D01*
X130549500Y-87093993D01*
X130549500Y-87093995D01*
X130549499Y-87093995D01*
X130250000Y-87093995D01*
X130250000Y-84700003D01*
X149794435Y-84700003D01*
X149814630Y-84879249D01*
X149814631Y-84879254D01*
X149874211Y-85049523D01*
X149904507Y-85097738D01*
X149970184Y-85202262D01*
X150097738Y-85329816D01*
X150161264Y-85369732D01*
X150242450Y-85420745D01*
X150250478Y-85425789D01*
X150420745Y-85485368D01*
X150420750Y-85485369D01*
X150599996Y-85505565D01*
X150600000Y-85505565D01*
X150600004Y-85505565D01*
X150779249Y-85485369D01*
X150779252Y-85485368D01*
X150779255Y-85485368D01*
X150949522Y-85425789D01*
X151102262Y-85329816D01*
X151229816Y-85202262D01*
X151325789Y-85049522D01*
X151385368Y-84879255D01*
X151385369Y-84879249D01*
X151405565Y-84700003D01*
X151405565Y-84699996D01*
X151385369Y-84520750D01*
X151385368Y-84520745D01*
X151325789Y-84350478D01*
X151325188Y-84349522D01*
X151262652Y-84249996D01*
X151229816Y-84197738D01*
X151102262Y-84070184D01*
X151090437Y-84062754D01*
X150949523Y-83974211D01*
X150779254Y-83914631D01*
X150779249Y-83914630D01*
X150600004Y-83894435D01*
X150599996Y-83894435D01*
X150420750Y-83914630D01*
X150420745Y-83914631D01*
X150250476Y-83974211D01*
X150097737Y-84070184D01*
X149970184Y-84197737D01*
X149874211Y-84350476D01*
X149814631Y-84520745D01*
X149814630Y-84520750D01*
X149794435Y-84699996D01*
X149794435Y-84700003D01*
X130250000Y-84700003D01*
X130250000Y-83292895D01*
X154801543Y-83292895D01*
X154821738Y-83472141D01*
X154821739Y-83472146D01*
X154881319Y-83642415D01*
X154977292Y-83795154D01*
X155104846Y-83922708D01*
X155257586Y-84018681D01*
X155404773Y-84070184D01*
X155427853Y-84078260D01*
X155427858Y-84078261D01*
X155607104Y-84098457D01*
X155607108Y-84098457D01*
X155607112Y-84098457D01*
X155780786Y-84078889D01*
X155849608Y-84090944D01*
X155882350Y-84114428D01*
X155947738Y-84179816D01*
X155976259Y-84197737D01*
X156100396Y-84275738D01*
X156100478Y-84275789D01*
X156169672Y-84300001D01*
X156270745Y-84335368D01*
X156270750Y-84335369D01*
X156449996Y-84355565D01*
X156450000Y-84355565D01*
X156450004Y-84355565D01*
X156629249Y-84335369D01*
X156629252Y-84335368D01*
X156629255Y-84335368D01*
X156799522Y-84275789D01*
X156952262Y-84179816D01*
X157079816Y-84052262D01*
X157175789Y-83899522D01*
X157235368Y-83729255D01*
X157238039Y-83705551D01*
X157255565Y-83550003D01*
X157255565Y-83549996D01*
X157234589Y-83363825D01*
X157237726Y-83363471D01*
X157241093Y-83307654D01*
X157270070Y-83262008D01*
X157301812Y-83230266D01*
X168173285Y-83230266D01*
X168332056Y-83285824D01*
X168473671Y-83301780D01*
X168499252Y-83312528D01*
X168518817Y-83302860D01*
X168526328Y-83301780D01*
X168667943Y-83285824D01*
X168826713Y-83230267D01*
X168826714Y-83230266D01*
X169923285Y-83230266D01*
X170082056Y-83285824D01*
X170223671Y-83301780D01*
X170249252Y-83312528D01*
X170268817Y-83302860D01*
X170276328Y-83301780D01*
X170417943Y-83285824D01*
X170576713Y-83230267D01*
X170576714Y-83230266D01*
X171673285Y-83230266D01*
X171832056Y-83285824D01*
X171973671Y-83301780D01*
X171999252Y-83312528D01*
X172018817Y-83302860D01*
X172026328Y-83301780D01*
X172167943Y-83285824D01*
X172326713Y-83230267D01*
X172326714Y-83230266D01*
X172000001Y-82903553D01*
X172000000Y-82903553D01*
X171673285Y-83230266D01*
X170576714Y-83230266D01*
X170250001Y-82903553D01*
X170250000Y-82903553D01*
X169923285Y-83230266D01*
X168826714Y-83230266D01*
X168500001Y-82903553D01*
X168500000Y-82903553D01*
X168173285Y-83230266D01*
X157301812Y-83230266D01*
X157379816Y-83152262D01*
X157475789Y-82999522D01*
X157535368Y-82829255D01*
X157541392Y-82775789D01*
X157555565Y-82650003D01*
X157555565Y-82649996D01*
X157535369Y-82470750D01*
X157535368Y-82470745D01*
X157493284Y-82350476D01*
X157475789Y-82300478D01*
X157473056Y-82296129D01*
X157410422Y-82196447D01*
X157379816Y-82147738D01*
X157332078Y-82100000D01*
X161844659Y-82100000D01*
X161863975Y-82296129D01*
X161863976Y-82296132D01*
X161902411Y-82422836D01*
X161921188Y-82484733D01*
X162014086Y-82658532D01*
X162014090Y-82658539D01*
X162139116Y-82810883D01*
X162291460Y-82935909D01*
X162291467Y-82935913D01*
X162465266Y-83028811D01*
X162465269Y-83028811D01*
X162465273Y-83028814D01*
X162653868Y-83086024D01*
X162850000Y-83105341D01*
X163046132Y-83086024D01*
X163234727Y-83028814D01*
X163289529Y-82999522D01*
X163408532Y-82935913D01*
X163408538Y-82935910D01*
X163560883Y-82810883D01*
X163685910Y-82658538D01*
X163743923Y-82550003D01*
X167745254Y-82550003D01*
X167764175Y-82717938D01*
X167764176Y-82717943D01*
X167819732Y-82876714D01*
X168116610Y-82579837D01*
X168350000Y-82579837D01*
X168372836Y-82634968D01*
X168415032Y-82677164D01*
X168470163Y-82700000D01*
X168529837Y-82700000D01*
X168584968Y-82677164D01*
X168627164Y-82634968D01*
X168650000Y-82579837D01*
X168650000Y-82550001D01*
X168853553Y-82550001D01*
X169180266Y-82876714D01*
X169180267Y-82876713D01*
X169235824Y-82717943D01*
X169251780Y-82576328D01*
X169262528Y-82550747D01*
X169261789Y-82549252D01*
X169487471Y-82549252D01*
X169497140Y-82568817D01*
X169498220Y-82576328D01*
X169514175Y-82717938D01*
X169514176Y-82717943D01*
X169569732Y-82876714D01*
X169866610Y-82579837D01*
X170100000Y-82579837D01*
X170122836Y-82634968D01*
X170165032Y-82677164D01*
X170220163Y-82700000D01*
X170279837Y-82700000D01*
X170334968Y-82677164D01*
X170377164Y-82634968D01*
X170400000Y-82579837D01*
X170400000Y-82550001D01*
X170603553Y-82550001D01*
X170930266Y-82876714D01*
X170930267Y-82876713D01*
X170985824Y-82717943D01*
X171001780Y-82576328D01*
X171012528Y-82550747D01*
X171011789Y-82549252D01*
X171237471Y-82549252D01*
X171247140Y-82568817D01*
X171248220Y-82576328D01*
X171264175Y-82717938D01*
X171264176Y-82717943D01*
X171319732Y-82876714D01*
X171616610Y-82579837D01*
X171850000Y-82579837D01*
X171872836Y-82634968D01*
X171915032Y-82677164D01*
X171970163Y-82700000D01*
X172029837Y-82700000D01*
X172084968Y-82677164D01*
X172127164Y-82634968D01*
X172150000Y-82579837D01*
X172150000Y-82550001D01*
X172353553Y-82550001D01*
X172680266Y-82876714D01*
X172680267Y-82876713D01*
X172735824Y-82717943D01*
X172754746Y-82550003D01*
X172754746Y-82549996D01*
X172735824Y-82382056D01*
X172724266Y-82349026D01*
X174479032Y-82349026D01*
X174499227Y-82528272D01*
X174499228Y-82528277D01*
X174558808Y-82698546D01*
X174654781Y-82851285D01*
X174782337Y-82978841D01*
X174815253Y-82999523D01*
X174883658Y-83042504D01*
X174929950Y-83094838D01*
X174940907Y-83133615D01*
X174954581Y-83254984D01*
X174954582Y-83254989D01*
X175014162Y-83425258D01*
X175069019Y-83512562D01*
X175088019Y-83579799D01*
X175067651Y-83646634D01*
X175051707Y-83666215D01*
X174944448Y-83773474D01*
X174848476Y-83926211D01*
X174788896Y-84096480D01*
X174788895Y-84096485D01*
X174768700Y-84275731D01*
X174768700Y-84275738D01*
X174788895Y-84454984D01*
X174788896Y-84454989D01*
X174848476Y-84625258D01*
X174942024Y-84774137D01*
X174944449Y-84777997D01*
X175072003Y-84905551D01*
X175224743Y-85001524D01*
X175371453Y-85052860D01*
X175395010Y-85061103D01*
X175395015Y-85061104D01*
X175574261Y-85081300D01*
X175574265Y-85081300D01*
X175574269Y-85081300D01*
X175753514Y-85061104D01*
X175753517Y-85061103D01*
X175753520Y-85061103D01*
X175923787Y-85001524D01*
X176076527Y-84905551D01*
X176204081Y-84777997D01*
X176300054Y-84625257D01*
X176359633Y-84454990D01*
X176359634Y-84454984D01*
X176379830Y-84275738D01*
X176379830Y-84275731D01*
X176359634Y-84096485D01*
X176359633Y-84096480D01*
X176300053Y-83926210D01*
X176245197Y-83838909D01*
X176226196Y-83771672D01*
X176246563Y-83704837D01*
X176262509Y-83685255D01*
X176305350Y-83642414D01*
X176369767Y-83577997D01*
X176465740Y-83425257D01*
X176525319Y-83254990D01*
X176541246Y-83113637D01*
X176545516Y-83075738D01*
X176545516Y-83075731D01*
X176525320Y-82896485D01*
X176525319Y-82896480D01*
X176501796Y-82829255D01*
X176465740Y-82726213D01*
X176460540Y-82717938D01*
X176408407Y-82634968D01*
X176369767Y-82573473D01*
X176242213Y-82445919D01*
X176205477Y-82422836D01*
X176140888Y-82382252D01*
X176094597Y-82329917D01*
X176083640Y-82291141D01*
X176069966Y-82169772D01*
X176069965Y-82169768D01*
X176028055Y-82049996D01*
X176010386Y-81999501D01*
X175914413Y-81846761D01*
X175786859Y-81719207D01*
X175754307Y-81698753D01*
X175634120Y-81623234D01*
X175463851Y-81563654D01*
X175463846Y-81563653D01*
X175284601Y-81543458D01*
X175284593Y-81543458D01*
X175105347Y-81563653D01*
X175105342Y-81563654D01*
X174935073Y-81623234D01*
X174782334Y-81719207D01*
X174654781Y-81846760D01*
X174558808Y-81999499D01*
X174499228Y-82169768D01*
X174499227Y-82169773D01*
X174479032Y-82349019D01*
X174479032Y-82349026D01*
X172724266Y-82349026D01*
X172680266Y-82223285D01*
X172353553Y-82549999D01*
X172353553Y-82550001D01*
X172150000Y-82550001D01*
X172150000Y-82520163D01*
X172127164Y-82465032D01*
X172084968Y-82422836D01*
X172029837Y-82400000D01*
X171970163Y-82400000D01*
X171915032Y-82422836D01*
X171872836Y-82465032D01*
X171850000Y-82520163D01*
X171850000Y-82579837D01*
X171616610Y-82579837D01*
X171646447Y-82550000D01*
X171319732Y-82223285D01*
X171264176Y-82382053D01*
X171264175Y-82382058D01*
X171248220Y-82523671D01*
X171237471Y-82549252D01*
X171011789Y-82549252D01*
X171002860Y-82531182D01*
X171001780Y-82523671D01*
X170985824Y-82382056D01*
X170930266Y-82223285D01*
X170603553Y-82549999D01*
X170603553Y-82550001D01*
X170400000Y-82550001D01*
X170400000Y-82520163D01*
X170377164Y-82465032D01*
X170334968Y-82422836D01*
X170279837Y-82400000D01*
X170220163Y-82400000D01*
X170165032Y-82422836D01*
X170122836Y-82465032D01*
X170100000Y-82520163D01*
X170100000Y-82579837D01*
X169866610Y-82579837D01*
X169896447Y-82550000D01*
X169569732Y-82223285D01*
X169514176Y-82382053D01*
X169514175Y-82382058D01*
X169498220Y-82523671D01*
X169487471Y-82549252D01*
X169261789Y-82549252D01*
X169252860Y-82531182D01*
X169251780Y-82523671D01*
X169235824Y-82382056D01*
X169180266Y-82223285D01*
X168853553Y-82549999D01*
X168853553Y-82550001D01*
X168650000Y-82550001D01*
X168650000Y-82520163D01*
X168627164Y-82465032D01*
X168584968Y-82422836D01*
X168529837Y-82400000D01*
X168470163Y-82400000D01*
X168415032Y-82422836D01*
X168372836Y-82465032D01*
X168350000Y-82520163D01*
X168350000Y-82579837D01*
X168116610Y-82579837D01*
X168146447Y-82550000D01*
X167819732Y-82223285D01*
X167764176Y-82382053D01*
X167764175Y-82382058D01*
X167745254Y-82549996D01*
X167745254Y-82550003D01*
X163743923Y-82550003D01*
X163753983Y-82531182D01*
X163778811Y-82484733D01*
X163778811Y-82484732D01*
X163778814Y-82484727D01*
X163836024Y-82296132D01*
X163855341Y-82100000D01*
X163836024Y-81903868D01*
X163825669Y-81869732D01*
X168173285Y-81869732D01*
X168500000Y-82196447D01*
X168500001Y-82196447D01*
X168826714Y-81869732D01*
X169923285Y-81869732D01*
X170250000Y-82196447D01*
X170250001Y-82196447D01*
X170576714Y-81869732D01*
X171673285Y-81869732D01*
X172000000Y-82196447D01*
X172000001Y-82196447D01*
X172326714Y-81869732D01*
X172167943Y-81814176D01*
X172167938Y-81814175D01*
X172000004Y-81795254D01*
X171999996Y-81795254D01*
X171832058Y-81814175D01*
X171832053Y-81814176D01*
X171673285Y-81869732D01*
X170576714Y-81869732D01*
X170417943Y-81814176D01*
X170417938Y-81814175D01*
X170250004Y-81795254D01*
X170249996Y-81795254D01*
X170082058Y-81814175D01*
X170082053Y-81814176D01*
X169923285Y-81869732D01*
X168826714Y-81869732D01*
X168667943Y-81814176D01*
X168667938Y-81814175D01*
X168500004Y-81795254D01*
X168499996Y-81795254D01*
X168332058Y-81814175D01*
X168332053Y-81814176D01*
X168173285Y-81869732D01*
X163825669Y-81869732D01*
X163778814Y-81715273D01*
X163778811Y-81715269D01*
X163778811Y-81715266D01*
X163685913Y-81541467D01*
X163685909Y-81541460D01*
X163560883Y-81389116D01*
X163408539Y-81264090D01*
X163408532Y-81264086D01*
X163234733Y-81171188D01*
X163234727Y-81171186D01*
X163046132Y-81113976D01*
X163046129Y-81113975D01*
X162850000Y-81094659D01*
X162653870Y-81113975D01*
X162465266Y-81171188D01*
X162291467Y-81264086D01*
X162291460Y-81264090D01*
X162139116Y-81389116D01*
X162014090Y-81541460D01*
X162014086Y-81541467D01*
X161921188Y-81715266D01*
X161863975Y-81903870D01*
X161844659Y-82100000D01*
X157332078Y-82100000D01*
X157252262Y-82020184D01*
X157199958Y-81987319D01*
X157099523Y-81924211D01*
X156929255Y-81864632D01*
X156927182Y-81864159D01*
X156925976Y-81863484D01*
X156922682Y-81862332D01*
X156922883Y-81861754D01*
X156866203Y-81830051D01*
X156833345Y-81768390D01*
X156839039Y-81698753D01*
X156881477Y-81643248D01*
X156888779Y-81638287D01*
X156902262Y-81629816D01*
X157029816Y-81502262D01*
X157125789Y-81349522D01*
X157185368Y-81179255D01*
X157185369Y-81179249D01*
X157205565Y-81000003D01*
X157205565Y-80999996D01*
X157185369Y-80820750D01*
X157185368Y-80820745D01*
X157156518Y-80738297D01*
X157125789Y-80650478D01*
X157098212Y-80606589D01*
X157079212Y-80539352D01*
X157099580Y-80472517D01*
X157152848Y-80427303D01*
X157222104Y-80418066D01*
X157244161Y-80423576D01*
X157420737Y-80485363D01*
X157420743Y-80485364D01*
X157420745Y-80485365D01*
X157420746Y-80485365D01*
X157420750Y-80485366D01*
X157599996Y-80505562D01*
X157600000Y-80505562D01*
X157600004Y-80505562D01*
X157779249Y-80485366D01*
X157779252Y-80485365D01*
X157779255Y-80485365D01*
X157949522Y-80425786D01*
X158102262Y-80329813D01*
X158126635Y-80305439D01*
X158187956Y-80271953D01*
X158228196Y-80269898D01*
X158356357Y-80284338D01*
X158369221Y-80285788D01*
X158369222Y-80285788D01*
X158369226Y-80285788D01*
X158548471Y-80265592D01*
X158548474Y-80265591D01*
X158548477Y-80265591D01*
X158718744Y-80206012D01*
X158807882Y-80150003D01*
X173194435Y-80150003D01*
X173214630Y-80329249D01*
X173214631Y-80329254D01*
X173274211Y-80499523D01*
X173341486Y-80606589D01*
X173370184Y-80652262D01*
X173497738Y-80779816D01*
X173650478Y-80875789D01*
X173820745Y-80935368D01*
X173820750Y-80935369D01*
X173999996Y-80955565D01*
X174000000Y-80955565D01*
X174000004Y-80955565D01*
X174179249Y-80935369D01*
X174179252Y-80935368D01*
X174179255Y-80935368D01*
X174349522Y-80875789D01*
X174502262Y-80779816D01*
X174629816Y-80652262D01*
X174725789Y-80499522D01*
X174785368Y-80329255D01*
X174786511Y-80319111D01*
X174805565Y-80150003D01*
X174805565Y-80149996D01*
X174785369Y-79970750D01*
X174785368Y-79970745D01*
X174742326Y-79847738D01*
X174725789Y-79800478D01*
X174629816Y-79647738D01*
X174502262Y-79520184D01*
X174467256Y-79498188D01*
X174349523Y-79424211D01*
X174179254Y-79364631D01*
X174179249Y-79364630D01*
X174000004Y-79344435D01*
X173999996Y-79344435D01*
X173820750Y-79364630D01*
X173820745Y-79364631D01*
X173650476Y-79424211D01*
X173497737Y-79520184D01*
X173370184Y-79647737D01*
X173274211Y-79800476D01*
X173214631Y-79970745D01*
X173214630Y-79970750D01*
X173194435Y-80149996D01*
X173194435Y-80150003D01*
X158807882Y-80150003D01*
X158871484Y-80110039D01*
X158999038Y-79982485D01*
X159095011Y-79829745D01*
X159141967Y-79695549D01*
X159182689Y-79638775D01*
X159218056Y-79619463D01*
X159250333Y-79608169D01*
X159403073Y-79512196D01*
X159530627Y-79384642D01*
X159626600Y-79231902D01*
X159686179Y-79061635D01*
X159686180Y-79061629D01*
X159706376Y-78882383D01*
X159706376Y-78882376D01*
X159686180Y-78703130D01*
X159686179Y-78703125D01*
X159657353Y-78620745D01*
X159626600Y-78532858D01*
X159530627Y-78380118D01*
X159403073Y-78252564D01*
X159367096Y-78229958D01*
X159250334Y-78156591D01*
X159080065Y-78097011D01*
X159080060Y-78097010D01*
X158900815Y-78076815D01*
X158900807Y-78076815D01*
X158721561Y-78097010D01*
X158721556Y-78097011D01*
X158551287Y-78156591D01*
X158398548Y-78252564D01*
X158270995Y-78380117D01*
X158175021Y-78532858D01*
X158150736Y-78602262D01*
X158128071Y-78667038D01*
X158128066Y-78667051D01*
X158087344Y-78723827D01*
X158051983Y-78743137D01*
X158019700Y-78754434D01*
X158019699Y-78754434D01*
X158019695Y-78754436D01*
X157866958Y-78850408D01*
X157842583Y-78874783D01*
X157781259Y-78908267D01*
X157741020Y-78910320D01*
X157600004Y-78894432D01*
X157599996Y-78894432D01*
X157420750Y-78914627D01*
X157420745Y-78914628D01*
X157250476Y-78974208D01*
X157184244Y-79015825D01*
X157117007Y-79034825D01*
X157050172Y-79014457D01*
X157030591Y-78998513D01*
X157006286Y-78974208D01*
X156952262Y-78920184D01*
X156879187Y-78874268D01*
X156844186Y-78852275D01*
X156797895Y-78799940D01*
X156787247Y-78730886D01*
X156815622Y-78667038D01*
X156822453Y-78659624D01*
X156879816Y-78602262D01*
X156975789Y-78449522D01*
X157035368Y-78279255D01*
X157035759Y-78275788D01*
X157055565Y-78100003D01*
X157055565Y-78099996D01*
X157035369Y-77920750D01*
X157035368Y-77920745D01*
X156997232Y-77811758D01*
X156975789Y-77750478D01*
X156879816Y-77597738D01*
X156752262Y-77470184D01*
X156747338Y-77465260D01*
X156748865Y-77463732D01*
X156714694Y-77415042D01*
X156711848Y-77345231D01*
X156744465Y-77287612D01*
X156829816Y-77202262D01*
X156925789Y-77049522D01*
X156985368Y-76879255D01*
X156988664Y-76850003D01*
X157005565Y-76700003D01*
X157005565Y-76699996D01*
X156985369Y-76520750D01*
X156985368Y-76520745D01*
X156955052Y-76434108D01*
X156925789Y-76350478D01*
X156924067Y-76347738D01*
X156847260Y-76225500D01*
X156829816Y-76197738D01*
X156702262Y-76070184D01*
X156693426Y-76064632D01*
X156549523Y-75974211D01*
X156379254Y-75914631D01*
X156379249Y-75914630D01*
X156200004Y-75894435D01*
X156199996Y-75894435D01*
X156020750Y-75914630D01*
X156020745Y-75914631D01*
X155850476Y-75974211D01*
X155697737Y-76070184D01*
X155570184Y-76197737D01*
X155474211Y-76350476D01*
X155414631Y-76520745D01*
X155414630Y-76520749D01*
X155397724Y-76670802D01*
X155370657Y-76735216D01*
X155340477Y-76761911D01*
X155247740Y-76820182D01*
X155247737Y-76820184D01*
X155120184Y-76947737D01*
X155024211Y-77100476D01*
X154964631Y-77270745D01*
X154964630Y-77270750D01*
X154944435Y-77449996D01*
X154944435Y-77450003D01*
X154964630Y-77629249D01*
X154964631Y-77629254D01*
X155024211Y-77799523D01*
X155120184Y-77952262D01*
X155247739Y-78079817D01*
X155293499Y-78108570D01*
X155339789Y-78160904D01*
X155350437Y-78229958D01*
X155322062Y-78293806D01*
X155315208Y-78301244D01*
X155244448Y-78372004D01*
X155148476Y-78524741D01*
X155088896Y-78695010D01*
X155088895Y-78695015D01*
X155068700Y-78874261D01*
X155068700Y-78874268D01*
X155088895Y-79053514D01*
X155088896Y-79053519D01*
X155148476Y-79223788D01*
X155244449Y-79376527D01*
X155366110Y-79498188D01*
X155399595Y-79559511D01*
X155394611Y-79629203D01*
X155352739Y-79685136D01*
X155344402Y-79690862D01*
X155297740Y-79720182D01*
X155297737Y-79720184D01*
X155170184Y-79847737D01*
X155074211Y-80000476D01*
X155014631Y-80170745D01*
X155014630Y-80170750D01*
X154994435Y-80349996D01*
X154994435Y-80350003D01*
X155014630Y-80529249D01*
X155014631Y-80529254D01*
X155074211Y-80699523D01*
X155150384Y-80820750D01*
X155170184Y-80852262D01*
X155297738Y-80979816D01*
X155354504Y-81015484D01*
X155450477Y-81075789D01*
X155484417Y-81087664D01*
X155539915Y-81107084D01*
X155596691Y-81147804D01*
X155616000Y-81183167D01*
X155635383Y-81238558D01*
X155674210Y-81349521D01*
X155737347Y-81450003D01*
X155770184Y-81502262D01*
X155897738Y-81629816D01*
X155919115Y-81643248D01*
X156040002Y-81719207D01*
X156050478Y-81725789D01*
X156220745Y-81785368D01*
X156220754Y-81785369D01*
X156222807Y-81785838D01*
X156224008Y-81786510D01*
X156227318Y-81787668D01*
X156227115Y-81788247D01*
X156283788Y-81819941D01*
X156316652Y-81881599D01*
X156310964Y-81951237D01*
X156268530Y-82006745D01*
X156261201Y-82011724D01*
X156247739Y-82020182D01*
X156120184Y-82147737D01*
X156024211Y-82300476D01*
X155974675Y-82442044D01*
X155933953Y-82498820D01*
X155869000Y-82524567D01*
X155816681Y-82518132D01*
X155786359Y-82507522D01*
X155607112Y-82487327D01*
X155607104Y-82487327D01*
X155427858Y-82507522D01*
X155427853Y-82507523D01*
X155257584Y-82567103D01*
X155104845Y-82663076D01*
X154977292Y-82790629D01*
X154881319Y-82943368D01*
X154821739Y-83113637D01*
X154821738Y-83113642D01*
X154801543Y-83292888D01*
X154801543Y-83292895D01*
X130250000Y-83292895D01*
X130250000Y-81000003D01*
X137894435Y-81000003D01*
X137914630Y-81179249D01*
X137914631Y-81179254D01*
X137974211Y-81349523D01*
X138037347Y-81450003D01*
X138070184Y-81502262D01*
X138197738Y-81629816D01*
X138310193Y-81700476D01*
X138350478Y-81725789D01*
X138478883Y-81770720D01*
X138535660Y-81811442D01*
X138561407Y-81876395D01*
X138561149Y-81901645D01*
X138544435Y-82049995D01*
X138544435Y-82050003D01*
X138564630Y-82229249D01*
X138564631Y-82229254D01*
X138624211Y-82399523D01*
X138718293Y-82549252D01*
X138720184Y-82552262D01*
X138847738Y-82679816D01*
X139000478Y-82775789D01*
X139100771Y-82810883D01*
X139170745Y-82835368D01*
X139170750Y-82835369D01*
X139349996Y-82855565D01*
X139350000Y-82855565D01*
X139350004Y-82855565D01*
X139529249Y-82835369D01*
X139529252Y-82835368D01*
X139529255Y-82835368D01*
X139699522Y-82775789D01*
X139852262Y-82679816D01*
X139979816Y-82552262D01*
X140075789Y-82399522D01*
X140135368Y-82229255D01*
X140138919Y-82197738D01*
X140155565Y-82050003D01*
X140155565Y-82049996D01*
X140135369Y-81870750D01*
X140135368Y-81870745D01*
X140126162Y-81844435D01*
X140075789Y-81700478D01*
X139979816Y-81547738D01*
X139852262Y-81420184D01*
X139739806Y-81349523D01*
X139699521Y-81324210D01*
X139601625Y-81289955D01*
X139571115Y-81279279D01*
X139514340Y-81238558D01*
X139488592Y-81173606D01*
X139488850Y-81148355D01*
X139505565Y-81000003D01*
X139505565Y-80999996D01*
X139485369Y-80820750D01*
X139485368Y-80820745D01*
X139456518Y-80738297D01*
X139425789Y-80650478D01*
X139329816Y-80497738D01*
X139202262Y-80370184D01*
X139170144Y-80350003D01*
X139049523Y-80274211D01*
X138879254Y-80214631D01*
X138879249Y-80214630D01*
X138700004Y-80194435D01*
X138699996Y-80194435D01*
X138520750Y-80214630D01*
X138520745Y-80214631D01*
X138350476Y-80274211D01*
X138197737Y-80370184D01*
X138070184Y-80497737D01*
X137974211Y-80650476D01*
X137914631Y-80820745D01*
X137914630Y-80820750D01*
X137894435Y-80999996D01*
X137894435Y-81000003D01*
X130250000Y-81000003D01*
X130250000Y-79843995D01*
X130499499Y-79843995D01*
X130526418Y-79979322D01*
X130526421Y-79979332D01*
X130579221Y-80106804D01*
X130579228Y-80106817D01*
X130655885Y-80221541D01*
X130655888Y-80221545D01*
X130753454Y-80319111D01*
X130753458Y-80319114D01*
X130868182Y-80395771D01*
X130868195Y-80395778D01*
X130995667Y-80448578D01*
X130995672Y-80448580D01*
X130995676Y-80448580D01*
X130995677Y-80448581D01*
X131131004Y-80475500D01*
X131131007Y-80475500D01*
X131268995Y-80475500D01*
X131360041Y-80457389D01*
X131404328Y-80448580D01*
X131531811Y-80395775D01*
X131646542Y-80319114D01*
X131744114Y-80221542D01*
X131820775Y-80106811D01*
X131873580Y-79979328D01*
X131899755Y-79847738D01*
X131900500Y-79843995D01*
X131900500Y-79706004D01*
X131873581Y-79570677D01*
X131873580Y-79570676D01*
X131873580Y-79570672D01*
X131854989Y-79525788D01*
X131820778Y-79443195D01*
X131820771Y-79443182D01*
X131744114Y-79328458D01*
X131744111Y-79328454D01*
X131646545Y-79230888D01*
X131646541Y-79230885D01*
X131531817Y-79154228D01*
X131531804Y-79154221D01*
X131404332Y-79101421D01*
X131404322Y-79101418D01*
X131268995Y-79074500D01*
X131268993Y-79074500D01*
X131131007Y-79074500D01*
X131131005Y-79074500D01*
X130995677Y-79101418D01*
X130995667Y-79101421D01*
X130868195Y-79154221D01*
X130868182Y-79154228D01*
X130753458Y-79230885D01*
X130753454Y-79230888D01*
X130655888Y-79328454D01*
X130655885Y-79328458D01*
X130579228Y-79443182D01*
X130579221Y-79443195D01*
X130526421Y-79570667D01*
X130526418Y-79570677D01*
X130499500Y-79706004D01*
X130499500Y-79706007D01*
X130499500Y-79843993D01*
X130499500Y-79843995D01*
X130499499Y-79843995D01*
X130250000Y-79843995D01*
X130250000Y-77900000D01*
X142494659Y-77900000D01*
X142513975Y-78096129D01*
X142513976Y-78096132D01*
X142568474Y-78275788D01*
X142571188Y-78284733D01*
X142664086Y-78458532D01*
X142664090Y-78458539D01*
X142789116Y-78610883D01*
X142941460Y-78735909D01*
X142941467Y-78735913D01*
X143115266Y-78828811D01*
X143115269Y-78828811D01*
X143115273Y-78828814D01*
X143303868Y-78886024D01*
X143500000Y-78905341D01*
X143696132Y-78886024D01*
X143884727Y-78828814D01*
X143976381Y-78779824D01*
X144016547Y-78758355D01*
X144084949Y-78744113D01*
X144133453Y-78758355D01*
X144211371Y-78800003D01*
X144265273Y-78828814D01*
X144453868Y-78886024D01*
X144650000Y-78905341D01*
X144846132Y-78886024D01*
X145034727Y-78828814D01*
X145088747Y-78799940D01*
X145173882Y-78754434D01*
X145208538Y-78735910D01*
X145360883Y-78610883D01*
X145485910Y-78458538D01*
X145565888Y-78308910D01*
X145578811Y-78284733D01*
X145578811Y-78284732D01*
X145578814Y-78284727D01*
X145636024Y-78096132D01*
X145655341Y-77900000D01*
X145636024Y-77703868D01*
X145578814Y-77515273D01*
X145578811Y-77515269D01*
X145578811Y-77515266D01*
X145485913Y-77341467D01*
X145485909Y-77341460D01*
X145360883Y-77189116D01*
X145208539Y-77064090D01*
X145208532Y-77064086D01*
X145034733Y-76971188D01*
X145034727Y-76971186D01*
X144846132Y-76913976D01*
X144846129Y-76913975D01*
X144650000Y-76894659D01*
X144453870Y-76913975D01*
X144265266Y-76971188D01*
X144133453Y-77041644D01*
X144065050Y-77055886D01*
X144016547Y-77041644D01*
X143884733Y-76971188D01*
X143884727Y-76971186D01*
X143696132Y-76913976D01*
X143696129Y-76913975D01*
X143500000Y-76894659D01*
X143303870Y-76913975D01*
X143115266Y-76971188D01*
X142941467Y-77064086D01*
X142941460Y-77064090D01*
X142789116Y-77189116D01*
X142664090Y-77341460D01*
X142664086Y-77341467D01*
X142571188Y-77515266D01*
X142513975Y-77703870D01*
X142494659Y-77900000D01*
X130250000Y-77900000D01*
X130250000Y-76700003D01*
X136394435Y-76700003D01*
X136414630Y-76879249D01*
X136414631Y-76879254D01*
X136474211Y-77049523D01*
X136546180Y-77164060D01*
X136570184Y-77202262D01*
X136697738Y-77329816D01*
X136784434Y-77384291D01*
X136795065Y-77390971D01*
X136850478Y-77425789D01*
X136921038Y-77450479D01*
X137020745Y-77485368D01*
X137020750Y-77485369D01*
X137199996Y-77505565D01*
X137200000Y-77505565D01*
X137200004Y-77505565D01*
X137379249Y-77485369D01*
X137379252Y-77485368D01*
X137379255Y-77485368D01*
X137549522Y-77425789D01*
X137702262Y-77329816D01*
X137829816Y-77202262D01*
X137925789Y-77049522D01*
X137985368Y-76879255D01*
X137988664Y-76850003D01*
X138005565Y-76700003D01*
X138005565Y-76699996D01*
X137985369Y-76520750D01*
X137985368Y-76520745D01*
X137955052Y-76434108D01*
X137925789Y-76350478D01*
X137924067Y-76347738D01*
X137862656Y-76250003D01*
X149744435Y-76250003D01*
X149764630Y-76429249D01*
X149764631Y-76429254D01*
X149824211Y-76599523D01*
X149887347Y-76700003D01*
X149920184Y-76752262D01*
X150047738Y-76879816D01*
X150138080Y-76936582D01*
X150193155Y-76971188D01*
X150200478Y-76975789D01*
X150354878Y-77029816D01*
X150370745Y-77035368D01*
X150370750Y-77035369D01*
X150549996Y-77055565D01*
X150550000Y-77055565D01*
X150550004Y-77055565D01*
X150729249Y-77035369D01*
X150729252Y-77035368D01*
X150729255Y-77035368D01*
X150899522Y-76975789D01*
X151052262Y-76879816D01*
X151179816Y-76752262D01*
X151275789Y-76599522D01*
X151335368Y-76429255D01*
X151342171Y-76368880D01*
X151355565Y-76250003D01*
X151355565Y-76249996D01*
X151335369Y-76070750D01*
X151335368Y-76070745D01*
X151303354Y-75979254D01*
X151275789Y-75900478D01*
X151264452Y-75882436D01*
X151208207Y-75792922D01*
X151179816Y-75747738D01*
X151052262Y-75620184D01*
X151012526Y-75595216D01*
X150899523Y-75524211D01*
X150729254Y-75464631D01*
X150729249Y-75464630D01*
X150550004Y-75444435D01*
X150549996Y-75444435D01*
X150370750Y-75464630D01*
X150370745Y-75464631D01*
X150200476Y-75524211D01*
X150047737Y-75620184D01*
X149920184Y-75747737D01*
X149824211Y-75900476D01*
X149764631Y-76070745D01*
X149764630Y-76070750D01*
X149744435Y-76249996D01*
X149744435Y-76250003D01*
X137862656Y-76250003D01*
X137847260Y-76225500D01*
X137829816Y-76197738D01*
X137702262Y-76070184D01*
X137693426Y-76064632D01*
X137549523Y-75974211D01*
X137379254Y-75914631D01*
X137379249Y-75914630D01*
X137200004Y-75894435D01*
X137199996Y-75894435D01*
X137020750Y-75914630D01*
X137020745Y-75914631D01*
X136850476Y-75974211D01*
X136697737Y-76070184D01*
X136570184Y-76197737D01*
X136474211Y-76350476D01*
X136414631Y-76520745D01*
X136414630Y-76520750D01*
X136394435Y-76699996D01*
X136394435Y-76700003D01*
X130250000Y-76700003D01*
X130250000Y-75593995D01*
X130499499Y-75593995D01*
X130526418Y-75729322D01*
X130526421Y-75729332D01*
X130579221Y-75856804D01*
X130579228Y-75856817D01*
X130655885Y-75971541D01*
X130655888Y-75971545D01*
X130753454Y-76069111D01*
X130753458Y-76069114D01*
X130868182Y-76145771D01*
X130868195Y-76145778D01*
X130993637Y-76197737D01*
X130995672Y-76198580D01*
X130995676Y-76198580D01*
X130995677Y-76198581D01*
X131131004Y-76225500D01*
X131131007Y-76225500D01*
X131268995Y-76225500D01*
X131360041Y-76207389D01*
X131404328Y-76198580D01*
X131502924Y-76157740D01*
X131531804Y-76145778D01*
X131531804Y-76145777D01*
X131531811Y-76145775D01*
X131646542Y-76069114D01*
X131744114Y-75971542D01*
X131820775Y-75856811D01*
X131821285Y-75855581D01*
X131845244Y-75797737D01*
X131873580Y-75729328D01*
X131892461Y-75634408D01*
X131900500Y-75593995D01*
X131900500Y-75456004D01*
X131873581Y-75320677D01*
X131873580Y-75320676D01*
X131873580Y-75320672D01*
X131873578Y-75320667D01*
X131820778Y-75193195D01*
X131820771Y-75193182D01*
X131744114Y-75078458D01*
X131744111Y-75078454D01*
X131715660Y-75050003D01*
X161344435Y-75050003D01*
X161364630Y-75229249D01*
X161364631Y-75229254D01*
X161424211Y-75399523D01*
X161483849Y-75494435D01*
X161520184Y-75552262D01*
X161647738Y-75679816D01*
X161726526Y-75729322D01*
X161800361Y-75775716D01*
X161800478Y-75775789D01*
X161970739Y-75835366D01*
X161970745Y-75835368D01*
X161970750Y-75835369D01*
X162149996Y-75855565D01*
X162150000Y-75855565D01*
X162150004Y-75855565D01*
X162329249Y-75835369D01*
X162329251Y-75835368D01*
X162329255Y-75835368D01*
X162329258Y-75835366D01*
X162329262Y-75835366D01*
X162436798Y-75797737D01*
X162489548Y-75779278D01*
X162559325Y-75775716D01*
X162619953Y-75810445D01*
X162652180Y-75872438D01*
X162653722Y-75882436D01*
X162664630Y-75979250D01*
X162664631Y-75979254D01*
X162724211Y-76149523D01*
X162787347Y-76250003D01*
X162820184Y-76302262D01*
X162947738Y-76429816D01*
X162954569Y-76434108D01*
X163092450Y-76520745D01*
X163100478Y-76525789D01*
X163209851Y-76564060D01*
X163266627Y-76604782D01*
X163285938Y-76640146D01*
X163324211Y-76749523D01*
X163324212Y-76749524D01*
X163387347Y-76850003D01*
X163420184Y-76902262D01*
X163547738Y-77029816D01*
X163602285Y-77064090D01*
X163690478Y-77119506D01*
X163700478Y-77125789D01*
X163809851Y-77164060D01*
X163866627Y-77204782D01*
X163885938Y-77240146D01*
X163924211Y-77349523D01*
X163924212Y-77349524D01*
X163995974Y-77463732D01*
X164020184Y-77502262D01*
X164147738Y-77629816D01*
X164300478Y-77725789D01*
X164429789Y-77771037D01*
X164486564Y-77811758D01*
X164505875Y-77847122D01*
X164524211Y-77899523D01*
X164524212Y-77899524D01*
X164574315Y-77979262D01*
X164620184Y-78052262D01*
X164747738Y-78179816D01*
X164838080Y-78236582D01*
X164863515Y-78252564D01*
X164900478Y-78275789D01*
X164926022Y-78284727D01*
X164995133Y-78308910D01*
X165051909Y-78349632D01*
X165071220Y-78384997D01*
X165099286Y-78465206D01*
X165185403Y-78602259D01*
X165195262Y-78617949D01*
X165322816Y-78745503D01*
X165337030Y-78754434D01*
X165455404Y-78828814D01*
X165475556Y-78841476D01*
X165602867Y-78886024D01*
X165645823Y-78901055D01*
X165645828Y-78901056D01*
X165825074Y-78921252D01*
X165825078Y-78921252D01*
X165825082Y-78921252D01*
X166004327Y-78901056D01*
X166004330Y-78901055D01*
X166004333Y-78901055D01*
X166174600Y-78841476D01*
X166240604Y-78800003D01*
X167994435Y-78800003D01*
X168014630Y-78979249D01*
X168014631Y-78979254D01*
X168074211Y-79149523D01*
X168125974Y-79231902D01*
X168170184Y-79302262D01*
X168297738Y-79429816D01*
X168319010Y-79443182D01*
X168441557Y-79520184D01*
X168450478Y-79525789D01*
X168546850Y-79559511D01*
X168620745Y-79585368D01*
X168620750Y-79585369D01*
X168799996Y-79605565D01*
X168800000Y-79605565D01*
X168800004Y-79605565D01*
X168979249Y-79585369D01*
X168979252Y-79585368D01*
X168979255Y-79585368D01*
X169149522Y-79525789D01*
X169302262Y-79429816D01*
X169429816Y-79302262D01*
X169525789Y-79149522D01*
X169585368Y-78979255D01*
X169585937Y-78974208D01*
X169605565Y-78800003D01*
X169605565Y-78799996D01*
X169594299Y-78700003D01*
X170694435Y-78700003D01*
X170714630Y-78879249D01*
X170714631Y-78879254D01*
X170774211Y-79049523D01*
X170806821Y-79101421D01*
X170870184Y-79202262D01*
X170997738Y-79329816D01*
X171072078Y-79376527D01*
X171147966Y-79424211D01*
X171150478Y-79425789D01*
X171320745Y-79485368D01*
X171320750Y-79485369D01*
X171499996Y-79505565D01*
X171500000Y-79505565D01*
X171500004Y-79505565D01*
X171679249Y-79485369D01*
X171679252Y-79485368D01*
X171679255Y-79485368D01*
X171849522Y-79425789D01*
X172002262Y-79329816D01*
X172129816Y-79202262D01*
X172225789Y-79049522D01*
X172285368Y-78879255D01*
X172285930Y-78874268D01*
X172305565Y-78700003D01*
X172305565Y-78699996D01*
X172285369Y-78520750D01*
X172285368Y-78520745D01*
X172225788Y-78350475D01*
X172204108Y-78315973D01*
X172185107Y-78248737D01*
X172204108Y-78184027D01*
X172225788Y-78149524D01*
X172237628Y-78115687D01*
X172285368Y-77979255D01*
X172285369Y-77979249D01*
X172305565Y-77800003D01*
X172305565Y-77799996D01*
X172285369Y-77620750D01*
X172285368Y-77620745D01*
X172282806Y-77613424D01*
X172225789Y-77450478D01*
X172188397Y-77390969D01*
X172169397Y-77323737D01*
X172188397Y-77259030D01*
X172225789Y-77199522D01*
X172285368Y-77029255D01*
X172291392Y-76975789D01*
X172305565Y-76850003D01*
X172305565Y-76849996D01*
X172285369Y-76670750D01*
X172285368Y-76670745D01*
X172274661Y-76640146D01*
X172225789Y-76500478D01*
X172129816Y-76347738D01*
X172002262Y-76220184D01*
X171967881Y-76198581D01*
X171849523Y-76124211D01*
X171679254Y-76064631D01*
X171679249Y-76064630D01*
X171500004Y-76044435D01*
X171499996Y-76044435D01*
X171320750Y-76064630D01*
X171320745Y-76064631D01*
X171150476Y-76124211D01*
X170997737Y-76220184D01*
X170870184Y-76347737D01*
X170774211Y-76500476D01*
X170714631Y-76670745D01*
X170714630Y-76670750D01*
X170694435Y-76849996D01*
X170694435Y-76850003D01*
X170714630Y-77029249D01*
X170714631Y-77029254D01*
X170774212Y-77199525D01*
X170811600Y-77259029D01*
X170830600Y-77326266D01*
X170811600Y-77390971D01*
X170774212Y-77450474D01*
X170714631Y-77620745D01*
X170714630Y-77620750D01*
X170694435Y-77799996D01*
X170694435Y-77800003D01*
X170714630Y-77979249D01*
X170714633Y-77979262D01*
X170774209Y-78149519D01*
X170795893Y-78184030D01*
X170814892Y-78251267D01*
X170795893Y-78315970D01*
X170774209Y-78350480D01*
X170714633Y-78520737D01*
X170714630Y-78520750D01*
X170694435Y-78699996D01*
X170694435Y-78700003D01*
X169594299Y-78700003D01*
X169585369Y-78620750D01*
X169585368Y-78620745D01*
X169581917Y-78610883D01*
X169525789Y-78450478D01*
X169525188Y-78449522D01*
X169462423Y-78349632D01*
X169429816Y-78297738D01*
X169302262Y-78170184D01*
X169269374Y-78149519D01*
X169149523Y-78074211D01*
X168979254Y-78014631D01*
X168979249Y-78014630D01*
X168800004Y-77994435D01*
X168799996Y-77994435D01*
X168620750Y-78014630D01*
X168620745Y-78014631D01*
X168450476Y-78074211D01*
X168297737Y-78170184D01*
X168170184Y-78297737D01*
X168074211Y-78450476D01*
X168014631Y-78620745D01*
X168014630Y-78620750D01*
X167994435Y-78799996D01*
X167994435Y-78800003D01*
X166240604Y-78800003D01*
X166327340Y-78745503D01*
X166454894Y-78617949D01*
X166550867Y-78465209D01*
X166610446Y-78294942D01*
X166610574Y-78293806D01*
X166630643Y-78115690D01*
X166630643Y-78115683D01*
X166610447Y-77936437D01*
X166610446Y-77936432D01*
X166579195Y-77847122D01*
X166550867Y-77766165D01*
X166454894Y-77613425D01*
X166327340Y-77485871D01*
X166326539Y-77485368D01*
X166174597Y-77389895D01*
X166079942Y-77356774D01*
X166023166Y-77316052D01*
X166003856Y-77280690D01*
X166000376Y-77270745D01*
X165993085Y-77249910D01*
X165989523Y-77180134D01*
X166024251Y-77119506D01*
X166086244Y-77087278D01*
X166124011Y-77085736D01*
X166299997Y-77105565D01*
X166300000Y-77105565D01*
X166300004Y-77105565D01*
X166479249Y-77085369D01*
X166479252Y-77085368D01*
X166479255Y-77085368D01*
X166649522Y-77025789D01*
X166802262Y-76929816D01*
X166929816Y-76802262D01*
X167025789Y-76649522D01*
X167085368Y-76479255D01*
X167090455Y-76434108D01*
X167105565Y-76300003D01*
X167105565Y-76299996D01*
X167085369Y-76120750D01*
X167085368Y-76120745D01*
X167067676Y-76070184D01*
X167025789Y-75950478D01*
X167003265Y-75914632D01*
X166953461Y-75835369D01*
X166929816Y-75797738D01*
X166802262Y-75670184D01*
X166716373Y-75616216D01*
X166649523Y-75574211D01*
X166479254Y-75514631D01*
X166479249Y-75514630D01*
X166300004Y-75494435D01*
X166299996Y-75494435D01*
X166120750Y-75514630D01*
X166120745Y-75514631D01*
X165950476Y-75574211D01*
X165815972Y-75658727D01*
X165748736Y-75677727D01*
X165684028Y-75658727D01*
X165549523Y-75574211D01*
X165379254Y-75514631D01*
X165379249Y-75514630D01*
X165200004Y-75494435D01*
X165199996Y-75494435D01*
X165020750Y-75514630D01*
X165020745Y-75514631D01*
X164850476Y-75574211D01*
X164697737Y-75670184D01*
X164650112Y-75717809D01*
X164588789Y-75751293D01*
X164519097Y-75746308D01*
X164496460Y-75735121D01*
X164399524Y-75674212D01*
X164399523Y-75674211D01*
X164290146Y-75635938D01*
X164233371Y-75595216D01*
X164214060Y-75559851D01*
X164175789Y-75450478D01*
X164079816Y-75297738D01*
X163952262Y-75170184D01*
X163947074Y-75166924D01*
X163859523Y-75111912D01*
X163813232Y-75059577D01*
X163802275Y-75020801D01*
X163785369Y-74870750D01*
X163785368Y-74870745D01*
X163768259Y-74821851D01*
X163725789Y-74700478D01*
X163629816Y-74547738D01*
X163502262Y-74420184D01*
X163425000Y-74371637D01*
X163349523Y-74324211D01*
X163179254Y-74264631D01*
X163179249Y-74264630D01*
X163000004Y-74244435D01*
X162999996Y-74244435D01*
X162820750Y-74264630D01*
X162820745Y-74264631D01*
X162650474Y-74324212D01*
X162640968Y-74330185D01*
X162573731Y-74349183D01*
X162509032Y-74330185D01*
X162499525Y-74324212D01*
X162329254Y-74264631D01*
X162329249Y-74264630D01*
X162150004Y-74244435D01*
X162149996Y-74244435D01*
X161970750Y-74264630D01*
X161970745Y-74264631D01*
X161800476Y-74324211D01*
X161647737Y-74420184D01*
X161520184Y-74547737D01*
X161424211Y-74700476D01*
X161364631Y-74870745D01*
X161364630Y-74870750D01*
X161344435Y-75049996D01*
X161344435Y-75050003D01*
X131715660Y-75050003D01*
X131646545Y-74980888D01*
X131646541Y-74980885D01*
X131531817Y-74904228D01*
X131531804Y-74904221D01*
X131404332Y-74851421D01*
X131404322Y-74851418D01*
X131268995Y-74824500D01*
X131268993Y-74824500D01*
X131131007Y-74824500D01*
X131131005Y-74824500D01*
X130995677Y-74851418D01*
X130995667Y-74851421D01*
X130868195Y-74904221D01*
X130868182Y-74904228D01*
X130753458Y-74980885D01*
X130753454Y-74980888D01*
X130655888Y-75078454D01*
X130655885Y-75078458D01*
X130579228Y-75193182D01*
X130579221Y-75193195D01*
X130526421Y-75320667D01*
X130526418Y-75320677D01*
X130499500Y-75456004D01*
X130499500Y-75456007D01*
X130499500Y-75593993D01*
X130499500Y-75593995D01*
X130499499Y-75593995D01*
X130250000Y-75593995D01*
X130250000Y-73350003D01*
X162994435Y-73350003D01*
X163014630Y-73529249D01*
X163014631Y-73529254D01*
X163074211Y-73699523D01*
X163163641Y-73841849D01*
X163170184Y-73852262D01*
X163297738Y-73979816D01*
X163450478Y-74075789D01*
X163620745Y-74135368D01*
X163620750Y-74135369D01*
X163799996Y-74155565D01*
X163800000Y-74155565D01*
X163800004Y-74155565D01*
X163979249Y-74135369D01*
X163979252Y-74135368D01*
X163979255Y-74135368D01*
X164149522Y-74075789D01*
X164302262Y-73979816D01*
X164429816Y-73852262D01*
X164525789Y-73699522D01*
X164547397Y-73637766D01*
X164588118Y-73580992D01*
X164650554Y-73555502D01*
X164743914Y-73544983D01*
X164829249Y-73535369D01*
X164829252Y-73535368D01*
X164829255Y-73535368D01*
X164999522Y-73475789D01*
X165152262Y-73379816D01*
X165279816Y-73252262D01*
X165375789Y-73099522D01*
X165435368Y-72929255D01*
X165455565Y-72750000D01*
X165441392Y-72624211D01*
X165435369Y-72570750D01*
X165435368Y-72570745D01*
X165375788Y-72400476D01*
X165279815Y-72247737D01*
X165152262Y-72120184D01*
X164999523Y-72024211D01*
X164829254Y-71964631D01*
X164829249Y-71964630D01*
X164650004Y-71944435D01*
X164649996Y-71944435D01*
X164470750Y-71964630D01*
X164470745Y-71964631D01*
X164300476Y-72024211D01*
X164147737Y-72120184D01*
X164020184Y-72247737D01*
X163924212Y-72400474D01*
X163902601Y-72462234D01*
X163861878Y-72519009D01*
X163799444Y-72544497D01*
X163620749Y-72564630D01*
X163620745Y-72564631D01*
X163450476Y-72624211D01*
X163297737Y-72720184D01*
X163170184Y-72847737D01*
X163074211Y-73000476D01*
X163014631Y-73170745D01*
X163014630Y-73170750D01*
X162994435Y-73349996D01*
X162994435Y-73350003D01*
X130250000Y-73350003D01*
X130250000Y-71450000D01*
X168894659Y-71450000D01*
X168913975Y-71646129D01*
X168971188Y-71834733D01*
X169064086Y-72008532D01*
X169064090Y-72008539D01*
X169189116Y-72160883D01*
X169341460Y-72285909D01*
X169341467Y-72285913D01*
X169515266Y-72378811D01*
X169515269Y-72378811D01*
X169515273Y-72378814D01*
X169703868Y-72436024D01*
X169900000Y-72455341D01*
X170096132Y-72436024D01*
X170284727Y-72378814D01*
X170458538Y-72285910D01*
X170610883Y-72160883D01*
X170735910Y-72008538D01*
X170828814Y-71834727D01*
X170886024Y-71646132D01*
X170905341Y-71450000D01*
X175294659Y-71450000D01*
X175313975Y-71646129D01*
X175371188Y-71834733D01*
X175464086Y-72008532D01*
X175464090Y-72008539D01*
X175589116Y-72160883D01*
X175741460Y-72285909D01*
X175741467Y-72285913D01*
X175915266Y-72378811D01*
X175915269Y-72378811D01*
X175915273Y-72378814D01*
X176103868Y-72436024D01*
X176300000Y-72455341D01*
X176496132Y-72436024D01*
X176684727Y-72378814D01*
X176858538Y-72285910D01*
X177010883Y-72160883D01*
X177135910Y-72008538D01*
X177228814Y-71834727D01*
X177286024Y-71646132D01*
X177305341Y-71450000D01*
X177286024Y-71253868D01*
X177228814Y-71065273D01*
X177228811Y-71065269D01*
X177228811Y-71065266D01*
X177135913Y-70891467D01*
X177135909Y-70891460D01*
X177010883Y-70739116D01*
X176858539Y-70614090D01*
X176858532Y-70614086D01*
X176684733Y-70521188D01*
X176684727Y-70521186D01*
X176496132Y-70463976D01*
X176496129Y-70463975D01*
X176300000Y-70444659D01*
X176103870Y-70463975D01*
X175915266Y-70521188D01*
X175741467Y-70614086D01*
X175741460Y-70614090D01*
X175589116Y-70739116D01*
X175464090Y-70891460D01*
X175464086Y-70891467D01*
X175371188Y-71065266D01*
X175313975Y-71253870D01*
X175294659Y-71450000D01*
X170905341Y-71450000D01*
X170886024Y-71253868D01*
X170828814Y-71065273D01*
X170828811Y-71065269D01*
X170828811Y-71065266D01*
X170735913Y-70891467D01*
X170735909Y-70891460D01*
X170610883Y-70739116D01*
X170458539Y-70614090D01*
X170458532Y-70614086D01*
X170284733Y-70521188D01*
X170284727Y-70521186D01*
X170096132Y-70463976D01*
X170096129Y-70463975D01*
X169900000Y-70444659D01*
X169703870Y-70463975D01*
X169515266Y-70521188D01*
X169341467Y-70614086D01*
X169341460Y-70614090D01*
X169189116Y-70739116D01*
X169064090Y-70891460D01*
X169064086Y-70891467D01*
X168971188Y-71065266D01*
X168913975Y-71253870D01*
X168894659Y-71450000D01*
X130250000Y-71450000D01*
X130250000Y-68901278D01*
X130269685Y-68834239D01*
X130286216Y-68813700D01*
X130572109Y-68527136D01*
X130632412Y-68466691D01*
X130693695Y-68433135D01*
X130763392Y-68438037D01*
X130816559Y-68476232D01*
X130819210Y-68479506D01*
X130819215Y-68479511D01*
X130819219Y-68479516D01*
X131093484Y-68753781D01*
X131235774Y-68869005D01*
X131394917Y-68997877D01*
X131720206Y-69209122D01*
X131720211Y-69209125D01*
X132065806Y-69385214D01*
X132427913Y-69524214D01*
X132802567Y-69624602D01*
X133185662Y-69685278D01*
X133551576Y-69704455D01*
X133572999Y-69705578D01*
X133573000Y-69705578D01*
X133573001Y-69705578D01*
X133593301Y-69704514D01*
X133960338Y-69685278D01*
X134343433Y-69624602D01*
X134621852Y-69550000D01*
X154844659Y-69550000D01*
X154863975Y-69746129D01*
X154921188Y-69934733D01*
X155014086Y-70108532D01*
X155014090Y-70108539D01*
X155139116Y-70260883D01*
X155291460Y-70385909D01*
X155291467Y-70385913D01*
X155465266Y-70478811D01*
X155465269Y-70478811D01*
X155465273Y-70478814D01*
X155653868Y-70536024D01*
X155850000Y-70555341D01*
X156046132Y-70536024D01*
X156234727Y-70478814D01*
X156298627Y-70444659D01*
X156408532Y-70385913D01*
X156408538Y-70385910D01*
X156560883Y-70260883D01*
X156685910Y-70108538D01*
X156778814Y-69934727D01*
X156836024Y-69746132D01*
X156855341Y-69550000D01*
X156845836Y-69453495D01*
X167780000Y-69453495D01*
X167818427Y-69646681D01*
X167818430Y-69646693D01*
X167893807Y-69828671D01*
X167893814Y-69828684D01*
X168003248Y-69992462D01*
X168003251Y-69992466D01*
X168142533Y-70131748D01*
X168142537Y-70131751D01*
X168306315Y-70241185D01*
X168306328Y-70241192D01*
X168488308Y-70316569D01*
X168530000Y-70324862D01*
X168530000Y-69521988D01*
X168539940Y-69539205D01*
X168595795Y-69595060D01*
X168664204Y-69634556D01*
X168740504Y-69655000D01*
X168819496Y-69655000D01*
X168895796Y-69634556D01*
X168964205Y-69595060D01*
X169020060Y-69539205D01*
X169030000Y-69521988D01*
X169030000Y-70324862D01*
X169071690Y-70316569D01*
X169071692Y-70316569D01*
X169253671Y-70241192D01*
X169253684Y-70241185D01*
X169417462Y-70131751D01*
X169417466Y-70131748D01*
X169556748Y-69992466D01*
X169556751Y-69992462D01*
X169666185Y-69828684D01*
X169666192Y-69828671D01*
X169741569Y-69646693D01*
X169741572Y-69646681D01*
X169779999Y-69453495D01*
X169780000Y-69453492D01*
X169780000Y-68936044D01*
X169799685Y-68869005D01*
X169852489Y-68823250D01*
X169921647Y-68813306D01*
X169966000Y-68828657D01*
X169987865Y-68841281D01*
X170134234Y-68880500D01*
X170134236Y-68880500D01*
X170285764Y-68880500D01*
X170285766Y-68880500D01*
X170432135Y-68841281D01*
X170563365Y-68765515D01*
X170670515Y-68658365D01*
X170746281Y-68527135D01*
X170785500Y-68380766D01*
X170785500Y-68380765D01*
X175414500Y-68380765D01*
X175453719Y-68527136D01*
X175474989Y-68563976D01*
X175529485Y-68658365D01*
X175636635Y-68765515D01*
X175767865Y-68841281D01*
X175914234Y-68880500D01*
X175914236Y-68880500D01*
X176065764Y-68880500D01*
X176065766Y-68880500D01*
X176212135Y-68841281D01*
X176233999Y-68828657D01*
X176301897Y-68812184D01*
X176367925Y-68835035D01*
X176411117Y-68889955D01*
X176420000Y-68936044D01*
X176420000Y-69453495D01*
X176458427Y-69646681D01*
X176458430Y-69646693D01*
X176533807Y-69828671D01*
X176533814Y-69828684D01*
X176643248Y-69992462D01*
X176643251Y-69992466D01*
X176782533Y-70131748D01*
X176782537Y-70131751D01*
X176946315Y-70241185D01*
X176946328Y-70241192D01*
X177128308Y-70316569D01*
X177170000Y-70324862D01*
X177170000Y-69521988D01*
X177179940Y-69539205D01*
X177235795Y-69595060D01*
X177304204Y-69634556D01*
X177380504Y-69655000D01*
X177459496Y-69655000D01*
X177535796Y-69634556D01*
X177604205Y-69595060D01*
X177660060Y-69539205D01*
X177670000Y-69521988D01*
X177670000Y-70324862D01*
X177711690Y-70316569D01*
X177711692Y-70316569D01*
X177893671Y-70241192D01*
X177893684Y-70241185D01*
X178057462Y-70131751D01*
X178057466Y-70131748D01*
X178196748Y-69992466D01*
X178196751Y-69992462D01*
X178306185Y-69828684D01*
X178306192Y-69828671D01*
X178381569Y-69646693D01*
X178381572Y-69646681D01*
X178419999Y-69453495D01*
X178420000Y-69453492D01*
X178420000Y-69055000D01*
X177720000Y-69055000D01*
X177720000Y-68555000D01*
X178420000Y-68555000D01*
X178420000Y-68156508D01*
X178419999Y-68156504D01*
X178381572Y-67963318D01*
X178381569Y-67963306D01*
X178306192Y-67781328D01*
X178306185Y-67781315D01*
X178196751Y-67617537D01*
X178196748Y-67617533D01*
X178057466Y-67478251D01*
X178057462Y-67478248D01*
X177893684Y-67368814D01*
X177893671Y-67368807D01*
X177711691Y-67293429D01*
X177711683Y-67293427D01*
X177670000Y-67285135D01*
X177670000Y-68088011D01*
X177660060Y-68070795D01*
X177604205Y-68014940D01*
X177535796Y-67975444D01*
X177459496Y-67955000D01*
X177380504Y-67955000D01*
X177304204Y-67975444D01*
X177235795Y-68014940D01*
X177179940Y-68070795D01*
X177170000Y-68088011D01*
X177170000Y-67285136D01*
X177169999Y-67285135D01*
X177128316Y-67293427D01*
X177128308Y-67293429D01*
X176946328Y-67368807D01*
X176946315Y-67368814D01*
X176782537Y-67478248D01*
X176782533Y-67478251D01*
X176643251Y-67617533D01*
X176643248Y-67617537D01*
X176533814Y-67781315D01*
X176533809Y-67781324D01*
X176529866Y-67790845D01*
X176486023Y-67845247D01*
X176419728Y-67867310D01*
X176352030Y-67850029D01*
X176346597Y-67846351D01*
X176212136Y-67768719D01*
X176138950Y-67749109D01*
X176065766Y-67729500D01*
X175914234Y-67729500D01*
X175767863Y-67768719D01*
X175636635Y-67844485D01*
X175636632Y-67844487D01*
X175529487Y-67951632D01*
X175529485Y-67951635D01*
X175453719Y-68082863D01*
X175414500Y-68229234D01*
X175414500Y-68380765D01*
X170785500Y-68380765D01*
X170785500Y-68229234D01*
X170746281Y-68082865D01*
X170670515Y-67951635D01*
X170563365Y-67844485D01*
X170493406Y-67804094D01*
X170432136Y-67768719D01*
X170358950Y-67749109D01*
X170285766Y-67729500D01*
X170134234Y-67729500D01*
X169987863Y-67768719D01*
X169896428Y-67821510D01*
X169856635Y-67844485D01*
X169856633Y-67844486D01*
X169849597Y-67848549D01*
X169848327Y-67846349D01*
X169794995Y-67866960D01*
X169726552Y-67852914D01*
X169676568Y-67804094D01*
X169670131Y-67790838D01*
X169666192Y-67781328D01*
X169666185Y-67781315D01*
X169556751Y-67617537D01*
X169556748Y-67617533D01*
X169417466Y-67478251D01*
X169417462Y-67478248D01*
X169253684Y-67368814D01*
X169253671Y-67368807D01*
X169071691Y-67293429D01*
X169071683Y-67293427D01*
X169030000Y-67285135D01*
X169030000Y-68088011D01*
X169020060Y-68070795D01*
X168964205Y-68014940D01*
X168895796Y-67975444D01*
X168819496Y-67955000D01*
X168740504Y-67955000D01*
X168664204Y-67975444D01*
X168595795Y-68014940D01*
X168539940Y-68070795D01*
X168530000Y-68088011D01*
X168530000Y-67285136D01*
X168529999Y-67285135D01*
X168488316Y-67293427D01*
X168488308Y-67293429D01*
X168306328Y-67368807D01*
X168306315Y-67368814D01*
X168142537Y-67478248D01*
X168142533Y-67478251D01*
X168003251Y-67617533D01*
X168003248Y-67617537D01*
X167893814Y-67781315D01*
X167893807Y-67781328D01*
X167818430Y-67963306D01*
X167818427Y-67963318D01*
X167780000Y-68156504D01*
X167780000Y-68555000D01*
X168480000Y-68555000D01*
X168480000Y-69055000D01*
X167780000Y-69055000D01*
X167780000Y-69453495D01*
X156845836Y-69453495D01*
X156836024Y-69353868D01*
X156778814Y-69165273D01*
X156778811Y-69165269D01*
X156778811Y-69165266D01*
X156685913Y-68991467D01*
X156685909Y-68991460D01*
X156560883Y-68839116D01*
X156408539Y-68714090D01*
X156408532Y-68714086D01*
X156234733Y-68621188D01*
X156234727Y-68621186D01*
X156046132Y-68563976D01*
X156046129Y-68563975D01*
X155850000Y-68544659D01*
X155653870Y-68563975D01*
X155465266Y-68621188D01*
X155291467Y-68714086D01*
X155291460Y-68714090D01*
X155139116Y-68839116D01*
X155014090Y-68991460D01*
X155014086Y-68991467D01*
X154921188Y-69165266D01*
X154863975Y-69353870D01*
X154844659Y-69550000D01*
X134621852Y-69550000D01*
X134718087Y-69524214D01*
X135080194Y-69385214D01*
X135425789Y-69209125D01*
X135751084Y-68997876D01*
X136052516Y-68753781D01*
X136326781Y-68479516D01*
X136570876Y-68178084D01*
X136782125Y-67852789D01*
X136958214Y-67507194D01*
X137097214Y-67145087D01*
X137163455Y-66897870D01*
X150549500Y-66897870D01*
X150549501Y-66897876D01*
X150555908Y-66957483D01*
X150606202Y-67092328D01*
X150606206Y-67092335D01*
X150692452Y-67207544D01*
X150692455Y-67207547D01*
X150807664Y-67293793D01*
X150807671Y-67293797D01*
X150942517Y-67344091D01*
X150942516Y-67344091D01*
X150949444Y-67344835D01*
X151002127Y-67350500D01*
X152797872Y-67350499D01*
X152857483Y-67344091D01*
X152992331Y-67293796D01*
X153107546Y-67207546D01*
X153193796Y-67092331D01*
X153243002Y-66960401D01*
X153284872Y-66904468D01*
X153350337Y-66880050D01*
X153418610Y-66894901D01*
X153446865Y-66916053D01*
X153568917Y-67038105D01*
X153762421Y-67173600D01*
X153976507Y-67273429D01*
X153976516Y-67273433D01*
X154190000Y-67330634D01*
X154190000Y-66433012D01*
X154247007Y-66465925D01*
X154374174Y-66500000D01*
X154505826Y-66500000D01*
X154632993Y-66465925D01*
X154690000Y-66433012D01*
X154690000Y-67330633D01*
X154903483Y-67273433D01*
X154903492Y-67273429D01*
X155117578Y-67173600D01*
X155311082Y-67038105D01*
X155478105Y-66871082D01*
X155608119Y-66685405D01*
X155662696Y-66641781D01*
X155732195Y-66634588D01*
X155794549Y-66666110D01*
X155811269Y-66685405D01*
X155941505Y-66871401D01*
X156108599Y-67038495D01*
X156205384Y-67106265D01*
X156302165Y-67174032D01*
X156302167Y-67174033D01*
X156302170Y-67174035D01*
X156516337Y-67273903D01*
X156744592Y-67335063D01*
X156921034Y-67350500D01*
X156979999Y-67355659D01*
X156980000Y-67355659D01*
X156980001Y-67355659D01*
X157038966Y-67350500D01*
X157215408Y-67335063D01*
X157443663Y-67273903D01*
X157657830Y-67174035D01*
X157851401Y-67038495D01*
X158018495Y-66871401D01*
X158148425Y-66685842D01*
X158203002Y-66642217D01*
X158272500Y-66635023D01*
X158334855Y-66666546D01*
X158351575Y-66685842D01*
X158481500Y-66871395D01*
X158481505Y-66871401D01*
X158648599Y-67038495D01*
X158745384Y-67106265D01*
X158842165Y-67174032D01*
X158842167Y-67174033D01*
X158842170Y-67174035D01*
X159056337Y-67273903D01*
X159284592Y-67335063D01*
X159461034Y-67350500D01*
X159519999Y-67355659D01*
X159520000Y-67355659D01*
X159520001Y-67355659D01*
X159578966Y-67350500D01*
X159755408Y-67335063D01*
X159983663Y-67273903D01*
X160197830Y-67174035D01*
X160391401Y-67038495D01*
X160558495Y-66871401D01*
X160688425Y-66685842D01*
X160743002Y-66642217D01*
X160812500Y-66635023D01*
X160874855Y-66666546D01*
X160891575Y-66685842D01*
X161021500Y-66871395D01*
X161021505Y-66871401D01*
X161188599Y-67038495D01*
X161285384Y-67106265D01*
X161382165Y-67174032D01*
X161382167Y-67174033D01*
X161382170Y-67174035D01*
X161596337Y-67273903D01*
X161824592Y-67335063D01*
X162001034Y-67350500D01*
X162059999Y-67355659D01*
X162060000Y-67355659D01*
X162060001Y-67355659D01*
X162118966Y-67350500D01*
X162295408Y-67335063D01*
X162523663Y-67273903D01*
X162737830Y-67174035D01*
X162931401Y-67038495D01*
X163098495Y-66871401D01*
X163228425Y-66685842D01*
X163283002Y-66642217D01*
X163352500Y-66635023D01*
X163414855Y-66666546D01*
X163431575Y-66685842D01*
X163561500Y-66871395D01*
X163561505Y-66871401D01*
X163728599Y-67038495D01*
X163825384Y-67106265D01*
X163922165Y-67174032D01*
X163922167Y-67174033D01*
X163922170Y-67174035D01*
X164136337Y-67273903D01*
X164364592Y-67335063D01*
X164541034Y-67350500D01*
X164599999Y-67355659D01*
X164600000Y-67355659D01*
X164600001Y-67355659D01*
X164658966Y-67350500D01*
X164835408Y-67335063D01*
X165063663Y-67273903D01*
X165277830Y-67174035D01*
X165471401Y-67038495D01*
X165638495Y-66871401D01*
X165774035Y-66677830D01*
X165873903Y-66463663D01*
X165935063Y-66235408D01*
X165955659Y-66000000D01*
X165955209Y-65994862D01*
X165947889Y-65911192D01*
X165935063Y-65764592D01*
X165873903Y-65536337D01*
X165774035Y-65322171D01*
X165770200Y-65316693D01*
X165638494Y-65128597D01*
X165633392Y-65123495D01*
X167780000Y-65123495D01*
X167818427Y-65316681D01*
X167818430Y-65316693D01*
X167893807Y-65498671D01*
X167893814Y-65498684D01*
X168003248Y-65662462D01*
X168003251Y-65662466D01*
X168142533Y-65801748D01*
X168142537Y-65801751D01*
X168306315Y-65911185D01*
X168306328Y-65911192D01*
X168488308Y-65986569D01*
X168530000Y-65994862D01*
X168530000Y-65191988D01*
X168539940Y-65209205D01*
X168595795Y-65265060D01*
X168664204Y-65304556D01*
X168740504Y-65325000D01*
X168819496Y-65325000D01*
X168895796Y-65304556D01*
X168964205Y-65265060D01*
X169020060Y-65209205D01*
X169030000Y-65191988D01*
X169030000Y-65994862D01*
X169071690Y-65986569D01*
X169071692Y-65986569D01*
X169253671Y-65911192D01*
X169253684Y-65911185D01*
X169417462Y-65801751D01*
X169417466Y-65801748D01*
X169556748Y-65662466D01*
X169556751Y-65662462D01*
X169666185Y-65498684D01*
X169666192Y-65498671D01*
X169741569Y-65316693D01*
X169741572Y-65316681D01*
X169779999Y-65123495D01*
X176420000Y-65123495D01*
X176458427Y-65316681D01*
X176458430Y-65316693D01*
X176533807Y-65498671D01*
X176533814Y-65498684D01*
X176643248Y-65662462D01*
X176643251Y-65662466D01*
X176782533Y-65801748D01*
X176782537Y-65801751D01*
X176946315Y-65911185D01*
X176946328Y-65911192D01*
X177128308Y-65986569D01*
X177170000Y-65994862D01*
X177170000Y-65191988D01*
X177179940Y-65209205D01*
X177235795Y-65265060D01*
X177304204Y-65304556D01*
X177380504Y-65325000D01*
X177459496Y-65325000D01*
X177535796Y-65304556D01*
X177604205Y-65265060D01*
X177660060Y-65209205D01*
X177670000Y-65191988D01*
X177670000Y-65994862D01*
X177711690Y-65986569D01*
X177711692Y-65986569D01*
X177893671Y-65911192D01*
X177893684Y-65911185D01*
X178057462Y-65801751D01*
X178057466Y-65801748D01*
X178196748Y-65662466D01*
X178196751Y-65662462D01*
X178306185Y-65498684D01*
X178306192Y-65498671D01*
X178381569Y-65316693D01*
X178381572Y-65316681D01*
X178419999Y-65123495D01*
X178420000Y-65123492D01*
X178420000Y-64875000D01*
X177720000Y-64875000D01*
X177720000Y-64375000D01*
X178420000Y-64375000D01*
X178420000Y-64126508D01*
X178419999Y-64126504D01*
X178381572Y-63933318D01*
X178381569Y-63933306D01*
X178306192Y-63751328D01*
X178306185Y-63751315D01*
X178196751Y-63587537D01*
X178196748Y-63587533D01*
X178057466Y-63448251D01*
X178057462Y-63448248D01*
X177893684Y-63338814D01*
X177893671Y-63338807D01*
X177711691Y-63263429D01*
X177711683Y-63263427D01*
X177670000Y-63255135D01*
X177670000Y-64058011D01*
X177660060Y-64040795D01*
X177604205Y-63984940D01*
X177535796Y-63945444D01*
X177459496Y-63925000D01*
X177380504Y-63925000D01*
X177304204Y-63945444D01*
X177235795Y-63984940D01*
X177179940Y-64040795D01*
X177170000Y-64058011D01*
X177170000Y-63255136D01*
X177169999Y-63255135D01*
X177128316Y-63263427D01*
X177128308Y-63263429D01*
X176946328Y-63338807D01*
X176946315Y-63338814D01*
X176782537Y-63448248D01*
X176782533Y-63448251D01*
X176643251Y-63587533D01*
X176643248Y-63587537D01*
X176533814Y-63751315D01*
X176533807Y-63751328D01*
X176458430Y-63933306D01*
X176458427Y-63933318D01*
X176420000Y-64126504D01*
X176420000Y-64375000D01*
X177120000Y-64375000D01*
X177120000Y-64875000D01*
X176420000Y-64875000D01*
X176420000Y-65123495D01*
X169779999Y-65123495D01*
X169780000Y-65123492D01*
X169780000Y-64875000D01*
X169080000Y-64875000D01*
X169080000Y-64375000D01*
X169780000Y-64375000D01*
X169780000Y-64126508D01*
X169779999Y-64126504D01*
X169741572Y-63933318D01*
X169741569Y-63933306D01*
X169666192Y-63751328D01*
X169666185Y-63751315D01*
X169556751Y-63587537D01*
X169556748Y-63587533D01*
X169417466Y-63448251D01*
X169417462Y-63448248D01*
X169253684Y-63338814D01*
X169253671Y-63338807D01*
X169071691Y-63263429D01*
X169071683Y-63263427D01*
X169030000Y-63255135D01*
X169030000Y-64058011D01*
X169020060Y-64040795D01*
X168964205Y-63984940D01*
X168895796Y-63945444D01*
X168819496Y-63925000D01*
X168740504Y-63925000D01*
X168664204Y-63945444D01*
X168595795Y-63984940D01*
X168539940Y-64040795D01*
X168530000Y-64058011D01*
X168530000Y-63255136D01*
X168529999Y-63255135D01*
X168488316Y-63263427D01*
X168488308Y-63263429D01*
X168306328Y-63338807D01*
X168306315Y-63338814D01*
X168142537Y-63448248D01*
X168142533Y-63448251D01*
X168003251Y-63587533D01*
X168003248Y-63587537D01*
X167893814Y-63751315D01*
X167893807Y-63751328D01*
X167818430Y-63933306D01*
X167818427Y-63933318D01*
X167780000Y-64126504D01*
X167780000Y-64375000D01*
X168480000Y-64375000D01*
X168480000Y-64875000D01*
X167780000Y-64875000D01*
X167780000Y-65123495D01*
X165633392Y-65123495D01*
X165471402Y-64961506D01*
X165471395Y-64961501D01*
X165277834Y-64825967D01*
X165277830Y-64825965D01*
X165277828Y-64825964D01*
X165063663Y-64726097D01*
X165063659Y-64726096D01*
X165063655Y-64726094D01*
X164835413Y-64664938D01*
X164835403Y-64664936D01*
X164600001Y-64644341D01*
X164599999Y-64644341D01*
X164364596Y-64664936D01*
X164364586Y-64664938D01*
X164136344Y-64726094D01*
X164136335Y-64726098D01*
X163922171Y-64825964D01*
X163922169Y-64825965D01*
X163728597Y-64961505D01*
X163561505Y-65128597D01*
X163431575Y-65314158D01*
X163376998Y-65357783D01*
X163307500Y-65364977D01*
X163245145Y-65333454D01*
X163228425Y-65314158D01*
X163098494Y-65128597D01*
X162931402Y-64961506D01*
X162931395Y-64961501D01*
X162737834Y-64825967D01*
X162737830Y-64825965D01*
X162737828Y-64825964D01*
X162523663Y-64726097D01*
X162523659Y-64726096D01*
X162523655Y-64726094D01*
X162295413Y-64664938D01*
X162295403Y-64664936D01*
X162060001Y-64644341D01*
X162059999Y-64644341D01*
X161824596Y-64664936D01*
X161824586Y-64664938D01*
X161596344Y-64726094D01*
X161596335Y-64726098D01*
X161382171Y-64825964D01*
X161382169Y-64825965D01*
X161188597Y-64961505D01*
X161021505Y-65128597D01*
X160891575Y-65314158D01*
X160836998Y-65357783D01*
X160767500Y-65364977D01*
X160705145Y-65333454D01*
X160688425Y-65314158D01*
X160558494Y-65128597D01*
X160391402Y-64961506D01*
X160391395Y-64961501D01*
X160197834Y-64825967D01*
X160197830Y-64825965D01*
X160197828Y-64825964D01*
X159983663Y-64726097D01*
X159983659Y-64726096D01*
X159983655Y-64726094D01*
X159755413Y-64664938D01*
X159755403Y-64664936D01*
X159520001Y-64644341D01*
X159519999Y-64644341D01*
X159284596Y-64664936D01*
X159284586Y-64664938D01*
X159056344Y-64726094D01*
X159056335Y-64726098D01*
X158842171Y-64825964D01*
X158842169Y-64825965D01*
X158648597Y-64961505D01*
X158481505Y-65128597D01*
X158351575Y-65314158D01*
X158296998Y-65357783D01*
X158227500Y-65364977D01*
X158165145Y-65333454D01*
X158148425Y-65314158D01*
X158018494Y-65128597D01*
X157851402Y-64961506D01*
X157851395Y-64961501D01*
X157657834Y-64825967D01*
X157657830Y-64825965D01*
X157657828Y-64825964D01*
X157443663Y-64726097D01*
X157443659Y-64726096D01*
X157443655Y-64726094D01*
X157215413Y-64664938D01*
X157215403Y-64664936D01*
X156980001Y-64644341D01*
X156979999Y-64644341D01*
X156744596Y-64664936D01*
X156744586Y-64664938D01*
X156516344Y-64726094D01*
X156516335Y-64726098D01*
X156302171Y-64825964D01*
X156302169Y-64825965D01*
X156108597Y-64961505D01*
X155941508Y-65128594D01*
X155811269Y-65314595D01*
X155756692Y-65358219D01*
X155687193Y-65365412D01*
X155624839Y-65333890D01*
X155608119Y-65314594D01*
X155478113Y-65128926D01*
X155478108Y-65128920D01*
X155311082Y-64961894D01*
X155117578Y-64826399D01*
X154903492Y-64726570D01*
X154903486Y-64726567D01*
X154690000Y-64669364D01*
X154690000Y-65566988D01*
X154632993Y-65534075D01*
X154505826Y-65500000D01*
X154374174Y-65500000D01*
X154247007Y-65534075D01*
X154190000Y-65566988D01*
X154190000Y-64669364D01*
X154189999Y-64669364D01*
X153976513Y-64726567D01*
X153976507Y-64726570D01*
X153762422Y-64826399D01*
X153762420Y-64826400D01*
X153568926Y-64961886D01*
X153446865Y-65083947D01*
X153385542Y-65117431D01*
X153315850Y-65112447D01*
X153259917Y-65070575D01*
X153243002Y-65039598D01*
X153193797Y-64907671D01*
X153193793Y-64907664D01*
X153107547Y-64792455D01*
X153107544Y-64792452D01*
X152992335Y-64706206D01*
X152992328Y-64706202D01*
X152857482Y-64655908D01*
X152857483Y-64655908D01*
X152797883Y-64649501D01*
X152797881Y-64649500D01*
X152797873Y-64649500D01*
X152797864Y-64649500D01*
X151002129Y-64649500D01*
X151002123Y-64649501D01*
X150942516Y-64655908D01*
X150807671Y-64706202D01*
X150807664Y-64706206D01*
X150692455Y-64792452D01*
X150692452Y-64792455D01*
X150606206Y-64907664D01*
X150606202Y-64907671D01*
X150555908Y-65042517D01*
X150549501Y-65102116D01*
X150549500Y-65102135D01*
X150549500Y-66897870D01*
X137163455Y-66897870D01*
X137197602Y-66770433D01*
X137258278Y-66387338D01*
X137278578Y-66000000D01*
X137258278Y-65612662D01*
X137197602Y-65229567D01*
X137097214Y-64854913D01*
X137086268Y-64826399D01*
X137047948Y-64726570D01*
X136958214Y-64492806D01*
X136782125Y-64147211D01*
X136782122Y-64147206D01*
X136570877Y-63821917D01*
X136326784Y-63520488D01*
X136326781Y-63520484D01*
X136052516Y-63246219D01*
X136052513Y-63246216D01*
X136052508Y-63246212D01*
X136042240Y-63237897D01*
X136002529Y-63180409D01*
X136000203Y-63110578D01*
X136032490Y-63053957D01*
X136513699Y-62571620D01*
X136574981Y-62538066D01*
X136601392Y-62535201D01*
X177648759Y-62508787D01*
X177715808Y-62528428D01*
G37*
%TD.AperFunction*%
%TD*%
D19*
X132573000Y-104000000D02*
G75*
G02*
X129573000Y-101000000I0J3000000D01*
G01*
X184000000Y-62000000D02*
X132573000Y-62000000D01*
X187000000Y-101000000D02*
G75*
G02*
X184000000Y-104000000I-3000000J0D01*
G01*
X132573000Y-104000000D02*
X184000000Y-104000000D01*
X184000000Y-76500000D02*
G75*
G02*
X185500000Y-75000000I1500000J0D01*
G01*
X184000000Y-62000000D02*
G75*
G02*
X187000000Y-65000000I0J-3000000D01*
G01*
X187000000Y-73500000D02*
X187000000Y-65000000D01*
X187000000Y-95500000D02*
X187000000Y-101000000D01*
X129573000Y-65000000D02*
X129573000Y-101000000D01*
X184000000Y-76500000D02*
X184000000Y-92500000D01*
X129573000Y-65000000D02*
G75*
G02*
X132573000Y-62000000I3000000J0D01*
G01*
X185500000Y-94000000D02*
G75*
G02*
X184000000Y-92500000I0J1500000D01*
G01*
X187000000Y-73500000D02*
G75*
G02*
X185500000Y-75000000I-1500000J0D01*
G01*
X185500000Y-94000000D02*
G75*
G02*
X187000000Y-95500000I0J-1500000D01*
G01*
M02*
