%TF.GenerationSoftware,KiCad,Pcbnew,8.0.1-rc1*%
%TF.CreationDate,2024-04-16T22:30:49-06:00*%
%TF.ProjectId,bitaxe-ESP-OLED,62697461-7865-42d4-9553-502d4f4c4544,rev?*%
%TF.SameCoordinates,Original*%
%TF.FileFunction,Legend,Bot*%
%TF.FilePolarity,Positive*%
%FSLAX46Y46*%
G04 Gerber Fmt 4.6, Leading zero omitted, Abs format (unit mm)*
G04 Created by KiCad (PCBNEW 8.0.1-rc1) date 2024-04-16 22:30:49*
%MOMM*%
%LPD*%
G01*
G04 APERTURE LIST*
%ADD10C,0.150000*%
%ADD11C,0.200000*%
%ADD12C,0.120000*%
%ADD13C,0.127000*%
%TA.AperFunction,Profile*%
%ADD14C,0.100000*%
%TD*%
G04 APERTURE END LIST*
D10*
X136413220Y-72238866D02*
X135651316Y-72238866D01*
X136032268Y-72619819D02*
X136032268Y-71857914D01*
X134698935Y-71619819D02*
X135175125Y-71619819D01*
X135175125Y-71619819D02*
X135222744Y-72096009D01*
X135222744Y-72096009D02*
X135175125Y-72048390D01*
X135175125Y-72048390D02*
X135079887Y-72000771D01*
X135079887Y-72000771D02*
X134841792Y-72000771D01*
X134841792Y-72000771D02*
X134746554Y-72048390D01*
X134746554Y-72048390D02*
X134698935Y-72096009D01*
X134698935Y-72096009D02*
X134651316Y-72191247D01*
X134651316Y-72191247D02*
X134651316Y-72429342D01*
X134651316Y-72429342D02*
X134698935Y-72524580D01*
X134698935Y-72524580D02*
X134746554Y-72572200D01*
X134746554Y-72572200D02*
X134841792Y-72619819D01*
X134841792Y-72619819D02*
X135079887Y-72619819D01*
X135079887Y-72619819D02*
X135175125Y-72572200D01*
X135175125Y-72572200D02*
X135222744Y-72524580D01*
X134365601Y-71619819D02*
X134032268Y-72619819D01*
X134032268Y-72619819D02*
X133698935Y-71619819D01*
X142489411Y-82817438D02*
X142584649Y-82769819D01*
X142584649Y-82769819D02*
X142727506Y-82769819D01*
X142727506Y-82769819D02*
X142870363Y-82817438D01*
X142870363Y-82817438D02*
X142965601Y-82912676D01*
X142965601Y-82912676D02*
X143013220Y-83007914D01*
X143013220Y-83007914D02*
X143060839Y-83198390D01*
X143060839Y-83198390D02*
X143060839Y-83341247D01*
X143060839Y-83341247D02*
X143013220Y-83531723D01*
X143013220Y-83531723D02*
X142965601Y-83626961D01*
X142965601Y-83626961D02*
X142870363Y-83722200D01*
X142870363Y-83722200D02*
X142727506Y-83769819D01*
X142727506Y-83769819D02*
X142632268Y-83769819D01*
X142632268Y-83769819D02*
X142489411Y-83722200D01*
X142489411Y-83722200D02*
X142441792Y-83674580D01*
X142441792Y-83674580D02*
X142441792Y-83341247D01*
X142441792Y-83341247D02*
X142632268Y-83341247D01*
X142013220Y-83769819D02*
X142013220Y-82769819D01*
X142013220Y-82769819D02*
X141441792Y-83769819D01*
X141441792Y-83769819D02*
X141441792Y-82769819D01*
X140965601Y-83769819D02*
X140965601Y-82769819D01*
X140965601Y-82769819D02*
X140727506Y-82769819D01*
X140727506Y-82769819D02*
X140584649Y-82817438D01*
X140584649Y-82817438D02*
X140489411Y-82912676D01*
X140489411Y-82912676D02*
X140441792Y-83007914D01*
X140441792Y-83007914D02*
X140394173Y-83198390D01*
X140394173Y-83198390D02*
X140394173Y-83341247D01*
X140394173Y-83341247D02*
X140441792Y-83531723D01*
X140441792Y-83531723D02*
X140489411Y-83626961D01*
X140489411Y-83626961D02*
X140584649Y-83722200D01*
X140584649Y-83722200D02*
X140727506Y-83769819D01*
X140727506Y-83769819D02*
X140965601Y-83769819D01*
X148308458Y-82719819D02*
X147689411Y-82719819D01*
X147689411Y-82719819D02*
X148022744Y-83100771D01*
X148022744Y-83100771D02*
X147879887Y-83100771D01*
X147879887Y-83100771D02*
X147784649Y-83148390D01*
X147784649Y-83148390D02*
X147737030Y-83196009D01*
X147737030Y-83196009D02*
X147689411Y-83291247D01*
X147689411Y-83291247D02*
X147689411Y-83529342D01*
X147689411Y-83529342D02*
X147737030Y-83624580D01*
X147737030Y-83624580D02*
X147784649Y-83672200D01*
X147784649Y-83672200D02*
X147879887Y-83719819D01*
X147879887Y-83719819D02*
X148165601Y-83719819D01*
X148165601Y-83719819D02*
X148260839Y-83672200D01*
X148260839Y-83672200D02*
X148308458Y-83624580D01*
X147260839Y-83624580D02*
X147213220Y-83672200D01*
X147213220Y-83672200D02*
X147260839Y-83719819D01*
X147260839Y-83719819D02*
X147308458Y-83672200D01*
X147308458Y-83672200D02*
X147260839Y-83624580D01*
X147260839Y-83624580D02*
X147260839Y-83719819D01*
X146879887Y-82719819D02*
X146260840Y-82719819D01*
X146260840Y-82719819D02*
X146594173Y-83100771D01*
X146594173Y-83100771D02*
X146451316Y-83100771D01*
X146451316Y-83100771D02*
X146356078Y-83148390D01*
X146356078Y-83148390D02*
X146308459Y-83196009D01*
X146308459Y-83196009D02*
X146260840Y-83291247D01*
X146260840Y-83291247D02*
X146260840Y-83529342D01*
X146260840Y-83529342D02*
X146308459Y-83624580D01*
X146308459Y-83624580D02*
X146356078Y-83672200D01*
X146356078Y-83672200D02*
X146451316Y-83719819D01*
X146451316Y-83719819D02*
X146737030Y-83719819D01*
X146737030Y-83719819D02*
X146832268Y-83672200D01*
X146832268Y-83672200D02*
X146879887Y-83624580D01*
X145975125Y-82719819D02*
X145641792Y-83719819D01*
X145641792Y-83719819D02*
X145308459Y-82719819D01*
D11*
X132996993Y-92743409D02*
X132854136Y-92791028D01*
X132854136Y-92791028D02*
X132806517Y-92838647D01*
X132806517Y-92838647D02*
X132758898Y-92933885D01*
X132758898Y-92933885D02*
X132758898Y-93076742D01*
X132758898Y-93076742D02*
X132806517Y-93171980D01*
X132806517Y-93171980D02*
X132854136Y-93219600D01*
X132854136Y-93219600D02*
X132949374Y-93267219D01*
X132949374Y-93267219D02*
X133330326Y-93267219D01*
X133330326Y-93267219D02*
X133330326Y-92267219D01*
X133330326Y-92267219D02*
X132996993Y-92267219D01*
X132996993Y-92267219D02*
X132901755Y-92314838D01*
X132901755Y-92314838D02*
X132854136Y-92362457D01*
X132854136Y-92362457D02*
X132806517Y-92457695D01*
X132806517Y-92457695D02*
X132806517Y-92552933D01*
X132806517Y-92552933D02*
X132854136Y-92648171D01*
X132854136Y-92648171D02*
X132901755Y-92695790D01*
X132901755Y-92695790D02*
X132996993Y-92743409D01*
X132996993Y-92743409D02*
X133330326Y-92743409D01*
X132139850Y-92267219D02*
X131949374Y-92267219D01*
X131949374Y-92267219D02*
X131854136Y-92314838D01*
X131854136Y-92314838D02*
X131758898Y-92410076D01*
X131758898Y-92410076D02*
X131711279Y-92600552D01*
X131711279Y-92600552D02*
X131711279Y-92933885D01*
X131711279Y-92933885D02*
X131758898Y-93124361D01*
X131758898Y-93124361D02*
X131854136Y-93219600D01*
X131854136Y-93219600D02*
X131949374Y-93267219D01*
X131949374Y-93267219D02*
X132139850Y-93267219D01*
X132139850Y-93267219D02*
X132235088Y-93219600D01*
X132235088Y-93219600D02*
X132330326Y-93124361D01*
X132330326Y-93124361D02*
X132377945Y-92933885D01*
X132377945Y-92933885D02*
X132377945Y-92600552D01*
X132377945Y-92600552D02*
X132330326Y-92410076D01*
X132330326Y-92410076D02*
X132235088Y-92314838D01*
X132235088Y-92314838D02*
X132139850Y-92267219D01*
X131092231Y-92267219D02*
X130901755Y-92267219D01*
X130901755Y-92267219D02*
X130806517Y-92314838D01*
X130806517Y-92314838D02*
X130711279Y-92410076D01*
X130711279Y-92410076D02*
X130663660Y-92600552D01*
X130663660Y-92600552D02*
X130663660Y-92933885D01*
X130663660Y-92933885D02*
X130711279Y-93124361D01*
X130711279Y-93124361D02*
X130806517Y-93219600D01*
X130806517Y-93219600D02*
X130901755Y-93267219D01*
X130901755Y-93267219D02*
X131092231Y-93267219D01*
X131092231Y-93267219D02*
X131187469Y-93219600D01*
X131187469Y-93219600D02*
X131282707Y-93124361D01*
X131282707Y-93124361D02*
X131330326Y-92933885D01*
X131330326Y-92933885D02*
X131330326Y-92600552D01*
X131330326Y-92600552D02*
X131282707Y-92410076D01*
X131282707Y-92410076D02*
X131187469Y-92314838D01*
X131187469Y-92314838D02*
X131092231Y-92267219D01*
X130377945Y-92267219D02*
X129806517Y-92267219D01*
X130092231Y-93267219D02*
X130092231Y-92267219D01*
X131858898Y-81767219D02*
X132192231Y-81291028D01*
X132430326Y-81767219D02*
X132430326Y-80767219D01*
X132430326Y-80767219D02*
X132049374Y-80767219D01*
X132049374Y-80767219D02*
X131954136Y-80814838D01*
X131954136Y-80814838D02*
X131906517Y-80862457D01*
X131906517Y-80862457D02*
X131858898Y-80957695D01*
X131858898Y-80957695D02*
X131858898Y-81100552D01*
X131858898Y-81100552D02*
X131906517Y-81195790D01*
X131906517Y-81195790D02*
X131954136Y-81243409D01*
X131954136Y-81243409D02*
X132049374Y-81291028D01*
X132049374Y-81291028D02*
X132430326Y-81291028D01*
X131430326Y-81243409D02*
X131096993Y-81243409D01*
X130954136Y-81767219D02*
X131430326Y-81767219D01*
X131430326Y-81767219D02*
X131430326Y-80767219D01*
X131430326Y-80767219D02*
X130954136Y-80767219D01*
X130573183Y-81719600D02*
X130430326Y-81767219D01*
X130430326Y-81767219D02*
X130192231Y-81767219D01*
X130192231Y-81767219D02*
X130096993Y-81719600D01*
X130096993Y-81719600D02*
X130049374Y-81671980D01*
X130049374Y-81671980D02*
X130001755Y-81576742D01*
X130001755Y-81576742D02*
X130001755Y-81481504D01*
X130001755Y-81481504D02*
X130049374Y-81386266D01*
X130049374Y-81386266D02*
X130096993Y-81338647D01*
X130096993Y-81338647D02*
X130192231Y-81291028D01*
X130192231Y-81291028D02*
X130382707Y-81243409D01*
X130382707Y-81243409D02*
X130477945Y-81195790D01*
X130477945Y-81195790D02*
X130525564Y-81148171D01*
X130525564Y-81148171D02*
X130573183Y-81052933D01*
X130573183Y-81052933D02*
X130573183Y-80957695D01*
X130573183Y-80957695D02*
X130525564Y-80862457D01*
X130525564Y-80862457D02*
X130477945Y-80814838D01*
X130477945Y-80814838D02*
X130382707Y-80767219D01*
X130382707Y-80767219D02*
X130144612Y-80767219D01*
X130144612Y-80767219D02*
X130001755Y-80814838D01*
D10*
X144088094Y-90004819D02*
X143516666Y-90004819D01*
X143802380Y-91004819D02*
X143802380Y-90004819D01*
X143183332Y-91004819D02*
X143183332Y-90004819D01*
X143183332Y-90004819D02*
X142802380Y-90004819D01*
X142802380Y-90004819D02*
X142707142Y-90052438D01*
X142707142Y-90052438D02*
X142659523Y-90100057D01*
X142659523Y-90100057D02*
X142611904Y-90195295D01*
X142611904Y-90195295D02*
X142611904Y-90338152D01*
X142611904Y-90338152D02*
X142659523Y-90433390D01*
X142659523Y-90433390D02*
X142707142Y-90481009D01*
X142707142Y-90481009D02*
X142802380Y-90528628D01*
X142802380Y-90528628D02*
X143183332Y-90528628D01*
X141659523Y-91004819D02*
X142230951Y-91004819D01*
X141945237Y-91004819D02*
X141945237Y-90004819D01*
X141945237Y-90004819D02*
X142040475Y-90147676D01*
X142040475Y-90147676D02*
X142135713Y-90242914D01*
X142135713Y-90242914D02*
X142230951Y-90290533D01*
X141326189Y-90004819D02*
X140707142Y-90004819D01*
X140707142Y-90004819D02*
X141040475Y-90385771D01*
X141040475Y-90385771D02*
X140897618Y-90385771D01*
X140897618Y-90385771D02*
X140802380Y-90433390D01*
X140802380Y-90433390D02*
X140754761Y-90481009D01*
X140754761Y-90481009D02*
X140707142Y-90576247D01*
X140707142Y-90576247D02*
X140707142Y-90814342D01*
X140707142Y-90814342D02*
X140754761Y-90909580D01*
X140754761Y-90909580D02*
X140802380Y-90957200D01*
X140802380Y-90957200D02*
X140897618Y-91004819D01*
X140897618Y-91004819D02*
X141183332Y-91004819D01*
X141183332Y-91004819D02*
X141278570Y-90957200D01*
X141278570Y-90957200D02*
X141326189Y-90909580D01*
X148061904Y-81354819D02*
X147490476Y-81354819D01*
X147776190Y-82354819D02*
X147776190Y-81354819D01*
X147157142Y-82354819D02*
X147157142Y-81354819D01*
X147157142Y-81354819D02*
X146776190Y-81354819D01*
X146776190Y-81354819D02*
X146680952Y-81402438D01*
X146680952Y-81402438D02*
X146633333Y-81450057D01*
X146633333Y-81450057D02*
X146585714Y-81545295D01*
X146585714Y-81545295D02*
X146585714Y-81688152D01*
X146585714Y-81688152D02*
X146633333Y-81783390D01*
X146633333Y-81783390D02*
X146680952Y-81831009D01*
X146680952Y-81831009D02*
X146776190Y-81878628D01*
X146776190Y-81878628D02*
X147157142Y-81878628D01*
X146014285Y-81783390D02*
X146109523Y-81735771D01*
X146109523Y-81735771D02*
X146157142Y-81688152D01*
X146157142Y-81688152D02*
X146204761Y-81592914D01*
X146204761Y-81592914D02*
X146204761Y-81545295D01*
X146204761Y-81545295D02*
X146157142Y-81450057D01*
X146157142Y-81450057D02*
X146109523Y-81402438D01*
X146109523Y-81402438D02*
X146014285Y-81354819D01*
X146014285Y-81354819D02*
X145823809Y-81354819D01*
X145823809Y-81354819D02*
X145728571Y-81402438D01*
X145728571Y-81402438D02*
X145680952Y-81450057D01*
X145680952Y-81450057D02*
X145633333Y-81545295D01*
X145633333Y-81545295D02*
X145633333Y-81592914D01*
X145633333Y-81592914D02*
X145680952Y-81688152D01*
X145680952Y-81688152D02*
X145728571Y-81735771D01*
X145728571Y-81735771D02*
X145823809Y-81783390D01*
X145823809Y-81783390D02*
X146014285Y-81783390D01*
X146014285Y-81783390D02*
X146109523Y-81831009D01*
X146109523Y-81831009D02*
X146157142Y-81878628D01*
X146157142Y-81878628D02*
X146204761Y-81973866D01*
X146204761Y-81973866D02*
X146204761Y-82164342D01*
X146204761Y-82164342D02*
X146157142Y-82259580D01*
X146157142Y-82259580D02*
X146109523Y-82307200D01*
X146109523Y-82307200D02*
X146014285Y-82354819D01*
X146014285Y-82354819D02*
X145823809Y-82354819D01*
X145823809Y-82354819D02*
X145728571Y-82307200D01*
X145728571Y-82307200D02*
X145680952Y-82259580D01*
X145680952Y-82259580D02*
X145633333Y-82164342D01*
X145633333Y-82164342D02*
X145633333Y-81973866D01*
X145633333Y-81973866D02*
X145680952Y-81878628D01*
X145680952Y-81878628D02*
X145728571Y-81831009D01*
X145728571Y-81831009D02*
X145823809Y-81783390D01*
X136788094Y-70304819D02*
X136216666Y-70304819D01*
X136502380Y-71304819D02*
X136502380Y-70304819D01*
X135883332Y-71304819D02*
X135883332Y-70304819D01*
X135883332Y-70304819D02*
X135502380Y-70304819D01*
X135502380Y-70304819D02*
X135407142Y-70352438D01*
X135407142Y-70352438D02*
X135359523Y-70400057D01*
X135359523Y-70400057D02*
X135311904Y-70495295D01*
X135311904Y-70495295D02*
X135311904Y-70638152D01*
X135311904Y-70638152D02*
X135359523Y-70733390D01*
X135359523Y-70733390D02*
X135407142Y-70781009D01*
X135407142Y-70781009D02*
X135502380Y-70828628D01*
X135502380Y-70828628D02*
X135883332Y-70828628D01*
X134359523Y-71304819D02*
X134930951Y-71304819D01*
X134645237Y-71304819D02*
X134645237Y-70304819D01*
X134645237Y-70304819D02*
X134740475Y-70447676D01*
X134740475Y-70447676D02*
X134835713Y-70542914D01*
X134835713Y-70542914D02*
X134930951Y-70590533D01*
X133407142Y-71304819D02*
X133978570Y-71304819D01*
X133692856Y-71304819D02*
X133692856Y-70304819D01*
X133692856Y-70304819D02*
X133788094Y-70447676D01*
X133788094Y-70447676D02*
X133883332Y-70542914D01*
X133883332Y-70542914D02*
X133978570Y-70590533D01*
X143288094Y-81404819D02*
X142716666Y-81404819D01*
X143002380Y-82404819D02*
X143002380Y-81404819D01*
X142383332Y-82404819D02*
X142383332Y-81404819D01*
X142383332Y-81404819D02*
X142002380Y-81404819D01*
X142002380Y-81404819D02*
X141907142Y-81452438D01*
X141907142Y-81452438D02*
X141859523Y-81500057D01*
X141859523Y-81500057D02*
X141811904Y-81595295D01*
X141811904Y-81595295D02*
X141811904Y-81738152D01*
X141811904Y-81738152D02*
X141859523Y-81833390D01*
X141859523Y-81833390D02*
X141907142Y-81881009D01*
X141907142Y-81881009D02*
X142002380Y-81928628D01*
X142002380Y-81928628D02*
X142383332Y-81928628D01*
X140859523Y-82404819D02*
X141430951Y-82404819D01*
X141145237Y-82404819D02*
X141145237Y-81404819D01*
X141145237Y-81404819D02*
X141240475Y-81547676D01*
X141240475Y-81547676D02*
X141335713Y-81642914D01*
X141335713Y-81642914D02*
X141430951Y-81690533D01*
X140240475Y-81404819D02*
X140145237Y-81404819D01*
X140145237Y-81404819D02*
X140049999Y-81452438D01*
X140049999Y-81452438D02*
X140002380Y-81500057D01*
X140002380Y-81500057D02*
X139954761Y-81595295D01*
X139954761Y-81595295D02*
X139907142Y-81785771D01*
X139907142Y-81785771D02*
X139907142Y-82023866D01*
X139907142Y-82023866D02*
X139954761Y-82214342D01*
X139954761Y-82214342D02*
X140002380Y-82309580D01*
X140002380Y-82309580D02*
X140049999Y-82357200D01*
X140049999Y-82357200D02*
X140145237Y-82404819D01*
X140145237Y-82404819D02*
X140240475Y-82404819D01*
X140240475Y-82404819D02*
X140335713Y-82357200D01*
X140335713Y-82357200D02*
X140383332Y-82309580D01*
X140383332Y-82309580D02*
X140430951Y-82214342D01*
X140430951Y-82214342D02*
X140478570Y-82023866D01*
X140478570Y-82023866D02*
X140478570Y-81785771D01*
X140478570Y-81785771D02*
X140430951Y-81595295D01*
X140430951Y-81595295D02*
X140383332Y-81500057D01*
X140383332Y-81500057D02*
X140335713Y-81452438D01*
X140335713Y-81452438D02*
X140240475Y-81404819D01*
X139061904Y-90554819D02*
X138490476Y-90554819D01*
X138776190Y-91554819D02*
X138776190Y-90554819D01*
X138157142Y-91554819D02*
X138157142Y-90554819D01*
X138157142Y-90554819D02*
X137776190Y-90554819D01*
X137776190Y-90554819D02*
X137680952Y-90602438D01*
X137680952Y-90602438D02*
X137633333Y-90650057D01*
X137633333Y-90650057D02*
X137585714Y-90745295D01*
X137585714Y-90745295D02*
X137585714Y-90888152D01*
X137585714Y-90888152D02*
X137633333Y-90983390D01*
X137633333Y-90983390D02*
X137680952Y-91031009D01*
X137680952Y-91031009D02*
X137776190Y-91078628D01*
X137776190Y-91078628D02*
X138157142Y-91078628D01*
X137109523Y-91554819D02*
X136919047Y-91554819D01*
X136919047Y-91554819D02*
X136823809Y-91507200D01*
X136823809Y-91507200D02*
X136776190Y-91459580D01*
X136776190Y-91459580D02*
X136680952Y-91316723D01*
X136680952Y-91316723D02*
X136633333Y-91126247D01*
X136633333Y-91126247D02*
X136633333Y-90745295D01*
X136633333Y-90745295D02*
X136680952Y-90650057D01*
X136680952Y-90650057D02*
X136728571Y-90602438D01*
X136728571Y-90602438D02*
X136823809Y-90554819D01*
X136823809Y-90554819D02*
X137014285Y-90554819D01*
X137014285Y-90554819D02*
X137109523Y-90602438D01*
X137109523Y-90602438D02*
X137157142Y-90650057D01*
X137157142Y-90650057D02*
X137204761Y-90745295D01*
X137204761Y-90745295D02*
X137204761Y-90983390D01*
X137204761Y-90983390D02*
X137157142Y-91078628D01*
X137157142Y-91078628D02*
X137109523Y-91126247D01*
X137109523Y-91126247D02*
X137014285Y-91173866D01*
X137014285Y-91173866D02*
X136823809Y-91173866D01*
X136823809Y-91173866D02*
X136728571Y-91126247D01*
X136728571Y-91126247D02*
X136680952Y-91078628D01*
X136680952Y-91078628D02*
X136633333Y-90983390D01*
X139861904Y-74404819D02*
X139290476Y-74404819D01*
X139576190Y-75404819D02*
X139576190Y-74404819D01*
X138957142Y-75404819D02*
X138957142Y-74404819D01*
X138957142Y-74404819D02*
X138576190Y-74404819D01*
X138576190Y-74404819D02*
X138480952Y-74452438D01*
X138480952Y-74452438D02*
X138433333Y-74500057D01*
X138433333Y-74500057D02*
X138385714Y-74595295D01*
X138385714Y-74595295D02*
X138385714Y-74738152D01*
X138385714Y-74738152D02*
X138433333Y-74833390D01*
X138433333Y-74833390D02*
X138480952Y-74881009D01*
X138480952Y-74881009D02*
X138576190Y-74928628D01*
X138576190Y-74928628D02*
X138957142Y-74928628D01*
X137480952Y-74404819D02*
X137957142Y-74404819D01*
X137957142Y-74404819D02*
X138004761Y-74881009D01*
X138004761Y-74881009D02*
X137957142Y-74833390D01*
X137957142Y-74833390D02*
X137861904Y-74785771D01*
X137861904Y-74785771D02*
X137623809Y-74785771D01*
X137623809Y-74785771D02*
X137528571Y-74833390D01*
X137528571Y-74833390D02*
X137480952Y-74881009D01*
X137480952Y-74881009D02*
X137433333Y-74976247D01*
X137433333Y-74976247D02*
X137433333Y-75214342D01*
X137433333Y-75214342D02*
X137480952Y-75309580D01*
X137480952Y-75309580D02*
X137528571Y-75357200D01*
X137528571Y-75357200D02*
X137623809Y-75404819D01*
X137623809Y-75404819D02*
X137861904Y-75404819D01*
X137861904Y-75404819D02*
X137957142Y-75357200D01*
X137957142Y-75357200D02*
X138004761Y-75309580D01*
X162411904Y-68504819D02*
X161840476Y-68504819D01*
X162126190Y-69504819D02*
X162126190Y-68504819D01*
X161507142Y-69504819D02*
X161507142Y-68504819D01*
X161507142Y-68504819D02*
X161126190Y-68504819D01*
X161126190Y-68504819D02*
X161030952Y-68552438D01*
X161030952Y-68552438D02*
X160983333Y-68600057D01*
X160983333Y-68600057D02*
X160935714Y-68695295D01*
X160935714Y-68695295D02*
X160935714Y-68838152D01*
X160935714Y-68838152D02*
X160983333Y-68933390D01*
X160983333Y-68933390D02*
X161030952Y-68981009D01*
X161030952Y-68981009D02*
X161126190Y-69028628D01*
X161126190Y-69028628D02*
X161507142Y-69028628D01*
X160554761Y-68600057D02*
X160507142Y-68552438D01*
X160507142Y-68552438D02*
X160411904Y-68504819D01*
X160411904Y-68504819D02*
X160173809Y-68504819D01*
X160173809Y-68504819D02*
X160078571Y-68552438D01*
X160078571Y-68552438D02*
X160030952Y-68600057D01*
X160030952Y-68600057D02*
X159983333Y-68695295D01*
X159983333Y-68695295D02*
X159983333Y-68790533D01*
X159983333Y-68790533D02*
X160030952Y-68933390D01*
X160030952Y-68933390D02*
X160602380Y-69504819D01*
X160602380Y-69504819D02*
X159983333Y-69504819D01*
X159511904Y-68454819D02*
X158940476Y-68454819D01*
X159226190Y-69454819D02*
X159226190Y-68454819D01*
X158607142Y-69454819D02*
X158607142Y-68454819D01*
X158607142Y-68454819D02*
X158226190Y-68454819D01*
X158226190Y-68454819D02*
X158130952Y-68502438D01*
X158130952Y-68502438D02*
X158083333Y-68550057D01*
X158083333Y-68550057D02*
X158035714Y-68645295D01*
X158035714Y-68645295D02*
X158035714Y-68788152D01*
X158035714Y-68788152D02*
X158083333Y-68883390D01*
X158083333Y-68883390D02*
X158130952Y-68931009D01*
X158130952Y-68931009D02*
X158226190Y-68978628D01*
X158226190Y-68978628D02*
X158607142Y-68978628D01*
X157083333Y-69454819D02*
X157654761Y-69454819D01*
X157369047Y-69454819D02*
X157369047Y-68454819D01*
X157369047Y-68454819D02*
X157464285Y-68597676D01*
X157464285Y-68597676D02*
X157559523Y-68692914D01*
X157559523Y-68692914D02*
X157654761Y-68740533D01*
X144992857Y-67959580D02*
X145040476Y-68007200D01*
X145040476Y-68007200D02*
X145183333Y-68054819D01*
X145183333Y-68054819D02*
X145278571Y-68054819D01*
X145278571Y-68054819D02*
X145421428Y-68007200D01*
X145421428Y-68007200D02*
X145516666Y-67911961D01*
X145516666Y-67911961D02*
X145564285Y-67816723D01*
X145564285Y-67816723D02*
X145611904Y-67626247D01*
X145611904Y-67626247D02*
X145611904Y-67483390D01*
X145611904Y-67483390D02*
X145564285Y-67292914D01*
X145564285Y-67292914D02*
X145516666Y-67197676D01*
X145516666Y-67197676D02*
X145421428Y-67102438D01*
X145421428Y-67102438D02*
X145278571Y-67054819D01*
X145278571Y-67054819D02*
X145183333Y-67054819D01*
X145183333Y-67054819D02*
X145040476Y-67102438D01*
X145040476Y-67102438D02*
X144992857Y-67150057D01*
X144040476Y-68054819D02*
X144611904Y-68054819D01*
X144326190Y-68054819D02*
X144326190Y-67054819D01*
X144326190Y-67054819D02*
X144421428Y-67197676D01*
X144421428Y-67197676D02*
X144516666Y-67292914D01*
X144516666Y-67292914D02*
X144611904Y-67340533D01*
X143135714Y-67054819D02*
X143611904Y-67054819D01*
X143611904Y-67054819D02*
X143659523Y-67531009D01*
X143659523Y-67531009D02*
X143611904Y-67483390D01*
X143611904Y-67483390D02*
X143516666Y-67435771D01*
X143516666Y-67435771D02*
X143278571Y-67435771D01*
X143278571Y-67435771D02*
X143183333Y-67483390D01*
X143183333Y-67483390D02*
X143135714Y-67531009D01*
X143135714Y-67531009D02*
X143088095Y-67626247D01*
X143088095Y-67626247D02*
X143088095Y-67864342D01*
X143088095Y-67864342D02*
X143135714Y-67959580D01*
X143135714Y-67959580D02*
X143183333Y-68007200D01*
X143183333Y-68007200D02*
X143278571Y-68054819D01*
X143278571Y-68054819D02*
X143516666Y-68054819D01*
X143516666Y-68054819D02*
X143611904Y-68007200D01*
X143611904Y-68007200D02*
X143659523Y-67959580D01*
X156133333Y-71154819D02*
X156133333Y-71869104D01*
X156133333Y-71869104D02*
X156180952Y-72011961D01*
X156180952Y-72011961D02*
X156276190Y-72107200D01*
X156276190Y-72107200D02*
X156419047Y-72154819D01*
X156419047Y-72154819D02*
X156514285Y-72154819D01*
X155228571Y-71488152D02*
X155228571Y-72154819D01*
X155466666Y-71107200D02*
X155704761Y-71821485D01*
X155704761Y-71821485D02*
X155085714Y-71821485D01*
X176516666Y-73204819D02*
X176849999Y-72728628D01*
X177088094Y-73204819D02*
X177088094Y-72204819D01*
X177088094Y-72204819D02*
X176707142Y-72204819D01*
X176707142Y-72204819D02*
X176611904Y-72252438D01*
X176611904Y-72252438D02*
X176564285Y-72300057D01*
X176564285Y-72300057D02*
X176516666Y-72395295D01*
X176516666Y-72395295D02*
X176516666Y-72538152D01*
X176516666Y-72538152D02*
X176564285Y-72633390D01*
X176564285Y-72633390D02*
X176611904Y-72681009D01*
X176611904Y-72681009D02*
X176707142Y-72728628D01*
X176707142Y-72728628D02*
X177088094Y-72728628D01*
X175659523Y-72204819D02*
X175849999Y-72204819D01*
X175849999Y-72204819D02*
X175945237Y-72252438D01*
X175945237Y-72252438D02*
X175992856Y-72300057D01*
X175992856Y-72300057D02*
X176088094Y-72442914D01*
X176088094Y-72442914D02*
X176135713Y-72633390D01*
X176135713Y-72633390D02*
X176135713Y-73014342D01*
X176135713Y-73014342D02*
X176088094Y-73109580D01*
X176088094Y-73109580D02*
X176040475Y-73157200D01*
X176040475Y-73157200D02*
X175945237Y-73204819D01*
X175945237Y-73204819D02*
X175754761Y-73204819D01*
X175754761Y-73204819D02*
X175659523Y-73157200D01*
X175659523Y-73157200D02*
X175611904Y-73109580D01*
X175611904Y-73109580D02*
X175564285Y-73014342D01*
X175564285Y-73014342D02*
X175564285Y-72776247D01*
X175564285Y-72776247D02*
X175611904Y-72681009D01*
X175611904Y-72681009D02*
X175659523Y-72633390D01*
X175659523Y-72633390D02*
X175754761Y-72585771D01*
X175754761Y-72585771D02*
X175945237Y-72585771D01*
X175945237Y-72585771D02*
X176040475Y-72633390D01*
X176040475Y-72633390D02*
X176088094Y-72681009D01*
X176088094Y-72681009D02*
X176135713Y-72776247D01*
X170516666Y-73154819D02*
X170849999Y-72678628D01*
X171088094Y-73154819D02*
X171088094Y-72154819D01*
X171088094Y-72154819D02*
X170707142Y-72154819D01*
X170707142Y-72154819D02*
X170611904Y-72202438D01*
X170611904Y-72202438D02*
X170564285Y-72250057D01*
X170564285Y-72250057D02*
X170516666Y-72345295D01*
X170516666Y-72345295D02*
X170516666Y-72488152D01*
X170516666Y-72488152D02*
X170564285Y-72583390D01*
X170564285Y-72583390D02*
X170611904Y-72631009D01*
X170611904Y-72631009D02*
X170707142Y-72678628D01*
X170707142Y-72678628D02*
X171088094Y-72678628D01*
X169611904Y-72154819D02*
X170088094Y-72154819D01*
X170088094Y-72154819D02*
X170135713Y-72631009D01*
X170135713Y-72631009D02*
X170088094Y-72583390D01*
X170088094Y-72583390D02*
X169992856Y-72535771D01*
X169992856Y-72535771D02*
X169754761Y-72535771D01*
X169754761Y-72535771D02*
X169659523Y-72583390D01*
X169659523Y-72583390D02*
X169611904Y-72631009D01*
X169611904Y-72631009D02*
X169564285Y-72726247D01*
X169564285Y-72726247D02*
X169564285Y-72964342D01*
X169564285Y-72964342D02*
X169611904Y-73059580D01*
X169611904Y-73059580D02*
X169659523Y-73107200D01*
X169659523Y-73107200D02*
X169754761Y-73154819D01*
X169754761Y-73154819D02*
X169992856Y-73154819D01*
X169992856Y-73154819D02*
X170088094Y-73107200D01*
X170088094Y-73107200D02*
X170135713Y-73059580D01*
X146042857Y-94104819D02*
X146376190Y-93628628D01*
X146614285Y-94104819D02*
X146614285Y-93104819D01*
X146614285Y-93104819D02*
X146233333Y-93104819D01*
X146233333Y-93104819D02*
X146138095Y-93152438D01*
X146138095Y-93152438D02*
X146090476Y-93200057D01*
X146090476Y-93200057D02*
X146042857Y-93295295D01*
X146042857Y-93295295D02*
X146042857Y-93438152D01*
X146042857Y-93438152D02*
X146090476Y-93533390D01*
X146090476Y-93533390D02*
X146138095Y-93581009D01*
X146138095Y-93581009D02*
X146233333Y-93628628D01*
X146233333Y-93628628D02*
X146614285Y-93628628D01*
X145090476Y-94104819D02*
X145661904Y-94104819D01*
X145376190Y-94104819D02*
X145376190Y-93104819D01*
X145376190Y-93104819D02*
X145471428Y-93247676D01*
X145471428Y-93247676D02*
X145566666Y-93342914D01*
X145566666Y-93342914D02*
X145661904Y-93390533D01*
X144471428Y-93104819D02*
X144376190Y-93104819D01*
X144376190Y-93104819D02*
X144280952Y-93152438D01*
X144280952Y-93152438D02*
X144233333Y-93200057D01*
X144233333Y-93200057D02*
X144185714Y-93295295D01*
X144185714Y-93295295D02*
X144138095Y-93485771D01*
X144138095Y-93485771D02*
X144138095Y-93723866D01*
X144138095Y-93723866D02*
X144185714Y-93914342D01*
X144185714Y-93914342D02*
X144233333Y-94009580D01*
X144233333Y-94009580D02*
X144280952Y-94057200D01*
X144280952Y-94057200D02*
X144376190Y-94104819D01*
X144376190Y-94104819D02*
X144471428Y-94104819D01*
X144471428Y-94104819D02*
X144566666Y-94057200D01*
X144566666Y-94057200D02*
X144614285Y-94009580D01*
X144614285Y-94009580D02*
X144661904Y-93914342D01*
X144661904Y-93914342D02*
X144709523Y-93723866D01*
X144709523Y-93723866D02*
X144709523Y-93485771D01*
X144709523Y-93485771D02*
X144661904Y-93295295D01*
X144661904Y-93295295D02*
X144614285Y-93200057D01*
X144614285Y-93200057D02*
X144566666Y-93152438D01*
X144566666Y-93152438D02*
X144471428Y-93104819D01*
X159916666Y-88509580D02*
X159964285Y-88557200D01*
X159964285Y-88557200D02*
X160107142Y-88604819D01*
X160107142Y-88604819D02*
X160202380Y-88604819D01*
X160202380Y-88604819D02*
X160345237Y-88557200D01*
X160345237Y-88557200D02*
X160440475Y-88461961D01*
X160440475Y-88461961D02*
X160488094Y-88366723D01*
X160488094Y-88366723D02*
X160535713Y-88176247D01*
X160535713Y-88176247D02*
X160535713Y-88033390D01*
X160535713Y-88033390D02*
X160488094Y-87842914D01*
X160488094Y-87842914D02*
X160440475Y-87747676D01*
X160440475Y-87747676D02*
X160345237Y-87652438D01*
X160345237Y-87652438D02*
X160202380Y-87604819D01*
X160202380Y-87604819D02*
X160107142Y-87604819D01*
X160107142Y-87604819D02*
X159964285Y-87652438D01*
X159964285Y-87652438D02*
X159916666Y-87700057D01*
X159059523Y-87938152D02*
X159059523Y-88604819D01*
X159297618Y-87557200D02*
X159535713Y-88271485D01*
X159535713Y-88271485D02*
X158916666Y-88271485D01*
X169580952Y-96431341D02*
X169580952Y-96812294D01*
X169847619Y-96012294D02*
X169580952Y-96431341D01*
X169580952Y-96431341D02*
X169314286Y-96012294D01*
X168628572Y-96812294D02*
X169085715Y-96812294D01*
X168857143Y-96812294D02*
X168857143Y-96012294D01*
X168857143Y-96012294D02*
X168933334Y-96126579D01*
X168933334Y-96126579D02*
X169009524Y-96202770D01*
X169009524Y-96202770D02*
X169085715Y-96240865D01*
X132583332Y-86157200D02*
X132440475Y-86204819D01*
X132440475Y-86204819D02*
X132202380Y-86204819D01*
X132202380Y-86204819D02*
X132107142Y-86157200D01*
X132107142Y-86157200D02*
X132059523Y-86109580D01*
X132059523Y-86109580D02*
X132011904Y-86014342D01*
X132011904Y-86014342D02*
X132011904Y-85919104D01*
X132011904Y-85919104D02*
X132059523Y-85823866D01*
X132059523Y-85823866D02*
X132107142Y-85776247D01*
X132107142Y-85776247D02*
X132202380Y-85728628D01*
X132202380Y-85728628D02*
X132392856Y-85681009D01*
X132392856Y-85681009D02*
X132488094Y-85633390D01*
X132488094Y-85633390D02*
X132535713Y-85585771D01*
X132535713Y-85585771D02*
X132583332Y-85490533D01*
X132583332Y-85490533D02*
X132583332Y-85395295D01*
X132583332Y-85395295D02*
X132535713Y-85300057D01*
X132535713Y-85300057D02*
X132488094Y-85252438D01*
X132488094Y-85252438D02*
X132392856Y-85204819D01*
X132392856Y-85204819D02*
X132154761Y-85204819D01*
X132154761Y-85204819D02*
X132011904Y-85252438D01*
X131678570Y-85204819D02*
X131440475Y-86204819D01*
X131440475Y-86204819D02*
X131249999Y-85490533D01*
X131249999Y-85490533D02*
X131059523Y-86204819D01*
X131059523Y-86204819D02*
X130821428Y-85204819D01*
X130535713Y-85204819D02*
X129916666Y-85204819D01*
X129916666Y-85204819D02*
X130249999Y-85585771D01*
X130249999Y-85585771D02*
X130107142Y-85585771D01*
X130107142Y-85585771D02*
X130011904Y-85633390D01*
X130011904Y-85633390D02*
X129964285Y-85681009D01*
X129964285Y-85681009D02*
X129916666Y-85776247D01*
X129916666Y-85776247D02*
X129916666Y-86014342D01*
X129916666Y-86014342D02*
X129964285Y-86109580D01*
X129964285Y-86109580D02*
X130011904Y-86157200D01*
X130011904Y-86157200D02*
X130107142Y-86204819D01*
X130107142Y-86204819D02*
X130392856Y-86204819D01*
X130392856Y-86204819D02*
X130488094Y-86157200D01*
X130488094Y-86157200D02*
X130535713Y-86109580D01*
X134816666Y-76809580D02*
X134864285Y-76857200D01*
X134864285Y-76857200D02*
X135007142Y-76904819D01*
X135007142Y-76904819D02*
X135102380Y-76904819D01*
X135102380Y-76904819D02*
X135245237Y-76857200D01*
X135245237Y-76857200D02*
X135340475Y-76761961D01*
X135340475Y-76761961D02*
X135388094Y-76666723D01*
X135388094Y-76666723D02*
X135435713Y-76476247D01*
X135435713Y-76476247D02*
X135435713Y-76333390D01*
X135435713Y-76333390D02*
X135388094Y-76142914D01*
X135388094Y-76142914D02*
X135340475Y-76047676D01*
X135340475Y-76047676D02*
X135245237Y-75952438D01*
X135245237Y-75952438D02*
X135102380Y-75904819D01*
X135102380Y-75904819D02*
X135007142Y-75904819D01*
X135007142Y-75904819D02*
X134864285Y-75952438D01*
X134864285Y-75952438D02*
X134816666Y-76000057D01*
X133864285Y-76904819D02*
X134435713Y-76904819D01*
X134149999Y-76904819D02*
X134149999Y-75904819D01*
X134149999Y-75904819D02*
X134245237Y-76047676D01*
X134245237Y-76047676D02*
X134340475Y-76142914D01*
X134340475Y-76142914D02*
X134435713Y-76190533D01*
X173816666Y-93779580D02*
X173864285Y-93827200D01*
X173864285Y-93827200D02*
X174007142Y-93874819D01*
X174007142Y-93874819D02*
X174102380Y-93874819D01*
X174102380Y-93874819D02*
X174245237Y-93827200D01*
X174245237Y-93827200D02*
X174340475Y-93731961D01*
X174340475Y-93731961D02*
X174388094Y-93636723D01*
X174388094Y-93636723D02*
X174435713Y-93446247D01*
X174435713Y-93446247D02*
X174435713Y-93303390D01*
X174435713Y-93303390D02*
X174388094Y-93112914D01*
X174388094Y-93112914D02*
X174340475Y-93017676D01*
X174340475Y-93017676D02*
X174245237Y-92922438D01*
X174245237Y-92922438D02*
X174102380Y-92874819D01*
X174102380Y-92874819D02*
X174007142Y-92874819D01*
X174007142Y-92874819D02*
X173864285Y-92922438D01*
X173864285Y-92922438D02*
X173816666Y-92970057D01*
X173483332Y-92874819D02*
X172816666Y-92874819D01*
X172816666Y-92874819D02*
X173245237Y-93874819D01*
X179783333Y-69094819D02*
X179783333Y-69809104D01*
X179783333Y-69809104D02*
X179830952Y-69951961D01*
X179830952Y-69951961D02*
X179926190Y-70047200D01*
X179926190Y-70047200D02*
X180069047Y-70094819D01*
X180069047Y-70094819D02*
X180164285Y-70094819D01*
X179354761Y-69190057D02*
X179307142Y-69142438D01*
X179307142Y-69142438D02*
X179211904Y-69094819D01*
X179211904Y-69094819D02*
X178973809Y-69094819D01*
X178973809Y-69094819D02*
X178878571Y-69142438D01*
X178878571Y-69142438D02*
X178830952Y-69190057D01*
X178830952Y-69190057D02*
X178783333Y-69285295D01*
X178783333Y-69285295D02*
X178783333Y-69380533D01*
X178783333Y-69380533D02*
X178830952Y-69523390D01*
X178830952Y-69523390D02*
X179402380Y-70094819D01*
X179402380Y-70094819D02*
X178783333Y-70094819D01*
X148524404Y-74454819D02*
X148524404Y-75264342D01*
X148524404Y-75264342D02*
X148476785Y-75359580D01*
X148476785Y-75359580D02*
X148429166Y-75407200D01*
X148429166Y-75407200D02*
X148333928Y-75454819D01*
X148333928Y-75454819D02*
X148143452Y-75454819D01*
X148143452Y-75454819D02*
X148048214Y-75407200D01*
X148048214Y-75407200D02*
X148000595Y-75359580D01*
X148000595Y-75359580D02*
X147952976Y-75264342D01*
X147952976Y-75264342D02*
X147952976Y-74454819D01*
X146952976Y-75454819D02*
X147524404Y-75454819D01*
X147238690Y-75454819D02*
X147238690Y-74454819D01*
X147238690Y-74454819D02*
X147333928Y-74597676D01*
X147333928Y-74597676D02*
X147429166Y-74692914D01*
X147429166Y-74692914D02*
X147524404Y-74740533D01*
X138816666Y-78054819D02*
X139149999Y-77578628D01*
X139388094Y-78054819D02*
X139388094Y-77054819D01*
X139388094Y-77054819D02*
X139007142Y-77054819D01*
X139007142Y-77054819D02*
X138911904Y-77102438D01*
X138911904Y-77102438D02*
X138864285Y-77150057D01*
X138864285Y-77150057D02*
X138816666Y-77245295D01*
X138816666Y-77245295D02*
X138816666Y-77388152D01*
X138816666Y-77388152D02*
X138864285Y-77483390D01*
X138864285Y-77483390D02*
X138911904Y-77531009D01*
X138911904Y-77531009D02*
X139007142Y-77578628D01*
X139007142Y-77578628D02*
X139388094Y-77578628D01*
X137864285Y-78054819D02*
X138435713Y-78054819D01*
X138149999Y-78054819D02*
X138149999Y-77054819D01*
X138149999Y-77054819D02*
X138245237Y-77197676D01*
X138245237Y-77197676D02*
X138340475Y-77292914D01*
X138340475Y-77292914D02*
X138435713Y-77340533D01*
X173911904Y-78854819D02*
X173911904Y-79664342D01*
X173911904Y-79664342D02*
X173864285Y-79759580D01*
X173864285Y-79759580D02*
X173816666Y-79807200D01*
X173816666Y-79807200D02*
X173721428Y-79854819D01*
X173721428Y-79854819D02*
X173530952Y-79854819D01*
X173530952Y-79854819D02*
X173435714Y-79807200D01*
X173435714Y-79807200D02*
X173388095Y-79759580D01*
X173388095Y-79759580D02*
X173340476Y-79664342D01*
X173340476Y-79664342D02*
X173340476Y-78854819D01*
X172911904Y-78950057D02*
X172864285Y-78902438D01*
X172864285Y-78902438D02*
X172769047Y-78854819D01*
X172769047Y-78854819D02*
X172530952Y-78854819D01*
X172530952Y-78854819D02*
X172435714Y-78902438D01*
X172435714Y-78902438D02*
X172388095Y-78950057D01*
X172388095Y-78950057D02*
X172340476Y-79045295D01*
X172340476Y-79045295D02*
X172340476Y-79140533D01*
X172340476Y-79140533D02*
X172388095Y-79283390D01*
X172388095Y-79283390D02*
X172959523Y-79854819D01*
X172959523Y-79854819D02*
X172340476Y-79854819D01*
X147995238Y-64900057D02*
X148090476Y-64852438D01*
X148090476Y-64852438D02*
X148185714Y-64757200D01*
X148185714Y-64757200D02*
X148328571Y-64614342D01*
X148328571Y-64614342D02*
X148423809Y-64566723D01*
X148423809Y-64566723D02*
X148519047Y-64566723D01*
X148471428Y-64804819D02*
X148566666Y-64757200D01*
X148566666Y-64757200D02*
X148661904Y-64661961D01*
X148661904Y-64661961D02*
X148709523Y-64471485D01*
X148709523Y-64471485D02*
X148709523Y-64138152D01*
X148709523Y-64138152D02*
X148661904Y-63947676D01*
X148661904Y-63947676D02*
X148566666Y-63852438D01*
X148566666Y-63852438D02*
X148471428Y-63804819D01*
X148471428Y-63804819D02*
X148280952Y-63804819D01*
X148280952Y-63804819D02*
X148185714Y-63852438D01*
X148185714Y-63852438D02*
X148090476Y-63947676D01*
X148090476Y-63947676D02*
X148042857Y-64138152D01*
X148042857Y-64138152D02*
X148042857Y-64471485D01*
X148042857Y-64471485D02*
X148090476Y-64661961D01*
X148090476Y-64661961D02*
X148185714Y-64757200D01*
X148185714Y-64757200D02*
X148280952Y-64804819D01*
X148280952Y-64804819D02*
X148471428Y-64804819D01*
X147090476Y-64804819D02*
X147661904Y-64804819D01*
X147376190Y-64804819D02*
X147376190Y-63804819D01*
X147376190Y-63804819D02*
X147471428Y-63947676D01*
X147471428Y-63947676D02*
X147566666Y-64042914D01*
X147566666Y-64042914D02*
X147661904Y-64090533D01*
X162516666Y-81509580D02*
X162564285Y-81557200D01*
X162564285Y-81557200D02*
X162707142Y-81604819D01*
X162707142Y-81604819D02*
X162802380Y-81604819D01*
X162802380Y-81604819D02*
X162945237Y-81557200D01*
X162945237Y-81557200D02*
X163040475Y-81461961D01*
X163040475Y-81461961D02*
X163088094Y-81366723D01*
X163088094Y-81366723D02*
X163135713Y-81176247D01*
X163135713Y-81176247D02*
X163135713Y-81033390D01*
X163135713Y-81033390D02*
X163088094Y-80842914D01*
X163088094Y-80842914D02*
X163040475Y-80747676D01*
X163040475Y-80747676D02*
X162945237Y-80652438D01*
X162945237Y-80652438D02*
X162802380Y-80604819D01*
X162802380Y-80604819D02*
X162707142Y-80604819D01*
X162707142Y-80604819D02*
X162564285Y-80652438D01*
X162564285Y-80652438D02*
X162516666Y-80700057D01*
X162040475Y-81604819D02*
X161849999Y-81604819D01*
X161849999Y-81604819D02*
X161754761Y-81557200D01*
X161754761Y-81557200D02*
X161707142Y-81509580D01*
X161707142Y-81509580D02*
X161611904Y-81366723D01*
X161611904Y-81366723D02*
X161564285Y-81176247D01*
X161564285Y-81176247D02*
X161564285Y-80795295D01*
X161564285Y-80795295D02*
X161611904Y-80700057D01*
X161611904Y-80700057D02*
X161659523Y-80652438D01*
X161659523Y-80652438D02*
X161754761Y-80604819D01*
X161754761Y-80604819D02*
X161945237Y-80604819D01*
X161945237Y-80604819D02*
X162040475Y-80652438D01*
X162040475Y-80652438D02*
X162088094Y-80700057D01*
X162088094Y-80700057D02*
X162135713Y-80795295D01*
X162135713Y-80795295D02*
X162135713Y-81033390D01*
X162135713Y-81033390D02*
X162088094Y-81128628D01*
X162088094Y-81128628D02*
X162040475Y-81176247D01*
X162040475Y-81176247D02*
X161945237Y-81223866D01*
X161945237Y-81223866D02*
X161754761Y-81223866D01*
X161754761Y-81223866D02*
X161659523Y-81176247D01*
X161659523Y-81176247D02*
X161611904Y-81128628D01*
X161611904Y-81128628D02*
X161564285Y-81033390D01*
X145916666Y-92804819D02*
X146249999Y-92328628D01*
X146488094Y-92804819D02*
X146488094Y-91804819D01*
X146488094Y-91804819D02*
X146107142Y-91804819D01*
X146107142Y-91804819D02*
X146011904Y-91852438D01*
X146011904Y-91852438D02*
X145964285Y-91900057D01*
X145964285Y-91900057D02*
X145916666Y-91995295D01*
X145916666Y-91995295D02*
X145916666Y-92138152D01*
X145916666Y-92138152D02*
X145964285Y-92233390D01*
X145964285Y-92233390D02*
X146011904Y-92281009D01*
X146011904Y-92281009D02*
X146107142Y-92328628D01*
X146107142Y-92328628D02*
X146488094Y-92328628D01*
X145440475Y-92804819D02*
X145249999Y-92804819D01*
X145249999Y-92804819D02*
X145154761Y-92757200D01*
X145154761Y-92757200D02*
X145107142Y-92709580D01*
X145107142Y-92709580D02*
X145011904Y-92566723D01*
X145011904Y-92566723D02*
X144964285Y-92376247D01*
X144964285Y-92376247D02*
X144964285Y-91995295D01*
X144964285Y-91995295D02*
X145011904Y-91900057D01*
X145011904Y-91900057D02*
X145059523Y-91852438D01*
X145059523Y-91852438D02*
X145154761Y-91804819D01*
X145154761Y-91804819D02*
X145345237Y-91804819D01*
X145345237Y-91804819D02*
X145440475Y-91852438D01*
X145440475Y-91852438D02*
X145488094Y-91900057D01*
X145488094Y-91900057D02*
X145535713Y-91995295D01*
X145535713Y-91995295D02*
X145535713Y-92233390D01*
X145535713Y-92233390D02*
X145488094Y-92328628D01*
X145488094Y-92328628D02*
X145440475Y-92376247D01*
X145440475Y-92376247D02*
X145345237Y-92423866D01*
X145345237Y-92423866D02*
X145154761Y-92423866D01*
X145154761Y-92423866D02*
X145059523Y-92376247D01*
X145059523Y-92376247D02*
X145011904Y-92328628D01*
X145011904Y-92328628D02*
X144964285Y-92233390D01*
X152092858Y-82959579D02*
X152140477Y-83007199D01*
X152140477Y-83007199D02*
X152283334Y-83054818D01*
X152283334Y-83054818D02*
X152378572Y-83054818D01*
X152378572Y-83054818D02*
X152521429Y-83007199D01*
X152521429Y-83007199D02*
X152616667Y-82911960D01*
X152616667Y-82911960D02*
X152664286Y-82816722D01*
X152664286Y-82816722D02*
X152711905Y-82626246D01*
X152711905Y-82626246D02*
X152711905Y-82483389D01*
X152711905Y-82483389D02*
X152664286Y-82292913D01*
X152664286Y-82292913D02*
X152616667Y-82197675D01*
X152616667Y-82197675D02*
X152521429Y-82102437D01*
X152521429Y-82102437D02*
X152378572Y-82054818D01*
X152378572Y-82054818D02*
X152283334Y-82054818D01*
X152283334Y-82054818D02*
X152140477Y-82102437D01*
X152140477Y-82102437D02*
X152092858Y-82150056D01*
X151140477Y-83054818D02*
X151711905Y-83054818D01*
X151426191Y-83054818D02*
X151426191Y-82054818D01*
X151426191Y-82054818D02*
X151521429Y-82197675D01*
X151521429Y-82197675D02*
X151616667Y-82292913D01*
X151616667Y-82292913D02*
X151711905Y-82340532D01*
X150569048Y-82483389D02*
X150664286Y-82435770D01*
X150664286Y-82435770D02*
X150711905Y-82388151D01*
X150711905Y-82388151D02*
X150759524Y-82292913D01*
X150759524Y-82292913D02*
X150759524Y-82245294D01*
X150759524Y-82245294D02*
X150711905Y-82150056D01*
X150711905Y-82150056D02*
X150664286Y-82102437D01*
X150664286Y-82102437D02*
X150569048Y-82054818D01*
X150569048Y-82054818D02*
X150378572Y-82054818D01*
X150378572Y-82054818D02*
X150283334Y-82102437D01*
X150283334Y-82102437D02*
X150235715Y-82150056D01*
X150235715Y-82150056D02*
X150188096Y-82245294D01*
X150188096Y-82245294D02*
X150188096Y-82292913D01*
X150188096Y-82292913D02*
X150235715Y-82388151D01*
X150235715Y-82388151D02*
X150283334Y-82435770D01*
X150283334Y-82435770D02*
X150378572Y-82483389D01*
X150378572Y-82483389D02*
X150569048Y-82483389D01*
X150569048Y-82483389D02*
X150664286Y-82531008D01*
X150664286Y-82531008D02*
X150711905Y-82578627D01*
X150711905Y-82578627D02*
X150759524Y-82673865D01*
X150759524Y-82673865D02*
X150759524Y-82864341D01*
X150759524Y-82864341D02*
X150711905Y-82959579D01*
X150711905Y-82959579D02*
X150664286Y-83007199D01*
X150664286Y-83007199D02*
X150569048Y-83054818D01*
X150569048Y-83054818D02*
X150378572Y-83054818D01*
X150378572Y-83054818D02*
X150283334Y-83007199D01*
X150283334Y-83007199D02*
X150235715Y-82959579D01*
X150235715Y-82959579D02*
X150188096Y-82864341D01*
X150188096Y-82864341D02*
X150188096Y-82673865D01*
X150188096Y-82673865D02*
X150235715Y-82578627D01*
X150235715Y-82578627D02*
X150283334Y-82531008D01*
X150283334Y-82531008D02*
X150378572Y-82483389D01*
X179856904Y-86264819D02*
X179856904Y-87074342D01*
X179856904Y-87074342D02*
X179809285Y-87169580D01*
X179809285Y-87169580D02*
X179761666Y-87217200D01*
X179761666Y-87217200D02*
X179666428Y-87264819D01*
X179666428Y-87264819D02*
X179475952Y-87264819D01*
X179475952Y-87264819D02*
X179380714Y-87217200D01*
X179380714Y-87217200D02*
X179333095Y-87169580D01*
X179333095Y-87169580D02*
X179285476Y-87074342D01*
X179285476Y-87074342D02*
X179285476Y-86264819D01*
X178380714Y-86598152D02*
X178380714Y-87264819D01*
X178618809Y-86217200D02*
X178856904Y-86931485D01*
X178856904Y-86931485D02*
X178237857Y-86931485D01*
X153866666Y-101904819D02*
X154199999Y-101428628D01*
X154438094Y-101904819D02*
X154438094Y-100904819D01*
X154438094Y-100904819D02*
X154057142Y-100904819D01*
X154057142Y-100904819D02*
X153961904Y-100952438D01*
X153961904Y-100952438D02*
X153914285Y-101000057D01*
X153914285Y-101000057D02*
X153866666Y-101095295D01*
X153866666Y-101095295D02*
X153866666Y-101238152D01*
X153866666Y-101238152D02*
X153914285Y-101333390D01*
X153914285Y-101333390D02*
X153961904Y-101381009D01*
X153961904Y-101381009D02*
X154057142Y-101428628D01*
X154057142Y-101428628D02*
X154438094Y-101428628D01*
X153009523Y-101238152D02*
X153009523Y-101904819D01*
X153247618Y-100857200D02*
X153485713Y-101571485D01*
X153485713Y-101571485D02*
X152866666Y-101571485D01*
X166716666Y-90104819D02*
X167192856Y-90104819D01*
X167192856Y-90104819D02*
X167192856Y-89104819D01*
X165859523Y-90104819D02*
X166430951Y-90104819D01*
X166145237Y-90104819D02*
X166145237Y-89104819D01*
X166145237Y-89104819D02*
X166240475Y-89247676D01*
X166240475Y-89247676D02*
X166335713Y-89342914D01*
X166335713Y-89342914D02*
X166430951Y-89390533D01*
X167866666Y-78159580D02*
X167914285Y-78207200D01*
X167914285Y-78207200D02*
X168057142Y-78254819D01*
X168057142Y-78254819D02*
X168152380Y-78254819D01*
X168152380Y-78254819D02*
X168295237Y-78207200D01*
X168295237Y-78207200D02*
X168390475Y-78111961D01*
X168390475Y-78111961D02*
X168438094Y-78016723D01*
X168438094Y-78016723D02*
X168485713Y-77826247D01*
X168485713Y-77826247D02*
X168485713Y-77683390D01*
X168485713Y-77683390D02*
X168438094Y-77492914D01*
X168438094Y-77492914D02*
X168390475Y-77397676D01*
X168390475Y-77397676D02*
X168295237Y-77302438D01*
X168295237Y-77302438D02*
X168152380Y-77254819D01*
X168152380Y-77254819D02*
X168057142Y-77254819D01*
X168057142Y-77254819D02*
X167914285Y-77302438D01*
X167914285Y-77302438D02*
X167866666Y-77350057D01*
X167009523Y-77254819D02*
X167199999Y-77254819D01*
X167199999Y-77254819D02*
X167295237Y-77302438D01*
X167295237Y-77302438D02*
X167342856Y-77350057D01*
X167342856Y-77350057D02*
X167438094Y-77492914D01*
X167438094Y-77492914D02*
X167485713Y-77683390D01*
X167485713Y-77683390D02*
X167485713Y-78064342D01*
X167485713Y-78064342D02*
X167438094Y-78159580D01*
X167438094Y-78159580D02*
X167390475Y-78207200D01*
X167390475Y-78207200D02*
X167295237Y-78254819D01*
X167295237Y-78254819D02*
X167104761Y-78254819D01*
X167104761Y-78254819D02*
X167009523Y-78207200D01*
X167009523Y-78207200D02*
X166961904Y-78159580D01*
X166961904Y-78159580D02*
X166914285Y-78064342D01*
X166914285Y-78064342D02*
X166914285Y-77826247D01*
X166914285Y-77826247D02*
X166961904Y-77731009D01*
X166961904Y-77731009D02*
X167009523Y-77683390D01*
X167009523Y-77683390D02*
X167104761Y-77635771D01*
X167104761Y-77635771D02*
X167295237Y-77635771D01*
X167295237Y-77635771D02*
X167390475Y-77683390D01*
X167390475Y-77683390D02*
X167438094Y-77731009D01*
X167438094Y-77731009D02*
X167485713Y-77826247D01*
X136966667Y-89154818D02*
X137300000Y-88678627D01*
X137538095Y-89154818D02*
X137538095Y-88154818D01*
X137538095Y-88154818D02*
X137157143Y-88154818D01*
X137157143Y-88154818D02*
X137061905Y-88202437D01*
X137061905Y-88202437D02*
X137014286Y-88250056D01*
X137014286Y-88250056D02*
X136966667Y-88345294D01*
X136966667Y-88345294D02*
X136966667Y-88488151D01*
X136966667Y-88488151D02*
X137014286Y-88583389D01*
X137014286Y-88583389D02*
X137061905Y-88631008D01*
X137061905Y-88631008D02*
X137157143Y-88678627D01*
X137157143Y-88678627D02*
X137538095Y-88678627D01*
X136633333Y-88154818D02*
X136014286Y-88154818D01*
X136014286Y-88154818D02*
X136347619Y-88535770D01*
X136347619Y-88535770D02*
X136204762Y-88535770D01*
X136204762Y-88535770D02*
X136109524Y-88583389D01*
X136109524Y-88583389D02*
X136061905Y-88631008D01*
X136061905Y-88631008D02*
X136014286Y-88726246D01*
X136014286Y-88726246D02*
X136014286Y-88964341D01*
X136014286Y-88964341D02*
X136061905Y-89059579D01*
X136061905Y-89059579D02*
X136109524Y-89107199D01*
X136109524Y-89107199D02*
X136204762Y-89154818D01*
X136204762Y-89154818D02*
X136490476Y-89154818D01*
X136490476Y-89154818D02*
X136585714Y-89107199D01*
X136585714Y-89107199D02*
X136633333Y-89059579D01*
X142392857Y-74109580D02*
X142440476Y-74157200D01*
X142440476Y-74157200D02*
X142583333Y-74204819D01*
X142583333Y-74204819D02*
X142678571Y-74204819D01*
X142678571Y-74204819D02*
X142821428Y-74157200D01*
X142821428Y-74157200D02*
X142916666Y-74061961D01*
X142916666Y-74061961D02*
X142964285Y-73966723D01*
X142964285Y-73966723D02*
X143011904Y-73776247D01*
X143011904Y-73776247D02*
X143011904Y-73633390D01*
X143011904Y-73633390D02*
X142964285Y-73442914D01*
X142964285Y-73442914D02*
X142916666Y-73347676D01*
X142916666Y-73347676D02*
X142821428Y-73252438D01*
X142821428Y-73252438D02*
X142678571Y-73204819D01*
X142678571Y-73204819D02*
X142583333Y-73204819D01*
X142583333Y-73204819D02*
X142440476Y-73252438D01*
X142440476Y-73252438D02*
X142392857Y-73300057D01*
X141440476Y-74204819D02*
X142011904Y-74204819D01*
X141726190Y-74204819D02*
X141726190Y-73204819D01*
X141726190Y-73204819D02*
X141821428Y-73347676D01*
X141821428Y-73347676D02*
X141916666Y-73442914D01*
X141916666Y-73442914D02*
X142011904Y-73490533D01*
X140583333Y-73204819D02*
X140773809Y-73204819D01*
X140773809Y-73204819D02*
X140869047Y-73252438D01*
X140869047Y-73252438D02*
X140916666Y-73300057D01*
X140916666Y-73300057D02*
X141011904Y-73442914D01*
X141011904Y-73442914D02*
X141059523Y-73633390D01*
X141059523Y-73633390D02*
X141059523Y-74014342D01*
X141059523Y-74014342D02*
X141011904Y-74109580D01*
X141011904Y-74109580D02*
X140964285Y-74157200D01*
X140964285Y-74157200D02*
X140869047Y-74204819D01*
X140869047Y-74204819D02*
X140678571Y-74204819D01*
X140678571Y-74204819D02*
X140583333Y-74157200D01*
X140583333Y-74157200D02*
X140535714Y-74109580D01*
X140535714Y-74109580D02*
X140488095Y-74014342D01*
X140488095Y-74014342D02*
X140488095Y-73776247D01*
X140488095Y-73776247D02*
X140535714Y-73681009D01*
X140535714Y-73681009D02*
X140583333Y-73633390D01*
X140583333Y-73633390D02*
X140678571Y-73585771D01*
X140678571Y-73585771D02*
X140869047Y-73585771D01*
X140869047Y-73585771D02*
X140964285Y-73633390D01*
X140964285Y-73633390D02*
X141011904Y-73681009D01*
X141011904Y-73681009D02*
X141059523Y-73776247D01*
X151888095Y-71404818D02*
X151888095Y-70404818D01*
X151888095Y-70404818D02*
X151650000Y-70404818D01*
X151650000Y-70404818D02*
X151507143Y-70452437D01*
X151507143Y-70452437D02*
X151411905Y-70547675D01*
X151411905Y-70547675D02*
X151364286Y-70642913D01*
X151364286Y-70642913D02*
X151316667Y-70833389D01*
X151316667Y-70833389D02*
X151316667Y-70976246D01*
X151316667Y-70976246D02*
X151364286Y-71166722D01*
X151364286Y-71166722D02*
X151411905Y-71261960D01*
X151411905Y-71261960D02*
X151507143Y-71357199D01*
X151507143Y-71357199D02*
X151650000Y-71404818D01*
X151650000Y-71404818D02*
X151888095Y-71404818D01*
X150364286Y-71404818D02*
X150935714Y-71404818D01*
X150650000Y-71404818D02*
X150650000Y-70404818D01*
X150650000Y-70404818D02*
X150745238Y-70547675D01*
X150745238Y-70547675D02*
X150840476Y-70642913D01*
X150840476Y-70642913D02*
X150935714Y-70690532D01*
X161742857Y-92009580D02*
X161790476Y-92057200D01*
X161790476Y-92057200D02*
X161933333Y-92104819D01*
X161933333Y-92104819D02*
X162028571Y-92104819D01*
X162028571Y-92104819D02*
X162171428Y-92057200D01*
X162171428Y-92057200D02*
X162266666Y-91961961D01*
X162266666Y-91961961D02*
X162314285Y-91866723D01*
X162314285Y-91866723D02*
X162361904Y-91676247D01*
X162361904Y-91676247D02*
X162361904Y-91533390D01*
X162361904Y-91533390D02*
X162314285Y-91342914D01*
X162314285Y-91342914D02*
X162266666Y-91247676D01*
X162266666Y-91247676D02*
X162171428Y-91152438D01*
X162171428Y-91152438D02*
X162028571Y-91104819D01*
X162028571Y-91104819D02*
X161933333Y-91104819D01*
X161933333Y-91104819D02*
X161790476Y-91152438D01*
X161790476Y-91152438D02*
X161742857Y-91200057D01*
X160790476Y-92104819D02*
X161361904Y-92104819D01*
X161076190Y-92104819D02*
X161076190Y-91104819D01*
X161076190Y-91104819D02*
X161171428Y-91247676D01*
X161171428Y-91247676D02*
X161266666Y-91342914D01*
X161266666Y-91342914D02*
X161361904Y-91390533D01*
X160457142Y-91104819D02*
X159838095Y-91104819D01*
X159838095Y-91104819D02*
X160171428Y-91485771D01*
X160171428Y-91485771D02*
X160028571Y-91485771D01*
X160028571Y-91485771D02*
X159933333Y-91533390D01*
X159933333Y-91533390D02*
X159885714Y-91581009D01*
X159885714Y-91581009D02*
X159838095Y-91676247D01*
X159838095Y-91676247D02*
X159838095Y-91914342D01*
X159838095Y-91914342D02*
X159885714Y-92009580D01*
X159885714Y-92009580D02*
X159933333Y-92057200D01*
X159933333Y-92057200D02*
X160028571Y-92104819D01*
X160028571Y-92104819D02*
X160314285Y-92104819D01*
X160314285Y-92104819D02*
X160409523Y-92057200D01*
X160409523Y-92057200D02*
X160457142Y-92009580D01*
X161642857Y-90659580D02*
X161690476Y-90707200D01*
X161690476Y-90707200D02*
X161833333Y-90754819D01*
X161833333Y-90754819D02*
X161928571Y-90754819D01*
X161928571Y-90754819D02*
X162071428Y-90707200D01*
X162071428Y-90707200D02*
X162166666Y-90611961D01*
X162166666Y-90611961D02*
X162214285Y-90516723D01*
X162214285Y-90516723D02*
X162261904Y-90326247D01*
X162261904Y-90326247D02*
X162261904Y-90183390D01*
X162261904Y-90183390D02*
X162214285Y-89992914D01*
X162214285Y-89992914D02*
X162166666Y-89897676D01*
X162166666Y-89897676D02*
X162071428Y-89802438D01*
X162071428Y-89802438D02*
X161928571Y-89754819D01*
X161928571Y-89754819D02*
X161833333Y-89754819D01*
X161833333Y-89754819D02*
X161690476Y-89802438D01*
X161690476Y-89802438D02*
X161642857Y-89850057D01*
X160690476Y-90754819D02*
X161261904Y-90754819D01*
X160976190Y-90754819D02*
X160976190Y-89754819D01*
X160976190Y-89754819D02*
X161071428Y-89897676D01*
X161071428Y-89897676D02*
X161166666Y-89992914D01*
X161166666Y-89992914D02*
X161261904Y-90040533D01*
X159738095Y-90754819D02*
X160309523Y-90754819D01*
X160023809Y-90754819D02*
X160023809Y-89754819D01*
X160023809Y-89754819D02*
X160119047Y-89897676D01*
X160119047Y-89897676D02*
X160214285Y-89992914D01*
X160214285Y-89992914D02*
X160309523Y-90040533D01*
X160816666Y-87059580D02*
X160864285Y-87107200D01*
X160864285Y-87107200D02*
X161007142Y-87154819D01*
X161007142Y-87154819D02*
X161102380Y-87154819D01*
X161102380Y-87154819D02*
X161245237Y-87107200D01*
X161245237Y-87107200D02*
X161340475Y-87011961D01*
X161340475Y-87011961D02*
X161388094Y-86916723D01*
X161388094Y-86916723D02*
X161435713Y-86726247D01*
X161435713Y-86726247D02*
X161435713Y-86583390D01*
X161435713Y-86583390D02*
X161388094Y-86392914D01*
X161388094Y-86392914D02*
X161340475Y-86297676D01*
X161340475Y-86297676D02*
X161245237Y-86202438D01*
X161245237Y-86202438D02*
X161102380Y-86154819D01*
X161102380Y-86154819D02*
X161007142Y-86154819D01*
X161007142Y-86154819D02*
X160864285Y-86202438D01*
X160864285Y-86202438D02*
X160816666Y-86250057D01*
X159911904Y-86154819D02*
X160388094Y-86154819D01*
X160388094Y-86154819D02*
X160435713Y-86631009D01*
X160435713Y-86631009D02*
X160388094Y-86583390D01*
X160388094Y-86583390D02*
X160292856Y-86535771D01*
X160292856Y-86535771D02*
X160054761Y-86535771D01*
X160054761Y-86535771D02*
X159959523Y-86583390D01*
X159959523Y-86583390D02*
X159911904Y-86631009D01*
X159911904Y-86631009D02*
X159864285Y-86726247D01*
X159864285Y-86726247D02*
X159864285Y-86964342D01*
X159864285Y-86964342D02*
X159911904Y-87059580D01*
X159911904Y-87059580D02*
X159959523Y-87107200D01*
X159959523Y-87107200D02*
X160054761Y-87154819D01*
X160054761Y-87154819D02*
X160292856Y-87154819D01*
X160292856Y-87154819D02*
X160388094Y-87107200D01*
X160388094Y-87107200D02*
X160435713Y-87059580D01*
X177142857Y-90259580D02*
X177190476Y-90307200D01*
X177190476Y-90307200D02*
X177333333Y-90354819D01*
X177333333Y-90354819D02*
X177428571Y-90354819D01*
X177428571Y-90354819D02*
X177571428Y-90307200D01*
X177571428Y-90307200D02*
X177666666Y-90211961D01*
X177666666Y-90211961D02*
X177714285Y-90116723D01*
X177714285Y-90116723D02*
X177761904Y-89926247D01*
X177761904Y-89926247D02*
X177761904Y-89783390D01*
X177761904Y-89783390D02*
X177714285Y-89592914D01*
X177714285Y-89592914D02*
X177666666Y-89497676D01*
X177666666Y-89497676D02*
X177571428Y-89402438D01*
X177571428Y-89402438D02*
X177428571Y-89354819D01*
X177428571Y-89354819D02*
X177333333Y-89354819D01*
X177333333Y-89354819D02*
X177190476Y-89402438D01*
X177190476Y-89402438D02*
X177142857Y-89450057D01*
X176190476Y-90354819D02*
X176761904Y-90354819D01*
X176476190Y-90354819D02*
X176476190Y-89354819D01*
X176476190Y-89354819D02*
X176571428Y-89497676D01*
X176571428Y-89497676D02*
X176666666Y-89592914D01*
X176666666Y-89592914D02*
X176761904Y-89640533D01*
X175571428Y-89354819D02*
X175476190Y-89354819D01*
X175476190Y-89354819D02*
X175380952Y-89402438D01*
X175380952Y-89402438D02*
X175333333Y-89450057D01*
X175333333Y-89450057D02*
X175285714Y-89545295D01*
X175285714Y-89545295D02*
X175238095Y-89735771D01*
X175238095Y-89735771D02*
X175238095Y-89973866D01*
X175238095Y-89973866D02*
X175285714Y-90164342D01*
X175285714Y-90164342D02*
X175333333Y-90259580D01*
X175333333Y-90259580D02*
X175380952Y-90307200D01*
X175380952Y-90307200D02*
X175476190Y-90354819D01*
X175476190Y-90354819D02*
X175571428Y-90354819D01*
X175571428Y-90354819D02*
X175666666Y-90307200D01*
X175666666Y-90307200D02*
X175714285Y-90259580D01*
X175714285Y-90259580D02*
X175761904Y-90164342D01*
X175761904Y-90164342D02*
X175809523Y-89973866D01*
X175809523Y-89973866D02*
X175809523Y-89735771D01*
X175809523Y-89735771D02*
X175761904Y-89545295D01*
X175761904Y-89545295D02*
X175714285Y-89450057D01*
X175714285Y-89450057D02*
X175666666Y-89402438D01*
X175666666Y-89402438D02*
X175571428Y-89354819D01*
X158116666Y-96904819D02*
X158449999Y-96428628D01*
X158688094Y-96904819D02*
X158688094Y-95904819D01*
X158688094Y-95904819D02*
X158307142Y-95904819D01*
X158307142Y-95904819D02*
X158211904Y-95952438D01*
X158211904Y-95952438D02*
X158164285Y-96000057D01*
X158164285Y-96000057D02*
X158116666Y-96095295D01*
X158116666Y-96095295D02*
X158116666Y-96238152D01*
X158116666Y-96238152D02*
X158164285Y-96333390D01*
X158164285Y-96333390D02*
X158211904Y-96381009D01*
X158211904Y-96381009D02*
X158307142Y-96428628D01*
X158307142Y-96428628D02*
X158688094Y-96428628D01*
X157735713Y-96000057D02*
X157688094Y-95952438D01*
X157688094Y-95952438D02*
X157592856Y-95904819D01*
X157592856Y-95904819D02*
X157354761Y-95904819D01*
X157354761Y-95904819D02*
X157259523Y-95952438D01*
X157259523Y-95952438D02*
X157211904Y-96000057D01*
X157211904Y-96000057D02*
X157164285Y-96095295D01*
X157164285Y-96095295D02*
X157164285Y-96190533D01*
X157164285Y-96190533D02*
X157211904Y-96333390D01*
X157211904Y-96333390D02*
X157783332Y-96904819D01*
X157783332Y-96904819D02*
X157164285Y-96904819D01*
X157996666Y-98359580D02*
X158044285Y-98407200D01*
X158044285Y-98407200D02*
X158187142Y-98454819D01*
X158187142Y-98454819D02*
X158282380Y-98454819D01*
X158282380Y-98454819D02*
X158425237Y-98407200D01*
X158425237Y-98407200D02*
X158520475Y-98311961D01*
X158520475Y-98311961D02*
X158568094Y-98216723D01*
X158568094Y-98216723D02*
X158615713Y-98026247D01*
X158615713Y-98026247D02*
X158615713Y-97883390D01*
X158615713Y-97883390D02*
X158568094Y-97692914D01*
X158568094Y-97692914D02*
X158520475Y-97597676D01*
X158520475Y-97597676D02*
X158425237Y-97502438D01*
X158425237Y-97502438D02*
X158282380Y-97454819D01*
X158282380Y-97454819D02*
X158187142Y-97454819D01*
X158187142Y-97454819D02*
X158044285Y-97502438D01*
X158044285Y-97502438D02*
X157996666Y-97550057D01*
X157615713Y-97550057D02*
X157568094Y-97502438D01*
X157568094Y-97502438D02*
X157472856Y-97454819D01*
X157472856Y-97454819D02*
X157234761Y-97454819D01*
X157234761Y-97454819D02*
X157139523Y-97502438D01*
X157139523Y-97502438D02*
X157091904Y-97550057D01*
X157091904Y-97550057D02*
X157044285Y-97645295D01*
X157044285Y-97645295D02*
X157044285Y-97740533D01*
X157044285Y-97740533D02*
X157091904Y-97883390D01*
X157091904Y-97883390D02*
X157663332Y-98454819D01*
X157663332Y-98454819D02*
X157044285Y-98454819D01*
X165916666Y-96459580D02*
X165964285Y-96507200D01*
X165964285Y-96507200D02*
X166107142Y-96554819D01*
X166107142Y-96554819D02*
X166202380Y-96554819D01*
X166202380Y-96554819D02*
X166345237Y-96507200D01*
X166345237Y-96507200D02*
X166440475Y-96411961D01*
X166440475Y-96411961D02*
X166488094Y-96316723D01*
X166488094Y-96316723D02*
X166535713Y-96126247D01*
X166535713Y-96126247D02*
X166535713Y-95983390D01*
X166535713Y-95983390D02*
X166488094Y-95792914D01*
X166488094Y-95792914D02*
X166440475Y-95697676D01*
X166440475Y-95697676D02*
X166345237Y-95602438D01*
X166345237Y-95602438D02*
X166202380Y-95554819D01*
X166202380Y-95554819D02*
X166107142Y-95554819D01*
X166107142Y-95554819D02*
X165964285Y-95602438D01*
X165964285Y-95602438D02*
X165916666Y-95650057D01*
X165345237Y-95983390D02*
X165440475Y-95935771D01*
X165440475Y-95935771D02*
X165488094Y-95888152D01*
X165488094Y-95888152D02*
X165535713Y-95792914D01*
X165535713Y-95792914D02*
X165535713Y-95745295D01*
X165535713Y-95745295D02*
X165488094Y-95650057D01*
X165488094Y-95650057D02*
X165440475Y-95602438D01*
X165440475Y-95602438D02*
X165345237Y-95554819D01*
X165345237Y-95554819D02*
X165154761Y-95554819D01*
X165154761Y-95554819D02*
X165059523Y-95602438D01*
X165059523Y-95602438D02*
X165011904Y-95650057D01*
X165011904Y-95650057D02*
X164964285Y-95745295D01*
X164964285Y-95745295D02*
X164964285Y-95792914D01*
X164964285Y-95792914D02*
X165011904Y-95888152D01*
X165011904Y-95888152D02*
X165059523Y-95935771D01*
X165059523Y-95935771D02*
X165154761Y-95983390D01*
X165154761Y-95983390D02*
X165345237Y-95983390D01*
X165345237Y-95983390D02*
X165440475Y-96031009D01*
X165440475Y-96031009D02*
X165488094Y-96078628D01*
X165488094Y-96078628D02*
X165535713Y-96173866D01*
X165535713Y-96173866D02*
X165535713Y-96364342D01*
X165535713Y-96364342D02*
X165488094Y-96459580D01*
X165488094Y-96459580D02*
X165440475Y-96507200D01*
X165440475Y-96507200D02*
X165345237Y-96554819D01*
X165345237Y-96554819D02*
X165154761Y-96554819D01*
X165154761Y-96554819D02*
X165059523Y-96507200D01*
X165059523Y-96507200D02*
X165011904Y-96459580D01*
X165011904Y-96459580D02*
X164964285Y-96364342D01*
X164964285Y-96364342D02*
X164964285Y-96173866D01*
X164964285Y-96173866D02*
X165011904Y-96078628D01*
X165011904Y-96078628D02*
X165059523Y-96031009D01*
X165059523Y-96031009D02*
X165154761Y-95983390D01*
X154416667Y-69504818D02*
X154750000Y-69028627D01*
X154988095Y-69504818D02*
X154988095Y-68504818D01*
X154988095Y-68504818D02*
X154607143Y-68504818D01*
X154607143Y-68504818D02*
X154511905Y-68552437D01*
X154511905Y-68552437D02*
X154464286Y-68600056D01*
X154464286Y-68600056D02*
X154416667Y-68695294D01*
X154416667Y-68695294D02*
X154416667Y-68838151D01*
X154416667Y-68838151D02*
X154464286Y-68933389D01*
X154464286Y-68933389D02*
X154511905Y-68981008D01*
X154511905Y-68981008D02*
X154607143Y-69028627D01*
X154607143Y-69028627D02*
X154988095Y-69028627D01*
X154083333Y-68504818D02*
X153416667Y-68504818D01*
X153416667Y-68504818D02*
X153845238Y-69504818D01*
X153786666Y-100259580D02*
X153834285Y-100307200D01*
X153834285Y-100307200D02*
X153977142Y-100354819D01*
X153977142Y-100354819D02*
X154072380Y-100354819D01*
X154072380Y-100354819D02*
X154215237Y-100307200D01*
X154215237Y-100307200D02*
X154310475Y-100211961D01*
X154310475Y-100211961D02*
X154358094Y-100116723D01*
X154358094Y-100116723D02*
X154405713Y-99926247D01*
X154405713Y-99926247D02*
X154405713Y-99783390D01*
X154405713Y-99783390D02*
X154358094Y-99592914D01*
X154358094Y-99592914D02*
X154310475Y-99497676D01*
X154310475Y-99497676D02*
X154215237Y-99402438D01*
X154215237Y-99402438D02*
X154072380Y-99354819D01*
X154072380Y-99354819D02*
X153977142Y-99354819D01*
X153977142Y-99354819D02*
X153834285Y-99402438D01*
X153834285Y-99402438D02*
X153786666Y-99450057D01*
X153453332Y-99354819D02*
X152834285Y-99354819D01*
X152834285Y-99354819D02*
X153167618Y-99735771D01*
X153167618Y-99735771D02*
X153024761Y-99735771D01*
X153024761Y-99735771D02*
X152929523Y-99783390D01*
X152929523Y-99783390D02*
X152881904Y-99831009D01*
X152881904Y-99831009D02*
X152834285Y-99926247D01*
X152834285Y-99926247D02*
X152834285Y-100164342D01*
X152834285Y-100164342D02*
X152881904Y-100259580D01*
X152881904Y-100259580D02*
X152929523Y-100307200D01*
X152929523Y-100307200D02*
X153024761Y-100354819D01*
X153024761Y-100354819D02*
X153310475Y-100354819D01*
X153310475Y-100354819D02*
X153405713Y-100307200D01*
X153405713Y-100307200D02*
X153453332Y-100259580D01*
X132533332Y-74657200D02*
X132390475Y-74704819D01*
X132390475Y-74704819D02*
X132152380Y-74704819D01*
X132152380Y-74704819D02*
X132057142Y-74657200D01*
X132057142Y-74657200D02*
X132009523Y-74609580D01*
X132009523Y-74609580D02*
X131961904Y-74514342D01*
X131961904Y-74514342D02*
X131961904Y-74419104D01*
X131961904Y-74419104D02*
X132009523Y-74323866D01*
X132009523Y-74323866D02*
X132057142Y-74276247D01*
X132057142Y-74276247D02*
X132152380Y-74228628D01*
X132152380Y-74228628D02*
X132342856Y-74181009D01*
X132342856Y-74181009D02*
X132438094Y-74133390D01*
X132438094Y-74133390D02*
X132485713Y-74085771D01*
X132485713Y-74085771D02*
X132533332Y-73990533D01*
X132533332Y-73990533D02*
X132533332Y-73895295D01*
X132533332Y-73895295D02*
X132485713Y-73800057D01*
X132485713Y-73800057D02*
X132438094Y-73752438D01*
X132438094Y-73752438D02*
X132342856Y-73704819D01*
X132342856Y-73704819D02*
X132104761Y-73704819D01*
X132104761Y-73704819D02*
X131961904Y-73752438D01*
X131628570Y-73704819D02*
X131390475Y-74704819D01*
X131390475Y-74704819D02*
X131199999Y-73990533D01*
X131199999Y-73990533D02*
X131009523Y-74704819D01*
X131009523Y-74704819D02*
X130771428Y-73704819D01*
X129866666Y-74704819D02*
X130438094Y-74704819D01*
X130152380Y-74704819D02*
X130152380Y-73704819D01*
X130152380Y-73704819D02*
X130247618Y-73847676D01*
X130247618Y-73847676D02*
X130342856Y-73942914D01*
X130342856Y-73942914D02*
X130438094Y-73990533D01*
X139492857Y-69409580D02*
X139540476Y-69457200D01*
X139540476Y-69457200D02*
X139683333Y-69504819D01*
X139683333Y-69504819D02*
X139778571Y-69504819D01*
X139778571Y-69504819D02*
X139921428Y-69457200D01*
X139921428Y-69457200D02*
X140016666Y-69361961D01*
X140016666Y-69361961D02*
X140064285Y-69266723D01*
X140064285Y-69266723D02*
X140111904Y-69076247D01*
X140111904Y-69076247D02*
X140111904Y-68933390D01*
X140111904Y-68933390D02*
X140064285Y-68742914D01*
X140064285Y-68742914D02*
X140016666Y-68647676D01*
X140016666Y-68647676D02*
X139921428Y-68552438D01*
X139921428Y-68552438D02*
X139778571Y-68504819D01*
X139778571Y-68504819D02*
X139683333Y-68504819D01*
X139683333Y-68504819D02*
X139540476Y-68552438D01*
X139540476Y-68552438D02*
X139492857Y-68600057D01*
X138540476Y-69504819D02*
X139111904Y-69504819D01*
X138826190Y-69504819D02*
X138826190Y-68504819D01*
X138826190Y-68504819D02*
X138921428Y-68647676D01*
X138921428Y-68647676D02*
X139016666Y-68742914D01*
X139016666Y-68742914D02*
X139111904Y-68790533D01*
X137683333Y-68838152D02*
X137683333Y-69504819D01*
X137921428Y-68457200D02*
X138159523Y-69171485D01*
X138159523Y-69171485D02*
X137540476Y-69171485D01*
X161292857Y-85759580D02*
X161340476Y-85807200D01*
X161340476Y-85807200D02*
X161483333Y-85854819D01*
X161483333Y-85854819D02*
X161578571Y-85854819D01*
X161578571Y-85854819D02*
X161721428Y-85807200D01*
X161721428Y-85807200D02*
X161816666Y-85711961D01*
X161816666Y-85711961D02*
X161864285Y-85616723D01*
X161864285Y-85616723D02*
X161911904Y-85426247D01*
X161911904Y-85426247D02*
X161911904Y-85283390D01*
X161911904Y-85283390D02*
X161864285Y-85092914D01*
X161864285Y-85092914D02*
X161816666Y-84997676D01*
X161816666Y-84997676D02*
X161721428Y-84902438D01*
X161721428Y-84902438D02*
X161578571Y-84854819D01*
X161578571Y-84854819D02*
X161483333Y-84854819D01*
X161483333Y-84854819D02*
X161340476Y-84902438D01*
X161340476Y-84902438D02*
X161292857Y-84950057D01*
X160340476Y-85854819D02*
X160911904Y-85854819D01*
X160626190Y-85854819D02*
X160626190Y-84854819D01*
X160626190Y-84854819D02*
X160721428Y-84997676D01*
X160721428Y-84997676D02*
X160816666Y-85092914D01*
X160816666Y-85092914D02*
X160911904Y-85140533D01*
X159959523Y-84950057D02*
X159911904Y-84902438D01*
X159911904Y-84902438D02*
X159816666Y-84854819D01*
X159816666Y-84854819D02*
X159578571Y-84854819D01*
X159578571Y-84854819D02*
X159483333Y-84902438D01*
X159483333Y-84902438D02*
X159435714Y-84950057D01*
X159435714Y-84950057D02*
X159388095Y-85045295D01*
X159388095Y-85045295D02*
X159388095Y-85140533D01*
X159388095Y-85140533D02*
X159435714Y-85283390D01*
X159435714Y-85283390D02*
X160007142Y-85854819D01*
X160007142Y-85854819D02*
X159388095Y-85854819D01*
X159683333Y-63404819D02*
X159683333Y-64119104D01*
X159683333Y-64119104D02*
X159730952Y-64261961D01*
X159730952Y-64261961D02*
X159826190Y-64357200D01*
X159826190Y-64357200D02*
X159969047Y-64404819D01*
X159969047Y-64404819D02*
X160064285Y-64404819D01*
X158683333Y-64404819D02*
X159254761Y-64404819D01*
X158969047Y-64404819D02*
X158969047Y-63404819D01*
X158969047Y-63404819D02*
X159064285Y-63547676D01*
X159064285Y-63547676D02*
X159159523Y-63642914D01*
X159159523Y-63642914D02*
X159254761Y-63690533D01*
X145966666Y-91504819D02*
X146299999Y-91028628D01*
X146538094Y-91504819D02*
X146538094Y-90504819D01*
X146538094Y-90504819D02*
X146157142Y-90504819D01*
X146157142Y-90504819D02*
X146061904Y-90552438D01*
X146061904Y-90552438D02*
X146014285Y-90600057D01*
X146014285Y-90600057D02*
X145966666Y-90695295D01*
X145966666Y-90695295D02*
X145966666Y-90838152D01*
X145966666Y-90838152D02*
X146014285Y-90933390D01*
X146014285Y-90933390D02*
X146061904Y-90981009D01*
X146061904Y-90981009D02*
X146157142Y-91028628D01*
X146157142Y-91028628D02*
X146538094Y-91028628D01*
X145395237Y-90933390D02*
X145490475Y-90885771D01*
X145490475Y-90885771D02*
X145538094Y-90838152D01*
X145538094Y-90838152D02*
X145585713Y-90742914D01*
X145585713Y-90742914D02*
X145585713Y-90695295D01*
X145585713Y-90695295D02*
X145538094Y-90600057D01*
X145538094Y-90600057D02*
X145490475Y-90552438D01*
X145490475Y-90552438D02*
X145395237Y-90504819D01*
X145395237Y-90504819D02*
X145204761Y-90504819D01*
X145204761Y-90504819D02*
X145109523Y-90552438D01*
X145109523Y-90552438D02*
X145061904Y-90600057D01*
X145061904Y-90600057D02*
X145014285Y-90695295D01*
X145014285Y-90695295D02*
X145014285Y-90742914D01*
X145014285Y-90742914D02*
X145061904Y-90838152D01*
X145061904Y-90838152D02*
X145109523Y-90885771D01*
X145109523Y-90885771D02*
X145204761Y-90933390D01*
X145204761Y-90933390D02*
X145395237Y-90933390D01*
X145395237Y-90933390D02*
X145490475Y-90981009D01*
X145490475Y-90981009D02*
X145538094Y-91028628D01*
X145538094Y-91028628D02*
X145585713Y-91123866D01*
X145585713Y-91123866D02*
X145585713Y-91314342D01*
X145585713Y-91314342D02*
X145538094Y-91409580D01*
X145538094Y-91409580D02*
X145490475Y-91457200D01*
X145490475Y-91457200D02*
X145395237Y-91504819D01*
X145395237Y-91504819D02*
X145204761Y-91504819D01*
X145204761Y-91504819D02*
X145109523Y-91457200D01*
X145109523Y-91457200D02*
X145061904Y-91409580D01*
X145061904Y-91409580D02*
X145014285Y-91314342D01*
X145014285Y-91314342D02*
X145014285Y-91123866D01*
X145014285Y-91123866D02*
X145061904Y-91028628D01*
X145061904Y-91028628D02*
X145109523Y-90981009D01*
X145109523Y-90981009D02*
X145204761Y-90933390D01*
X152092858Y-78759579D02*
X152140477Y-78807199D01*
X152140477Y-78807199D02*
X152283334Y-78854818D01*
X152283334Y-78854818D02*
X152378572Y-78854818D01*
X152378572Y-78854818D02*
X152521429Y-78807199D01*
X152521429Y-78807199D02*
X152616667Y-78711960D01*
X152616667Y-78711960D02*
X152664286Y-78616722D01*
X152664286Y-78616722D02*
X152711905Y-78426246D01*
X152711905Y-78426246D02*
X152711905Y-78283389D01*
X152711905Y-78283389D02*
X152664286Y-78092913D01*
X152664286Y-78092913D02*
X152616667Y-77997675D01*
X152616667Y-77997675D02*
X152521429Y-77902437D01*
X152521429Y-77902437D02*
X152378572Y-77854818D01*
X152378572Y-77854818D02*
X152283334Y-77854818D01*
X152283334Y-77854818D02*
X152140477Y-77902437D01*
X152140477Y-77902437D02*
X152092858Y-77950056D01*
X151140477Y-78854818D02*
X151711905Y-78854818D01*
X151426191Y-78854818D02*
X151426191Y-77854818D01*
X151426191Y-77854818D02*
X151521429Y-77997675D01*
X151521429Y-77997675D02*
X151616667Y-78092913D01*
X151616667Y-78092913D02*
X151711905Y-78140532D01*
X150807143Y-77854818D02*
X150140477Y-77854818D01*
X150140477Y-77854818D02*
X150569048Y-78854818D01*
X176792857Y-78959580D02*
X176840476Y-79007200D01*
X176840476Y-79007200D02*
X176983333Y-79054819D01*
X176983333Y-79054819D02*
X177078571Y-79054819D01*
X177078571Y-79054819D02*
X177221428Y-79007200D01*
X177221428Y-79007200D02*
X177316666Y-78911961D01*
X177316666Y-78911961D02*
X177364285Y-78816723D01*
X177364285Y-78816723D02*
X177411904Y-78626247D01*
X177411904Y-78626247D02*
X177411904Y-78483390D01*
X177411904Y-78483390D02*
X177364285Y-78292914D01*
X177364285Y-78292914D02*
X177316666Y-78197676D01*
X177316666Y-78197676D02*
X177221428Y-78102438D01*
X177221428Y-78102438D02*
X177078571Y-78054819D01*
X177078571Y-78054819D02*
X176983333Y-78054819D01*
X176983333Y-78054819D02*
X176840476Y-78102438D01*
X176840476Y-78102438D02*
X176792857Y-78150057D01*
X175840476Y-79054819D02*
X176411904Y-79054819D01*
X176126190Y-79054819D02*
X176126190Y-78054819D01*
X176126190Y-78054819D02*
X176221428Y-78197676D01*
X176221428Y-78197676D02*
X176316666Y-78292914D01*
X176316666Y-78292914D02*
X176411904Y-78340533D01*
X175364285Y-79054819D02*
X175173809Y-79054819D01*
X175173809Y-79054819D02*
X175078571Y-79007200D01*
X175078571Y-79007200D02*
X175030952Y-78959580D01*
X175030952Y-78959580D02*
X174935714Y-78816723D01*
X174935714Y-78816723D02*
X174888095Y-78626247D01*
X174888095Y-78626247D02*
X174888095Y-78245295D01*
X174888095Y-78245295D02*
X174935714Y-78150057D01*
X174935714Y-78150057D02*
X174983333Y-78102438D01*
X174983333Y-78102438D02*
X175078571Y-78054819D01*
X175078571Y-78054819D02*
X175269047Y-78054819D01*
X175269047Y-78054819D02*
X175364285Y-78102438D01*
X175364285Y-78102438D02*
X175411904Y-78150057D01*
X175411904Y-78150057D02*
X175459523Y-78245295D01*
X175459523Y-78245295D02*
X175459523Y-78483390D01*
X175459523Y-78483390D02*
X175411904Y-78578628D01*
X175411904Y-78578628D02*
X175364285Y-78626247D01*
X175364285Y-78626247D02*
X175269047Y-78673866D01*
X175269047Y-78673866D02*
X175078571Y-78673866D01*
X175078571Y-78673866D02*
X174983333Y-78626247D01*
X174983333Y-78626247D02*
X174935714Y-78578628D01*
X174935714Y-78578628D02*
X174888095Y-78483390D01*
X148061904Y-84904819D02*
X148061904Y-85714342D01*
X148061904Y-85714342D02*
X148014285Y-85809580D01*
X148014285Y-85809580D02*
X147966666Y-85857200D01*
X147966666Y-85857200D02*
X147871428Y-85904819D01*
X147871428Y-85904819D02*
X147680952Y-85904819D01*
X147680952Y-85904819D02*
X147585714Y-85857200D01*
X147585714Y-85857200D02*
X147538095Y-85809580D01*
X147538095Y-85809580D02*
X147490476Y-85714342D01*
X147490476Y-85714342D02*
X147490476Y-84904819D01*
X147109523Y-84904819D02*
X146490476Y-84904819D01*
X146490476Y-84904819D02*
X146823809Y-85285771D01*
X146823809Y-85285771D02*
X146680952Y-85285771D01*
X146680952Y-85285771D02*
X146585714Y-85333390D01*
X146585714Y-85333390D02*
X146538095Y-85381009D01*
X146538095Y-85381009D02*
X146490476Y-85476247D01*
X146490476Y-85476247D02*
X146490476Y-85714342D01*
X146490476Y-85714342D02*
X146538095Y-85809580D01*
X146538095Y-85809580D02*
X146585714Y-85857200D01*
X146585714Y-85857200D02*
X146680952Y-85904819D01*
X146680952Y-85904819D02*
X146966666Y-85904819D01*
X146966666Y-85904819D02*
X147061904Y-85857200D01*
X147061904Y-85857200D02*
X147109523Y-85809580D01*
D12*
%TO.C,TP13*%
X143650000Y-88800000D02*
G75*
G02*
X142250000Y-88800000I-700000J0D01*
G01*
X142250000Y-88800000D02*
G75*
G02*
X143650000Y-88800000I700000J0D01*
G01*
%TO.C,TP8*%
X147600000Y-80400000D02*
G75*
G02*
X146200000Y-80400000I-700000J0D01*
G01*
X146200000Y-80400000D02*
G75*
G02*
X147600000Y-80400000I700000J0D01*
G01*
%TO.C,TP11*%
X138650000Y-70900000D02*
G75*
G02*
X137250000Y-70900000I-700000J0D01*
G01*
X137250000Y-70900000D02*
G75*
G02*
X138650000Y-70900000I700000J0D01*
G01*
%TO.C,TP10*%
X142100000Y-80350000D02*
G75*
G02*
X140700000Y-80350000I-700000J0D01*
G01*
X140700000Y-80350000D02*
G75*
G02*
X142100000Y-80350000I700000J0D01*
G01*
%TO.C,TP9*%
X135950000Y-91100000D02*
G75*
G02*
X134550000Y-91100000I-700000J0D01*
G01*
X134550000Y-91100000D02*
G75*
G02*
X135950000Y-91100000I700000J0D01*
G01*
%TO.C,TP5*%
X136900000Y-74950000D02*
G75*
G02*
X135500000Y-74950000I-700000J0D01*
G01*
X135500000Y-74950000D02*
G75*
G02*
X136900000Y-74950000I700000J0D01*
G01*
%TO.C,TP2*%
X161600000Y-70700000D02*
G75*
G02*
X160200000Y-70700000I-700000J0D01*
G01*
X160200000Y-70700000D02*
G75*
G02*
X161600000Y-70700000I700000J0D01*
G01*
%TO.C,TP1*%
X158900000Y-70600000D02*
G75*
G02*
X157500000Y-70600000I-700000J0D01*
G01*
X157500000Y-70600000D02*
G75*
G02*
X158900000Y-70600000I700000J0D01*
G01*
%TO.C,C15*%
X143315000Y-69638748D02*
X143315000Y-70161252D01*
X144785000Y-69638748D02*
X144785000Y-70161252D01*
D13*
%TO.C,J4*%
X155620000Y-73550000D02*
X156700000Y-73550000D01*
X155620000Y-92450000D02*
X156700000Y-92450000D01*
X156700000Y-73550000D02*
X156700000Y-72750000D01*
X156700000Y-92450000D02*
X156700000Y-93250000D01*
X156700000Y-93250000D02*
X158100000Y-93250000D01*
X158100000Y-72750000D02*
X156700000Y-72750000D01*
X158100000Y-93250000D02*
X158100000Y-72750000D01*
D11*
X152350000Y-75750000D02*
G75*
G02*
X152150000Y-75750000I-100000J0D01*
G01*
X152150000Y-75750000D02*
G75*
G02*
X152350000Y-75750000I100000J0D01*
G01*
D12*
%TO.C,R6*%
X174470000Y-72703641D02*
X174470000Y-72396359D01*
X175230000Y-72703641D02*
X175230000Y-72396359D01*
%TO.C,R5*%
X171470000Y-72703641D02*
X171470000Y-72396359D01*
X172230000Y-72703641D02*
X172230000Y-72396359D01*
%TO.C,R10*%
X147953641Y-93170000D02*
X147646359Y-93170000D01*
X147953641Y-93930000D02*
X147646359Y-93930000D01*
%TO.C,C4*%
X162588748Y-87465000D02*
X163111252Y-87465000D01*
X162588748Y-88935000D02*
X163111252Y-88935000D01*
D13*
%TO.C,Y1*%
X167650000Y-95800000D02*
X167650000Y-91800000D01*
X170750000Y-91800000D02*
X167650000Y-91800000D01*
X170750000Y-95800000D02*
X167650000Y-95800000D01*
X170750000Y-95800000D02*
X170750000Y-91800000D01*
D11*
%TO.C,SW3*%
X130010000Y-88670000D02*
X130610000Y-88670000D01*
X130010000Y-89670000D02*
X130010000Y-88670000D01*
X130610000Y-89670000D02*
X130010000Y-89670000D01*
X130610000Y-90070000D02*
X130610000Y-88270000D01*
D12*
%TO.C,C1*%
X134340000Y-78257836D02*
X134340000Y-78042164D01*
X135060000Y-78257836D02*
X135060000Y-78042164D01*
%TO.C,C7*%
X171290000Y-93312164D02*
X171290000Y-93527836D01*
X172010000Y-93312164D02*
X172010000Y-93527836D01*
%TO.C,J2*%
X168430000Y-67500000D02*
X168430000Y-65800000D01*
X177770000Y-67500000D02*
X177770000Y-65800000D01*
%TO.C,U1*%
X143490000Y-74200000D02*
X143490000Y-75000000D01*
X143490000Y-75800000D02*
X143490000Y-75000000D01*
X146610000Y-74200000D02*
X146610000Y-75000000D01*
X146610000Y-75800000D02*
X146610000Y-75000000D01*
X143540000Y-73700000D02*
X143210000Y-73940000D01*
X143210000Y-73460000D01*
X143540000Y-73700000D01*
G36*
X143540000Y-73700000D02*
G01*
X143210000Y-73940000D01*
X143210000Y-73460000D01*
X143540000Y-73700000D01*
G37*
%TO.C,R1*%
X136546359Y-77270000D02*
X136853641Y-77270000D01*
X136546359Y-78030000D02*
X136853641Y-78030000D01*
%TO.C,U2*%
X166640000Y-80690000D02*
X167290000Y-80690000D01*
X166640000Y-81340000D02*
X166640000Y-80690000D01*
X166640000Y-87670000D02*
X166640000Y-87260000D01*
X166940000Y-87910000D02*
X167290000Y-87910000D01*
X173860000Y-80690000D02*
X173210000Y-80690000D01*
X173860000Y-81340000D02*
X173860000Y-80690000D01*
X173860000Y-87260000D02*
X173860000Y-87910000D01*
X173860000Y-87910000D02*
X173210000Y-87910000D01*
X166880000Y-88240000D02*
X166400000Y-88240000D01*
X166640000Y-87910000D01*
X166880000Y-88240000D01*
G36*
X166880000Y-88240000D02*
G01*
X166400000Y-88240000D01*
X166640000Y-87910000D01*
X166880000Y-88240000D01*
G37*
%TO.C,Q1*%
X146240000Y-66350000D02*
X146240000Y-67150000D01*
X146240000Y-67950000D02*
X146240000Y-67150000D01*
X149360000Y-66350000D02*
X149360000Y-67150000D01*
X149360000Y-67950000D02*
X149360000Y-67150000D01*
X149640000Y-68690000D02*
X149310000Y-68450000D01*
X149640000Y-68210000D01*
X149640000Y-68690000D01*
G36*
X149640000Y-68690000D02*
G01*
X149310000Y-68450000D01*
X149640000Y-68210000D01*
X149640000Y-68690000D01*
G37*
%TO.C,C9*%
X161988748Y-83065000D02*
X162511252Y-83065000D01*
X161988748Y-84535000D02*
X162511252Y-84535000D01*
%TO.C,R9*%
X147953641Y-91870000D02*
X147646359Y-91870000D01*
X147953641Y-92630000D02*
X147646359Y-92630000D01*
%TO.C,C18*%
X151290000Y-84307836D02*
X151290000Y-84092164D01*
X152010000Y-84307836D02*
X152010000Y-84092164D01*
%TO.C,U4*%
X176300000Y-80745000D02*
X182290000Y-80745000D01*
X176300000Y-85965000D02*
X182300000Y-85965000D01*
X183010000Y-81045000D02*
X182530000Y-81045000D01*
X182530000Y-80565000D01*
X183010000Y-81045000D01*
G36*
X183010000Y-81045000D02*
G01*
X182530000Y-81045000D01*
X182530000Y-80565000D01*
X183010000Y-81045000D01*
G37*
%TO.C,R4*%
X155903641Y-101830000D02*
X155596359Y-101830000D01*
X155903641Y-101070000D02*
X155596359Y-101070000D01*
%TO.C,L1*%
X166040000Y-91637221D02*
X166040000Y-91962779D01*
X167060000Y-91637221D02*
X167060000Y-91962779D01*
%TO.C,C6*%
X169290000Y-78442164D02*
X169290000Y-78657836D01*
X170010000Y-78442164D02*
X170010000Y-78657836D01*
%TO.C,R3*%
X134870000Y-88803641D02*
X134870000Y-88496359D01*
X135630000Y-88803641D02*
X135630000Y-88496359D01*
%TO.C,C16*%
X141942164Y-72140000D02*
X142157836Y-72140000D01*
X141942164Y-72860000D02*
X142157836Y-72860000D01*
%TO.C,D1*%
X145340000Y-69850000D02*
X145340000Y-71850000D01*
X149350000Y-69850000D02*
X145340000Y-69850000D01*
X149350000Y-71850000D02*
X145340000Y-71850000D01*
%TO.C,C13*%
X163342164Y-91090000D02*
X163557836Y-91090000D01*
X163342164Y-91810000D02*
X163557836Y-91810000D01*
%TO.C,C11*%
X163342164Y-89840000D02*
X163557836Y-89840000D01*
X163342164Y-90560000D02*
X163557836Y-90560000D01*
%TO.C,C5*%
X162942164Y-86190000D02*
X163157836Y-86190000D01*
X162942164Y-86910000D02*
X163157836Y-86910000D01*
%TO.C,C10*%
X173942164Y-89490000D02*
X174157836Y-89490000D01*
X173942164Y-90210000D02*
X174157836Y-90210000D01*
%TO.C,R2*%
X155596359Y-96120000D02*
X155903641Y-96120000D01*
X155596359Y-96880000D02*
X155903641Y-96880000D01*
%TO.C,C2*%
X155837836Y-97640000D02*
X155622164Y-97640000D01*
X155837836Y-98360000D02*
X155622164Y-98360000D01*
%TO.C,C8*%
X166157836Y-94540000D02*
X165942164Y-94540000D01*
X166157836Y-95260000D02*
X165942164Y-95260000D01*
%TO.C,R7*%
X152353641Y-68670000D02*
X152046359Y-68670000D01*
X152353641Y-69430000D02*
X152046359Y-69430000D01*
%TO.C,C3*%
X155662164Y-100360000D02*
X155877836Y-100360000D01*
X155662164Y-99640000D02*
X155877836Y-99640000D01*
D11*
%TO.C,SW1*%
X129960000Y-77170000D02*
X130560000Y-77170000D01*
X129960000Y-78170000D02*
X129960000Y-77170000D01*
X130560000Y-78170000D02*
X129960000Y-78170000D01*
X130560000Y-78570000D02*
X130560000Y-76770000D01*
D12*
%TO.C,C14*%
X140440000Y-68638748D02*
X140440000Y-70061252D01*
X142260000Y-68638748D02*
X142260000Y-70061252D01*
%TO.C,C12*%
X162942164Y-85040000D02*
X163157836Y-85040000D01*
X162942164Y-85760000D02*
X163157836Y-85760000D01*
%TO.C,J1*%
X150570000Y-64670000D02*
X151900000Y-64670000D01*
X150570000Y-66000000D02*
X150570000Y-64670000D01*
X153170000Y-67330000D02*
X153170000Y-64670000D01*
X165930000Y-64670000D02*
X153170000Y-64670000D01*
X165930000Y-67330000D02*
X153170000Y-67330000D01*
X165930000Y-67330000D02*
X165930000Y-64670000D01*
%TO.C,R8*%
X147953641Y-90620000D02*
X147646359Y-90620000D01*
X147953641Y-91380000D02*
X147646359Y-91380000D01*
%TO.C,C17*%
X151090000Y-76857836D02*
X151090000Y-76642164D01*
X151810000Y-76857836D02*
X151810000Y-76642164D01*
%TO.C,C19*%
X174940000Y-80042164D02*
X174940000Y-80257836D01*
X175660000Y-80042164D02*
X175660000Y-80257836D01*
%TO.C,U3*%
X146500000Y-86302500D02*
X147300000Y-86302500D01*
X146500000Y-89422500D02*
X147300000Y-89422500D01*
X148100000Y-86302500D02*
X147300000Y-86302500D01*
X148100000Y-89422500D02*
X147300000Y-89422500D01*
X146240000Y-89702500D02*
X145760000Y-89702500D01*
X146000000Y-89372500D01*
X146240000Y-89702500D01*
G36*
X146240000Y-89702500D02*
G01*
X145760000Y-89702500D01*
X146000000Y-89372500D01*
X146240000Y-89702500D01*
G37*
%TD*%
D14*
X132573000Y-104000000D02*
G75*
G02*
X129573000Y-101000000I0J3000000D01*
G01*
X184000000Y-62000000D02*
X132573000Y-62000000D01*
X187000000Y-101000000D02*
G75*
G02*
X184000000Y-104000000I-3000000J0D01*
G01*
X132573000Y-104000000D02*
X184000000Y-104000000D01*
X184000000Y-76500000D02*
G75*
G02*
X185500000Y-75000000I1500000J0D01*
G01*
X184000000Y-62000000D02*
G75*
G02*
X187000000Y-65000000I0J-3000000D01*
G01*
X187000000Y-73500000D02*
X187000000Y-65000000D01*
X187000000Y-95500000D02*
X187000000Y-101000000D01*
X129573000Y-65000000D02*
X129573000Y-101000000D01*
X184000000Y-76500000D02*
X184000000Y-92500000D01*
X129573000Y-65000000D02*
G75*
G02*
X132573000Y-62000000I3000000J0D01*
G01*
X185500000Y-94000000D02*
G75*
G02*
X184000000Y-92500000I0J1500000D01*
G01*
X187000000Y-73500000D02*
G75*
G02*
X185500000Y-75000000I-1500000J0D01*
G01*
X185500000Y-94000000D02*
G75*
G02*
X187000000Y-95500000I0J-1500000D01*
G01*
M02*
