%TF.GenerationSoftware,KiCad,Pcbnew,8.0.1-rc1*%
%TF.CreationDate,2024-04-16T22:30:49-06:00*%
%TF.ProjectId,bitaxe-ESP-OLED,62697461-7865-42d4-9553-502d4f4c4544,rev?*%
%TF.SameCoordinates,Original*%
%TF.FileFunction,Copper,L4,Bot*%
%TF.FilePolarity,Positive*%
%FSLAX46Y46*%
G04 Gerber Fmt 4.6, Leading zero omitted, Abs format (unit mm)*
G04 Created by KiCad (PCBNEW 8.0.1-rc1) date 2024-04-16 22:30:49*
%MOMM*%
%LPD*%
G01*
G04 APERTURE LIST*
G04 Aperture macros list*
%AMRoundRect*
0 Rectangle with rounded corners*
0 $1 Rounding radius*
0 $2 $3 $4 $5 $6 $7 $8 $9 X,Y pos of 4 corners*
0 Add a 4 corners polygon primitive as box body*
4,1,4,$2,$3,$4,$5,$6,$7,$8,$9,$2,$3,0*
0 Add four circle primitives for the rounded corners*
1,1,$1+$1,$2,$3*
1,1,$1+$1,$4,$5*
1,1,$1+$1,$6,$7*
1,1,$1+$1,$8,$9*
0 Add four rect primitives between the rounded corners*
20,1,$1+$1,$2,$3,$4,$5,0*
20,1,$1+$1,$4,$5,$6,$7,0*
20,1,$1+$1,$6,$7,$8,$9,0*
20,1,$1+$1,$8,$9,$2,$3,0*%
%AMFreePoly0*
4,1,21,0.978536,1.503536,0.980000,1.500000,0.980000,-0.800000,0.978536,-0.803536,0.975000,-0.805000,-0.975000,-0.805000,-0.978536,-0.803536,-0.980000,-0.800000,-0.980000,-0.305000,-1.675000,-0.305000,-1.678536,-0.303536,-1.680000,-0.300000,-1.680000,0.800000,-1.678536,0.803536,-1.675000,0.805000,-0.280000,0.805000,-0.280000,1.500000,-0.278536,1.503536,-0.275000,1.505000,0.975000,1.505000,
0.978536,1.503536,0.978536,1.503536,$1*%
%AMFreePoly1*
4,1,21,0.278536,1.503536,0.280000,1.500000,0.280000,0.805000,1.675000,0.805000,1.678536,0.803536,1.680000,0.800000,1.680000,-0.300000,1.678536,-0.303536,1.675000,-0.305000,0.980000,-0.305000,0.980000,-0.800000,0.978536,-0.803536,0.975000,-0.805000,-0.975000,-0.805000,-0.978536,-0.803536,-0.980000,-0.800000,-0.980000,1.500000,-0.978536,1.503536,-0.975000,1.505000,0.275000,1.505000,
0.278536,1.503536,0.278536,1.503536,$1*%
G04 Aperture macros list end*
%TA.AperFunction,SMDPad,CuDef*%
%ADD10C,1.000000*%
%TD*%
%TA.AperFunction,ComponentPad*%
%ADD11C,0.800000*%
%TD*%
%TA.AperFunction,ComponentPad*%
%ADD12C,6.400000*%
%TD*%
%TA.AperFunction,SMDPad,CuDef*%
%ADD13RoundRect,0.250000X0.475000X-0.250000X0.475000X0.250000X-0.475000X0.250000X-0.475000X-0.250000X0*%
%TD*%
%TA.AperFunction,SMDPad,CuDef*%
%ADD14R,1.400000X0.300000*%
%TD*%
%TA.AperFunction,SMDPad,CuDef*%
%ADD15FreePoly0,270.000000*%
%TD*%
%TA.AperFunction,SMDPad,CuDef*%
%ADD16FreePoly1,270.000000*%
%TD*%
%TA.AperFunction,SMDPad,CuDef*%
%ADD17RoundRect,0.135000X-0.185000X0.135000X-0.185000X-0.135000X0.185000X-0.135000X0.185000X0.135000X0*%
%TD*%
%TA.AperFunction,SMDPad,CuDef*%
%ADD18RoundRect,0.135000X-0.135000X-0.185000X0.135000X-0.185000X0.135000X0.185000X-0.135000X0.185000X0*%
%TD*%
%TA.AperFunction,SMDPad,CuDef*%
%ADD19RoundRect,0.250000X0.250000X0.475000X-0.250000X0.475000X-0.250000X-0.475000X0.250000X-0.475000X0*%
%TD*%
%TA.AperFunction,SMDPad,CuDef*%
%ADD20R,1.100000X1.400000*%
%TD*%
%TA.AperFunction,SMDPad,CuDef*%
%ADD21RoundRect,0.200000X0.200000X-0.450000X0.200000X0.450000X-0.200000X0.450000X-0.200000X-0.450000X0*%
%TD*%
%TA.AperFunction,SMDPad,CuDef*%
%ADD22O,1.750000X0.740000*%
%TD*%
%TA.AperFunction,SMDPad,CuDef*%
%ADD23RoundRect,0.150000X0.750000X-0.150000X0.750000X0.150000X-0.750000X0.150000X-0.750000X-0.150000X0*%
%TD*%
%TA.AperFunction,SMDPad,CuDef*%
%ADD24RoundRect,0.140000X-0.170000X0.140000X-0.170000X-0.140000X0.170000X-0.140000X0.170000X0.140000X0*%
%TD*%
%TA.AperFunction,SMDPad,CuDef*%
%ADD25RoundRect,0.140000X0.170000X-0.140000X0.170000X0.140000X-0.170000X0.140000X-0.170000X-0.140000X0*%
%TD*%
%TA.AperFunction,SMDPad,CuDef*%
%ADD26RoundRect,0.150000X-0.150000X-0.425000X0.150000X-0.425000X0.150000X0.425000X-0.150000X0.425000X0*%
%TD*%
%TA.AperFunction,SMDPad,CuDef*%
%ADD27RoundRect,0.075000X-0.075000X-0.500000X0.075000X-0.500000X0.075000X0.500000X-0.075000X0.500000X0*%
%TD*%
%TA.AperFunction,ComponentPad*%
%ADD28O,1.000000X1.800000*%
%TD*%
%TA.AperFunction,ComponentPad*%
%ADD29O,1.000000X2.100000*%
%TD*%
%TA.AperFunction,SMDPad,CuDef*%
%ADD30RoundRect,0.150000X-0.150000X0.512500X-0.150000X-0.512500X0.150000X-0.512500X0.150000X0.512500X0*%
%TD*%
%TA.AperFunction,SMDPad,CuDef*%
%ADD31RoundRect,0.135000X0.135000X0.185000X-0.135000X0.185000X-0.135000X-0.185000X0.135000X-0.185000X0*%
%TD*%
%TA.AperFunction,SMDPad,CuDef*%
%ADD32RoundRect,0.050000X-0.350000X-0.050000X0.350000X-0.050000X0.350000X0.050000X-0.350000X0.050000X0*%
%TD*%
%TA.AperFunction,SMDPad,CuDef*%
%ADD33RoundRect,0.050000X-0.050000X-0.350000X0.050000X-0.350000X0.050000X0.350000X-0.050000X0.350000X0*%
%TD*%
%TA.AperFunction,HeatsinkPad*%
%ADD34C,0.500000*%
%TD*%
%TA.AperFunction,HeatsinkPad*%
%ADD35R,4.000000X4.000000*%
%TD*%
%TA.AperFunction,SMDPad,CuDef*%
%ADD36RoundRect,0.150000X0.150000X-0.512500X0.150000X0.512500X-0.150000X0.512500X-0.150000X-0.512500X0*%
%TD*%
%TA.AperFunction,SMDPad,CuDef*%
%ADD37RoundRect,0.125000X0.250000X0.125000X-0.250000X0.125000X-0.250000X-0.125000X0.250000X-0.125000X0*%
%TD*%
%TA.AperFunction,HeatsinkPad*%
%ADD38R,3.400000X4.300000*%
%TD*%
%TA.AperFunction,SMDPad,CuDef*%
%ADD39RoundRect,0.218750X0.256250X-0.218750X0.256250X0.218750X-0.256250X0.218750X-0.256250X-0.218750X0*%
%TD*%
%TA.AperFunction,SMDPad,CuDef*%
%ADD40RoundRect,0.140000X0.140000X0.170000X-0.140000X0.170000X-0.140000X-0.170000X0.140000X-0.170000X0*%
%TD*%
%TA.AperFunction,SMDPad,CuDef*%
%ADD41RoundRect,0.225000X-0.225000X-0.375000X0.225000X-0.375000X0.225000X0.375000X-0.225000X0.375000X0*%
%TD*%
%TA.AperFunction,SMDPad,CuDef*%
%ADD42RoundRect,0.140000X-0.140000X-0.170000X0.140000X-0.170000X0.140000X0.170000X-0.140000X0.170000X0*%
%TD*%
%TA.AperFunction,SMDPad,CuDef*%
%ADD43RoundRect,0.250000X0.650000X-0.325000X0.650000X0.325000X-0.650000X0.325000X-0.650000X-0.325000X0*%
%TD*%
%TA.AperFunction,ComponentPad*%
%ADD44R,1.700000X1.700000*%
%TD*%
%TA.AperFunction,ComponentPad*%
%ADD45O,1.700000X1.700000*%
%TD*%
%TA.AperFunction,SMDPad,CuDef*%
%ADD46RoundRect,0.150000X-0.512500X-0.150000X0.512500X-0.150000X0.512500X0.150000X-0.512500X0.150000X0*%
%TD*%
%TA.AperFunction,ViaPad*%
%ADD47C,0.600000*%
%TD*%
%TA.AperFunction,ViaPad*%
%ADD48C,1.000000*%
%TD*%
%TA.AperFunction,Conductor*%
%ADD49C,0.500000*%
%TD*%
%TA.AperFunction,Conductor*%
%ADD50C,0.200000*%
%TD*%
%TA.AperFunction,Conductor*%
%ADD51C,0.400000*%
%TD*%
%TA.AperFunction,Conductor*%
%ADD52C,0.300000*%
%TD*%
%TA.AperFunction,Profile*%
%ADD53C,0.100000*%
%TD*%
G04 APERTURE END LIST*
D10*
%TO.P,TP13,1,1*%
%TO.N,/LCD_BLK*%
X142950000Y-88800000D03*
%TD*%
%TO.P,TP8,1,1*%
%TO.N,/3V3*%
X146900000Y-80400000D03*
%TD*%
%TO.P,TP11,1,1*%
%TO.N,/+5V*%
X137950000Y-70900000D03*
%TD*%
%TO.P,TP10,1,1*%
%TO.N,GND*%
X141400000Y-80350000D03*
%TD*%
%TO.P,TP9,1,1*%
%TO.N,/GPIO0*%
X135250000Y-91100000D03*
%TD*%
%TO.P,TP5,1,1*%
%TO.N,/RESET*%
X136200000Y-74950000D03*
%TD*%
%TO.P,TP2,1,1*%
%TO.N,/BAP_RX*%
X160900000Y-70700000D03*
%TD*%
%TO.P,TP1,1,1*%
%TO.N,/BAP_TX*%
X158200000Y-70600000D03*
%TD*%
D11*
%TO.P,H1,1*%
%TO.N,N/C*%
X131173000Y-66000000D03*
X131875944Y-64302944D03*
X131875944Y-67697056D03*
X133573000Y-63600000D03*
D12*
X133573000Y-66000000D03*
D11*
X133573000Y-68400000D03*
X135270056Y-64302944D03*
X135270056Y-67697056D03*
X135973000Y-66000000D03*
%TD*%
%TO.P,H3,1*%
%TO.N,N/C*%
X131173000Y-100000000D03*
X131875944Y-98302944D03*
X131875944Y-101697056D03*
X133573000Y-97600000D03*
D12*
X133573000Y-100000000D03*
D11*
X133573000Y-102400000D03*
X135270056Y-98302944D03*
X135270056Y-101697056D03*
X135973000Y-100000000D03*
%TD*%
%TO.P,H2,1*%
%TO.N,N/C*%
X180600000Y-66000000D03*
X181302944Y-64302944D03*
X181302944Y-67697056D03*
X183000000Y-63600000D03*
D12*
X183000000Y-66000000D03*
D11*
X183000000Y-68400000D03*
X184697056Y-64302944D03*
X184697056Y-67697056D03*
X185400000Y-66000000D03*
%TD*%
%TO.P,H4,1*%
%TO.N,N/C*%
X180600000Y-100000000D03*
X181302944Y-98302944D03*
X181302944Y-101697056D03*
X183000000Y-97600000D03*
D12*
X183000000Y-100000000D03*
D11*
X183000000Y-102400000D03*
X184697056Y-98302944D03*
X184697056Y-101697056D03*
X185400000Y-100000000D03*
%TD*%
D13*
%TO.P,C15,1*%
%TO.N,/+5V*%
X144050000Y-70850000D03*
%TO.P,C15,2*%
%TO.N,GND*%
X144050000Y-68950000D03*
%TD*%
D14*
%TO.P,J4,1,1*%
%TO.N,GND*%
X153600000Y-75750000D03*
%TO.P,J4,2,2*%
%TO.N,/3V3*%
X153600000Y-76250000D03*
%TO.P,J4,3,3*%
%TO.N,GND*%
X153600000Y-76750000D03*
%TO.P,J4,4,4*%
X153600000Y-77250000D03*
%TO.P,J4,5,5*%
%TO.N,/LCD_RES*%
X153600000Y-77750000D03*
%TO.P,J4,6,6*%
%TO.N,/LCD_CS*%
X153600000Y-78250000D03*
%TO.P,J4,7,7*%
%TO.N,/LCD_DC*%
X153600000Y-78750000D03*
%TO.P,J4,8,8*%
%TO.N,/LCD_WR*%
X153600000Y-79250000D03*
%TO.P,J4,9,9*%
%TO.N,/LCD_RD*%
X153600000Y-79750000D03*
%TO.P,J4,10,10*%
%TO.N,GND*%
X153600000Y-80250000D03*
%TO.P,J4,11,11*%
%TO.N,/LCD_D0*%
X153600000Y-80750000D03*
%TO.P,J4,12,12*%
%TO.N,/LCD_D1*%
X153600000Y-81250000D03*
%TO.P,J4,13,13*%
%TO.N,/LCD_D2*%
X153600000Y-81750000D03*
%TO.P,J4,14,14*%
%TO.N,/LCD_D3*%
X153600000Y-82250000D03*
%TO.P,J4,15,15*%
%TO.N,/LCD_D4*%
X153600000Y-82750000D03*
%TO.P,J4,16,16*%
%TO.N,/LCD_D5*%
X153600000Y-83250000D03*
%TO.P,J4,17,17*%
%TO.N,/LCD_D6*%
X153600000Y-83750000D03*
%TO.P,J4,18,18*%
%TO.N,/LCD_D7*%
X153600000Y-84250000D03*
%TO.P,J4,19,19*%
%TO.N,unconnected-(J4-Pad19)*%
X153600000Y-84750000D03*
%TO.P,J4,20,20*%
%TO.N,/3V3*%
X153600000Y-85250000D03*
%TO.P,J4,21,21*%
%TO.N,/LEDK4*%
X153600000Y-85750000D03*
%TO.P,J4,22,22*%
%TO.N,/LEDK3*%
X153600000Y-86250000D03*
%TO.P,J4,23,23*%
%TO.N,/LEDK2*%
X153600000Y-86750000D03*
%TO.P,J4,24,24*%
%TO.N,/LEDK1*%
X153600000Y-87250000D03*
%TO.P,J4,25,25*%
%TO.N,GND*%
X153600000Y-87750000D03*
%TO.P,J4,26,26*%
%TO.N,/TP_RESET*%
X153600000Y-88250000D03*
%TO.P,J4,27,27*%
%TO.N,/I2C_SCL*%
X153600000Y-88750000D03*
%TO.P,J4,28,28*%
%TO.N,/I2C_SCK*%
X153600000Y-89250000D03*
%TO.P,J4,29,29*%
%TO.N,/TP_INT*%
X153600000Y-89750000D03*
%TO.P,J4,30,30*%
%TO.N,GND*%
X153600000Y-90250000D03*
D15*
%TO.P,J4,SH1,Shield*%
X154500000Y-74325000D03*
D16*
%TO.P,J4,SH2,Shield*%
X154500000Y-91675000D03*
%TD*%
D17*
%TO.P,R6,1*%
%TO.N,Net-(J2-CC2)*%
X174850000Y-72040000D03*
%TO.P,R6,2*%
%TO.N,GND*%
X174850000Y-73060000D03*
%TD*%
%TO.P,R5,1*%
%TO.N,Net-(J2-CC1)*%
X171850000Y-72040000D03*
%TO.P,R5,2*%
%TO.N,GND*%
X171850000Y-73060000D03*
%TD*%
D18*
%TO.P,R10,1*%
%TO.N,/3V3*%
X147290000Y-93550000D03*
%TO.P,R10,2*%
%TO.N,/TP_INT*%
X148310000Y-93550000D03*
%TD*%
D19*
%TO.P,C4,1*%
%TO.N,/3V3*%
X163800000Y-88200000D03*
%TO.P,C4,2*%
%TO.N,GND*%
X161900000Y-88200000D03*
%TD*%
D20*
%TO.P,Y1,1,1*%
%TO.N,/XTAL_N*%
X170000000Y-92700000D03*
%TO.P,Y1,2,2*%
%TO.N,GND*%
X170000000Y-94900000D03*
%TO.P,Y1,3,3*%
%TO.N,Net-(C8-Pad2)*%
X168400000Y-94900000D03*
%TO.P,Y1,4,4*%
%TO.N,GND*%
X168400000Y-92700000D03*
%TD*%
D21*
%TO.P,SW3,*%
%TO.N,*%
X130150000Y-91000000D03*
X130150000Y-87300000D03*
D22*
%TO.P,SW3,1*%
%TO.N,GND*%
X132350000Y-90380000D03*
X132350000Y-87920000D03*
D23*
%TO.P,SW3,2*%
%TO.N,/GPIO0*%
X132250000Y-89150000D03*
%TD*%
D24*
%TO.P,C1,1*%
%TO.N,/RESET*%
X134700000Y-77670000D03*
%TO.P,C1,2*%
%TO.N,GND*%
X134700000Y-78630000D03*
%TD*%
D25*
%TO.P,C7,1*%
%TO.N,GND*%
X171650000Y-93900000D03*
%TO.P,C7,2*%
%TO.N,/XTAL_N*%
X171650000Y-92940000D03*
%TD*%
D26*
%TO.P,J2,A1,GND*%
%TO.N,GND*%
X169900000Y-69380000D03*
%TO.P,J2,A4,VBUS*%
%TO.N,/VBUS*%
X170700000Y-69380000D03*
D27*
%TO.P,J2,A5,CC1*%
%TO.N,Net-(J2-CC1)*%
X171850000Y-69380000D03*
%TO.P,J2,A6,D+*%
%TO.N,/USB_DP*%
X172850000Y-69380000D03*
%TO.P,J2,A7,D-*%
%TO.N,/USB_DM*%
X173350000Y-69380000D03*
%TO.P,J2,A8,SBU1*%
%TO.N,unconnected-(J2-SBU1-PadA8)*%
X174350000Y-69380000D03*
D26*
%TO.P,J2,A9,VBUS*%
%TO.N,/VBUS*%
X175500000Y-69380000D03*
%TO.P,J2,A12,GND*%
%TO.N,GND*%
X176300000Y-69380000D03*
%TO.P,J2,B1,GND*%
X176300000Y-69380000D03*
%TO.P,J2,B4,VBUS*%
%TO.N,/VBUS*%
X175500000Y-69380000D03*
D27*
%TO.P,J2,B5,CC2*%
%TO.N,Net-(J2-CC2)*%
X174850000Y-69380000D03*
%TO.P,J2,B6,D+*%
%TO.N,/USB_DP*%
X173850000Y-69380000D03*
%TO.P,J2,B7,D-*%
%TO.N,/USB_DM*%
X172350000Y-69380000D03*
%TO.P,J2,B8,SBU2*%
%TO.N,unconnected-(J2-SBU2-PadB8)*%
X171350000Y-69380000D03*
D26*
%TO.P,J2,B9,VBUS*%
%TO.N,/VBUS*%
X170700000Y-69380000D03*
%TO.P,J2,B12,GND*%
%TO.N,GND*%
X169900000Y-69380000D03*
D28*
%TO.P,J2,S1,SHIELD*%
X168780000Y-64625000D03*
D29*
X168780000Y-68805000D03*
D28*
X177420000Y-64625000D03*
D29*
X177420000Y-68805000D03*
%TD*%
D30*
%TO.P,U1,1,VIN*%
%TO.N,/+5V*%
X144100000Y-73862500D03*
%TO.P,U1,2,GND*%
%TO.N,GND*%
X145050000Y-73862500D03*
%TO.P,U1,3,EN*%
%TO.N,/+5V*%
X146000000Y-73862500D03*
%TO.P,U1,4,NC*%
%TO.N,unconnected-(U1-NC-Pad4)*%
X146000000Y-76137500D03*
%TO.P,U1,5,VOUT*%
%TO.N,/3V3*%
X144100000Y-76137500D03*
%TD*%
D31*
%TO.P,R1,1*%
%TO.N,/3V3*%
X137210000Y-77650000D03*
%TO.P,R1,2*%
%TO.N,/RESET*%
X136190000Y-77650000D03*
%TD*%
D32*
%TO.P,U2,1,LNA_IN*%
%TO.N,unconnected-(U2-LNA_IN-Pad1)*%
X166800000Y-86900000D03*
%TO.P,U2,2,VDD3P3*%
%TO.N,/3V3*%
X166800000Y-86500000D03*
%TO.P,U2,3,VDD3P3*%
X166800000Y-86100000D03*
%TO.P,U2,4,CHIP_PU*%
%TO.N,/RESET*%
X166800000Y-85700000D03*
%TO.P,U2,5,GPIO0*%
%TO.N,/GPIO0*%
X166800000Y-85300000D03*
%TO.P,U2,6,GPIO1*%
%TO.N,/GPIO1*%
X166800000Y-84900000D03*
%TO.P,U2,7,GPIO2*%
%TO.N,/GPIO2*%
X166800000Y-84500000D03*
%TO.P,U2,8,GPIO3*%
%TO.N,unconnected-(U2-GPIO3-Pad8)*%
X166800000Y-84100000D03*
%TO.P,U2,9,GPIO4*%
%TO.N,unconnected-(U2-GPIO4-Pad9)*%
X166800000Y-83700000D03*
%TO.P,U2,10,GPIO5*%
%TO.N,/LCD_RES*%
X166800000Y-83300000D03*
%TO.P,U2,11,GPIO6*%
%TO.N,/LCD_CS*%
X166800000Y-82900000D03*
%TO.P,U2,12,GPIO7*%
%TO.N,/LCD_DC*%
X166800000Y-82500000D03*
%TO.P,U2,13,GPIO8*%
%TO.N,/LCD_WR*%
X166800000Y-82100000D03*
%TO.P,U2,14,GPIO9*%
%TO.N,/LCD_RD*%
X166800000Y-81700000D03*
D33*
%TO.P,U2,15,GPIO10*%
%TO.N,/BAP_TX*%
X167650000Y-80850000D03*
%TO.P,U2,16,GPIO11*%
%TO.N,/BAP_RX*%
X168050000Y-80850000D03*
%TO.P,U2,17,GPIO12*%
%TO.N,unconnected-(U2-GPIO12-Pad17)*%
X168450000Y-80850000D03*
%TO.P,U2,18,GPIO13*%
%TO.N,/UI2*%
X168850000Y-80850000D03*
%TO.P,U2,19,GPIO14*%
%TO.N,/UI1*%
X169250000Y-80850000D03*
%TO.P,U2,20,VDD3P3*%
%TO.N,/3V3*%
X169650000Y-80850000D03*
%TO.P,U2,21,XTAL_32K_P*%
%TO.N,/LCD_EN*%
X170050000Y-80850000D03*
%TO.P,U2,22,XTAL_32K_N*%
%TO.N,/TP_INT*%
X170450000Y-80850000D03*
%TO.P,U2,23,GPIO17*%
%TO.N,/I2C_SCK*%
X170850000Y-80850000D03*
%TO.P,U2,24,GPIO18*%
%TO.N,/I2C_SCL*%
X171250000Y-80850000D03*
%TO.P,U2,25,GPIO19/USB_DM*%
%TO.N,/USB_DM*%
X171650000Y-80850000D03*
%TO.P,U2,26,GPIO20/USB_DP*%
%TO.N,/USB_DP*%
X172050000Y-80850000D03*
%TO.P,U2,27,GPIO21*%
%TO.N,/TP_RESET*%
X172450000Y-80850000D03*
%TO.P,U2,28,SPICS1*%
%TO.N,unconnected-(U2-SPICS1-Pad28)*%
X172850000Y-80850000D03*
D32*
%TO.P,U2,29,VDD_SPI*%
%TO.N,/VDD_SPI*%
X173700000Y-81700000D03*
%TO.P,U2,30,SPIHD*%
%TO.N,/SPI_HD*%
X173700000Y-82100000D03*
%TO.P,U2,31,SPIWP*%
%TO.N,/SPI_WP*%
X173700000Y-82500000D03*
%TO.P,U2,32,SPICS0*%
%TO.N,/SPI_CS*%
X173700000Y-82900000D03*
%TO.P,U2,33,SPICLK*%
%TO.N,/SPI_CLK*%
X173700000Y-83300000D03*
%TO.P,U2,34,SPIQ*%
%TO.N,/SPI_Q*%
X173700000Y-83700000D03*
%TO.P,U2,35,SPID*%
%TO.N,/SPI_D*%
X173700000Y-84100000D03*
%TO.P,U2,36,SPICLK_N*%
%TO.N,/LCD_D7*%
X173700000Y-84500000D03*
%TO.P,U2,37,SPILCK_P*%
%TO.N,/LCD_D6*%
X173700000Y-84900000D03*
%TO.P,U2,38,GPIO33*%
%TO.N,unconnected-(U2-GPIO33-Pad38)*%
X173700000Y-85300000D03*
%TO.P,U2,39,GPIO34*%
%TO.N,unconnected-(U2-GPIO34-Pad39)*%
X173700000Y-85700000D03*
%TO.P,U2,40,GPIO35*%
%TO.N,unconnected-(U2-GPIO35-Pad40)*%
X173700000Y-86100000D03*
%TO.P,U2,41,GPIO36*%
%TO.N,unconnected-(U2-GPIO36-Pad41)*%
X173700000Y-86500000D03*
%TO.P,U2,42,GPIO37*%
%TO.N,unconnected-(U2-GPIO37-Pad42)*%
X173700000Y-86900000D03*
D33*
%TO.P,U2,43,GPIO38*%
%TO.N,/LCD_BLK*%
X172850000Y-87750000D03*
%TO.P,U2,44,MTLK*%
%TO.N,/LCD_D0*%
X172450000Y-87750000D03*
%TO.P,U2,45,MTDO*%
%TO.N,/LCD_D1*%
X172050000Y-87750000D03*
%TO.P,U2,46,VDD3P3_CPU*%
%TO.N,/3V3*%
X171650000Y-87750000D03*
%TO.P,U2,47,MTDI*%
%TO.N,/LCD_D2*%
X171250000Y-87750000D03*
%TO.P,U2,48,MTMS*%
%TO.N,/LCD_D3*%
X170850000Y-87750000D03*
%TO.P,U2,49,GPIO43/U0TXD*%
%TO.N,/P_TX*%
X170450000Y-87750000D03*
%TO.P,U2,50,GPIO44/U0RXD*%
%TO.N,/P_RX*%
X170050000Y-87750000D03*
%TO.P,U2,51,GPIO45*%
%TO.N,/LCD_D4*%
X169650000Y-87750000D03*
%TO.P,U2,52,GPIO46*%
%TO.N,/LCD_D5*%
X169250000Y-87750000D03*
%TO.P,U2,53,XTAL_N*%
%TO.N,/XTAL_N*%
X168850000Y-87750000D03*
%TO.P,U2,54,XTAL_P*%
%TO.N,/XTAL_P*%
X168450000Y-87750000D03*
%TO.P,U2,55,VDDA*%
%TO.N,/3V3*%
X168050000Y-87750000D03*
%TO.P,U2,56,VDDA*%
X167650000Y-87750000D03*
D34*
%TO.P,U2,57,PAD*%
%TO.N,GND*%
X168500000Y-82550000D03*
X168500000Y-84300000D03*
X168500000Y-86050000D03*
X170250000Y-82550000D03*
X170250000Y-84300000D03*
D35*
X170250000Y-84300000D03*
D34*
X170250000Y-86050000D03*
X172000000Y-82550000D03*
X172000000Y-84300000D03*
X172000000Y-86050000D03*
%TD*%
D36*
%TO.P,Q1,1,G*%
%TO.N,/VBUS*%
X148750000Y-68287500D03*
%TO.P,Q1,2,S*%
%TO.N,/+5V*%
X146850000Y-68287500D03*
%TO.P,Q1,3,D*%
%TO.N,/5V_BAP*%
X147800000Y-66012500D03*
%TD*%
D19*
%TO.P,C9,1*%
%TO.N,/3V3*%
X163200000Y-83800000D03*
%TO.P,C9,2*%
%TO.N,GND*%
X161300000Y-83800000D03*
%TD*%
D18*
%TO.P,R9,1*%
%TO.N,/3V3*%
X147290000Y-92250000D03*
%TO.P,R9,2*%
%TO.N,/I2C_SCK*%
X148310000Y-92250000D03*
%TD*%
D24*
%TO.P,C18,1*%
%TO.N,GND*%
X151650000Y-83720000D03*
%TO.P,C18,2*%
%TO.N,/3V3*%
X151650000Y-84680000D03*
%TD*%
D37*
%TO.P,U4,1,CS_N*%
%TO.N,/SPI_CS*%
X182000000Y-81450000D03*
%TO.P,U4,2,DO*%
%TO.N,/SPI_Q*%
X182000000Y-82720000D03*
%TO.P,U4,3,WP_N*%
%TO.N,/SPI_WP*%
X182000000Y-83990000D03*
%TO.P,U4,4,GND*%
%TO.N,GND*%
X182000000Y-85260000D03*
%TO.P,U4,5,DI*%
%TO.N,/SPI_D*%
X176600000Y-85260000D03*
%TO.P,U4,6,CLK*%
%TO.N,/SPI_CLK*%
X176600000Y-83990000D03*
%TO.P,U4,7,HOLD*%
%TO.N,/SPI_HD*%
X176600000Y-82720000D03*
%TO.P,U4,8,VCC*%
%TO.N,/VDD_SPI*%
X176600000Y-81450000D03*
D38*
%TO.P,U4,9*%
%TO.N,N/C*%
X179300000Y-83355000D03*
%TD*%
D18*
%TO.P,R4,1*%
%TO.N,/3V3*%
X155240000Y-101450000D03*
%TO.P,R4,2*%
%TO.N,/UI2*%
X156260000Y-101450000D03*
%TD*%
D39*
%TO.P,L1,1,1*%
%TO.N,Net-(C8-Pad2)*%
X166550000Y-92587500D03*
%TO.P,L1,2,2*%
%TO.N,/XTAL_P*%
X166550000Y-91012500D03*
%TD*%
D25*
%TO.P,C6,1*%
%TO.N,/3V3*%
X169650000Y-79030000D03*
%TO.P,C6,2*%
%TO.N,GND*%
X169650000Y-78070000D03*
%TD*%
D17*
%TO.P,R3,1*%
%TO.N,/3V3*%
X135250000Y-88140000D03*
%TO.P,R3,2*%
%TO.N,/GPIO0*%
X135250000Y-89160000D03*
%TD*%
D40*
%TO.P,C16,1*%
%TO.N,/+5V*%
X142530000Y-72500000D03*
%TO.P,C16,2*%
%TO.N,GND*%
X141570000Y-72500000D03*
%TD*%
D41*
%TO.P,D1,1,K*%
%TO.N,/+5V*%
X146050000Y-70850000D03*
%TO.P,D1,2,A*%
%TO.N,/VBUS*%
X149350000Y-70850000D03*
%TD*%
D40*
%TO.P,C13,1*%
%TO.N,/3V3*%
X163930000Y-91450000D03*
%TO.P,C13,2*%
%TO.N,GND*%
X162970000Y-91450000D03*
%TD*%
%TO.P,C11,1*%
%TO.N,/3V3*%
X163930000Y-90200000D03*
%TO.P,C11,2*%
%TO.N,GND*%
X162970000Y-90200000D03*
%TD*%
%TO.P,C5,1*%
%TO.N,/3V3*%
X163530000Y-86550000D03*
%TO.P,C5,2*%
%TO.N,GND*%
X162570000Y-86550000D03*
%TD*%
%TO.P,C10,1*%
%TO.N,GND*%
X174530000Y-89850000D03*
%TO.P,C10,2*%
%TO.N,/3V3*%
X173570000Y-89850000D03*
%TD*%
D31*
%TO.P,R2,1*%
%TO.N,/3V3*%
X156260000Y-96500000D03*
%TO.P,R2,2*%
%TO.N,/UI1*%
X155240000Y-96500000D03*
%TD*%
D42*
%TO.P,C2,1*%
%TO.N,/UI1*%
X155250000Y-98000000D03*
%TO.P,C2,2*%
%TO.N,GND*%
X156210000Y-98000000D03*
%TD*%
%TO.P,C8,1*%
%TO.N,GND*%
X165570000Y-94900000D03*
%TO.P,C8,2*%
%TO.N,Net-(C8-Pad2)*%
X166530000Y-94900000D03*
%TD*%
D18*
%TO.P,R7,1*%
%TO.N,/VBUS*%
X151690000Y-69050000D03*
%TO.P,R7,2*%
%TO.N,GND*%
X152710000Y-69050000D03*
%TD*%
D40*
%TO.P,C3,1*%
%TO.N,/UI2*%
X156250000Y-100000000D03*
%TO.P,C3,2*%
%TO.N,GND*%
X155290000Y-100000000D03*
%TD*%
D21*
%TO.P,SW1,*%
%TO.N,*%
X130100000Y-79500000D03*
X130100000Y-75800000D03*
D22*
%TO.P,SW1,1*%
%TO.N,GND*%
X132300000Y-78880000D03*
X132300000Y-76420000D03*
D23*
%TO.P,SW1,2*%
%TO.N,/RESET*%
X132200000Y-77650000D03*
%TD*%
D43*
%TO.P,C14,1*%
%TO.N,/+5V*%
X141350000Y-70825000D03*
%TO.P,C14,2*%
%TO.N,GND*%
X141350000Y-67875000D03*
%TD*%
D40*
%TO.P,C12,1*%
%TO.N,/3V3*%
X163530000Y-85400000D03*
%TO.P,C12,2*%
%TO.N,GND*%
X162570000Y-85400000D03*
%TD*%
D44*
%TO.P,J1,1,Pin_1*%
%TO.N,/5V_BAP*%
X151900000Y-66000000D03*
D45*
%TO.P,J1,2,Pin_2*%
%TO.N,GND*%
X154440000Y-66000000D03*
%TO.P,J1,3,Pin_3*%
%TO.N,/BAP_TX*%
X156980000Y-66000000D03*
%TO.P,J1,4,Pin_4*%
%TO.N,/BAP_RX*%
X159520000Y-66000000D03*
%TO.P,J1,5,Pin_5*%
%TO.N,/GPIO1*%
X162060000Y-66000000D03*
%TO.P,J1,6,Pin_6*%
%TO.N,/GPIO2*%
X164600000Y-66000000D03*
%TD*%
D18*
%TO.P,R8,1*%
%TO.N,/3V3*%
X147290000Y-91000000D03*
%TO.P,R8,2*%
%TO.N,/I2C_SCL*%
X148310000Y-91000000D03*
%TD*%
D24*
%TO.P,C17,1*%
%TO.N,/3V3*%
X151450000Y-76270000D03*
%TO.P,C17,2*%
%TO.N,GND*%
X151450000Y-77230000D03*
%TD*%
D25*
%TO.P,C19,1*%
%TO.N,/VDD_SPI*%
X175300000Y-80630000D03*
%TO.P,C19,2*%
%TO.N,GND*%
X175300000Y-79670000D03*
%TD*%
D46*
%TO.P,U3,1,EN*%
%TO.N,/LCD_BLK*%
X146162500Y-88812500D03*
%TO.P,U3,2,GND*%
%TO.N,GND*%
X146162500Y-87862500D03*
%TO.P,U3,3,LED4*%
%TO.N,/LEDK4*%
X146162500Y-86912500D03*
%TO.P,U3,4,LED3*%
%TO.N,/LEDK3*%
X148437500Y-86912500D03*
%TO.P,U3,5,LED2*%
%TO.N,/LEDK2*%
X148437500Y-87862500D03*
%TO.P,U3,6,LED1*%
%TO.N,/LEDK1*%
X148437500Y-88812500D03*
%TD*%
D47*
%TO.N,/LCD_BLK*%
X144550000Y-88850000D03*
X177000000Y-93600000D03*
%TO.N,/TP_RESET*%
X174000000Y-80150000D03*
%TO.N,/BAP_RX*%
X164650000Y-72750000D03*
%TO.N,/BAP_TX*%
X163800000Y-73350000D03*
X165200000Y-76300000D03*
%TO.N,/BAP_RX*%
X166300000Y-76300000D03*
%TO.N,/P_RX*%
X173800000Y-98250000D03*
%TO.N,/P_TX*%
X175100000Y-98250000D03*
%TO.N,/3V3*%
X176350000Y-101600000D03*
%TO.N,GND*%
X175100000Y-101600000D03*
X134700000Y-79600000D03*
X150600000Y-77250000D03*
X164815000Y-94900000D03*
D48*
X145200000Y-72400000D03*
D47*
X169700000Y-77200000D03*
X151800000Y-88050000D03*
X155750000Y-99000000D03*
X171650000Y-94670000D03*
X159650000Y-97900000D03*
X141400000Y-97950000D03*
D48*
X140250000Y-72500000D03*
X142700000Y-66550000D03*
D47*
X133800000Y-75350000D03*
X174850000Y-73900000D03*
X171850000Y-73900000D03*
X151950000Y-80250000D03*
X182900000Y-85250000D03*
X144650000Y-87850000D03*
D48*
X156850000Y-74700000D03*
D47*
X176250000Y-79650000D03*
X168400000Y-91200000D03*
X133800000Y-90350000D03*
X151650000Y-75350000D03*
D48*
X175550000Y-90950000D03*
X160700000Y-89200000D03*
D47*
X133800000Y-87900000D03*
D48*
X156850000Y-91350000D03*
D47*
X150600000Y-83750000D03*
D48*
X161450000Y-82150000D03*
D47*
X151900000Y-90600000D03*
D48*
%TO.N,/VBUS*%
X176300000Y-71450000D03*
X169900000Y-71450000D03*
X155850000Y-69550000D03*
D47*
%TO.N,/RESET*%
X164500000Y-85050000D03*
X139350000Y-82050000D03*
%TO.N,/UI1*%
X151250000Y-101150000D03*
%TO.N,/UI2*%
X169600000Y-100900000D03*
%TO.N,/3V3*%
X137200000Y-76700000D03*
X155220000Y-102500000D03*
D48*
X162850000Y-82100000D03*
X174250000Y-91000000D03*
X165005971Y-88950000D03*
D47*
X150600000Y-84700000D03*
D48*
X144650000Y-77900000D03*
D47*
X150550000Y-76250000D03*
X156250000Y-95450000D03*
D48*
X143500000Y-77900000D03*
D47*
X135250000Y-87200000D03*
D48*
X164900000Y-91450000D03*
D47*
X147300000Y-94550000D03*
X168800000Y-78800000D03*
%TO.N,/GPIO0*%
X164500000Y-84250000D03*
X138700000Y-81000000D03*
%TO.N,/I2C_SCL*%
X157600000Y-79699997D03*
X171500000Y-78700000D03*
%TO.N,/I2C_SCK*%
X158369222Y-79480223D03*
X171500000Y-77800000D03*
%TO.N,/TP_INT*%
X158900811Y-78882380D03*
X171500000Y-76850000D03*
%TO.N,/SPI_CS*%
X175739951Y-83075735D03*
X182950000Y-81450000D03*
%TO.N,/SPI_Q*%
X182950000Y-82700000D03*
X175574265Y-84275735D03*
%TO.N,/SPI_WP*%
X175284597Y-82349023D03*
X182950000Y-84000000D03*
%TO.N,/LCD_D5*%
X169591469Y-90346804D03*
X156400000Y-85600000D03*
%TO.N,/LCD_WR*%
X165250000Y-77550000D03*
X155874265Y-78874265D03*
%TO.N,/LCD_D2*%
X156750000Y-82650000D03*
X173217157Y-90832843D03*
%TO.N,/LCD_D3*%
X156450000Y-83550000D03*
X172400000Y-91200000D03*
%TO.N,/LCD_D4*%
X170191469Y-90906468D03*
X155607108Y-83292892D03*
%TO.N,/LCD_CS*%
X164050000Y-76400000D03*
X155750000Y-77450000D03*
%TO.N,/LCD_D0*%
X155800000Y-80350000D03*
X175299264Y-88099264D03*
%TO.N,/LCD_D6*%
X174838815Y-86937935D03*
X155800000Y-86300000D03*
%TO.N,/TP_RESET*%
X155450000Y-88050000D03*
%TO.N,/LCD_DC*%
X156250000Y-78100000D03*
X164650000Y-77000000D03*
%TO.N,/LCD_RD*%
X156450000Y-79550000D03*
X165825078Y-78115687D03*
%TO.N,/LCD_D1*%
X175323529Y-88923529D03*
X156400000Y-81000000D03*
%TO.N,/LCD_D7*%
X155988140Y-87450000D03*
X175850000Y-86900000D03*
%TO.N,/LCD_RES*%
X163450000Y-75800000D03*
X156200000Y-76700000D03*
%TO.N,/GPIO2*%
X163000000Y-75050000D03*
%TO.N,/GPIO1*%
X162150000Y-75050000D03*
%TD*%
D49*
%TO.N,GND*%
X142700000Y-66550000D02*
X144050000Y-67900000D01*
X142700000Y-66550000D02*
X141650000Y-66550000D01*
X144050000Y-67900000D02*
X144050000Y-68950000D01*
X141350000Y-66850000D02*
X141350000Y-67875000D01*
X141650000Y-66550000D02*
X141350000Y-66850000D01*
D50*
%TO.N,/BAP_RX*%
X162950000Y-72750000D02*
X159520000Y-69320000D01*
X164650000Y-72750000D02*
X162950000Y-72750000D01*
X159520000Y-69320000D02*
X159520000Y-66000000D01*
%TO.N,/BAP_TX*%
X156980000Y-69380000D02*
X156980000Y-66000000D01*
X160950000Y-73350000D02*
X156980000Y-69380000D01*
X163800000Y-73350000D02*
X160950000Y-73350000D01*
%TO.N,/RESET*%
X136190000Y-79740000D02*
X136190000Y-77650000D01*
X138500000Y-82050000D02*
X136190000Y-79740000D01*
X139350000Y-82050000D02*
X138500000Y-82050000D01*
%TO.N,/GPIO0*%
X139650000Y-81000000D02*
X140350000Y-81700000D01*
X140350000Y-84060000D02*
X135250000Y-89160000D01*
X138700000Y-81000000D02*
X139650000Y-81000000D01*
X140350000Y-81700000D02*
X140350000Y-84060000D01*
D49*
%TO.N,/+5V*%
X141350000Y-70825000D02*
X138025000Y-70825000D01*
X138025000Y-70825000D02*
X137950000Y-70900000D01*
D51*
%TO.N,GND*%
X140250000Y-75850000D02*
X140250000Y-72500000D01*
X141400000Y-77000000D02*
X140250000Y-75850000D01*
X141400000Y-80350000D02*
X141400000Y-77000000D01*
%TO.N,/3V3*%
X146900000Y-80400000D02*
X146050000Y-80400000D01*
X146050000Y-80400000D02*
X144650000Y-79000000D01*
X144650000Y-79000000D02*
X144650000Y-77900000D01*
D50*
%TO.N,/LCD_BLK*%
X172850000Y-88150000D02*
X172850000Y-87750000D01*
X175050736Y-87499264D02*
X174200000Y-88350000D01*
X173050000Y-88350000D02*
X172850000Y-88150000D01*
X175649264Y-87499264D02*
X175050736Y-87499264D01*
X174200000Y-88350000D02*
X173050000Y-88350000D01*
X177000000Y-88850000D02*
X175649264Y-87499264D01*
X177000000Y-93600000D02*
X177000000Y-88850000D01*
%TO.N,/TP_RESET*%
X172450000Y-80353640D02*
X172450000Y-80850000D01*
X172653640Y-80150000D02*
X172450000Y-80353640D01*
X174000000Y-80150000D02*
X172653640Y-80150000D01*
%TO.N,/LCD_D7*%
X174362046Y-84500000D02*
X173700000Y-84500000D01*
X174900000Y-85384314D02*
X174900000Y-85037954D01*
X174900000Y-85037954D02*
X174362046Y-84500000D01*
X175850000Y-86334314D02*
X174900000Y-85384314D01*
X175850000Y-86900000D02*
X175850000Y-86334314D01*
%TO.N,/LCD_D6*%
X174196360Y-84900000D02*
X173700000Y-84900000D01*
X174500000Y-85203640D02*
X174196360Y-84900000D01*
X174500000Y-85549999D02*
X174500000Y-85203640D01*
X174838815Y-85888814D02*
X174500000Y-85549999D01*
X174838815Y-86937935D02*
X174838815Y-85888814D01*
%TO.N,/USB_DP*%
X173850000Y-70447410D02*
X173850000Y-69380000D01*
X173750000Y-77915686D02*
X173750000Y-70547410D01*
X173750000Y-70547410D02*
X173850000Y-70447410D01*
X172050000Y-80850000D02*
X172050000Y-79615686D01*
X172050000Y-79615686D02*
X173750000Y-77915686D01*
%TO.N,/USB_DM*%
X173350000Y-77750000D02*
X173350000Y-69380000D01*
X171650000Y-79450000D02*
X173350000Y-77750000D01*
X171650000Y-80850000D02*
X171650000Y-79450000D01*
%TO.N,/I2C_SCL*%
X171500000Y-78700000D02*
X171250000Y-78950000D01*
X171250000Y-78950000D02*
X171250000Y-80850000D01*
%TO.N,/I2C_SCK*%
X170850000Y-78450000D02*
X170850000Y-80850000D01*
X171500000Y-77800000D02*
X170850000Y-78450000D01*
%TO.N,/TP_INT*%
X171500000Y-76850000D02*
X170450000Y-77900000D01*
X170450000Y-77900000D02*
X170450000Y-80850000D01*
%TO.N,/LCD_BLK*%
X142962500Y-88812500D02*
X142950000Y-88800000D01*
X146162500Y-88812500D02*
X142962500Y-88812500D01*
%TO.N,/GPIO0*%
X135250000Y-89160000D02*
X135250000Y-91100000D01*
%TO.N,/RESET*%
X136200000Y-77450000D02*
X136200000Y-74950000D01*
X136190000Y-77460000D02*
X136200000Y-77450000D01*
X136190000Y-77650000D02*
X136190000Y-77460000D01*
%TO.N,/P_TX*%
X175100000Y-94300000D02*
X175100000Y-98250000D01*
X174650000Y-93850000D02*
X175100000Y-94300000D01*
X174650000Y-93250000D02*
X174650000Y-93850000D01*
X173250000Y-91850000D02*
X174650000Y-93250000D01*
X171651471Y-91300000D02*
X172201471Y-91850000D01*
X172201471Y-91850000D02*
X173250000Y-91850000D01*
X170450000Y-89147058D02*
X171651471Y-90348529D01*
X171651471Y-90348529D02*
X171651471Y-91300000D01*
X170450000Y-87750000D02*
X170450000Y-89147058D01*
%TO.N,/BAP_TX*%
X167650000Y-80250000D02*
X167650000Y-80850000D01*
X166750000Y-77850000D02*
X166750000Y-79350000D01*
X165200000Y-76300000D02*
X166750000Y-77850000D01*
X166750000Y-79350000D02*
X167650000Y-80250000D01*
%TO.N,/BAP_RX*%
X167200000Y-79200000D02*
X167200000Y-77200000D01*
X167200000Y-77200000D02*
X166300000Y-76300000D01*
X168050000Y-80050000D02*
X167200000Y-79200000D01*
X168050000Y-80850000D02*
X168050000Y-80050000D01*
%TO.N,/UI2*%
X168850000Y-80265686D02*
X168850000Y-80850000D01*
X167650000Y-79065686D02*
X168850000Y-80265686D01*
X167650000Y-76700000D02*
X167650000Y-79065686D01*
X165300000Y-74350000D02*
X167650000Y-76700000D01*
X161850000Y-74350000D02*
X165300000Y-74350000D01*
X161250000Y-74950000D02*
X161850000Y-74350000D01*
X161250000Y-81000000D02*
X161250000Y-74950000D01*
X160250000Y-82000000D02*
X161250000Y-81000000D01*
X160250000Y-87750000D02*
X160250000Y-82000000D01*
X159650000Y-96400000D02*
X159650000Y-88350000D01*
X159650000Y-88350000D02*
X160250000Y-87750000D01*
X157600000Y-98450000D02*
X159650000Y-96400000D01*
X157600000Y-100000000D02*
X157600000Y-98450000D01*
%TO.N,/UI1*%
X155240000Y-95110000D02*
X155240000Y-96500000D01*
X155850000Y-94500000D02*
X155240000Y-95110000D01*
X157900000Y-94500000D02*
X155850000Y-94500000D01*
X159250000Y-93150000D02*
X157900000Y-94500000D01*
X159250000Y-88150000D02*
X159250000Y-93150000D01*
X159800000Y-87600000D02*
X159250000Y-88150000D01*
X159800000Y-81800000D02*
X159800000Y-87600000D01*
X160850000Y-80750000D02*
X159800000Y-81800000D01*
X165500000Y-73950000D02*
X161650000Y-73950000D01*
X160850000Y-74750000D02*
X160850000Y-80750000D01*
X168050000Y-76500000D02*
X165500000Y-73950000D01*
X168050000Y-78900000D02*
X168050000Y-76500000D01*
X169250000Y-80100000D02*
X168050000Y-78900000D01*
X161650000Y-73950000D02*
X160850000Y-74750000D01*
X169250000Y-80850000D02*
X169250000Y-80100000D01*
%TO.N,/P_RX*%
X173750000Y-93200000D02*
X173750000Y-98200000D01*
X172035786Y-92250000D02*
X172800000Y-92250000D01*
X172800000Y-92250000D02*
X173750000Y-93200000D01*
X171200000Y-91414215D02*
X172035786Y-92250000D01*
X171200000Y-90534314D02*
X171200000Y-91414215D01*
X170050000Y-89384314D02*
X171200000Y-90534314D01*
X173750000Y-98200000D02*
X173800000Y-98250000D01*
X170050000Y-87750000D02*
X170050000Y-89384314D01*
%TO.N,/UI2*%
X168650000Y-100000000D02*
X157600000Y-100000000D01*
X169600000Y-100900000D02*
X169550000Y-100900000D01*
X169550000Y-100900000D02*
X168650000Y-100000000D01*
X157600000Y-100000000D02*
X156250000Y-100000000D01*
%TO.N,/UI1*%
X153850000Y-100050000D02*
X152750000Y-101150000D01*
X154400000Y-98000000D02*
X153850000Y-98550000D01*
X153850000Y-98550000D02*
X153850000Y-100050000D01*
X155250000Y-98000000D02*
X154400000Y-98000000D01*
X152750000Y-101150000D02*
X151250000Y-101150000D01*
%TO.N,GND*%
X155290000Y-99460000D02*
X155750000Y-99000000D01*
X155290000Y-100000000D02*
X155290000Y-99460000D01*
X156210000Y-98540000D02*
X155750000Y-99000000D01*
X156210000Y-98000000D02*
X156210000Y-98540000D01*
%TO.N,/3V3*%
X155240000Y-102480000D02*
X155240000Y-101450000D01*
X155220000Y-102500000D02*
X155240000Y-102480000D01*
%TO.N,GND*%
X155880000Y-98940000D02*
X155820000Y-99000000D01*
X155820000Y-99000000D02*
X155750000Y-99000000D01*
%TO.N,*%
X130000000Y-75490000D02*
X129990000Y-75500000D01*
%TO.N,GND*%
X132300000Y-78880000D02*
X133520000Y-78880000D01*
D51*
X161900000Y-86800000D02*
X161900000Y-88200000D01*
D49*
X145050000Y-72550000D02*
X145200000Y-72400000D01*
D50*
X144662500Y-87862500D02*
X144650000Y-87850000D01*
D51*
X161300000Y-83800000D02*
X161300000Y-84800000D01*
D50*
X156850000Y-74700000D02*
X154875000Y-74700000D01*
X170000000Y-94900000D02*
X171420000Y-94900000D01*
X171850000Y-73060000D02*
X171850000Y-73900000D01*
D51*
X162970000Y-90200000D02*
X162970000Y-91450000D01*
D50*
X134700000Y-79600000D02*
X134700000Y-78630000D01*
X152710000Y-69050000D02*
X153300000Y-69050000D01*
X176230000Y-79670000D02*
X176250000Y-79650000D01*
X152600000Y-76750000D02*
X152350000Y-77000000D01*
X132300000Y-76420000D02*
X133230000Y-76420000D01*
D51*
X161050000Y-88200000D02*
X161900000Y-88200000D01*
D50*
X152050000Y-75750000D02*
X151650000Y-75350000D01*
X152350000Y-77000000D02*
X152350000Y-77250000D01*
X133770000Y-78630000D02*
X134700000Y-78630000D01*
X154825000Y-91350000D02*
X154500000Y-91675000D01*
X152100000Y-87750000D02*
X153600000Y-87750000D01*
X175300000Y-79670000D02*
X176230000Y-79670000D01*
D52*
X141570000Y-72500000D02*
X140250000Y-72500000D01*
D50*
X153300000Y-69050000D02*
X154440000Y-67910000D01*
D51*
X161900000Y-85400000D02*
X162570000Y-85400000D01*
D50*
X133800000Y-87900000D02*
X132370000Y-87900000D01*
X174850000Y-73060000D02*
X174850000Y-73900000D01*
X171420000Y-94900000D02*
X171650000Y-94670000D01*
X169650000Y-78070000D02*
X169650000Y-77250000D01*
D51*
X169900000Y-69380000D02*
X169355000Y-69380000D01*
D50*
X168400000Y-91200000D02*
X168400000Y-92700000D01*
D51*
X176300000Y-69380000D02*
X176845000Y-69380000D01*
X165585000Y-94900000D02*
X164815000Y-94900000D01*
D50*
X151900000Y-90600000D02*
X152250000Y-90250000D01*
D51*
X161450000Y-82150000D02*
X161300000Y-82300000D01*
D50*
X151650000Y-83720000D02*
X150630000Y-83720000D01*
X182890000Y-85260000D02*
X182000000Y-85260000D01*
D49*
X145050000Y-73862500D02*
X145050000Y-72550000D01*
D50*
X132370000Y-87900000D02*
X132350000Y-87920000D01*
D51*
X160700000Y-89200000D02*
X160700000Y-88550000D01*
D50*
X133230000Y-76420000D02*
X133800000Y-75850000D01*
D51*
X169355000Y-69380000D02*
X168780000Y-68805000D01*
D50*
X152250000Y-90250000D02*
X153600000Y-90250000D01*
X153600000Y-76750000D02*
X152600000Y-76750000D01*
X175550000Y-90950000D02*
X175550000Y-90870000D01*
X133800000Y-90350000D02*
X133770000Y-90380000D01*
X153600000Y-75750000D02*
X152050000Y-75750000D01*
D51*
X162150000Y-86550000D02*
X161900000Y-86800000D01*
X161300000Y-82300000D02*
X161300000Y-83800000D01*
D50*
X182900000Y-85250000D02*
X182890000Y-85260000D01*
X151800000Y-88050000D02*
X152100000Y-87750000D01*
X154875000Y-74700000D02*
X154500000Y-74325000D01*
X154440000Y-67910000D02*
X154440000Y-66000000D01*
X169650000Y-77250000D02*
X169700000Y-77200000D01*
X156850000Y-91350000D02*
X154825000Y-91350000D01*
X146162500Y-87862500D02*
X144662500Y-87862500D01*
X133800000Y-75850000D02*
X133800000Y-75350000D01*
X133520000Y-78880000D02*
X133770000Y-78630000D01*
D51*
X160700000Y-88550000D02*
X161050000Y-88200000D01*
D50*
X150600000Y-77250000D02*
X152350000Y-77250000D01*
D51*
X176845000Y-69380000D02*
X177420000Y-68805000D01*
D50*
X175550000Y-90870000D02*
X174530000Y-89850000D01*
D51*
X160700000Y-89200000D02*
X161700000Y-90200000D01*
D50*
X153600000Y-77250000D02*
X152350000Y-77250000D01*
D51*
X171650000Y-93900000D02*
X171650000Y-94670000D01*
X161700000Y-90200000D02*
X162970000Y-90200000D01*
X161300000Y-84800000D02*
X161900000Y-85400000D01*
D50*
X133770000Y-90380000D02*
X132350000Y-90380000D01*
D51*
X162570000Y-86550000D02*
X162150000Y-86550000D01*
D50*
X153600000Y-80250000D02*
X151950000Y-80250000D01*
X150630000Y-83720000D02*
X150600000Y-83750000D01*
%TO.N,/+5V*%
X144100000Y-73862500D02*
X144100000Y-74650000D01*
D49*
X144025000Y-70825000D02*
X144050000Y-70850000D01*
X146850000Y-69200000D02*
X146050000Y-70000000D01*
X144087500Y-72500000D02*
X144087500Y-70887500D01*
X146050000Y-70850000D02*
X144050000Y-70850000D01*
D50*
X144500000Y-75050000D02*
X145600000Y-75050000D01*
D52*
X142530000Y-72500000D02*
X144087500Y-72500000D01*
D50*
X145600000Y-75050000D02*
X146000000Y-74650000D01*
D49*
X144087500Y-70887500D02*
X144050000Y-70850000D01*
D50*
X146000000Y-74650000D02*
X146000000Y-73862500D01*
D49*
X146050000Y-70000000D02*
X146050000Y-70850000D01*
X144087500Y-73612500D02*
X144087500Y-72500000D01*
X141350000Y-70825000D02*
X144025000Y-70825000D01*
D50*
X144100000Y-74650000D02*
X144500000Y-75050000D01*
D49*
X146850000Y-68287500D02*
X146850000Y-69200000D01*
D51*
%TO.N,/VBUS*%
X154550000Y-70850000D02*
X151650000Y-70850000D01*
D49*
X148750000Y-68287500D02*
X148750000Y-69350000D01*
D51*
X170700000Y-69380000D02*
X170700000Y-70650000D01*
X175500000Y-70650000D02*
X176300000Y-71450000D01*
D49*
X148750000Y-69350000D02*
X149350000Y-69950000D01*
D50*
X151690000Y-70810000D02*
X151650000Y-70850000D01*
D51*
X155850000Y-69550000D02*
X154550000Y-70850000D01*
X170700000Y-70650000D02*
X169900000Y-71450000D01*
X175500000Y-69380000D02*
X175500000Y-70650000D01*
D50*
X151690000Y-69050000D02*
X151690000Y-70810000D01*
D51*
X151650000Y-70850000D02*
X149350000Y-70850000D01*
D49*
X149350000Y-69950000D02*
X149350000Y-70850000D01*
D50*
%TO.N,/XTAL_N*%
X171650000Y-92940000D02*
X170240000Y-92940000D01*
X168850000Y-90550000D02*
X170000000Y-91700000D01*
X170240000Y-92940000D02*
X170000000Y-92700000D01*
X170000000Y-91700000D02*
X170000000Y-92700000D01*
X168850000Y-87750000D02*
X168850000Y-90550000D01*
%TO.N,Net-(C8-Pad2)*%
X166550000Y-94880000D02*
X166530000Y-94900000D01*
X166550000Y-92587500D02*
X166550000Y-94880000D01*
X166530000Y-94900000D02*
X168400000Y-94900000D01*
%TO.N,/XTAL_P*%
X168450000Y-87750000D02*
X168450000Y-89850000D01*
X168450000Y-89850000D02*
X167287500Y-91012500D01*
X167287500Y-91012500D02*
X166550000Y-91012500D01*
D49*
%TO.N,/5V_BAP*%
X151887500Y-66012500D02*
X151900000Y-66000000D01*
X147800000Y-66012500D02*
X151887500Y-66012500D01*
D50*
%TO.N,/USB_DM*%
X172350000Y-69380000D02*
X172350000Y-70325000D01*
X172575000Y-70550000D02*
X173350000Y-70550000D01*
X172350000Y-70325000D02*
X172575000Y-70550000D01*
%TO.N,/USB_DP*%
X173035000Y-68505000D02*
X172850000Y-68690000D01*
X173665000Y-68505000D02*
X173035000Y-68505000D01*
X172850000Y-68690000D02*
X172850000Y-69380000D01*
X173850000Y-69380000D02*
X173850000Y-68690000D01*
X173850000Y-68690000D02*
X173665000Y-68505000D01*
%TO.N,Net-(J2-CC2)*%
X174850000Y-69380000D02*
X174850000Y-72040000D01*
%TO.N,Net-(J2-CC1)*%
X171850000Y-69380000D02*
X171850000Y-72040000D01*
%TO.N,/RESET*%
X164500000Y-85050000D02*
X164900000Y-85050000D01*
X136170000Y-77670000D02*
X136190000Y-77650000D01*
X134680000Y-77650000D02*
X134700000Y-77670000D01*
X132200000Y-77650000D02*
X134680000Y-77650000D01*
X134700000Y-77670000D02*
X136170000Y-77670000D01*
X165550000Y-85700000D02*
X166800000Y-85700000D01*
X164900000Y-85050000D02*
X165550000Y-85700000D01*
X132250000Y-77700000D02*
X132200000Y-77650000D01*
%TO.N,/UI1*%
X155250000Y-96510000D02*
X155240000Y-96500000D01*
X155250000Y-98000000D02*
X155250000Y-96510000D01*
%TO.N,/UI2*%
X156250000Y-100000000D02*
X156250000Y-101430000D01*
X156250000Y-101430000D02*
X156230000Y-101450000D01*
%TO.N,/3V3*%
X167650000Y-87750000D02*
X167650000Y-89050000D01*
X151650000Y-84950000D02*
X151650000Y-84680000D01*
X151650000Y-84680000D02*
X150620000Y-84680000D01*
D52*
X167650000Y-89050000D02*
X166100000Y-89050000D01*
D49*
X143500000Y-77900000D02*
X144100000Y-77900000D01*
D50*
X151950000Y-85250000D02*
X151650000Y-84950000D01*
X168050000Y-88800000D02*
X167800000Y-89050000D01*
X156260000Y-95460000D02*
X156250000Y-95450000D01*
X169030000Y-79030000D02*
X168800000Y-78800000D01*
X156260000Y-96500000D02*
X156260000Y-95460000D01*
D51*
X163200000Y-83000000D02*
X163200000Y-83800000D01*
D50*
X163550000Y-85400000D02*
X163530000Y-85400000D01*
X147290000Y-93550000D02*
X147290000Y-92250000D01*
X167800000Y-89050000D02*
X167650000Y-89050000D01*
D51*
X164900000Y-91450000D02*
X163930000Y-91450000D01*
D50*
X147300000Y-93560000D02*
X147290000Y-93550000D01*
X166800000Y-86100000D02*
X164250000Y-86100000D01*
X168050000Y-87750000D02*
X168050000Y-88800000D01*
D52*
X164950000Y-90200000D02*
X163930000Y-90200000D01*
D50*
X164150000Y-86550000D02*
X163530000Y-86550000D01*
X169650000Y-79030000D02*
X169030000Y-79030000D01*
X173570000Y-90320000D02*
X173570000Y-89850000D01*
D51*
X162850000Y-82100000D02*
X162850000Y-82650000D01*
X163200000Y-83800000D02*
X163200000Y-84500000D01*
D50*
X137210000Y-77650000D02*
X137210000Y-76710000D01*
D49*
X163800000Y-87600000D02*
X163530000Y-87330000D01*
D51*
X165005971Y-88950000D02*
X164550000Y-88950000D01*
X163530000Y-84830000D02*
X163530000Y-85400000D01*
D50*
X171650000Y-88650000D02*
X172850000Y-89850000D01*
X153600000Y-85250000D02*
X151950000Y-85250000D01*
D49*
X163530000Y-87330000D02*
X163530000Y-86550000D01*
D50*
X153600000Y-76250000D02*
X150550000Y-76250000D01*
D51*
X164550000Y-88950000D02*
X163800000Y-88200000D01*
D50*
X166800000Y-86500000D02*
X164200000Y-86500000D01*
X164250000Y-86100000D02*
X163550000Y-85400000D01*
X171650000Y-87750000D02*
X171650000Y-88650000D01*
D51*
X162850000Y-82650000D02*
X163200000Y-83000000D01*
D50*
X174250000Y-91000000D02*
X173570000Y-90320000D01*
X150620000Y-84680000D02*
X150600000Y-84700000D01*
D49*
X144100000Y-76137500D02*
X144100000Y-77900000D01*
X144100000Y-77900000D02*
X144650000Y-77900000D01*
D50*
X169650000Y-79070000D02*
X169630000Y-79050000D01*
X147300000Y-94550000D02*
X147300000Y-93560000D01*
X169650000Y-80850000D02*
X169650000Y-79070000D01*
D49*
X163800000Y-88200000D02*
X163800000Y-87600000D01*
D51*
X163200000Y-84500000D02*
X163530000Y-84830000D01*
X163930000Y-91450000D02*
X163930000Y-90200000D01*
D50*
X172850000Y-89850000D02*
X173570000Y-89850000D01*
X147290000Y-92250000D02*
X147290000Y-91000000D01*
X135250000Y-88140000D02*
X135250000Y-87200000D01*
D52*
X166100000Y-89050000D02*
X164950000Y-90200000D01*
D50*
X137210000Y-76710000D02*
X137200000Y-76700000D01*
X164200000Y-86500000D02*
X164150000Y-86550000D01*
%TO.N,/GPIO0*%
X135250000Y-89160000D02*
X135140000Y-89160000D01*
X135130000Y-89150000D02*
X132250000Y-89150000D01*
X164750000Y-84250000D02*
X165800000Y-85300000D01*
X165800000Y-85300000D02*
X166800000Y-85300000D01*
X164500000Y-84250000D02*
X164750000Y-84250000D01*
X135140000Y-89160000D02*
X135130000Y-89150000D01*
%TO.N,/VDD_SPI*%
X176120000Y-81450000D02*
X175300000Y-80630000D01*
X175100674Y-80630000D02*
X175300000Y-80630000D01*
X176600000Y-81450000D02*
X176120000Y-81450000D01*
X173700000Y-81700000D02*
X174030674Y-81700000D01*
X174030674Y-81700000D02*
X175100674Y-80630000D01*
%TO.N,/I2C_SCL*%
X157100000Y-87800000D02*
X157100000Y-83148529D01*
X157100000Y-83148529D02*
X157400000Y-82848529D01*
X157400000Y-80700000D02*
X157600000Y-80500000D01*
X157400000Y-82848529D02*
X157400000Y-80700000D01*
X153600000Y-88750000D02*
X156150000Y-88750000D01*
X151100000Y-88750000D02*
X148850000Y-91000000D01*
X153600000Y-88750000D02*
X151100000Y-88750000D01*
X156150000Y-88750000D02*
X157100000Y-87800000D01*
X148850000Y-91000000D02*
X148310000Y-91000000D01*
X157600000Y-80500000D02*
X157600000Y-79699997D01*
%TO.N,/I2C_SCK*%
X157800000Y-83014215D02*
X157500000Y-83314215D01*
X157800000Y-81050000D02*
X157800000Y-83014215D01*
X153600000Y-89250000D02*
X151500000Y-89250000D01*
X148500000Y-92250000D02*
X148310000Y-92250000D01*
X158369222Y-79480223D02*
X158350000Y-79499445D01*
X158350000Y-79499445D02*
X158350000Y-80500000D01*
X158350000Y-80500000D02*
X157800000Y-81050000D01*
X151500000Y-89250000D02*
X148500000Y-92250000D01*
X157500000Y-83314215D02*
X157500000Y-88100000D01*
X156350000Y-89250000D02*
X153600000Y-89250000D01*
X157500000Y-88100000D02*
X156350000Y-89250000D01*
%TO.N,/TP_INT*%
X153600000Y-89750000D02*
X151825736Y-89750000D01*
X157900000Y-88350000D02*
X156500000Y-89750000D01*
X149850000Y-91725736D02*
X149850000Y-92800000D01*
X158200000Y-83179901D02*
X157900000Y-83479901D01*
X149850000Y-92800000D02*
X149100000Y-93550000D01*
X158969222Y-80580778D02*
X158200000Y-81350000D01*
X158900811Y-78882380D02*
X158969222Y-78950791D01*
X149100000Y-93550000D02*
X148310000Y-93550000D01*
X158200000Y-81350000D02*
X158200000Y-83179901D01*
X156500000Y-89750000D02*
X153600000Y-89750000D01*
X157900000Y-83479901D02*
X157900000Y-88350000D01*
X151825736Y-89750000D02*
X149850000Y-91725736D01*
X158969222Y-78950791D02*
X158969222Y-80580778D01*
%TO.N,/LEDK4*%
X146650000Y-85750000D02*
X146162500Y-86237500D01*
X153600000Y-85750000D02*
X146650000Y-85750000D01*
X146162500Y-86237500D02*
X146162500Y-86912500D01*
%TO.N,/LEDK3*%
X153600000Y-86250000D02*
X150100000Y-86250000D01*
X150100000Y-86250000D02*
X149437500Y-86912500D01*
X149437500Y-86912500D02*
X148437500Y-86912500D01*
%TO.N,/LEDK2*%
X149337500Y-87862500D02*
X148437500Y-87862500D01*
X153600000Y-86750000D02*
X150450000Y-86750000D01*
X150450000Y-86750000D02*
X149337500Y-87862500D01*
%TO.N,/LEDK1*%
X149337500Y-88812500D02*
X148437500Y-88812500D01*
X153600000Y-87250000D02*
X150900000Y-87250000D01*
X150900000Y-87250000D02*
X149337500Y-88812500D01*
%TO.N,/SPI_CLK*%
X176285735Y-83675735D02*
X176600000Y-83990000D01*
X173700000Y-83300000D02*
X174881372Y-83300000D01*
X174881372Y-83300000D02*
X175257107Y-83675735D01*
X175257107Y-83675735D02*
X176285735Y-83675735D01*
%TO.N,/SPI_CS*%
X175047058Y-82900000D02*
X173700000Y-82900000D01*
X175222793Y-83075735D02*
X175047058Y-82900000D01*
X182950000Y-81450000D02*
X182000000Y-81450000D01*
X175739951Y-83075735D02*
X175222793Y-83075735D01*
%TO.N,/SPI_Q*%
X175574265Y-84275735D02*
X175291421Y-84275735D01*
X182020000Y-82700000D02*
X182000000Y-82720000D01*
X175291421Y-84275735D02*
X174715686Y-83700000D01*
X174715686Y-83700000D02*
X173700000Y-83700000D01*
X182950000Y-82700000D02*
X182020000Y-82700000D01*
%TO.N,/SPI_HD*%
X174696360Y-81600000D02*
X175600000Y-81600000D01*
X174196360Y-82100000D02*
X174696360Y-81600000D01*
X173700000Y-82100000D02*
X174196360Y-82100000D01*
X176600000Y-82600000D02*
X176600000Y-82720000D01*
X175600000Y-81600000D02*
X176600000Y-82600000D01*
%TO.N,/SPI_D*%
X174550000Y-84100000D02*
X175710000Y-85260000D01*
X173700000Y-84100000D02*
X174550000Y-84100000D01*
X175710000Y-85260000D02*
X176600000Y-85260000D01*
%TO.N,/SPI_WP*%
X182010000Y-84000000D02*
X182000000Y-83990000D01*
X173700000Y-82500000D02*
X174450000Y-82500000D01*
X175235574Y-82300000D02*
X175284597Y-82349023D01*
X174450000Y-82500000D02*
X174650000Y-82300000D01*
X175200000Y-82300000D02*
X175235574Y-82300000D01*
X182950000Y-84000000D02*
X182010000Y-84000000D01*
X174650000Y-82300000D02*
X175200000Y-82300000D01*
%TO.N,/LCD_D5*%
X169591469Y-90091469D02*
X169250000Y-89750000D01*
X154715686Y-83250000D02*
X153600000Y-83250000D01*
X169591469Y-90346804D02*
X169591469Y-90091469D01*
X169250000Y-89750000D02*
X169250000Y-87750000D01*
X156400000Y-84934314D02*
X154715686Y-83250000D01*
X156400000Y-85600000D02*
X156400000Y-84934314D01*
%TO.N,/LCD_WR*%
X155874265Y-78874265D02*
X155498530Y-79250000D01*
X165225078Y-77574922D02*
X165225078Y-78364216D01*
X165750000Y-81624922D02*
X166225078Y-82100000D01*
X165750000Y-78889138D02*
X165750000Y-81624922D01*
X165250000Y-77550000D02*
X165225078Y-77574922D01*
X155498530Y-79250000D02*
X153600000Y-79250000D01*
X166225078Y-82100000D02*
X166800000Y-82100000D01*
X165225078Y-78364216D02*
X165750000Y-78889138D01*
%TO.N,/LCD_D2*%
X156214909Y-81750000D02*
X153600000Y-81750000D01*
X171250000Y-88815686D02*
X171250000Y-87750000D01*
X156750000Y-82285091D02*
X156214909Y-81750000D01*
X173217157Y-90832843D02*
X173217157Y-90782843D01*
X173217157Y-90782843D02*
X171250000Y-88815686D01*
X156750000Y-82650000D02*
X156750000Y-82285091D01*
%TO.N,/LCD_D3*%
X170850000Y-88981372D02*
X170850000Y-87750000D01*
X172400000Y-90531372D02*
X170850000Y-88981372D01*
X172400000Y-91200000D02*
X172400000Y-90531372D01*
X156450000Y-83250000D02*
X155450000Y-82250000D01*
X156450000Y-83550000D02*
X156450000Y-83250000D01*
X155450000Y-82250000D02*
X153600000Y-82250000D01*
%TO.N,/LCD_D4*%
X155064216Y-82750000D02*
X153600000Y-82750000D01*
X169650000Y-89550000D02*
X169650000Y-87750000D01*
X170191469Y-90906468D02*
X170191469Y-90091469D01*
X155607108Y-83292892D02*
X155064216Y-82750000D01*
X170191469Y-90091469D02*
X169650000Y-89550000D01*
%TO.N,/LCD_CS*%
X165893706Y-82900000D02*
X166800000Y-82900000D01*
X154950000Y-78250000D02*
X153600000Y-78250000D01*
X164850000Y-81856294D02*
X165893706Y-82900000D01*
X164050000Y-78320510D02*
X164850000Y-79120510D01*
X155750000Y-77450000D02*
X154950000Y-78250000D01*
X164050000Y-76400000D02*
X164050000Y-78320510D01*
X164850000Y-79120510D02*
X164850000Y-81856294D01*
%TO.N,/LCD_D0*%
X155800000Y-80350000D02*
X155400000Y-80750000D01*
X172450000Y-88315686D02*
X172450000Y-87750000D01*
X174648529Y-88750000D02*
X172884314Y-88750000D01*
X172884314Y-88750000D02*
X172450000Y-88315686D01*
X155400000Y-80750000D02*
X153600000Y-80750000D01*
X175299264Y-88099264D02*
X174648529Y-88750000D01*
%TO.N,/LCD_D6*%
X155800000Y-86300000D02*
X155800000Y-84900000D01*
X155800000Y-84900000D02*
X154650000Y-83750000D01*
X154650000Y-83750000D02*
X153600000Y-83750000D01*
%TO.N,/TP_RESET*%
X155450000Y-88050000D02*
X155250000Y-88250000D01*
X153600000Y-88250000D02*
X153650000Y-88300000D01*
X155250000Y-88250000D02*
X153600000Y-88250000D01*
%TO.N,/LCD_DC*%
X166059392Y-82500000D02*
X166800000Y-82500000D01*
X165300000Y-81740608D02*
X166059392Y-82500000D01*
X153600000Y-78750000D02*
X155150000Y-78750000D01*
X164650000Y-77000000D02*
X164650000Y-78354824D01*
X164650000Y-78354824D02*
X165300000Y-79004824D01*
X155150000Y-78750000D02*
X155800000Y-78100000D01*
X165300000Y-79004824D02*
X165300000Y-81740608D01*
X155800000Y-78100000D02*
X156250000Y-78100000D01*
%TO.N,/LCD_RD*%
X166390764Y-81700000D02*
X166800000Y-81700000D01*
X156450000Y-79550000D02*
X156250000Y-79750000D01*
X165825078Y-78115687D02*
X166150000Y-78440609D01*
X156250000Y-79750000D02*
X153600000Y-79750000D01*
X166150000Y-81459236D02*
X166390764Y-81700000D01*
X166150000Y-78440609D02*
X166150000Y-81459236D01*
%TO.N,/LCD_D1*%
X175097058Y-89150000D02*
X172718628Y-89150000D01*
X172050000Y-88481372D02*
X172050000Y-87750000D01*
X156150000Y-81250000D02*
X153600000Y-81250000D01*
X172718628Y-89150000D02*
X172050000Y-88481372D01*
X175323529Y-88923529D02*
X175097058Y-89150000D01*
X156400000Y-81000000D02*
X156150000Y-81250000D01*
%TO.N,/LCD_D7*%
X154500000Y-84250000D02*
X153600000Y-84250000D01*
X155200000Y-84950000D02*
X154500000Y-84250000D01*
X155200000Y-86661860D02*
X155200000Y-84950000D01*
X155988140Y-87450000D02*
X155200000Y-86661860D01*
%TO.N,/LCD_RES*%
X163450000Y-78286196D02*
X164450000Y-79286196D01*
X163450000Y-75800000D02*
X163450000Y-78286196D01*
X155650000Y-76700000D02*
X154600000Y-77750000D01*
X165728020Y-83300000D02*
X166800000Y-83300000D01*
X164450000Y-82021980D02*
X165728020Y-83300000D01*
X154600000Y-77750000D02*
X153600000Y-77750000D01*
X156200000Y-76700000D02*
X155650000Y-76700000D01*
X164450000Y-79286196D02*
X164450000Y-82021980D01*
%TO.N,/GPIO2*%
X164050000Y-82200000D02*
X166100000Y-84250000D01*
X166303640Y-84500000D02*
X166800000Y-84500000D01*
X163000000Y-75250000D02*
X162550000Y-75700000D01*
X163000000Y-75050000D02*
X163000000Y-75250000D01*
X164050000Y-79451882D02*
X164050000Y-82200000D01*
X166100000Y-84296360D02*
X166303640Y-84500000D01*
X162550000Y-77951882D02*
X164050000Y-79451882D01*
X166100000Y-84250000D02*
X166100000Y-84296360D01*
X162550000Y-75700000D02*
X162550000Y-77951882D01*
%TO.N,/GPIO1*%
X161750000Y-75700000D02*
X161750000Y-77717568D01*
X163650000Y-79617568D02*
X163650000Y-82400000D01*
X165700000Y-84450000D02*
X165700000Y-84462046D01*
X166137954Y-84900000D02*
X166800000Y-84900000D01*
X162150000Y-75300000D02*
X161750000Y-75700000D01*
X163650000Y-82400000D02*
X165700000Y-84450000D01*
X162150000Y-75050000D02*
X162150000Y-75300000D01*
X165700000Y-84462046D02*
X166137954Y-84900000D01*
X161750000Y-77717568D02*
X163650000Y-79617568D01*
%TD*%
D53*
X132573000Y-104000000D02*
G75*
G02*
X129573000Y-101000000I0J3000000D01*
G01*
X184000000Y-62000000D02*
X132573000Y-62000000D01*
X187000000Y-101000000D02*
G75*
G02*
X184000000Y-104000000I-3000000J0D01*
G01*
X132573000Y-104000000D02*
X184000000Y-104000000D01*
X184000000Y-76500000D02*
G75*
G02*
X185500000Y-75000000I1500000J0D01*
G01*
X184000000Y-62000000D02*
G75*
G02*
X187000000Y-65000000I0J-3000000D01*
G01*
X187000000Y-73500000D02*
X187000000Y-65000000D01*
X187000000Y-95500000D02*
X187000000Y-101000000D01*
X129573000Y-65000000D02*
X129573000Y-101000000D01*
X184000000Y-76500000D02*
X184000000Y-92500000D01*
X129573000Y-65000000D02*
G75*
G02*
X132573000Y-62000000I3000000J0D01*
G01*
X185500000Y-94000000D02*
G75*
G02*
X184000000Y-92500000I0J1500000D01*
G01*
X187000000Y-73500000D02*
G75*
G02*
X185500000Y-75000000I-1500000J0D01*
G01*
X185500000Y-94000000D02*
G75*
G02*
X187000000Y-95500000I0J-1500000D01*
G01*
M02*
