M48
; DRILL file {KiCad 8.0.6} date 2024-11-01T22:46:19-0600
; FORMAT={-:-/ absolute / inch / decimal}
; #@! TF.CreationDate,2024-11-01T22:46:19-06:00
; #@! TF.GenerationSoftware,Kicad,Pcbnew,8.0.6
; #@! TF.FileFunction,Plated,1,4,PTH
FMAT,2
INCH
; #@! TA.AperFunction,Plated,PTH,ViaDrill
T1C0.0118
; #@! TA.AperFunction,Plated,PTH,ComponentDrill
T2C0.0118
; #@! TA.AperFunction,Plated,PTH,ComponentDrill
T3C0.0197
; #@! TA.AperFunction,Plated,PTH,ViaDrill
T4C0.0236
; #@! TA.AperFunction,Plated,PTH,ComponentDrill
T5C0.0236
; #@! TA.AperFunction,Plated,PTH,ComponentDrill
T6C0.1181
%
G90
G05
T1
X5.2559Y-3.2382
X5.2657Y-3.5138
X5.2657Y-3.7598
X5.2756Y-3.3366
X5.2854Y-3.5925
X5.3051Y-2.8248
X5.3051Y-3.0807
X5.3346Y-2.9626
X5.374Y-3.1398
X5.374Y-3.189
X5.374Y-3.6693
X5.374Y-3.7303
X5.3744Y-3.4154
X5.3744Y-3.4843
X5.3839Y-3.2776
X5.4016Y-2.9724
X5.4862Y-3.2303
X5.6909Y-3.498
X5.6949Y-3.4587
X5.7992Y-3.7224
X5.9252Y-3.3465
X5.9272Y-3.002
X5.9272Y-3.2913
X5.9291Y-3.0413
X5.9705Y-2.9665
X5.9764Y-3.4665
X5.9803Y-3.5669
X5.9823Y-3.1594
X6.1063Y-2.5118
X6.1398Y-2.6791
X6.1614Y-3.4705
X6.1811Y-2.5984
X6.1811Y-3.1988
X6.1945Y-3.4549
X6.2008Y-3.1698
X6.2151Y-3.0135
X6.2177Y-3.3116
X6.2181Y-3.2795
X6.2181Y-3.3463
X6.2181Y-3.3778
X6.2181Y-3.4321
X6.2402Y-3.1339
X6.2497Y-3.0663
X6.2534Y-2.9843
X6.2539Y-3.1756
X6.2638Y-3.0945
X6.2854Y-3.1398
X6.3091Y-3.1161
X6.311Y-2.5118
X6.3386Y-2.6772
X6.3789Y-2.9222
X6.3957Y-2.8268
X6.4025Y-2.9606
X6.435Y-2.9843
X6.439Y-2.8268
X6.4587Y-3.0079
X6.4744Y-3.3504
X6.4823Y-3.0315
X6.4888Y-3.7362
X6.4902Y-3.378
X6.5039Y-3.0039
X6.5059Y-3.0531
X6.5285Y-3.0754
X6.5472Y-3.0039
X6.6299Y-3.5906
X6.6457Y-3.1024
X6.6535Y-3.0217
X6.6768Y-3.557
X6.6949Y-2.9902
X6.7005Y-3.579
X6.7264Y-2.9902
X6.7579Y-2.9902
X6.7579Y-3.7272
X6.7657Y-2.9094
X6.7874Y-3.5906
X6.8196Y-3.5761
X6.8425Y-3.8681
X6.8834Y-3.4228
X6.8839Y-2.9094
X6.8937Y-3.8681
X6.8937Y-4.0
X6.9015Y-3.4685
X6.9025Y-3.5009
X6.9055Y-3.2391
X6.9124Y-3.2707
X6.9144Y-3.3179
X6.9232Y-3.4213
X6.939Y-3.1358
X6.9429Y-4.0
X6.9685Y-3.685
X6.9843Y-3.1476
X7.1417Y-3.2559
X7.1417Y-3.3071
X7.1614Y-3.1614
X7.1614Y-3.4055
T2
X6.6339Y-3.25
X6.6339Y-3.3189
X6.6339Y-3.3878
X6.7028Y-3.25
X6.7028Y-3.3189
X6.7028Y-3.3878
X6.7717Y-3.25
X6.7717Y-3.3189
X6.7717Y-3.3878
T3
X5.1702Y-3.937
X5.1961Y-3.8744
X5.1961Y-3.9996
X5.2588Y-3.8484
X5.2588Y-4.0256
X5.3214Y-3.8744
X5.3214Y-3.9996
X5.3474Y-3.937
X7.1161Y-3.937
X7.1421Y-3.8744
X7.1421Y-3.9996
X7.2047Y-3.8484
X7.2047Y-4.0256
X7.2674Y-3.8744
X7.2674Y-3.9996
X7.2933Y-3.937
T4
X5.5217Y-2.8543
X5.6181Y-2.6201
X5.6496Y-3.0669
X5.6949Y-3.0669
X5.7165Y-2.8504
X5.9449Y-2.7894
X6.2382Y-3.6024
X6.252Y-2.937
X6.3268Y-3.5118
X6.3563Y-3.2343
X6.4114Y-3.2323
X6.4921Y-3.6004
X6.4963Y-3.502
X6.7106Y-2.8346
X6.8602Y-3.5827
X6.9114Y-3.5807
X6.9242Y-2.8297
T6
X5.2588Y-3.937
X7.2047Y-3.937
T5
G00X6.6449Y-2.56
M15
G01X6.6449Y-2.5915
M16
G05
G00X6.6449Y-2.7187
M15
G01X6.6449Y-2.762
M16
G05
G00X6.985Y-2.56
M15
G01X6.985Y-2.5915
M16
G05
G00X6.985Y-2.7187
M15
G01X6.985Y-2.762
M16
G05
M30
