%TF.GenerationSoftware,KiCad,Pcbnew,8.0.6*%
%TF.CreationDate,2024-11-01T22:46:24-06:00*%
%TF.ProjectId,bitaxe-ESP-OLED,62697461-7865-42d4-9553-502d4f4c4544,v0.4*%
%TF.SameCoordinates,Original*%
%TF.FileFunction,Soldermask,Top*%
%TF.FilePolarity,Negative*%
%FSLAX46Y46*%
G04 Gerber Fmt 4.6, Leading zero omitted, Abs format (unit mm)*
G04 Created by KiCad (PCBNEW 8.0.6) date 2024-11-01 22:46:24*
%MOMM*%
%LPD*%
G01*
G04 APERTURE LIST*
%ADD10C,1.000000*%
%ADD11C,0.990600*%
%ADD12C,0.787400*%
%ADD13C,0.800000*%
%ADD14C,6.000000*%
%ADD15C,0.650000*%
%ADD16O,1.000000X1.800000*%
%ADD17O,1.000000X2.100000*%
%TA.AperFunction,Profile*%
%ADD18C,0.100000*%
%TD*%
G04 APERTURE END LIST*
D10*
%TO.C,TP3*%
X160500000Y-73000000D03*
%TD*%
D11*
%TO.C,J3*%
X177625000Y-99920000D03*
X172545000Y-100936000D03*
X172545000Y-98904000D03*
D12*
X176355000Y-99285000D03*
X176355000Y-100555000D03*
X175085000Y-99285000D03*
X175085000Y-100555000D03*
X173815000Y-99285000D03*
X173815000Y-100555000D03*
%TD*%
D10*
%TO.C,TP7*%
X173250000Y-96850000D03*
%TD*%
D13*
%TO.C,H3*%
X131323000Y-100000000D03*
X131982010Y-98409010D03*
X131982010Y-101590990D03*
X133573000Y-97750000D03*
D14*
X133573000Y-100000000D03*
D13*
X133573000Y-102250000D03*
X135163990Y-98409010D03*
X135163990Y-101590990D03*
X135823000Y-100000000D03*
%TD*%
D10*
%TO.C,TP6*%
X175750000Y-96850000D03*
%TD*%
D13*
%TO.C,H4*%
X180750000Y-100000000D03*
X181409010Y-98409010D03*
X181409010Y-101590990D03*
X183000000Y-97750000D03*
D14*
X183000000Y-100000000D03*
D13*
X183000000Y-102250000D03*
X184590990Y-98409010D03*
X184590990Y-101590990D03*
X185250000Y-100000000D03*
%TD*%
D10*
%TO.C,TP4*%
X157000000Y-71000000D03*
%TD*%
D15*
%TO.C,J2*%
X170210000Y-69105000D03*
X175990000Y-69105000D03*
D16*
X168780000Y-65425000D03*
D17*
X168780000Y-69605000D03*
D16*
X177420000Y-65425000D03*
D17*
X177420000Y-69605000D03*
%TD*%
D18*
X132873000Y-103800000D02*
G75*
G02*
X130073000Y-101000000I0J2800000D01*
G01*
X176970101Y-62204899D02*
X139400000Y-62200000D01*
X186624568Y-100999053D02*
G75*
G02*
X183647004Y-103799936I-2818968J13653D01*
G01*
X130079899Y-71879899D02*
G75*
G02*
X132879899Y-69079899I2800001J-1D01*
G01*
X132873000Y-103800000D02*
X183647000Y-103800000D01*
X136600000Y-65000000D02*
G75*
G02*
X139400000Y-62200000I2800000J0D01*
G01*
X133820101Y-69120101D02*
X132879899Y-69079899D01*
X136600000Y-65000000D02*
X136620101Y-66320101D01*
X181675506Y-69070020D02*
G75*
G02*
X179779899Y-66420101I904394J2649920D01*
G01*
X181675506Y-69070020D02*
G75*
G02*
X183102045Y-70950000I-525506J-1879980D01*
G01*
X186620000Y-96500000D02*
X186620000Y-101000000D01*
X130079899Y-71879899D02*
X130073000Y-101000000D01*
X184400000Y-95000000D02*
X185120000Y-95000000D01*
X183102045Y-70950000D02*
X183100000Y-93500000D01*
X136620101Y-66320101D02*
G75*
G02*
X133820101Y-69120101I-2800001J1D01*
G01*
X176970101Y-62204899D02*
G75*
G02*
X179770101Y-65004899I-1J-2800001D01*
G01*
X184400000Y-95000000D02*
G75*
G02*
X183100000Y-93500000I100000J1400000D01*
G01*
X179770101Y-65004899D02*
X179779899Y-66420101D01*
X185120000Y-95000000D02*
G75*
G02*
X186620000Y-96500000I0J-1500000D01*
G01*
M02*
