%TF.GenerationSoftware,KiCad,Pcbnew,8.0.1*%
%TF.CreationDate,2024-07-24T10:43:19-04:00*%
%TF.ProjectId,bitaxe-ESP-OLED,62697461-7865-42d4-9553-502d4f4c4544,rev?*%
%TF.SameCoordinates,Original*%
%TF.FileFunction,Legend,Top*%
%TF.FilePolarity,Positive*%
%FSLAX46Y46*%
G04 Gerber Fmt 4.6, Leading zero omitted, Abs format (unit mm)*
G04 Created by KiCad (PCBNEW 8.0.1) date 2024-07-24 10:43:19*
%MOMM*%
%LPD*%
G01*
G04 APERTURE LIST*
%ADD10C,0.150000*%
%ADD11C,0.300000*%
%ADD12C,0.200000*%
%ADD13C,0.120000*%
%TA.AperFunction,Profile*%
%ADD14C,0.100000*%
%TD*%
G04 APERTURE END LIST*
D10*
X179200000Y-71850000D02*
X179200000Y-94850000D01*
X179200000Y-94855000D02*
X136200000Y-94855000D01*
X136200000Y-94855000D02*
X136200000Y-71855000D01*
X136200000Y-71855000D02*
X179200000Y-71855000D01*
D11*
X141509272Y-67876353D02*
X142075939Y-69576353D01*
X142075939Y-69576353D02*
X142642606Y-67876353D01*
X143533082Y-67876353D02*
X143694987Y-67876353D01*
X143694987Y-67876353D02*
X143856891Y-67957305D01*
X143856891Y-67957305D02*
X143937844Y-68038258D01*
X143937844Y-68038258D02*
X144018796Y-68200162D01*
X144018796Y-68200162D02*
X144099749Y-68523972D01*
X144099749Y-68523972D02*
X144099749Y-68928734D01*
X144099749Y-68928734D02*
X144018796Y-69252543D01*
X144018796Y-69252543D02*
X143937844Y-69414448D01*
X143937844Y-69414448D02*
X143856891Y-69495401D01*
X143856891Y-69495401D02*
X143694987Y-69576353D01*
X143694987Y-69576353D02*
X143533082Y-69576353D01*
X143533082Y-69576353D02*
X143371177Y-69495401D01*
X143371177Y-69495401D02*
X143290225Y-69414448D01*
X143290225Y-69414448D02*
X143209272Y-69252543D01*
X143209272Y-69252543D02*
X143128320Y-68928734D01*
X143128320Y-68928734D02*
X143128320Y-68523972D01*
X143128320Y-68523972D02*
X143209272Y-68200162D01*
X143209272Y-68200162D02*
X143290225Y-68038258D01*
X143290225Y-68038258D02*
X143371177Y-67957305D01*
X143371177Y-67957305D02*
X143533082Y-67876353D01*
X144828320Y-69414448D02*
X144909273Y-69495401D01*
X144909273Y-69495401D02*
X144828320Y-69576353D01*
X144828320Y-69576353D02*
X144747368Y-69495401D01*
X144747368Y-69495401D02*
X144828320Y-69414448D01*
X144828320Y-69414448D02*
X144828320Y-69576353D01*
X145475940Y-67876353D02*
X146528321Y-67876353D01*
X146528321Y-67876353D02*
X145961654Y-68523972D01*
X145961654Y-68523972D02*
X146204511Y-68523972D01*
X146204511Y-68523972D02*
X146366416Y-68604924D01*
X146366416Y-68604924D02*
X146447368Y-68685877D01*
X146447368Y-68685877D02*
X146528321Y-68847781D01*
X146528321Y-68847781D02*
X146528321Y-69252543D01*
X146528321Y-69252543D02*
X146447368Y-69414448D01*
X146447368Y-69414448D02*
X146366416Y-69495401D01*
X146366416Y-69495401D02*
X146204511Y-69576353D01*
X146204511Y-69576353D02*
X145718797Y-69576353D01*
X145718797Y-69576353D02*
X145556892Y-69495401D01*
X145556892Y-69495401D02*
X145475940Y-69414448D01*
D12*
X131441101Y-73867219D02*
X131107768Y-73391028D01*
X130869673Y-73867219D02*
X130869673Y-72867219D01*
X130869673Y-72867219D02*
X131250625Y-72867219D01*
X131250625Y-72867219D02*
X131345863Y-72914838D01*
X131345863Y-72914838D02*
X131393482Y-72962457D01*
X131393482Y-72962457D02*
X131441101Y-73057695D01*
X131441101Y-73057695D02*
X131441101Y-73200552D01*
X131441101Y-73200552D02*
X131393482Y-73295790D01*
X131393482Y-73295790D02*
X131345863Y-73343409D01*
X131345863Y-73343409D02*
X131250625Y-73391028D01*
X131250625Y-73391028D02*
X130869673Y-73391028D01*
X131869673Y-73343409D02*
X132203006Y-73343409D01*
X132345863Y-73867219D02*
X131869673Y-73867219D01*
X131869673Y-73867219D02*
X131869673Y-72867219D01*
X131869673Y-72867219D02*
X132345863Y-72867219D01*
X132726816Y-73819600D02*
X132869673Y-73867219D01*
X132869673Y-73867219D02*
X133107768Y-73867219D01*
X133107768Y-73867219D02*
X133203006Y-73819600D01*
X133203006Y-73819600D02*
X133250625Y-73771980D01*
X133250625Y-73771980D02*
X133298244Y-73676742D01*
X133298244Y-73676742D02*
X133298244Y-73581504D01*
X133298244Y-73581504D02*
X133250625Y-73486266D01*
X133250625Y-73486266D02*
X133203006Y-73438647D01*
X133203006Y-73438647D02*
X133107768Y-73391028D01*
X133107768Y-73391028D02*
X132917292Y-73343409D01*
X132917292Y-73343409D02*
X132822054Y-73295790D01*
X132822054Y-73295790D02*
X132774435Y-73248171D01*
X132774435Y-73248171D02*
X132726816Y-73152933D01*
X132726816Y-73152933D02*
X132726816Y-73057695D01*
X132726816Y-73057695D02*
X132774435Y-72962457D01*
X132774435Y-72962457D02*
X132822054Y-72914838D01*
X132822054Y-72914838D02*
X132917292Y-72867219D01*
X132917292Y-72867219D02*
X133155387Y-72867219D01*
X133155387Y-72867219D02*
X133298244Y-72914838D01*
X130857768Y-92673338D02*
X130857768Y-93442385D01*
X130857768Y-93442385D02*
X130903006Y-93532861D01*
X130903006Y-93532861D02*
X130948244Y-93578100D01*
X130948244Y-93578100D02*
X131038720Y-93623338D01*
X131038720Y-93623338D02*
X131219673Y-93623338D01*
X131219673Y-93623338D02*
X131310149Y-93578100D01*
X131310149Y-93578100D02*
X131355387Y-93532861D01*
X131355387Y-93532861D02*
X131400625Y-93442385D01*
X131400625Y-93442385D02*
X131400625Y-92673338D01*
X131807768Y-93578100D02*
X131943482Y-93623338D01*
X131943482Y-93623338D02*
X132169673Y-93623338D01*
X132169673Y-93623338D02*
X132260149Y-93578100D01*
X132260149Y-93578100D02*
X132305387Y-93532861D01*
X132305387Y-93532861D02*
X132350625Y-93442385D01*
X132350625Y-93442385D02*
X132350625Y-93351909D01*
X132350625Y-93351909D02*
X132305387Y-93261433D01*
X132305387Y-93261433D02*
X132260149Y-93216195D01*
X132260149Y-93216195D02*
X132169673Y-93170957D01*
X132169673Y-93170957D02*
X131988720Y-93125719D01*
X131988720Y-93125719D02*
X131898244Y-93080480D01*
X131898244Y-93080480D02*
X131853006Y-93035242D01*
X131853006Y-93035242D02*
X131807768Y-92944766D01*
X131807768Y-92944766D02*
X131807768Y-92854290D01*
X131807768Y-92854290D02*
X131853006Y-92763814D01*
X131853006Y-92763814D02*
X131898244Y-92718576D01*
X131898244Y-92718576D02*
X131988720Y-92673338D01*
X131988720Y-92673338D02*
X132214911Y-92673338D01*
X132214911Y-92673338D02*
X132350625Y-92718576D01*
X133300625Y-93623338D02*
X132983958Y-93170957D01*
X132757768Y-93623338D02*
X132757768Y-92673338D01*
X132757768Y-92673338D02*
X133119673Y-92673338D01*
X133119673Y-92673338D02*
X133210149Y-92718576D01*
X133210149Y-92718576D02*
X133255387Y-92763814D01*
X133255387Y-92763814D02*
X133300625Y-92854290D01*
X133300625Y-92854290D02*
X133300625Y-92990004D01*
X133300625Y-92990004D02*
X133255387Y-93080480D01*
X133255387Y-93080480D02*
X133210149Y-93125719D01*
X133210149Y-93125719D02*
X133119673Y-93170957D01*
X133119673Y-93170957D02*
X132757768Y-93170957D01*
X133662530Y-92763814D02*
X133707768Y-92718576D01*
X133707768Y-92718576D02*
X133798244Y-92673338D01*
X133798244Y-92673338D02*
X134024435Y-92673338D01*
X134024435Y-92673338D02*
X134114911Y-92718576D01*
X134114911Y-92718576D02*
X134160149Y-92763814D01*
X134160149Y-92763814D02*
X134205387Y-92854290D01*
X134205387Y-92854290D02*
X134205387Y-92944766D01*
X134205387Y-92944766D02*
X134160149Y-93080480D01*
X134160149Y-93080480D02*
X133617292Y-93623338D01*
X133617292Y-93623338D02*
X134205387Y-93623338D01*
X130857768Y-86173338D02*
X130857768Y-86942385D01*
X130857768Y-86942385D02*
X130903006Y-87032861D01*
X130903006Y-87032861D02*
X130948244Y-87078100D01*
X130948244Y-87078100D02*
X131038720Y-87123338D01*
X131038720Y-87123338D02*
X131219673Y-87123338D01*
X131219673Y-87123338D02*
X131310149Y-87078100D01*
X131310149Y-87078100D02*
X131355387Y-87032861D01*
X131355387Y-87032861D02*
X131400625Y-86942385D01*
X131400625Y-86942385D02*
X131400625Y-86173338D01*
X131807768Y-87078100D02*
X131943482Y-87123338D01*
X131943482Y-87123338D02*
X132169673Y-87123338D01*
X132169673Y-87123338D02*
X132260149Y-87078100D01*
X132260149Y-87078100D02*
X132305387Y-87032861D01*
X132305387Y-87032861D02*
X132350625Y-86942385D01*
X132350625Y-86942385D02*
X132350625Y-86851909D01*
X132350625Y-86851909D02*
X132305387Y-86761433D01*
X132305387Y-86761433D02*
X132260149Y-86716195D01*
X132260149Y-86716195D02*
X132169673Y-86670957D01*
X132169673Y-86670957D02*
X131988720Y-86625719D01*
X131988720Y-86625719D02*
X131898244Y-86580480D01*
X131898244Y-86580480D02*
X131853006Y-86535242D01*
X131853006Y-86535242D02*
X131807768Y-86444766D01*
X131807768Y-86444766D02*
X131807768Y-86354290D01*
X131807768Y-86354290D02*
X131853006Y-86263814D01*
X131853006Y-86263814D02*
X131898244Y-86218576D01*
X131898244Y-86218576D02*
X131988720Y-86173338D01*
X131988720Y-86173338D02*
X132214911Y-86173338D01*
X132214911Y-86173338D02*
X132350625Y-86218576D01*
X133300625Y-87123338D02*
X132983958Y-86670957D01*
X132757768Y-87123338D02*
X132757768Y-86173338D01*
X132757768Y-86173338D02*
X133119673Y-86173338D01*
X133119673Y-86173338D02*
X133210149Y-86218576D01*
X133210149Y-86218576D02*
X133255387Y-86263814D01*
X133255387Y-86263814D02*
X133300625Y-86354290D01*
X133300625Y-86354290D02*
X133300625Y-86490004D01*
X133300625Y-86490004D02*
X133255387Y-86580480D01*
X133255387Y-86580480D02*
X133210149Y-86625719D01*
X133210149Y-86625719D02*
X133119673Y-86670957D01*
X133119673Y-86670957D02*
X132757768Y-86670957D01*
X134205387Y-87123338D02*
X133662530Y-87123338D01*
X133933958Y-87123338D02*
X133933958Y-86173338D01*
X133933958Y-86173338D02*
X133843482Y-86309052D01*
X133843482Y-86309052D02*
X133753006Y-86399528D01*
X133753006Y-86399528D02*
X133662530Y-86444766D01*
D11*
X141095238Y-63498972D02*
X141338095Y-63579924D01*
X141338095Y-63579924D02*
X141419048Y-63660876D01*
X141419048Y-63660876D02*
X141500000Y-63822781D01*
X141500000Y-63822781D02*
X141500000Y-64065638D01*
X141500000Y-64065638D02*
X141419048Y-64227543D01*
X141419048Y-64227543D02*
X141338095Y-64308496D01*
X141338095Y-64308496D02*
X141176190Y-64389448D01*
X141176190Y-64389448D02*
X140528571Y-64389448D01*
X140528571Y-64389448D02*
X140528571Y-62689448D01*
X140528571Y-62689448D02*
X141095238Y-62689448D01*
X141095238Y-62689448D02*
X141257143Y-62770400D01*
X141257143Y-62770400D02*
X141338095Y-62851353D01*
X141338095Y-62851353D02*
X141419048Y-63013257D01*
X141419048Y-63013257D02*
X141419048Y-63175162D01*
X141419048Y-63175162D02*
X141338095Y-63337067D01*
X141338095Y-63337067D02*
X141257143Y-63418019D01*
X141257143Y-63418019D02*
X141095238Y-63498972D01*
X141095238Y-63498972D02*
X140528571Y-63498972D01*
X142228571Y-64389448D02*
X142228571Y-63256115D01*
X142228571Y-62689448D02*
X142147619Y-62770400D01*
X142147619Y-62770400D02*
X142228571Y-62851353D01*
X142228571Y-62851353D02*
X142309524Y-62770400D01*
X142309524Y-62770400D02*
X142228571Y-62689448D01*
X142228571Y-62689448D02*
X142228571Y-62851353D01*
X142795238Y-63256115D02*
X143442857Y-63256115D01*
X143038095Y-62689448D02*
X143038095Y-64146591D01*
X143038095Y-64146591D02*
X143119048Y-64308496D01*
X143119048Y-64308496D02*
X143280953Y-64389448D01*
X143280953Y-64389448D02*
X143442857Y-64389448D01*
X144738096Y-64389448D02*
X144738096Y-63498972D01*
X144738096Y-63498972D02*
X144657143Y-63337067D01*
X144657143Y-63337067D02*
X144495239Y-63256115D01*
X144495239Y-63256115D02*
X144171429Y-63256115D01*
X144171429Y-63256115D02*
X144009524Y-63337067D01*
X144738096Y-64308496D02*
X144576191Y-64389448D01*
X144576191Y-64389448D02*
X144171429Y-64389448D01*
X144171429Y-64389448D02*
X144009524Y-64308496D01*
X144009524Y-64308496D02*
X143928572Y-64146591D01*
X143928572Y-64146591D02*
X143928572Y-63984686D01*
X143928572Y-63984686D02*
X144009524Y-63822781D01*
X144009524Y-63822781D02*
X144171429Y-63741829D01*
X144171429Y-63741829D02*
X144576191Y-63741829D01*
X144576191Y-63741829D02*
X144738096Y-63660876D01*
X145385715Y-64389448D02*
X146276191Y-63256115D01*
X145385715Y-63256115D02*
X146276191Y-64389448D01*
X147571428Y-64308496D02*
X147409524Y-64389448D01*
X147409524Y-64389448D02*
X147085714Y-64389448D01*
X147085714Y-64389448D02*
X146923809Y-64308496D01*
X146923809Y-64308496D02*
X146842857Y-64146591D01*
X146842857Y-64146591D02*
X146842857Y-63498972D01*
X146842857Y-63498972D02*
X146923809Y-63337067D01*
X146923809Y-63337067D02*
X147085714Y-63256115D01*
X147085714Y-63256115D02*
X147409524Y-63256115D01*
X147409524Y-63256115D02*
X147571428Y-63337067D01*
X147571428Y-63337067D02*
X147652381Y-63498972D01*
X147652381Y-63498972D02*
X147652381Y-63660876D01*
X147652381Y-63660876D02*
X146842857Y-63822781D01*
X137776190Y-66235877D02*
X138342857Y-66235877D01*
X138585714Y-67126353D02*
X137776190Y-67126353D01*
X137776190Y-67126353D02*
X137776190Y-65426353D01*
X137776190Y-65426353D02*
X138585714Y-65426353D01*
X139233333Y-67045401D02*
X139476190Y-67126353D01*
X139476190Y-67126353D02*
X139880952Y-67126353D01*
X139880952Y-67126353D02*
X140042857Y-67045401D01*
X140042857Y-67045401D02*
X140123809Y-66964448D01*
X140123809Y-66964448D02*
X140204762Y-66802543D01*
X140204762Y-66802543D02*
X140204762Y-66640639D01*
X140204762Y-66640639D02*
X140123809Y-66478734D01*
X140123809Y-66478734D02*
X140042857Y-66397781D01*
X140042857Y-66397781D02*
X139880952Y-66316829D01*
X139880952Y-66316829D02*
X139557143Y-66235877D01*
X139557143Y-66235877D02*
X139395238Y-66154924D01*
X139395238Y-66154924D02*
X139314285Y-66073972D01*
X139314285Y-66073972D02*
X139233333Y-65912067D01*
X139233333Y-65912067D02*
X139233333Y-65750162D01*
X139233333Y-65750162D02*
X139314285Y-65588258D01*
X139314285Y-65588258D02*
X139395238Y-65507305D01*
X139395238Y-65507305D02*
X139557143Y-65426353D01*
X139557143Y-65426353D02*
X139961904Y-65426353D01*
X139961904Y-65426353D02*
X140204762Y-65507305D01*
X140933333Y-67126353D02*
X140933333Y-65426353D01*
X140933333Y-65426353D02*
X141580952Y-65426353D01*
X141580952Y-65426353D02*
X141742857Y-65507305D01*
X141742857Y-65507305D02*
X141823810Y-65588258D01*
X141823810Y-65588258D02*
X141904762Y-65750162D01*
X141904762Y-65750162D02*
X141904762Y-65993020D01*
X141904762Y-65993020D02*
X141823810Y-66154924D01*
X141823810Y-66154924D02*
X141742857Y-66235877D01*
X141742857Y-66235877D02*
X141580952Y-66316829D01*
X141580952Y-66316829D02*
X140933333Y-66316829D01*
X142633333Y-66478734D02*
X143928572Y-66478734D01*
X145061905Y-65426353D02*
X145385714Y-65426353D01*
X145385714Y-65426353D02*
X145547619Y-65507305D01*
X145547619Y-65507305D02*
X145709524Y-65669210D01*
X145709524Y-65669210D02*
X145790476Y-65993020D01*
X145790476Y-65993020D02*
X145790476Y-66559686D01*
X145790476Y-66559686D02*
X145709524Y-66883496D01*
X145709524Y-66883496D02*
X145547619Y-67045401D01*
X145547619Y-67045401D02*
X145385714Y-67126353D01*
X145385714Y-67126353D02*
X145061905Y-67126353D01*
X145061905Y-67126353D02*
X144900000Y-67045401D01*
X144900000Y-67045401D02*
X144738095Y-66883496D01*
X144738095Y-66883496D02*
X144657143Y-66559686D01*
X144657143Y-66559686D02*
X144657143Y-65993020D01*
X144657143Y-65993020D02*
X144738095Y-65669210D01*
X144738095Y-65669210D02*
X144900000Y-65507305D01*
X144900000Y-65507305D02*
X145061905Y-65426353D01*
X147328571Y-67126353D02*
X146519047Y-67126353D01*
X146519047Y-67126353D02*
X146519047Y-65426353D01*
X147895237Y-66235877D02*
X148461904Y-66235877D01*
X148704761Y-67126353D02*
X147895237Y-67126353D01*
X147895237Y-67126353D02*
X147895237Y-65426353D01*
X147895237Y-65426353D02*
X148704761Y-65426353D01*
X149433332Y-67126353D02*
X149433332Y-65426353D01*
X149433332Y-65426353D02*
X149838094Y-65426353D01*
X149838094Y-65426353D02*
X150080951Y-65507305D01*
X150080951Y-65507305D02*
X150242856Y-65669210D01*
X150242856Y-65669210D02*
X150323809Y-65831115D01*
X150323809Y-65831115D02*
X150404761Y-66154924D01*
X150404761Y-66154924D02*
X150404761Y-66397781D01*
X150404761Y-66397781D02*
X150323809Y-66721591D01*
X150323809Y-66721591D02*
X150242856Y-66883496D01*
X150242856Y-66883496D02*
X150080951Y-67045401D01*
X150080951Y-67045401D02*
X149838094Y-67126353D01*
X149838094Y-67126353D02*
X149433332Y-67126353D01*
D12*
X131174435Y-79875719D02*
X131310149Y-79920957D01*
X131310149Y-79920957D02*
X131355387Y-79966195D01*
X131355387Y-79966195D02*
X131400625Y-80056671D01*
X131400625Y-80056671D02*
X131400625Y-80192385D01*
X131400625Y-80192385D02*
X131355387Y-80282861D01*
X131355387Y-80282861D02*
X131310149Y-80328100D01*
X131310149Y-80328100D02*
X131219673Y-80373338D01*
X131219673Y-80373338D02*
X130857768Y-80373338D01*
X130857768Y-80373338D02*
X130857768Y-79423338D01*
X130857768Y-79423338D02*
X131174435Y-79423338D01*
X131174435Y-79423338D02*
X131264911Y-79468576D01*
X131264911Y-79468576D02*
X131310149Y-79513814D01*
X131310149Y-79513814D02*
X131355387Y-79604290D01*
X131355387Y-79604290D02*
X131355387Y-79694766D01*
X131355387Y-79694766D02*
X131310149Y-79785242D01*
X131310149Y-79785242D02*
X131264911Y-79830480D01*
X131264911Y-79830480D02*
X131174435Y-79875719D01*
X131174435Y-79875719D02*
X130857768Y-79875719D01*
X131988720Y-79423338D02*
X132169673Y-79423338D01*
X132169673Y-79423338D02*
X132260149Y-79468576D01*
X132260149Y-79468576D02*
X132350625Y-79559052D01*
X132350625Y-79559052D02*
X132395863Y-79740004D01*
X132395863Y-79740004D02*
X132395863Y-80056671D01*
X132395863Y-80056671D02*
X132350625Y-80237623D01*
X132350625Y-80237623D02*
X132260149Y-80328100D01*
X132260149Y-80328100D02*
X132169673Y-80373338D01*
X132169673Y-80373338D02*
X131988720Y-80373338D01*
X131988720Y-80373338D02*
X131898244Y-80328100D01*
X131898244Y-80328100D02*
X131807768Y-80237623D01*
X131807768Y-80237623D02*
X131762530Y-80056671D01*
X131762530Y-80056671D02*
X131762530Y-79740004D01*
X131762530Y-79740004D02*
X131807768Y-79559052D01*
X131807768Y-79559052D02*
X131898244Y-79468576D01*
X131898244Y-79468576D02*
X131988720Y-79423338D01*
X132983958Y-79423338D02*
X133164911Y-79423338D01*
X133164911Y-79423338D02*
X133255387Y-79468576D01*
X133255387Y-79468576D02*
X133345863Y-79559052D01*
X133345863Y-79559052D02*
X133391101Y-79740004D01*
X133391101Y-79740004D02*
X133391101Y-80056671D01*
X133391101Y-80056671D02*
X133345863Y-80237623D01*
X133345863Y-80237623D02*
X133255387Y-80328100D01*
X133255387Y-80328100D02*
X133164911Y-80373338D01*
X133164911Y-80373338D02*
X132983958Y-80373338D01*
X132983958Y-80373338D02*
X132893482Y-80328100D01*
X132893482Y-80328100D02*
X132803006Y-80237623D01*
X132803006Y-80237623D02*
X132757768Y-80056671D01*
X132757768Y-80056671D02*
X132757768Y-79740004D01*
X132757768Y-79740004D02*
X132803006Y-79559052D01*
X132803006Y-79559052D02*
X132893482Y-79468576D01*
X132893482Y-79468576D02*
X132983958Y-79423338D01*
X133662530Y-79423338D02*
X134205387Y-79423338D01*
X133933958Y-80373338D02*
X133933958Y-79423338D01*
D10*
X161538095Y-72454819D02*
X162109523Y-72454819D01*
X161823809Y-73454819D02*
X161823809Y-72454819D01*
X162442857Y-73454819D02*
X162442857Y-72454819D01*
X162442857Y-72454819D02*
X162823809Y-72454819D01*
X162823809Y-72454819D02*
X162919047Y-72502438D01*
X162919047Y-72502438D02*
X162966666Y-72550057D01*
X162966666Y-72550057D02*
X163014285Y-72645295D01*
X163014285Y-72645295D02*
X163014285Y-72788152D01*
X163014285Y-72788152D02*
X162966666Y-72883390D01*
X162966666Y-72883390D02*
X162919047Y-72931009D01*
X162919047Y-72931009D02*
X162823809Y-72978628D01*
X162823809Y-72978628D02*
X162442857Y-72978628D01*
X163347619Y-72454819D02*
X163966666Y-72454819D01*
X163966666Y-72454819D02*
X163633333Y-72835771D01*
X163633333Y-72835771D02*
X163776190Y-72835771D01*
X163776190Y-72835771D02*
X163871428Y-72883390D01*
X163871428Y-72883390D02*
X163919047Y-72931009D01*
X163919047Y-72931009D02*
X163966666Y-73026247D01*
X163966666Y-73026247D02*
X163966666Y-73264342D01*
X163966666Y-73264342D02*
X163919047Y-73359580D01*
X163919047Y-73359580D02*
X163871428Y-73407200D01*
X163871428Y-73407200D02*
X163776190Y-73454819D01*
X163776190Y-73454819D02*
X163490476Y-73454819D01*
X163490476Y-73454819D02*
X163395238Y-73407200D01*
X163395238Y-73407200D02*
X163347619Y-73359580D01*
X176866666Y-102154819D02*
X176866666Y-102869104D01*
X176866666Y-102869104D02*
X176819047Y-103011961D01*
X176819047Y-103011961D02*
X176723809Y-103107200D01*
X176723809Y-103107200D02*
X176580952Y-103154819D01*
X176580952Y-103154819D02*
X176485714Y-103154819D01*
X177247619Y-102154819D02*
X177866666Y-102154819D01*
X177866666Y-102154819D02*
X177533333Y-102535771D01*
X177533333Y-102535771D02*
X177676190Y-102535771D01*
X177676190Y-102535771D02*
X177771428Y-102583390D01*
X177771428Y-102583390D02*
X177819047Y-102631009D01*
X177819047Y-102631009D02*
X177866666Y-102726247D01*
X177866666Y-102726247D02*
X177866666Y-102964342D01*
X177866666Y-102964342D02*
X177819047Y-103059580D01*
X177819047Y-103059580D02*
X177771428Y-103107200D01*
X177771428Y-103107200D02*
X177676190Y-103154819D01*
X177676190Y-103154819D02*
X177390476Y-103154819D01*
X177390476Y-103154819D02*
X177295238Y-103107200D01*
X177295238Y-103107200D02*
X177247619Y-103059580D01*
X170238095Y-95954819D02*
X170809523Y-95954819D01*
X170523809Y-96954819D02*
X170523809Y-95954819D01*
X171142857Y-96954819D02*
X171142857Y-95954819D01*
X171142857Y-95954819D02*
X171523809Y-95954819D01*
X171523809Y-95954819D02*
X171619047Y-96002438D01*
X171619047Y-96002438D02*
X171666666Y-96050057D01*
X171666666Y-96050057D02*
X171714285Y-96145295D01*
X171714285Y-96145295D02*
X171714285Y-96288152D01*
X171714285Y-96288152D02*
X171666666Y-96383390D01*
X171666666Y-96383390D02*
X171619047Y-96431009D01*
X171619047Y-96431009D02*
X171523809Y-96478628D01*
X171523809Y-96478628D02*
X171142857Y-96478628D01*
X172047619Y-95954819D02*
X172714285Y-95954819D01*
X172714285Y-95954819D02*
X172285714Y-96954819D01*
X176888095Y-96404819D02*
X177459523Y-96404819D01*
X177173809Y-97404819D02*
X177173809Y-96404819D01*
X177792857Y-97404819D02*
X177792857Y-96404819D01*
X177792857Y-96404819D02*
X178173809Y-96404819D01*
X178173809Y-96404819D02*
X178269047Y-96452438D01*
X178269047Y-96452438D02*
X178316666Y-96500057D01*
X178316666Y-96500057D02*
X178364285Y-96595295D01*
X178364285Y-96595295D02*
X178364285Y-96738152D01*
X178364285Y-96738152D02*
X178316666Y-96833390D01*
X178316666Y-96833390D02*
X178269047Y-96881009D01*
X178269047Y-96881009D02*
X178173809Y-96928628D01*
X178173809Y-96928628D02*
X177792857Y-96928628D01*
X179221428Y-96404819D02*
X179030952Y-96404819D01*
X179030952Y-96404819D02*
X178935714Y-96452438D01*
X178935714Y-96452438D02*
X178888095Y-96500057D01*
X178888095Y-96500057D02*
X178792857Y-96642914D01*
X178792857Y-96642914D02*
X178745238Y-96833390D01*
X178745238Y-96833390D02*
X178745238Y-97214342D01*
X178745238Y-97214342D02*
X178792857Y-97309580D01*
X178792857Y-97309580D02*
X178840476Y-97357200D01*
X178840476Y-97357200D02*
X178935714Y-97404819D01*
X178935714Y-97404819D02*
X179126190Y-97404819D01*
X179126190Y-97404819D02*
X179221428Y-97357200D01*
X179221428Y-97357200D02*
X179269047Y-97309580D01*
X179269047Y-97309580D02*
X179316666Y-97214342D01*
X179316666Y-97214342D02*
X179316666Y-96976247D01*
X179316666Y-96976247D02*
X179269047Y-96881009D01*
X179269047Y-96881009D02*
X179221428Y-96833390D01*
X179221428Y-96833390D02*
X179126190Y-96785771D01*
X179126190Y-96785771D02*
X178935714Y-96785771D01*
X178935714Y-96785771D02*
X178840476Y-96833390D01*
X178840476Y-96833390D02*
X178792857Y-96881009D01*
X178792857Y-96881009D02*
X178745238Y-96976247D01*
X158138095Y-70254819D02*
X158709523Y-70254819D01*
X158423809Y-71254819D02*
X158423809Y-70254819D01*
X159042857Y-71254819D02*
X159042857Y-70254819D01*
X159042857Y-70254819D02*
X159423809Y-70254819D01*
X159423809Y-70254819D02*
X159519047Y-70302438D01*
X159519047Y-70302438D02*
X159566666Y-70350057D01*
X159566666Y-70350057D02*
X159614285Y-70445295D01*
X159614285Y-70445295D02*
X159614285Y-70588152D01*
X159614285Y-70588152D02*
X159566666Y-70683390D01*
X159566666Y-70683390D02*
X159519047Y-70731009D01*
X159519047Y-70731009D02*
X159423809Y-70778628D01*
X159423809Y-70778628D02*
X159042857Y-70778628D01*
X160471428Y-70588152D02*
X160471428Y-71254819D01*
X160233333Y-70207200D02*
X159995238Y-70921485D01*
X159995238Y-70921485D02*
X160614285Y-70921485D01*
D13*
%TO.C,TP3*%
X161200000Y-73000000D02*
G75*
G02*
X159800000Y-73000000I-700000J0D01*
G01*
X159800000Y-73000000D02*
G75*
G02*
X161200000Y-73000000I700000J0D01*
G01*
%TO.C,J3*%
X176355000Y-98650000D02*
X176990000Y-98650000D01*
X176990000Y-98650000D02*
X176990000Y-99285000D01*
%TO.C,TP7*%
X173950000Y-96850000D02*
G75*
G02*
X172550000Y-96850000I-700000J0D01*
G01*
X172550000Y-96850000D02*
G75*
G02*
X173950000Y-96850000I700000J0D01*
G01*
%TO.C,TP6*%
X176450000Y-96850000D02*
G75*
G02*
X175050000Y-96850000I-700000J0D01*
G01*
X175050000Y-96850000D02*
G75*
G02*
X176450000Y-96850000I700000J0D01*
G01*
%TO.C,TP4*%
X157700000Y-71000000D02*
G75*
G02*
X156300000Y-71000000I-700000J0D01*
G01*
X156300000Y-71000000D02*
G75*
G02*
X157700000Y-71000000I700000J0D01*
G01*
%TD*%
D14*
X132873000Y-103800000D02*
G75*
G02*
X130073000Y-101000000I0J2800000D01*
G01*
X176970101Y-62204899D02*
X139400000Y-62200000D01*
X186624568Y-100999053D02*
G75*
G02*
X183647004Y-103799936I-2818968J13653D01*
G01*
X130079899Y-71879899D02*
G75*
G02*
X132879899Y-69079899I2800001J-1D01*
G01*
X132873000Y-103800000D02*
X183647000Y-103800000D01*
X136600000Y-65000000D02*
G75*
G02*
X139400000Y-62200000I2800000J0D01*
G01*
X133820101Y-69120101D02*
X132879899Y-69079899D01*
X136600000Y-65000000D02*
X136620101Y-66320101D01*
X181675506Y-69070019D02*
G75*
G02*
X179779900Y-66420101I904394J2649919D01*
G01*
X181675506Y-69070020D02*
G75*
G02*
X183102045Y-70950000I-525506J-1879980D01*
G01*
X186620000Y-96500000D02*
X186620000Y-101000000D01*
X130079899Y-71879899D02*
X130073000Y-101000000D01*
X184400000Y-95000000D02*
X185120000Y-95000000D01*
X183102045Y-70950000D02*
X183100000Y-93500000D01*
X136620101Y-66320101D02*
G75*
G02*
X133820101Y-69120101I-2800001J1D01*
G01*
X176970101Y-62204899D02*
G75*
G02*
X179770101Y-65004899I-1J-2800001D01*
G01*
X184400000Y-94999999D02*
G75*
G02*
X183100001Y-93500000I100000J1399999D01*
G01*
X179770101Y-65004899D02*
X179779899Y-66420101D01*
X185120000Y-95000000D02*
G75*
G02*
X186620000Y-96500000I0J-1500000D01*
G01*
M02*
