%TF.GenerationSoftware,KiCad,Pcbnew,8.0.6*%
%TF.CreationDate,2024-11-01T22:46:24-06:00*%
%TF.ProjectId,bitaxe-ESP-OLED,62697461-7865-42d4-9553-502d4f4c4544,v0.4*%
%TF.SameCoordinates,Original*%
%TF.FileFunction,Copper,L3,Inr*%
%TF.FilePolarity,Positive*%
%FSLAX46Y46*%
G04 Gerber Fmt 4.6, Leading zero omitted, Abs format (unit mm)*
G04 Created by KiCad (PCBNEW 8.0.6) date 2024-11-01 22:46:24*
%MOMM*%
%LPD*%
G01*
G04 APERTURE LIST*
%TA.AperFunction,ComponentPad*%
%ADD10C,0.800000*%
%TD*%
%TA.AperFunction,ComponentPad*%
%ADD11C,6.000000*%
%TD*%
%TA.AperFunction,ComponentPad*%
%ADD12O,1.000000X1.800000*%
%TD*%
%TA.AperFunction,ComponentPad*%
%ADD13O,1.000000X2.100000*%
%TD*%
%TA.AperFunction,HeatsinkPad*%
%ADD14C,0.500000*%
%TD*%
%TA.AperFunction,ViaPad*%
%ADD15C,0.600000*%
%TD*%
%TA.AperFunction,ViaPad*%
%ADD16C,1.000000*%
%TD*%
%TA.AperFunction,Profile*%
%ADD17C,0.100000*%
%TD*%
G04 APERTURE END LIST*
D10*
%TO.N,N/C*%
%TO.C,H3*%
X131323000Y-100000000D03*
X131982010Y-98409010D03*
X131982010Y-101590990D03*
X133573000Y-97750000D03*
D11*
X133573000Y-100000000D03*
D10*
X133573000Y-102250000D03*
X135163990Y-98409010D03*
X135163990Y-101590990D03*
X135823000Y-100000000D03*
%TD*%
%TO.N,N/C*%
%TO.C,H4*%
X180750000Y-100000000D03*
X181409010Y-98409010D03*
X181409010Y-101590990D03*
X183000000Y-97750000D03*
D11*
X183000000Y-100000000D03*
D10*
X183000000Y-102250000D03*
X184590990Y-98409010D03*
X184590990Y-101590990D03*
X185250000Y-100000000D03*
%TD*%
D12*
%TO.N,GND*%
%TO.C,J2*%
X168780000Y-65425000D03*
D13*
X168780000Y-69605000D03*
D12*
X177420000Y-65425000D03*
D13*
X177420000Y-69605000D03*
%TD*%
D14*
%TO.N,GND*%
%TO.C,U2*%
X168500000Y-82550000D03*
X168500000Y-84300000D03*
X168500000Y-86050000D03*
X170250000Y-82550000D03*
X170250000Y-84300000D03*
X170250000Y-86050000D03*
X172000000Y-82550000D03*
X172000000Y-84300000D03*
X172000000Y-86050000D03*
%TD*%
D15*
%TO.N,GND*%
X135500000Y-75250000D03*
X150600000Y-77250000D03*
X133750000Y-95500000D03*
X164815000Y-94900000D03*
D16*
X145200000Y-72400000D03*
D15*
X169000000Y-76750000D03*
X134000000Y-84750000D03*
X151800000Y-88050000D03*
X171650000Y-94670000D03*
X136510000Y-86750000D03*
D16*
X140250000Y-72500000D03*
D15*
X133750000Y-89250000D03*
X134250000Y-91250000D03*
D16*
X142700000Y-66550000D03*
D15*
X134750000Y-71750000D03*
X174850000Y-73900000D03*
X171850000Y-73900000D03*
X175100000Y-101600000D03*
X161000000Y-68000000D03*
X151950000Y-80250000D03*
X181900000Y-86500000D03*
X144650000Y-87850000D03*
X136500000Y-93200000D03*
D16*
X158800000Y-74600000D03*
D15*
X176250000Y-79650000D03*
X168400000Y-91200000D03*
X151650000Y-75350000D03*
D16*
X175550000Y-90950000D03*
X160700000Y-89200000D03*
X158450000Y-91500000D03*
D15*
X136500000Y-79750000D03*
X133500000Y-82250000D03*
X150550000Y-83600000D03*
X134750000Y-78250000D03*
D16*
X161450000Y-82150000D03*
D15*
X151900000Y-90600000D03*
D16*
%TO.N,/VBUS*%
X175875000Y-71875000D03*
X170450000Y-72000000D03*
X151000000Y-70850000D03*
D15*
%TO.N,/5V_BAP*%
X155100000Y-63800000D03*
X160300000Y-63800000D03*
%TO.N,/RESET*%
X164850000Y-85800000D03*
X139350000Y-82050000D03*
%TO.N,/3V3*%
X136500000Y-81000000D03*
X137200000Y-75500000D03*
D16*
X162850000Y-82100000D03*
X174250000Y-91000000D03*
X165005971Y-88950000D03*
D15*
X150500000Y-85000000D03*
D16*
X144650000Y-77900000D03*
D15*
X150550000Y-76250000D03*
X136510000Y-88500000D03*
X176350000Y-101600000D03*
X136500000Y-94750000D03*
D16*
X143500000Y-77900000D03*
X164900000Y-91450000D03*
D15*
X147300000Y-94550000D03*
X168800000Y-78800000D03*
%TO.N,/GPIO0*%
X136750000Y-83250000D03*
X164450000Y-85100000D03*
%TO.N,/I2C_SCL*%
X158849997Y-80660050D03*
X171650000Y-75950000D03*
%TO.N,/I2C_SCK*%
X159650000Y-79750000D03*
X170850000Y-75950000D03*
%TO.N,/TP_INT*%
X160250000Y-79150000D03*
X170049997Y-75950000D03*
%TO.N,/LCD_BLK*%
X177000000Y-93600000D03*
X144550000Y-88850000D03*
%TO.N,/SPI_CS*%
X175574265Y-83075735D03*
X181900000Y-80300000D03*
%TO.N,/SPI_Q*%
X181400002Y-82700000D03*
X175625437Y-84275735D03*
%TO.N,/SPI_WP*%
X175400000Y-82274265D03*
X181400002Y-84000000D03*
%TO.N,/LCD_D5*%
X169591469Y-90346804D03*
X157939272Y-85796801D03*
%TO.N,/LCD_WR*%
X165250000Y-77550000D03*
X159100000Y-78600000D03*
%TO.N,/LCD_D2*%
X157939272Y-83300000D03*
X173217157Y-90832843D03*
%TO.N,/LCD_D3*%
X157930576Y-84114497D03*
X172400000Y-91200000D03*
%TO.N,/LCD_D4*%
X170191469Y-90906468D03*
X157939272Y-84996798D03*
%TO.N,/LCD_CS*%
X164050000Y-76400000D03*
X157862434Y-76541968D03*
%TO.N,/LCD_D0*%
X157500000Y-80511957D03*
X175299264Y-88099264D03*
%TO.N,/LCD_D6*%
X174838815Y-86937935D03*
X157939272Y-87174265D03*
%TO.N,/TP_RESET*%
X156500000Y-88150000D03*
X177400000Y-79950000D03*
%TO.N,/LCD_DC*%
X158742228Y-77884456D03*
X164650000Y-77000000D03*
%TO.N,/LCD_RD*%
X158500000Y-79600000D03*
X165825078Y-78115687D03*
%TO.N,/LCD_D1*%
X175323529Y-88923529D03*
X157000000Y-81250000D03*
%TO.N,/LCD_D7*%
X157339272Y-87754259D03*
X175850000Y-86900000D03*
%TO.N,/LCD_RES*%
X163450000Y-75800000D03*
X158835713Y-75800000D03*
%TO.N,/BAP_RX*%
X162450000Y-71800000D03*
X166300000Y-76300000D03*
%TO.N,/BAP_TX*%
X165200000Y-76300000D03*
X163550000Y-71800000D03*
%TO.N,/GPIO2*%
X162624265Y-75200000D03*
X155950000Y-68050000D03*
%TO.N,/GPIO1*%
X157000000Y-66000000D03*
X162024265Y-74224265D03*
%TO.N,/P_RX*%
X173800000Y-98250000D03*
%TO.N,/P_TX*%
X175100000Y-98250000D03*
%TD*%
%TA.AperFunction,Conductor*%
%TO.N,GND*%
G36*
X176895390Y-62705388D02*
G01*
X176895524Y-62705399D01*
X176904209Y-62705399D01*
X176966356Y-62705399D01*
X176973843Y-62705625D01*
X177239791Y-62721712D01*
X177254652Y-62723516D01*
X177513039Y-62770867D01*
X177527564Y-62774448D01*
X177778352Y-62852597D01*
X177792343Y-62857902D01*
X178031899Y-62965717D01*
X178045145Y-62972670D01*
X178269953Y-63108571D01*
X178282264Y-63117069D01*
X178482796Y-63274176D01*
X178489049Y-63279075D01*
X178500257Y-63289005D01*
X178685994Y-63474742D01*
X178695924Y-63485950D01*
X178857926Y-63692729D01*
X178866430Y-63705049D01*
X178999364Y-63924949D01*
X179002326Y-63929848D01*
X179009285Y-63943107D01*
X179117095Y-64182651D01*
X179122404Y-64196652D01*
X179200549Y-64447428D01*
X179204133Y-64461967D01*
X179251482Y-64720345D01*
X179253287Y-64735209D01*
X179269375Y-65001173D01*
X179269601Y-65008660D01*
X179269601Y-65074482D01*
X179270123Y-65082049D01*
X179279397Y-66421653D01*
X179279400Y-66422480D01*
X179279442Y-66591039D01*
X179299626Y-66785369D01*
X179314761Y-66931094D01*
X179314761Y-66931096D01*
X179385015Y-67265654D01*
X179385020Y-67265672D01*
X179489464Y-67591192D01*
X179537479Y-67700476D01*
X179626983Y-67904191D01*
X179796099Y-68201307D01*
X179796103Y-68201313D01*
X179796104Y-68201314D01*
X179988429Y-68470171D01*
X179995005Y-68479363D01*
X180221572Y-68735383D01*
X180221574Y-68735385D01*
X180270719Y-68780517D01*
X180473376Y-68966627D01*
X180747721Y-69170621D01*
X181041672Y-69345181D01*
X181352084Y-69488440D01*
X181452867Y-69522863D01*
X181475937Y-69533493D01*
X181476789Y-69533997D01*
X181477308Y-69534304D01*
X181508027Y-69542891D01*
X181523828Y-69547308D01*
X181530499Y-69549376D01*
X181576206Y-69564976D01*
X181583904Y-69567603D01*
X181583870Y-69567700D01*
X181586108Y-69568321D01*
X181729232Y-69619707D01*
X181745569Y-69626941D01*
X181914441Y-69716785D01*
X181929566Y-69726289D01*
X182029957Y-69799977D01*
X182083773Y-69839478D01*
X182097381Y-69851064D01*
X182233708Y-69985239D01*
X182245508Y-69998659D01*
X182361136Y-70151040D01*
X182370885Y-70166018D01*
X182463410Y-70333442D01*
X182470904Y-70349666D01*
X182514497Y-70465266D01*
X182538394Y-70528634D01*
X182543479Y-70545767D01*
X182584546Y-70732593D01*
X182587115Y-70750279D01*
X182601222Y-70945537D01*
X182601544Y-70954483D01*
X182600762Y-79571005D01*
X182581071Y-79638043D01*
X182528263Y-79683793D01*
X182459104Y-79693730D01*
X182409236Y-79672171D01*
X182408158Y-79673889D01*
X182249523Y-79574211D01*
X182079254Y-79514631D01*
X182079249Y-79514630D01*
X181900004Y-79494435D01*
X181899996Y-79494435D01*
X181720750Y-79514630D01*
X181720745Y-79514631D01*
X181550476Y-79574211D01*
X181397737Y-79670184D01*
X181270184Y-79797737D01*
X181174211Y-79950476D01*
X181114631Y-80120745D01*
X181114630Y-80120750D01*
X181094435Y-80299996D01*
X181094435Y-80300003D01*
X181114630Y-80479249D01*
X181114631Y-80479254D01*
X181174211Y-80649523D01*
X181235924Y-80747738D01*
X181270184Y-80802262D01*
X181397738Y-80929816D01*
X181550478Y-81025789D01*
X181678955Y-81070745D01*
X181720745Y-81085368D01*
X181720750Y-81085369D01*
X181899996Y-81105565D01*
X181900000Y-81105565D01*
X181900004Y-81105565D01*
X182079249Y-81085369D01*
X182079252Y-81085368D01*
X182079255Y-81085368D01*
X182249522Y-81025789D01*
X182402262Y-80929816D01*
X182402262Y-80929815D01*
X182408158Y-80926111D01*
X182409381Y-80928057D01*
X182463994Y-80905756D01*
X182532691Y-80918507D01*
X182583588Y-80966374D01*
X182600630Y-81029122D01*
X182599501Y-93477724D01*
X182599186Y-93486546D01*
X182591882Y-93588823D01*
X182591882Y-93588827D01*
X182606747Y-93837980D01*
X182606747Y-93837981D01*
X182647195Y-94047738D01*
X182654006Y-94083061D01*
X182708833Y-94247738D01*
X182732852Y-94319882D01*
X182732852Y-94319883D01*
X182806236Y-94470911D01*
X182841933Y-94544379D01*
X182927779Y-94674500D01*
X182979379Y-94752714D01*
X182979381Y-94752718D01*
X183132379Y-94929255D01*
X183142853Y-94941340D01*
X183329544Y-95107008D01*
X183536261Y-95246890D01*
X183759468Y-95358594D01*
X183995346Y-95440208D01*
X184239859Y-95490335D01*
X184304827Y-95494975D01*
X184328085Y-95498886D01*
X184334108Y-95500500D01*
X184377722Y-95500500D01*
X184386556Y-95500814D01*
X184430065Y-95503923D01*
X184436185Y-95502743D01*
X184459663Y-95500500D01*
X185044033Y-95500500D01*
X185111072Y-95520185D01*
X185114282Y-95522319D01*
X185246249Y-95613046D01*
X185290341Y-95667246D01*
X185300000Y-95715227D01*
X185300000Y-96898911D01*
X185280315Y-96965950D01*
X185264011Y-96986261D01*
X185147849Y-97103303D01*
X185086653Y-97137019D01*
X185016943Y-97132297D01*
X184992303Y-97119948D01*
X184752656Y-96964320D01*
X184425739Y-96797746D01*
X184083206Y-96666260D01*
X184083199Y-96666258D01*
X183728794Y-96571295D01*
X183728790Y-96571294D01*
X183728789Y-96571294D01*
X183366405Y-96513898D01*
X183000001Y-96494696D01*
X182999999Y-96494696D01*
X182633594Y-96513898D01*
X182271211Y-96571294D01*
X182271209Y-96571294D01*
X181916793Y-96666260D01*
X181574260Y-96797746D01*
X181247343Y-96964320D01*
X180939635Y-97164147D01*
X180654498Y-97395047D01*
X180654490Y-97395054D01*
X180395054Y-97654490D01*
X180395047Y-97654498D01*
X180164147Y-97939635D01*
X179964320Y-98247343D01*
X179797746Y-98574260D01*
X179666260Y-98916793D01*
X179571294Y-99271209D01*
X179571294Y-99271211D01*
X179513898Y-99633594D01*
X179494696Y-99999999D01*
X179494696Y-100000000D01*
X179513898Y-100366405D01*
X179571294Y-100728788D01*
X179571294Y-100728790D01*
X179666260Y-101083206D01*
X179797746Y-101425739D01*
X179964320Y-101752656D01*
X180134947Y-102015400D01*
X180154951Y-102082345D01*
X180135585Y-102149477D01*
X180118964Y-102170285D01*
X179034615Y-103262850D01*
X178973418Y-103296566D01*
X178946603Y-103299500D01*
X137307861Y-103299500D01*
X137240822Y-103279815D01*
X137220863Y-103263859D01*
X136791310Y-102840900D01*
X136307033Y-102364056D01*
X136273075Y-102302993D01*
X136277521Y-102233265D01*
X136297663Y-102197671D01*
X136408851Y-102060366D01*
X136608682Y-101752652D01*
X136775255Y-101425736D01*
X136906742Y-101083199D01*
X136965868Y-100862540D01*
X171799200Y-100862540D01*
X171799200Y-101009459D01*
X171827858Y-101153534D01*
X171827861Y-101153544D01*
X171884078Y-101289266D01*
X171884083Y-101289275D01*
X171965698Y-101411419D01*
X171965701Y-101411423D01*
X172069576Y-101515298D01*
X172069580Y-101515301D01*
X172191724Y-101596916D01*
X172191733Y-101596921D01*
X172199174Y-101600003D01*
X172327458Y-101653140D01*
X172471540Y-101681799D01*
X172471544Y-101681800D01*
X172471545Y-101681800D01*
X172618456Y-101681800D01*
X172618457Y-101681799D01*
X172762542Y-101653140D01*
X172890843Y-101599996D01*
X175544435Y-101599996D01*
X175544435Y-101600003D01*
X175564630Y-101779249D01*
X175564631Y-101779254D01*
X175624211Y-101949523D01*
X175665605Y-102015400D01*
X175720184Y-102102262D01*
X175847738Y-102229816D01*
X176000478Y-102325789D01*
X176066957Y-102349051D01*
X176170745Y-102385368D01*
X176170750Y-102385369D01*
X176349996Y-102405565D01*
X176350000Y-102405565D01*
X176350004Y-102405565D01*
X176529249Y-102385369D01*
X176529252Y-102385368D01*
X176529255Y-102385368D01*
X176699522Y-102325789D01*
X176852262Y-102229816D01*
X176979816Y-102102262D01*
X177075789Y-101949522D01*
X177135368Y-101779255D01*
X177138365Y-101752656D01*
X177155565Y-101600003D01*
X177155565Y-101599996D01*
X177135369Y-101420750D01*
X177135368Y-101420745D01*
X177132105Y-101411419D01*
X177075789Y-101250478D01*
X176979816Y-101097738D01*
X176852262Y-100970184D01*
X176797200Y-100935586D01*
X176699523Y-100874211D01*
X176529254Y-100814631D01*
X176529249Y-100814630D01*
X176350004Y-100794435D01*
X176349996Y-100794435D01*
X176170750Y-100814630D01*
X176170745Y-100814631D01*
X176000476Y-100874211D01*
X175847737Y-100970184D01*
X175720184Y-101097737D01*
X175624211Y-101250476D01*
X175564631Y-101420745D01*
X175564630Y-101420750D01*
X175544435Y-101599996D01*
X172890843Y-101599996D01*
X172898269Y-101596920D01*
X173020420Y-101515301D01*
X173124301Y-101411420D01*
X173205920Y-101289269D01*
X173262140Y-101153542D01*
X173290800Y-101009455D01*
X173290800Y-100862545D01*
X173262140Y-100718458D01*
X173205920Y-100582731D01*
X173205919Y-100582730D01*
X173205916Y-100582724D01*
X173124301Y-100460580D01*
X173124298Y-100460576D01*
X173020423Y-100356701D01*
X173020419Y-100356698D01*
X172898275Y-100275083D01*
X172898266Y-100275078D01*
X172762544Y-100218861D01*
X172762545Y-100218861D01*
X172762542Y-100218860D01*
X172762538Y-100218859D01*
X172762534Y-100218858D01*
X172618459Y-100190200D01*
X172618455Y-100190200D01*
X172471545Y-100190200D01*
X172471540Y-100190200D01*
X172327465Y-100218858D01*
X172327455Y-100218861D01*
X172191733Y-100275078D01*
X172191724Y-100275083D01*
X172069580Y-100356698D01*
X172069576Y-100356701D01*
X171965701Y-100460576D01*
X171965698Y-100460580D01*
X171884083Y-100582724D01*
X171884078Y-100582733D01*
X171827861Y-100718455D01*
X171827858Y-100718465D01*
X171799200Y-100862540D01*
X136965868Y-100862540D01*
X137001705Y-100728794D01*
X137059102Y-100366404D01*
X137078304Y-100000000D01*
X137070262Y-99846540D01*
X176879200Y-99846540D01*
X176879200Y-99993459D01*
X176907858Y-100137534D01*
X176907861Y-100137544D01*
X176964078Y-100273266D01*
X176964083Y-100273275D01*
X177045698Y-100395419D01*
X177045701Y-100395423D01*
X177149576Y-100499298D01*
X177149580Y-100499301D01*
X177271724Y-100580916D01*
X177271730Y-100580919D01*
X177271731Y-100580920D01*
X177407458Y-100637140D01*
X177551540Y-100665799D01*
X177551544Y-100665800D01*
X177551545Y-100665800D01*
X177698456Y-100665800D01*
X177698457Y-100665799D01*
X177842542Y-100637140D01*
X177978269Y-100580920D01*
X178100420Y-100499301D01*
X178204301Y-100395420D01*
X178285920Y-100273269D01*
X178342140Y-100137542D01*
X178370800Y-99993455D01*
X178370800Y-99846545D01*
X178342140Y-99702458D01*
X178285920Y-99566731D01*
X178285919Y-99566730D01*
X178285916Y-99566724D01*
X178204301Y-99444580D01*
X178204298Y-99444576D01*
X178100423Y-99340701D01*
X178100419Y-99340698D01*
X177978275Y-99259083D01*
X177978266Y-99259078D01*
X177842544Y-99202861D01*
X177842545Y-99202861D01*
X177842542Y-99202860D01*
X177842538Y-99202859D01*
X177842534Y-99202858D01*
X177698459Y-99174200D01*
X177698455Y-99174200D01*
X177551545Y-99174200D01*
X177551540Y-99174200D01*
X177407465Y-99202858D01*
X177407455Y-99202861D01*
X177271733Y-99259078D01*
X177271724Y-99259083D01*
X177149580Y-99340698D01*
X177149576Y-99340701D01*
X177045701Y-99444576D01*
X177045698Y-99444580D01*
X176964083Y-99566724D01*
X176964078Y-99566733D01*
X176907861Y-99702455D01*
X176907858Y-99702465D01*
X176879200Y-99846540D01*
X137070262Y-99846540D01*
X137059102Y-99633596D01*
X137001705Y-99271206D01*
X136906742Y-98916801D01*
X136873630Y-98830540D01*
X171799200Y-98830540D01*
X171799200Y-98977459D01*
X171827858Y-99121534D01*
X171827861Y-99121544D01*
X171884078Y-99257266D01*
X171884083Y-99257275D01*
X171965698Y-99379419D01*
X171965701Y-99379423D01*
X172069576Y-99483298D01*
X172069580Y-99483301D01*
X172191724Y-99564916D01*
X172191730Y-99564919D01*
X172191731Y-99564920D01*
X172327458Y-99621140D01*
X172471540Y-99649799D01*
X172471544Y-99649800D01*
X172471545Y-99649800D01*
X172618456Y-99649800D01*
X172618457Y-99649799D01*
X172762542Y-99621140D01*
X172898269Y-99564920D01*
X173020420Y-99483301D01*
X173124301Y-99379420D01*
X173205920Y-99257269D01*
X173262140Y-99121542D01*
X173273838Y-99062728D01*
X173306222Y-99000820D01*
X173366937Y-98966245D01*
X173436707Y-98969984D01*
X173449264Y-98975204D01*
X173450471Y-98975784D01*
X173450478Y-98975789D01*
X173620745Y-99035368D01*
X173620750Y-99035369D01*
X173799996Y-99055565D01*
X173800000Y-99055565D01*
X173800004Y-99055565D01*
X173979249Y-99035369D01*
X173979252Y-99035368D01*
X173979255Y-99035368D01*
X174149522Y-98975789D01*
X174302262Y-98879816D01*
X174362319Y-98819759D01*
X174423642Y-98786274D01*
X174493334Y-98791258D01*
X174537681Y-98819759D01*
X174597738Y-98879816D01*
X174750478Y-98975789D01*
X174920745Y-99035368D01*
X174920750Y-99035369D01*
X175099996Y-99055565D01*
X175100000Y-99055565D01*
X175100004Y-99055565D01*
X175279249Y-99035369D01*
X175279252Y-99035368D01*
X175279255Y-99035368D01*
X175449522Y-98975789D01*
X175602262Y-98879816D01*
X175729816Y-98752262D01*
X175825789Y-98599522D01*
X175885368Y-98429255D01*
X175885445Y-98428576D01*
X175905565Y-98250003D01*
X175905565Y-98249996D01*
X175885369Y-98070750D01*
X175885368Y-98070745D01*
X175825789Y-97900478D01*
X175729816Y-97747738D01*
X175602262Y-97620184D01*
X175449523Y-97524211D01*
X175279254Y-97464631D01*
X175279249Y-97464630D01*
X175100004Y-97444435D01*
X175099996Y-97444435D01*
X174920750Y-97464630D01*
X174920745Y-97464631D01*
X174750476Y-97524211D01*
X174597737Y-97620184D01*
X174537681Y-97680241D01*
X174476358Y-97713726D01*
X174406666Y-97708742D01*
X174362319Y-97680241D01*
X174302262Y-97620184D01*
X174149523Y-97524211D01*
X173979254Y-97464631D01*
X173979249Y-97464630D01*
X173800004Y-97444435D01*
X173799996Y-97444435D01*
X173620750Y-97464630D01*
X173620745Y-97464631D01*
X173450476Y-97524211D01*
X173297737Y-97620184D01*
X173170184Y-97747737D01*
X173074211Y-97900476D01*
X173014631Y-98070745D01*
X173014630Y-98070749D01*
X173009339Y-98117714D01*
X172982272Y-98182128D01*
X172924677Y-98221683D01*
X172854840Y-98223820D01*
X172838667Y-98218391D01*
X172762548Y-98186862D01*
X172762544Y-98186860D01*
X172762542Y-98186860D01*
X172762538Y-98186859D01*
X172762534Y-98186858D01*
X172618459Y-98158200D01*
X172618455Y-98158200D01*
X172471545Y-98158200D01*
X172471540Y-98158200D01*
X172327465Y-98186858D01*
X172327455Y-98186861D01*
X172191733Y-98243078D01*
X172191729Y-98243081D01*
X172069580Y-98324698D01*
X172069576Y-98324701D01*
X171965701Y-98428576D01*
X171965698Y-98428580D01*
X171884083Y-98550724D01*
X171884078Y-98550733D01*
X171827861Y-98686455D01*
X171827858Y-98686465D01*
X171799200Y-98830540D01*
X136873630Y-98830540D01*
X136775255Y-98574264D01*
X136608682Y-98247348D01*
X136605911Y-98243081D01*
X136408852Y-97939635D01*
X136279468Y-97779860D01*
X136177949Y-97654494D01*
X135918506Y-97395051D01*
X135832355Y-97325287D01*
X135633364Y-97164147D01*
X135325656Y-96964320D01*
X134998739Y-96797746D01*
X134656206Y-96666260D01*
X134656199Y-96666258D01*
X134301794Y-96571295D01*
X134301790Y-96571294D01*
X134301789Y-96571294D01*
X133939405Y-96513898D01*
X133573001Y-96494696D01*
X133572999Y-96494696D01*
X133206594Y-96513898D01*
X132844211Y-96571294D01*
X132844209Y-96571294D01*
X132489793Y-96666260D01*
X132147260Y-96797746D01*
X131820343Y-96964320D01*
X131512630Y-97164151D01*
X131331734Y-97310637D01*
X131267247Y-97337529D01*
X131198458Y-97325287D01*
X131166699Y-97302628D01*
X130611524Y-96755974D01*
X130577566Y-96694913D01*
X130574525Y-96667597D01*
X130574815Y-95443995D01*
X131549499Y-95443995D01*
X131576418Y-95579322D01*
X131576421Y-95579332D01*
X131629221Y-95706804D01*
X131629228Y-95706817D01*
X131705885Y-95821541D01*
X131705888Y-95821545D01*
X131803454Y-95919111D01*
X131803458Y-95919114D01*
X131918182Y-95995771D01*
X131918195Y-95995778D01*
X132045667Y-96048578D01*
X132045672Y-96048580D01*
X132045676Y-96048580D01*
X132045677Y-96048581D01*
X132181004Y-96075500D01*
X132181007Y-96075500D01*
X132318995Y-96075500D01*
X132410041Y-96057389D01*
X132454328Y-96048580D01*
X132552924Y-96007740D01*
X132581804Y-95995778D01*
X132581804Y-95995777D01*
X132581811Y-95995775D01*
X132696542Y-95919114D01*
X132794114Y-95821542D01*
X132870775Y-95706811D01*
X132923580Y-95579328D01*
X132935344Y-95520185D01*
X132950500Y-95443995D01*
X132950500Y-95306004D01*
X132923581Y-95170677D01*
X132923580Y-95170676D01*
X132923580Y-95170672D01*
X132897210Y-95107008D01*
X132870778Y-95043195D01*
X132870771Y-95043182D01*
X132794114Y-94928458D01*
X132794111Y-94928454D01*
X132696545Y-94830888D01*
X132696541Y-94830885D01*
X132581817Y-94754228D01*
X132581804Y-94754221D01*
X132571604Y-94749996D01*
X135694435Y-94749996D01*
X135694435Y-94750003D01*
X135714630Y-94929249D01*
X135714631Y-94929254D01*
X135774211Y-95099523D01*
X135824662Y-95179815D01*
X135870184Y-95252262D01*
X135997738Y-95379816D01*
X136150478Y-95475789D01*
X136283453Y-95522319D01*
X136320745Y-95535368D01*
X136320750Y-95535369D01*
X136499996Y-95555565D01*
X136500000Y-95555565D01*
X136500004Y-95555565D01*
X136679249Y-95535369D01*
X136679252Y-95535368D01*
X136679255Y-95535368D01*
X136849522Y-95475789D01*
X137002262Y-95379816D01*
X137129816Y-95252262D01*
X137225789Y-95099522D01*
X137285368Y-94929255D01*
X137285458Y-94928458D01*
X137305565Y-94750003D01*
X137305565Y-94749996D01*
X137285369Y-94570750D01*
X137285368Y-94570745D01*
X137278108Y-94549996D01*
X146494435Y-94549996D01*
X146494435Y-94550003D01*
X146514630Y-94729249D01*
X146514631Y-94729254D01*
X146574211Y-94899523D01*
X146600487Y-94941340D01*
X146670184Y-95052262D01*
X146797738Y-95179816D01*
X146888080Y-95236582D01*
X146904485Y-95246890D01*
X146950478Y-95275789D01*
X147120745Y-95335368D01*
X147120750Y-95335369D01*
X147299996Y-95355565D01*
X147300000Y-95355565D01*
X147300004Y-95355565D01*
X147479249Y-95335369D01*
X147479252Y-95335368D01*
X147479255Y-95335368D01*
X147649522Y-95275789D01*
X147802262Y-95179816D01*
X147929816Y-95052262D01*
X148025789Y-94899522D01*
X148085368Y-94729255D01*
X148088504Y-94701421D01*
X148105565Y-94550003D01*
X148105565Y-94549996D01*
X148085369Y-94370750D01*
X148085368Y-94370745D01*
X148042326Y-94247738D01*
X148025789Y-94200478D01*
X147929816Y-94047738D01*
X147802262Y-93920184D01*
X147746692Y-93885267D01*
X147649523Y-93824211D01*
X147479254Y-93764631D01*
X147479249Y-93764630D01*
X147300004Y-93744435D01*
X147299996Y-93744435D01*
X147120750Y-93764630D01*
X147120745Y-93764631D01*
X146950476Y-93824211D01*
X146797737Y-93920184D01*
X146670184Y-94047737D01*
X146574211Y-94200476D01*
X146514631Y-94370745D01*
X146514630Y-94370750D01*
X146494435Y-94549996D01*
X137278108Y-94549996D01*
X137260438Y-94499500D01*
X137225789Y-94400478D01*
X137216295Y-94385369D01*
X137129815Y-94247737D01*
X137002262Y-94120184D01*
X136849523Y-94024211D01*
X136679254Y-93964631D01*
X136679249Y-93964630D01*
X136500004Y-93944435D01*
X136499996Y-93944435D01*
X136320750Y-93964630D01*
X136320745Y-93964631D01*
X136150476Y-94024211D01*
X135997737Y-94120184D01*
X135870184Y-94247737D01*
X135774211Y-94400476D01*
X135714631Y-94570745D01*
X135714630Y-94570750D01*
X135694435Y-94749996D01*
X132571604Y-94749996D01*
X132454332Y-94701421D01*
X132454322Y-94701418D01*
X132318995Y-94674500D01*
X132318993Y-94674500D01*
X132181007Y-94674500D01*
X132181005Y-94674500D01*
X132045677Y-94701418D01*
X132045667Y-94701421D01*
X131918195Y-94754221D01*
X131918182Y-94754228D01*
X131803458Y-94830885D01*
X131803454Y-94830888D01*
X131705888Y-94928454D01*
X131705885Y-94928458D01*
X131629228Y-95043182D01*
X131629221Y-95043195D01*
X131576421Y-95170667D01*
X131576418Y-95170677D01*
X131549500Y-95306004D01*
X131549500Y-95306007D01*
X131549500Y-95443993D01*
X131549500Y-95443995D01*
X131549499Y-95443995D01*
X130574815Y-95443995D01*
X130575252Y-93599996D01*
X176194435Y-93599996D01*
X176194435Y-93600003D01*
X176214630Y-93779249D01*
X176214631Y-93779254D01*
X176274211Y-93949523D01*
X176335924Y-94047738D01*
X176370184Y-94102262D01*
X176497738Y-94229816D01*
X176526259Y-94247737D01*
X176641078Y-94319883D01*
X176650478Y-94325789D01*
X176778955Y-94370745D01*
X176820745Y-94385368D01*
X176820750Y-94385369D01*
X176999996Y-94405565D01*
X177000000Y-94405565D01*
X177000004Y-94405565D01*
X177179249Y-94385369D01*
X177179252Y-94385368D01*
X177179255Y-94385368D01*
X177349522Y-94325789D01*
X177502262Y-94229816D01*
X177629816Y-94102262D01*
X177725789Y-93949522D01*
X177785368Y-93779255D01*
X177787016Y-93764630D01*
X177805565Y-93600003D01*
X177805565Y-93599996D01*
X177785369Y-93420750D01*
X177785368Y-93420745D01*
X177725788Y-93250476D01*
X177629815Y-93097737D01*
X177502262Y-92970184D01*
X177349523Y-92874211D01*
X177179254Y-92814631D01*
X177179249Y-92814630D01*
X177000004Y-92794435D01*
X176999996Y-92794435D01*
X176820750Y-92814630D01*
X176820745Y-92814631D01*
X176650476Y-92874211D01*
X176497737Y-92970184D01*
X176370184Y-93097737D01*
X176274211Y-93250476D01*
X176214631Y-93420745D01*
X176214630Y-93420750D01*
X176194435Y-93599996D01*
X130575252Y-93599996D01*
X130575822Y-91193995D01*
X131549499Y-91193995D01*
X131576418Y-91329322D01*
X131576421Y-91329332D01*
X131629221Y-91456804D01*
X131629228Y-91456817D01*
X131705885Y-91571541D01*
X131705888Y-91571545D01*
X131803454Y-91669111D01*
X131803458Y-91669114D01*
X131918182Y-91745771D01*
X131918195Y-91745778D01*
X132045667Y-91798578D01*
X132045672Y-91798580D01*
X132045676Y-91798580D01*
X132045677Y-91798581D01*
X132181004Y-91825500D01*
X132181007Y-91825500D01*
X132318995Y-91825500D01*
X132410041Y-91807389D01*
X132454328Y-91798580D01*
X132581811Y-91745775D01*
X132696542Y-91669114D01*
X132794114Y-91571542D01*
X132870775Y-91456811D01*
X132873596Y-91450000D01*
X163894659Y-91450000D01*
X163913975Y-91646129D01*
X163926947Y-91688892D01*
X163944203Y-91745778D01*
X163971188Y-91834733D01*
X164064086Y-92008532D01*
X164064090Y-92008539D01*
X164189116Y-92160883D01*
X164341460Y-92285909D01*
X164341467Y-92285913D01*
X164515266Y-92378811D01*
X164515269Y-92378811D01*
X164515273Y-92378814D01*
X164703868Y-92436024D01*
X164900000Y-92455341D01*
X165096132Y-92436024D01*
X165284727Y-92378814D01*
X165458538Y-92285910D01*
X165610883Y-92160883D01*
X165735910Y-92008538D01*
X165828814Y-91834727D01*
X165886024Y-91646132D01*
X165905341Y-91450000D01*
X165886024Y-91253868D01*
X165828814Y-91065273D01*
X165828811Y-91065269D01*
X165828811Y-91065266D01*
X165735913Y-90891467D01*
X165735909Y-90891460D01*
X165610883Y-90739116D01*
X165458539Y-90614090D01*
X165458532Y-90614086D01*
X165284733Y-90521188D01*
X165284727Y-90521186D01*
X165096132Y-90463976D01*
X165096129Y-90463975D01*
X164900000Y-90444659D01*
X164703870Y-90463975D01*
X164515266Y-90521188D01*
X164341467Y-90614086D01*
X164341460Y-90614090D01*
X164189116Y-90739116D01*
X164064090Y-90891460D01*
X164064086Y-90891467D01*
X163971188Y-91065266D01*
X163913975Y-91253870D01*
X163894659Y-91450000D01*
X132873596Y-91450000D01*
X132923580Y-91329328D01*
X132950075Y-91196132D01*
X132950500Y-91193995D01*
X132950500Y-91056004D01*
X132923581Y-90920677D01*
X132923580Y-90920676D01*
X132923580Y-90920672D01*
X132893920Y-90849066D01*
X132870778Y-90793195D01*
X132870771Y-90793182D01*
X132794114Y-90678458D01*
X132794111Y-90678454D01*
X132696545Y-90580888D01*
X132696541Y-90580885D01*
X132581817Y-90504228D01*
X132581804Y-90504221D01*
X132454332Y-90451421D01*
X132454322Y-90451418D01*
X132318995Y-90424500D01*
X132318993Y-90424500D01*
X132181007Y-90424500D01*
X132181005Y-90424500D01*
X132045677Y-90451418D01*
X132045667Y-90451421D01*
X131918195Y-90504221D01*
X131918182Y-90504228D01*
X131803458Y-90580885D01*
X131803454Y-90580888D01*
X131705888Y-90678454D01*
X131705885Y-90678458D01*
X131629228Y-90793182D01*
X131629221Y-90793195D01*
X131576421Y-90920667D01*
X131576418Y-90920677D01*
X131549500Y-91056004D01*
X131549500Y-91056007D01*
X131549500Y-91193993D01*
X131549500Y-91193995D01*
X131549499Y-91193995D01*
X130575822Y-91193995D01*
X130576023Y-90346800D01*
X168785904Y-90346800D01*
X168785904Y-90346807D01*
X168806099Y-90526053D01*
X168806100Y-90526058D01*
X168865680Y-90696327D01*
X168926543Y-90793189D01*
X168961653Y-90849066D01*
X169089207Y-90976620D01*
X169241947Y-91072593D01*
X169367404Y-91116492D01*
X169424180Y-91157214D01*
X169443491Y-91192579D01*
X169465679Y-91255988D01*
X169465681Y-91255992D01*
X169511761Y-91329328D01*
X169561653Y-91408730D01*
X169689207Y-91536284D01*
X169841947Y-91632257D01*
X170003801Y-91688892D01*
X170012214Y-91691836D01*
X170012219Y-91691837D01*
X170191465Y-91712033D01*
X170191469Y-91712033D01*
X170191473Y-91712033D01*
X170370718Y-91691837D01*
X170370721Y-91691836D01*
X170370724Y-91691836D01*
X170540991Y-91632257D01*
X170693731Y-91536284D01*
X170821285Y-91408730D01*
X170917258Y-91255990D01*
X170936851Y-91199996D01*
X171594435Y-91199996D01*
X171594435Y-91200003D01*
X171614630Y-91379249D01*
X171614631Y-91379254D01*
X171674211Y-91549523D01*
X171770184Y-91702262D01*
X171897738Y-91829816D01*
X172050478Y-91925789D01*
X172220745Y-91985368D01*
X172220750Y-91985369D01*
X172399996Y-92005565D01*
X172400000Y-92005565D01*
X172400004Y-92005565D01*
X172579249Y-91985369D01*
X172579252Y-91985368D01*
X172579255Y-91985368D01*
X172749522Y-91925789D01*
X172902262Y-91829816D01*
X173029816Y-91702262D01*
X173038219Y-91688888D01*
X173090548Y-91642599D01*
X173157094Y-91631640D01*
X173217157Y-91638408D01*
X173217161Y-91638408D01*
X173390444Y-91618884D01*
X173459266Y-91630939D01*
X173500179Y-91663438D01*
X173539118Y-91710885D01*
X173691460Y-91835909D01*
X173691467Y-91835913D01*
X173865266Y-91928811D01*
X173865269Y-91928811D01*
X173865273Y-91928814D01*
X174053868Y-91986024D01*
X174250000Y-92005341D01*
X174446132Y-91986024D01*
X174634727Y-91928814D01*
X174640387Y-91925789D01*
X174808532Y-91835913D01*
X174808538Y-91835910D01*
X174960883Y-91710883D01*
X175085910Y-91558538D01*
X175178814Y-91384727D01*
X175236024Y-91196132D01*
X175255341Y-91000000D01*
X175236024Y-90803868D01*
X175178814Y-90615273D01*
X175178811Y-90615269D01*
X175178811Y-90615266D01*
X175085913Y-90441467D01*
X175085909Y-90441460D01*
X174960883Y-90289116D01*
X174808539Y-90164090D01*
X174808532Y-90164086D01*
X174634733Y-90071188D01*
X174634727Y-90071186D01*
X174446132Y-90013976D01*
X174446129Y-90013975D01*
X174250000Y-89994659D01*
X174053870Y-90013975D01*
X173943437Y-90047475D01*
X173865273Y-90071186D01*
X173865272Y-90071186D01*
X173865267Y-90071188D01*
X173736564Y-90139982D01*
X173668162Y-90154224D01*
X173612139Y-90135618D01*
X173566680Y-90107054D01*
X173396411Y-90047474D01*
X173396406Y-90047473D01*
X173217161Y-90027278D01*
X173217153Y-90027278D01*
X173037907Y-90047473D01*
X173037902Y-90047474D01*
X172867633Y-90107054D01*
X172714894Y-90203027D01*
X172587343Y-90330578D01*
X172587339Y-90330584D01*
X172578934Y-90343959D01*
X172526597Y-90390247D01*
X172460062Y-90401202D01*
X172400000Y-90394435D01*
X172399998Y-90394435D01*
X172399996Y-90394435D01*
X172220750Y-90414630D01*
X172220745Y-90414631D01*
X172050476Y-90474211D01*
X171897737Y-90570184D01*
X171770184Y-90697737D01*
X171674211Y-90850476D01*
X171614631Y-91020745D01*
X171614630Y-91020750D01*
X171594435Y-91199996D01*
X170936851Y-91199996D01*
X170976837Y-91085723D01*
X170976838Y-91085717D01*
X170997034Y-90906471D01*
X170997034Y-90906464D01*
X170976838Y-90727218D01*
X170976837Y-90727213D01*
X170966523Y-90697737D01*
X170917258Y-90556946D01*
X170897850Y-90526059D01*
X170850952Y-90451421D01*
X170821285Y-90404206D01*
X170693731Y-90276652D01*
X170576558Y-90203027D01*
X170540992Y-90180679D01*
X170415532Y-90136779D01*
X170358756Y-90096057D01*
X170339445Y-90060690D01*
X170317258Y-89997282D01*
X170317258Y-89997281D01*
X170256953Y-89901308D01*
X170221285Y-89844542D01*
X170093731Y-89716988D01*
X170080854Y-89708897D01*
X169940992Y-89621015D01*
X169770723Y-89561435D01*
X169770718Y-89561434D01*
X169591473Y-89541239D01*
X169591465Y-89541239D01*
X169412219Y-89561434D01*
X169412214Y-89561435D01*
X169241945Y-89621015D01*
X169089206Y-89716988D01*
X168961653Y-89844541D01*
X168865680Y-89997280D01*
X168806100Y-90167549D01*
X168806099Y-90167554D01*
X168785904Y-90346800D01*
X130576023Y-90346800D01*
X130576355Y-88943995D01*
X131549499Y-88943995D01*
X131576418Y-89079322D01*
X131576421Y-89079332D01*
X131629221Y-89206804D01*
X131629228Y-89206817D01*
X131705885Y-89321541D01*
X131705888Y-89321545D01*
X131803454Y-89419111D01*
X131803458Y-89419114D01*
X131918182Y-89495771D01*
X131918195Y-89495778D01*
X132027949Y-89541239D01*
X132045672Y-89548580D01*
X132045676Y-89548580D01*
X132045677Y-89548581D01*
X132181004Y-89575500D01*
X132181007Y-89575500D01*
X132318995Y-89575500D01*
X132410041Y-89557389D01*
X132454328Y-89548580D01*
X132581811Y-89495775D01*
X132696542Y-89419114D01*
X132794114Y-89321542D01*
X132870775Y-89206811D01*
X132923580Y-89079328D01*
X132933541Y-89029249D01*
X132950500Y-88943995D01*
X132950500Y-88806004D01*
X132923581Y-88670677D01*
X132923580Y-88670676D01*
X132923580Y-88670672D01*
X132898395Y-88609869D01*
X132870778Y-88543195D01*
X132870771Y-88543182D01*
X132841915Y-88499996D01*
X135704435Y-88499996D01*
X135704435Y-88500003D01*
X135724630Y-88679249D01*
X135724631Y-88679254D01*
X135784211Y-88849523D01*
X135850842Y-88955565D01*
X135880184Y-89002262D01*
X136007738Y-89129816D01*
X136033700Y-89146129D01*
X136130263Y-89206804D01*
X136160478Y-89225789D01*
X136295545Y-89273051D01*
X136330745Y-89285368D01*
X136330750Y-89285369D01*
X136509996Y-89305565D01*
X136510000Y-89305565D01*
X136510004Y-89305565D01*
X136689249Y-89285369D01*
X136689252Y-89285368D01*
X136689255Y-89285368D01*
X136859522Y-89225789D01*
X137012262Y-89129816D01*
X137139816Y-89002262D01*
X137235491Y-88849996D01*
X143744435Y-88849996D01*
X143744435Y-88850003D01*
X143764630Y-89029249D01*
X143764631Y-89029254D01*
X143824211Y-89199523D01*
X143878152Y-89285369D01*
X143920184Y-89352262D01*
X144047738Y-89479816D01*
X144138080Y-89536582D01*
X144164758Y-89553345D01*
X144200478Y-89575789D01*
X144370745Y-89635368D01*
X144370750Y-89635369D01*
X144549996Y-89655565D01*
X144550000Y-89655565D01*
X144550004Y-89655565D01*
X144729249Y-89635369D01*
X144729252Y-89635368D01*
X144729255Y-89635368D01*
X144899522Y-89575789D01*
X145052262Y-89479816D01*
X145179816Y-89352262D01*
X145275789Y-89199522D01*
X145335368Y-89029255D01*
X145335369Y-89029249D01*
X145355565Y-88850003D01*
X145355565Y-88849996D01*
X145335369Y-88670750D01*
X145335368Y-88670745D01*
X145335341Y-88670667D01*
X145275789Y-88500478D01*
X145275188Y-88499522D01*
X145207293Y-88391467D01*
X145179816Y-88347738D01*
X145052262Y-88220184D01*
X145022396Y-88201418D01*
X144940559Y-88149996D01*
X155694435Y-88149996D01*
X155694435Y-88150003D01*
X155714630Y-88329249D01*
X155714631Y-88329254D01*
X155774211Y-88499523D01*
X155815525Y-88565273D01*
X155870184Y-88652262D01*
X155997738Y-88779816D01*
X156150478Y-88875789D01*
X156286900Y-88923525D01*
X156320745Y-88935368D01*
X156320750Y-88935369D01*
X156499996Y-88955565D01*
X156500000Y-88955565D01*
X156500004Y-88955565D01*
X156549395Y-88950000D01*
X164000630Y-88950000D01*
X164019946Y-89146129D01*
X164019947Y-89146132D01*
X164073157Y-89321542D01*
X164077159Y-89334733D01*
X164170057Y-89508532D01*
X164170061Y-89508539D01*
X164295087Y-89660883D01*
X164447431Y-89785909D01*
X164447438Y-89785913D01*
X164621237Y-89878811D01*
X164621240Y-89878811D01*
X164621244Y-89878814D01*
X164809839Y-89936024D01*
X165005971Y-89955341D01*
X165202103Y-89936024D01*
X165390698Y-89878814D01*
X165564509Y-89785910D01*
X165716854Y-89660883D01*
X165841881Y-89508538D01*
X165889681Y-89419111D01*
X165934782Y-89334733D01*
X165934782Y-89334732D01*
X165934785Y-89334727D01*
X165991995Y-89146132D01*
X166011312Y-88950000D01*
X165991995Y-88753868D01*
X165934785Y-88565273D01*
X165934782Y-88565269D01*
X165934782Y-88565266D01*
X165841884Y-88391467D01*
X165841880Y-88391460D01*
X165716854Y-88239116D01*
X165564510Y-88114090D01*
X165564503Y-88114086D01*
X165390704Y-88021188D01*
X165390698Y-88021186D01*
X165202103Y-87963976D01*
X165202100Y-87963975D01*
X165005971Y-87944659D01*
X164809841Y-87963975D01*
X164621237Y-88021188D01*
X164447438Y-88114086D01*
X164447431Y-88114090D01*
X164295087Y-88239116D01*
X164170061Y-88391460D01*
X164170057Y-88391467D01*
X164077159Y-88565266D01*
X164019946Y-88753870D01*
X164000630Y-88950000D01*
X156549395Y-88950000D01*
X156679249Y-88935369D01*
X156679252Y-88935368D01*
X156679255Y-88935368D01*
X156849522Y-88875789D01*
X157002262Y-88779816D01*
X157129816Y-88652262D01*
X157156454Y-88609867D01*
X157208786Y-88563577D01*
X157275329Y-88552619D01*
X157330898Y-88558880D01*
X157339271Y-88559824D01*
X157339272Y-88559824D01*
X157339276Y-88559824D01*
X157518521Y-88539628D01*
X157518524Y-88539627D01*
X157518527Y-88539627D01*
X157688794Y-88480048D01*
X157841534Y-88384075D01*
X157969088Y-88256521D01*
X158065061Y-88103781D01*
X158095355Y-88017202D01*
X158136075Y-87960429D01*
X158171438Y-87941118D01*
X158259215Y-87910403D01*
X158288792Y-87900055D01*
X158288794Y-87900054D01*
X158441534Y-87804081D01*
X158569088Y-87676527D01*
X158665061Y-87523787D01*
X158724640Y-87353520D01*
X158725664Y-87344435D01*
X158744837Y-87174268D01*
X158744837Y-87174261D01*
X158724641Y-86995015D01*
X158724640Y-86995010D01*
X158704670Y-86937938D01*
X158704668Y-86937931D01*
X174033250Y-86937931D01*
X174033250Y-86937938D01*
X174053445Y-87117184D01*
X174053446Y-87117189D01*
X174113026Y-87287458D01*
X174161518Y-87364632D01*
X174208999Y-87440197D01*
X174336553Y-87567751D01*
X174425135Y-87623411D01*
X174495189Y-87667429D01*
X174494194Y-87669011D01*
X174539107Y-87709555D01*
X174557426Y-87776980D01*
X174550494Y-87815416D01*
X174513896Y-87920006D01*
X174513894Y-87920014D01*
X174493699Y-88099260D01*
X174493699Y-88099267D01*
X174513894Y-88278513D01*
X174513897Y-88278526D01*
X174573473Y-88448782D01*
X174573477Y-88448791D01*
X174585433Y-88467819D01*
X174604433Y-88535056D01*
X174597481Y-88574744D01*
X174538161Y-88744271D01*
X174538159Y-88744279D01*
X174517964Y-88923525D01*
X174517964Y-88923532D01*
X174538159Y-89102778D01*
X174538160Y-89102783D01*
X174597740Y-89273052D01*
X174689516Y-89419111D01*
X174693713Y-89425791D01*
X174821267Y-89553345D01*
X174911609Y-89610111D01*
X174951805Y-89635368D01*
X174974007Y-89649318D01*
X175144274Y-89708897D01*
X175144279Y-89708898D01*
X175323525Y-89729094D01*
X175323529Y-89729094D01*
X175323533Y-89729094D01*
X175502778Y-89708898D01*
X175502781Y-89708897D01*
X175502784Y-89708897D01*
X175673051Y-89649318D01*
X175825791Y-89553345D01*
X175953345Y-89425791D01*
X176049318Y-89273051D01*
X176108897Y-89102784D01*
X176108898Y-89102778D01*
X176129094Y-88923532D01*
X176129094Y-88923525D01*
X176108898Y-88744279D01*
X176108897Y-88744274D01*
X176049317Y-88574004D01*
X176037359Y-88554974D01*
X176018358Y-88487738D01*
X176025309Y-88448052D01*
X176084632Y-88278519D01*
X176087369Y-88254228D01*
X176104829Y-88099267D01*
X176104829Y-88099260D01*
X176084633Y-87920014D01*
X176084630Y-87920001D01*
X176046398Y-87810742D01*
X176042835Y-87740964D01*
X176077564Y-87680336D01*
X176122483Y-87652745D01*
X176199522Y-87625789D01*
X176352262Y-87529816D01*
X176479816Y-87402262D01*
X176575789Y-87249522D01*
X176635368Y-87079255D01*
X176641090Y-87028470D01*
X176655565Y-86900003D01*
X176655565Y-86899996D01*
X176635369Y-86720750D01*
X176635368Y-86720745D01*
X176587998Y-86585369D01*
X176575789Y-86550478D01*
X176479816Y-86397738D01*
X176352262Y-86270184D01*
X176319805Y-86249790D01*
X176199523Y-86174211D01*
X176029254Y-86114631D01*
X176029249Y-86114630D01*
X175850004Y-86094435D01*
X175849996Y-86094435D01*
X175670750Y-86114630D01*
X175670745Y-86114631D01*
X175500476Y-86174211D01*
X175380192Y-86249791D01*
X175312955Y-86268791D01*
X175248247Y-86249790D01*
X175188339Y-86212146D01*
X175018069Y-86152566D01*
X175018064Y-86152565D01*
X174838819Y-86132370D01*
X174838811Y-86132370D01*
X174659565Y-86152565D01*
X174659560Y-86152566D01*
X174489291Y-86212146D01*
X174336552Y-86308119D01*
X174208999Y-86435672D01*
X174113026Y-86588411D01*
X174053446Y-86758680D01*
X174053445Y-86758685D01*
X174033250Y-86937931D01*
X158704668Y-86937931D01*
X158665061Y-86824743D01*
X158605697Y-86730266D01*
X168173285Y-86730266D01*
X168332056Y-86785824D01*
X168499996Y-86804746D01*
X168500004Y-86804746D01*
X168667943Y-86785824D01*
X168826713Y-86730267D01*
X168826714Y-86730266D01*
X169923285Y-86730266D01*
X170082056Y-86785824D01*
X170249996Y-86804746D01*
X170250004Y-86804746D01*
X170417943Y-86785824D01*
X170576713Y-86730267D01*
X170576714Y-86730266D01*
X171673285Y-86730266D01*
X171832056Y-86785824D01*
X171999996Y-86804746D01*
X172000004Y-86804746D01*
X172167943Y-86785824D01*
X172326713Y-86730267D01*
X172326714Y-86730266D01*
X172000001Y-86403553D01*
X172000000Y-86403553D01*
X171673285Y-86730266D01*
X170576714Y-86730266D01*
X170250001Y-86403553D01*
X170250000Y-86403553D01*
X169923285Y-86730266D01*
X168826714Y-86730266D01*
X168500001Y-86403553D01*
X168500000Y-86403553D01*
X168173285Y-86730266D01*
X158605697Y-86730266D01*
X158569088Y-86672003D01*
X158470299Y-86573214D01*
X158436814Y-86511891D01*
X158441798Y-86442199D01*
X158470299Y-86397852D01*
X158491438Y-86376713D01*
X158569088Y-86299063D01*
X158665061Y-86146323D01*
X158724640Y-85976056D01*
X158725882Y-85965032D01*
X158744837Y-85796804D01*
X158744837Y-85796797D01*
X158724641Y-85617551D01*
X158724640Y-85617546D01*
X158662761Y-85440706D01*
X158664907Y-85439954D01*
X158655309Y-85381655D01*
X158663663Y-85353208D01*
X158662761Y-85352893D01*
X158724638Y-85176060D01*
X158724641Y-85176047D01*
X158733210Y-85099996D01*
X163644435Y-85099996D01*
X163644435Y-85100003D01*
X163664630Y-85279249D01*
X163664631Y-85279254D01*
X163724211Y-85449523D01*
X163820184Y-85602262D01*
X163947740Y-85729818D01*
X163992728Y-85758085D01*
X164039020Y-85810419D01*
X164049977Y-85849195D01*
X164064630Y-85979250D01*
X164064631Y-85979254D01*
X164124211Y-86149523D01*
X164187214Y-86249791D01*
X164220184Y-86302262D01*
X164347738Y-86429816D01*
X164500478Y-86525789D01*
X164636011Y-86573214D01*
X164670745Y-86585368D01*
X164670750Y-86585369D01*
X164849996Y-86605565D01*
X164850000Y-86605565D01*
X164850004Y-86605565D01*
X165029249Y-86585369D01*
X165029252Y-86585368D01*
X165029255Y-86585368D01*
X165199522Y-86525789D01*
X165352262Y-86429816D01*
X165479816Y-86302262D01*
X165575789Y-86149522D01*
X165610615Y-86049996D01*
X167745254Y-86049996D01*
X167745254Y-86050003D01*
X167764175Y-86217938D01*
X167764176Y-86217943D01*
X167819732Y-86376714D01*
X168146447Y-86050000D01*
X168116610Y-86020163D01*
X168350000Y-86020163D01*
X168350000Y-86079837D01*
X168372836Y-86134968D01*
X168415032Y-86177164D01*
X168470163Y-86200000D01*
X168529837Y-86200000D01*
X168584968Y-86177164D01*
X168627164Y-86134968D01*
X168650000Y-86079837D01*
X168650000Y-86049999D01*
X168853553Y-86049999D01*
X168853553Y-86050001D01*
X169180266Y-86376714D01*
X169180267Y-86376713D01*
X169235824Y-86217943D01*
X169251780Y-86076328D01*
X169262528Y-86050747D01*
X169261789Y-86049252D01*
X169487471Y-86049252D01*
X169497140Y-86068817D01*
X169498220Y-86076328D01*
X169514175Y-86217938D01*
X169514176Y-86217943D01*
X169569732Y-86376714D01*
X169896447Y-86050000D01*
X169866610Y-86020163D01*
X170100000Y-86020163D01*
X170100000Y-86079837D01*
X170122836Y-86134968D01*
X170165032Y-86177164D01*
X170220163Y-86200000D01*
X170279837Y-86200000D01*
X170334968Y-86177164D01*
X170377164Y-86134968D01*
X170400000Y-86079837D01*
X170400000Y-86049999D01*
X170603553Y-86049999D01*
X170603553Y-86050001D01*
X170930266Y-86376714D01*
X170930267Y-86376713D01*
X170985824Y-86217943D01*
X171001780Y-86076328D01*
X171012528Y-86050747D01*
X171011789Y-86049252D01*
X171237471Y-86049252D01*
X171247140Y-86068817D01*
X171248220Y-86076328D01*
X171264175Y-86217938D01*
X171264176Y-86217943D01*
X171319732Y-86376714D01*
X171646447Y-86050000D01*
X171616610Y-86020163D01*
X171850000Y-86020163D01*
X171850000Y-86079837D01*
X171872836Y-86134968D01*
X171915032Y-86177164D01*
X171970163Y-86200000D01*
X172029837Y-86200000D01*
X172084968Y-86177164D01*
X172127164Y-86134968D01*
X172150000Y-86079837D01*
X172150000Y-86049999D01*
X172353553Y-86049999D01*
X172353553Y-86050001D01*
X172680266Y-86376714D01*
X172680267Y-86376713D01*
X172735824Y-86217943D01*
X172754746Y-86050003D01*
X172754746Y-86049996D01*
X172735824Y-85882056D01*
X172680266Y-85723285D01*
X172353553Y-86049999D01*
X172150000Y-86049999D01*
X172150000Y-86020163D01*
X172127164Y-85965032D01*
X172084968Y-85922836D01*
X172029837Y-85900000D01*
X171970163Y-85900000D01*
X171915032Y-85922836D01*
X171872836Y-85965032D01*
X171850000Y-86020163D01*
X171616610Y-86020163D01*
X171319732Y-85723285D01*
X171264176Y-85882053D01*
X171264175Y-85882058D01*
X171248220Y-86023671D01*
X171237471Y-86049252D01*
X171011789Y-86049252D01*
X171002860Y-86031182D01*
X171001780Y-86023671D01*
X170985824Y-85882056D01*
X170930266Y-85723285D01*
X170603553Y-86049999D01*
X170400000Y-86049999D01*
X170400000Y-86020163D01*
X170377164Y-85965032D01*
X170334968Y-85922836D01*
X170279837Y-85900000D01*
X170220163Y-85900000D01*
X170165032Y-85922836D01*
X170122836Y-85965032D01*
X170100000Y-86020163D01*
X169866610Y-86020163D01*
X169569732Y-85723285D01*
X169514176Y-85882053D01*
X169514175Y-85882058D01*
X169498220Y-86023671D01*
X169487471Y-86049252D01*
X169261789Y-86049252D01*
X169252860Y-86031182D01*
X169251780Y-86023671D01*
X169235824Y-85882056D01*
X169180266Y-85723285D01*
X168853553Y-86049999D01*
X168650000Y-86049999D01*
X168650000Y-86020163D01*
X168627164Y-85965032D01*
X168584968Y-85922836D01*
X168529837Y-85900000D01*
X168470163Y-85900000D01*
X168415032Y-85922836D01*
X168372836Y-85965032D01*
X168350000Y-86020163D01*
X168116610Y-86020163D01*
X167819732Y-85723285D01*
X167764176Y-85882053D01*
X167764175Y-85882058D01*
X167745254Y-86049996D01*
X165610615Y-86049996D01*
X165635368Y-85979255D01*
X165635369Y-85979249D01*
X165655565Y-85800003D01*
X165655565Y-85799996D01*
X165635369Y-85620750D01*
X165635368Y-85620745D01*
X165634246Y-85617538D01*
X165575789Y-85450478D01*
X165575188Y-85449522D01*
X165525053Y-85369732D01*
X168173285Y-85369732D01*
X168500000Y-85696447D01*
X168500001Y-85696447D01*
X168826714Y-85369732D01*
X169923285Y-85369732D01*
X170250000Y-85696447D01*
X170250001Y-85696447D01*
X170576714Y-85369732D01*
X171673285Y-85369732D01*
X172000000Y-85696447D01*
X172000001Y-85696447D01*
X172326714Y-85369732D01*
X172167943Y-85314176D01*
X172167938Y-85314175D01*
X172026328Y-85298220D01*
X172000746Y-85287471D01*
X171981182Y-85297140D01*
X171973671Y-85298220D01*
X171832058Y-85314175D01*
X171832053Y-85314176D01*
X171673285Y-85369732D01*
X170576714Y-85369732D01*
X170417943Y-85314176D01*
X170417938Y-85314175D01*
X170276328Y-85298220D01*
X170250746Y-85287471D01*
X170231182Y-85297140D01*
X170223671Y-85298220D01*
X170082058Y-85314175D01*
X170082053Y-85314176D01*
X169923285Y-85369732D01*
X168826714Y-85369732D01*
X168667943Y-85314176D01*
X168667938Y-85314175D01*
X168526328Y-85298220D01*
X168500746Y-85287471D01*
X168481182Y-85297140D01*
X168473671Y-85298220D01*
X168332058Y-85314175D01*
X168332053Y-85314176D01*
X168173285Y-85369732D01*
X165525053Y-85369732D01*
X165514472Y-85352893D01*
X165479816Y-85297738D01*
X165352262Y-85170184D01*
X165307269Y-85141913D01*
X165260979Y-85089579D01*
X165250022Y-85050803D01*
X165242075Y-84980266D01*
X168173285Y-84980266D01*
X168332056Y-85035824D01*
X168473671Y-85051780D01*
X168499252Y-85062528D01*
X168518817Y-85052860D01*
X168526328Y-85051780D01*
X168667943Y-85035824D01*
X168826713Y-84980267D01*
X168826714Y-84980266D01*
X169923285Y-84980266D01*
X170082056Y-85035824D01*
X170223671Y-85051780D01*
X170249252Y-85062528D01*
X170268817Y-85052860D01*
X170276328Y-85051780D01*
X170417943Y-85035824D01*
X170576713Y-84980267D01*
X170576714Y-84980266D01*
X171673285Y-84980266D01*
X171832056Y-85035824D01*
X171973671Y-85051780D01*
X171999252Y-85062528D01*
X172018817Y-85052860D01*
X172026328Y-85051780D01*
X172167943Y-85035824D01*
X172326713Y-84980267D01*
X172326714Y-84980266D01*
X172000001Y-84653553D01*
X172000000Y-84653553D01*
X171673285Y-84980266D01*
X170576714Y-84980266D01*
X170250001Y-84653553D01*
X170250000Y-84653553D01*
X169923285Y-84980266D01*
X168826714Y-84980266D01*
X168500001Y-84653553D01*
X168500000Y-84653553D01*
X168173285Y-84980266D01*
X165242075Y-84980266D01*
X165235369Y-84920750D01*
X165235368Y-84920745D01*
X165187998Y-84785369D01*
X165175789Y-84750478D01*
X165079816Y-84597738D01*
X164952262Y-84470184D01*
X164942454Y-84464021D01*
X164799523Y-84374211D01*
X164629254Y-84314631D01*
X164629249Y-84314630D01*
X164499362Y-84299996D01*
X167745254Y-84299996D01*
X167745254Y-84300003D01*
X167764175Y-84467938D01*
X167764176Y-84467943D01*
X167819732Y-84626714D01*
X168146447Y-84300000D01*
X168116610Y-84270163D01*
X168350000Y-84270163D01*
X168350000Y-84329837D01*
X168372836Y-84384968D01*
X168415032Y-84427164D01*
X168470163Y-84450000D01*
X168529837Y-84450000D01*
X168584968Y-84427164D01*
X168627164Y-84384968D01*
X168650000Y-84329837D01*
X168650000Y-84299999D01*
X168853553Y-84299999D01*
X168853553Y-84300001D01*
X169180266Y-84626714D01*
X169180267Y-84626713D01*
X169235824Y-84467943D01*
X169251780Y-84326328D01*
X169262528Y-84300747D01*
X169261789Y-84299252D01*
X169487471Y-84299252D01*
X169497140Y-84318817D01*
X169498220Y-84326328D01*
X169514175Y-84467938D01*
X169514176Y-84467943D01*
X169569732Y-84626714D01*
X169896447Y-84300000D01*
X169866610Y-84270163D01*
X170100000Y-84270163D01*
X170100000Y-84329837D01*
X170122836Y-84384968D01*
X170165032Y-84427164D01*
X170220163Y-84450000D01*
X170279837Y-84450000D01*
X170334968Y-84427164D01*
X170377164Y-84384968D01*
X170400000Y-84329837D01*
X170400000Y-84299999D01*
X170603553Y-84299999D01*
X170603553Y-84300001D01*
X170930266Y-84626714D01*
X170930267Y-84626713D01*
X170985824Y-84467943D01*
X171001780Y-84326328D01*
X171012528Y-84300747D01*
X171011789Y-84299252D01*
X171237471Y-84299252D01*
X171247140Y-84318817D01*
X171248220Y-84326328D01*
X171264175Y-84467938D01*
X171264176Y-84467943D01*
X171319732Y-84626714D01*
X171646447Y-84300000D01*
X171616610Y-84270163D01*
X171850000Y-84270163D01*
X171850000Y-84329837D01*
X171872836Y-84384968D01*
X171915032Y-84427164D01*
X171970163Y-84450000D01*
X172029837Y-84450000D01*
X172084968Y-84427164D01*
X172127164Y-84384968D01*
X172150000Y-84329837D01*
X172150000Y-84299999D01*
X172353553Y-84299999D01*
X172353553Y-84300001D01*
X172680266Y-84626714D01*
X172680267Y-84626713D01*
X172735824Y-84467943D01*
X172754746Y-84300003D01*
X172754746Y-84299996D01*
X172735824Y-84132056D01*
X172680266Y-83973285D01*
X172353553Y-84299999D01*
X172150000Y-84299999D01*
X172150000Y-84270163D01*
X172127164Y-84215032D01*
X172084968Y-84172836D01*
X172029837Y-84150000D01*
X171970163Y-84150000D01*
X171915032Y-84172836D01*
X171872836Y-84215032D01*
X171850000Y-84270163D01*
X171616610Y-84270163D01*
X171319732Y-83973285D01*
X171264176Y-84132053D01*
X171264175Y-84132058D01*
X171248220Y-84273671D01*
X171237471Y-84299252D01*
X171011789Y-84299252D01*
X171002860Y-84281182D01*
X171001780Y-84273671D01*
X170985824Y-84132056D01*
X170930266Y-83973285D01*
X170603553Y-84299999D01*
X170400000Y-84299999D01*
X170400000Y-84270163D01*
X170377164Y-84215032D01*
X170334968Y-84172836D01*
X170279837Y-84150000D01*
X170220163Y-84150000D01*
X170165032Y-84172836D01*
X170122836Y-84215032D01*
X170100000Y-84270163D01*
X169866610Y-84270163D01*
X169569732Y-83973285D01*
X169514176Y-84132053D01*
X169514175Y-84132058D01*
X169498220Y-84273671D01*
X169487471Y-84299252D01*
X169261789Y-84299252D01*
X169252860Y-84281182D01*
X169251780Y-84273671D01*
X169235824Y-84132056D01*
X169180266Y-83973285D01*
X168853553Y-84299999D01*
X168650000Y-84299999D01*
X168650000Y-84270163D01*
X168627164Y-84215032D01*
X168584968Y-84172836D01*
X168529837Y-84150000D01*
X168470163Y-84150000D01*
X168415032Y-84172836D01*
X168372836Y-84215032D01*
X168350000Y-84270163D01*
X168116610Y-84270163D01*
X167819732Y-83973285D01*
X167764176Y-84132053D01*
X167764175Y-84132058D01*
X167745254Y-84299996D01*
X164499362Y-84299996D01*
X164450004Y-84294435D01*
X164449996Y-84294435D01*
X164270750Y-84314630D01*
X164270745Y-84314631D01*
X164100476Y-84374211D01*
X163947737Y-84470184D01*
X163820184Y-84597737D01*
X163724211Y-84750476D01*
X163664631Y-84920745D01*
X163664630Y-84920750D01*
X163644435Y-85099996D01*
X158733210Y-85099996D01*
X158744837Y-84996801D01*
X158744837Y-84996794D01*
X158724641Y-84817548D01*
X158724640Y-84817543D01*
X158665061Y-84647276D01*
X158654089Y-84629815D01*
X158644591Y-84614699D01*
X158625591Y-84547464D01*
X158644593Y-84482752D01*
X158656365Y-84464019D01*
X158704545Y-84326328D01*
X158715942Y-84293759D01*
X158715945Y-84293746D01*
X158736141Y-84114500D01*
X158736141Y-84114493D01*
X158715945Y-83935247D01*
X158715942Y-83935234D01*
X158654065Y-83758402D01*
X158656483Y-83757555D01*
X158647043Y-83700270D01*
X158662737Y-83656136D01*
X158662038Y-83655799D01*
X158665054Y-83649531D01*
X158665061Y-83649522D01*
X158675485Y-83619732D01*
X168173285Y-83619732D01*
X168500000Y-83946447D01*
X168500001Y-83946447D01*
X168826714Y-83619732D01*
X169923285Y-83619732D01*
X170250000Y-83946447D01*
X170250001Y-83946447D01*
X170576714Y-83619732D01*
X171673285Y-83619732D01*
X172000000Y-83946447D01*
X172000001Y-83946447D01*
X172326714Y-83619732D01*
X172167943Y-83564176D01*
X172167938Y-83564175D01*
X172026328Y-83548220D01*
X172000746Y-83537471D01*
X171981182Y-83547140D01*
X171973671Y-83548220D01*
X171832058Y-83564175D01*
X171832053Y-83564176D01*
X171673285Y-83619732D01*
X170576714Y-83619732D01*
X170417943Y-83564176D01*
X170417938Y-83564175D01*
X170276328Y-83548220D01*
X170250746Y-83537471D01*
X170231182Y-83547140D01*
X170223671Y-83548220D01*
X170082058Y-83564175D01*
X170082053Y-83564176D01*
X169923285Y-83619732D01*
X168826714Y-83619732D01*
X168667943Y-83564176D01*
X168667938Y-83564175D01*
X168526328Y-83548220D01*
X168500746Y-83537471D01*
X168481182Y-83547140D01*
X168473671Y-83548220D01*
X168332058Y-83564175D01*
X168332053Y-83564176D01*
X168173285Y-83619732D01*
X158675485Y-83619732D01*
X158724640Y-83479255D01*
X158724641Y-83479249D01*
X158744837Y-83300003D01*
X158744837Y-83299996D01*
X158736980Y-83230266D01*
X168173285Y-83230266D01*
X168332056Y-83285824D01*
X168473671Y-83301780D01*
X168499252Y-83312528D01*
X168518817Y-83302860D01*
X168526328Y-83301780D01*
X168667943Y-83285824D01*
X168826713Y-83230267D01*
X168826714Y-83230266D01*
X169923285Y-83230266D01*
X170082056Y-83285824D01*
X170223671Y-83301780D01*
X170249252Y-83312528D01*
X170268817Y-83302860D01*
X170276328Y-83301780D01*
X170417943Y-83285824D01*
X170576713Y-83230267D01*
X170576714Y-83230266D01*
X171673285Y-83230266D01*
X171832056Y-83285824D01*
X171973671Y-83301780D01*
X171999252Y-83312528D01*
X172018817Y-83302860D01*
X172026328Y-83301780D01*
X172167943Y-83285824D01*
X172326713Y-83230267D01*
X172326714Y-83230266D01*
X172000001Y-82903553D01*
X172000000Y-82903553D01*
X171673285Y-83230266D01*
X170576714Y-83230266D01*
X170250001Y-82903553D01*
X170250000Y-82903553D01*
X169923285Y-83230266D01*
X168826714Y-83230266D01*
X168500001Y-82903553D01*
X168500000Y-82903553D01*
X168173285Y-83230266D01*
X158736980Y-83230266D01*
X158724641Y-83120750D01*
X158724640Y-83120745D01*
X158665060Y-82950476D01*
X158605423Y-82855565D01*
X158569088Y-82797738D01*
X158441534Y-82670184D01*
X158385488Y-82634968D01*
X158288795Y-82574211D01*
X158118526Y-82514631D01*
X158118521Y-82514630D01*
X157939276Y-82494435D01*
X157939268Y-82494435D01*
X157760022Y-82514630D01*
X157760017Y-82514631D01*
X157589748Y-82574211D01*
X157437009Y-82670184D01*
X157309456Y-82797737D01*
X157213483Y-82950476D01*
X157153903Y-83120745D01*
X157153902Y-83120750D01*
X157133707Y-83299996D01*
X157133707Y-83300003D01*
X157153902Y-83479249D01*
X157153903Y-83479254D01*
X157215783Y-83656095D01*
X157213363Y-83656941D01*
X157222804Y-83714227D01*
X157207110Y-83758367D01*
X157207807Y-83758703D01*
X157204786Y-83764975D01*
X157145209Y-83935234D01*
X157145206Y-83935247D01*
X157125011Y-84114493D01*
X157125011Y-84114500D01*
X157145206Y-84293746D01*
X157145207Y-84293751D01*
X157204788Y-84464022D01*
X157225255Y-84496596D01*
X157244255Y-84563833D01*
X157225257Y-84628536D01*
X157213483Y-84647274D01*
X157213481Y-84647279D01*
X157153905Y-84817535D01*
X157153902Y-84817548D01*
X157133707Y-84996794D01*
X157133707Y-84996801D01*
X157153902Y-85176047D01*
X157153905Y-85176060D01*
X157215782Y-85352892D01*
X157213638Y-85353641D01*
X157223232Y-85411959D01*
X157214884Y-85440393D01*
X157215782Y-85440707D01*
X157153905Y-85617538D01*
X157153902Y-85617551D01*
X157133707Y-85796797D01*
X157133707Y-85796804D01*
X157153902Y-85976050D01*
X157153903Y-85976055D01*
X157213483Y-86146324D01*
X157309456Y-86299063D01*
X157408245Y-86397852D01*
X157441730Y-86459175D01*
X157436746Y-86528867D01*
X157408245Y-86573214D01*
X157309456Y-86672002D01*
X157213484Y-86824740D01*
X157213483Y-86824741D01*
X157183187Y-86911321D01*
X157142465Y-86968097D01*
X157107101Y-86987406D01*
X156989752Y-87028468D01*
X156837009Y-87124443D01*
X156709454Y-87251998D01*
X156709450Y-87252003D01*
X156682815Y-87294392D01*
X156630480Y-87340682D01*
X156563941Y-87351639D01*
X156500000Y-87344435D01*
X156499998Y-87344435D01*
X156499996Y-87344435D01*
X156320750Y-87364630D01*
X156320745Y-87364631D01*
X156150476Y-87424211D01*
X155997737Y-87520184D01*
X155870184Y-87647737D01*
X155774211Y-87800476D01*
X155714631Y-87970745D01*
X155714630Y-87970750D01*
X155694435Y-88149996D01*
X144940559Y-88149996D01*
X144899523Y-88124211D01*
X144729254Y-88064631D01*
X144729249Y-88064630D01*
X144550004Y-88044435D01*
X144549996Y-88044435D01*
X144370750Y-88064630D01*
X144370745Y-88064631D01*
X144200476Y-88124211D01*
X144047737Y-88220184D01*
X143920184Y-88347737D01*
X143824211Y-88500476D01*
X143764631Y-88670745D01*
X143764630Y-88670750D01*
X143744435Y-88849996D01*
X137235491Y-88849996D01*
X137235789Y-88849522D01*
X137295368Y-88679255D01*
X137295369Y-88679249D01*
X137315565Y-88500003D01*
X137315565Y-88499996D01*
X137295369Y-88320750D01*
X137295368Y-88320745D01*
X137253614Y-88201420D01*
X137235789Y-88150478D01*
X137139816Y-87997738D01*
X137012262Y-87870184D01*
X136859523Y-87774211D01*
X136689254Y-87714631D01*
X136689249Y-87714630D01*
X136510004Y-87694435D01*
X136509996Y-87694435D01*
X136330750Y-87714630D01*
X136330745Y-87714631D01*
X136160476Y-87774211D01*
X136007737Y-87870184D01*
X135880184Y-87997737D01*
X135784211Y-88150476D01*
X135724631Y-88320745D01*
X135724630Y-88320750D01*
X135704435Y-88499996D01*
X132841915Y-88499996D01*
X132794114Y-88428458D01*
X132794111Y-88428454D01*
X132696545Y-88330888D01*
X132696541Y-88330885D01*
X132581817Y-88254228D01*
X132581804Y-88254221D01*
X132454332Y-88201421D01*
X132454322Y-88201418D01*
X132318995Y-88174500D01*
X132318993Y-88174500D01*
X132181007Y-88174500D01*
X132181005Y-88174500D01*
X132045677Y-88201418D01*
X132045667Y-88201421D01*
X131918195Y-88254221D01*
X131918182Y-88254228D01*
X131803458Y-88330885D01*
X131803454Y-88330888D01*
X131705888Y-88428454D01*
X131705885Y-88428458D01*
X131629228Y-88543182D01*
X131629221Y-88543195D01*
X131576421Y-88670667D01*
X131576418Y-88670677D01*
X131549500Y-88806004D01*
X131549500Y-88806007D01*
X131549500Y-88943993D01*
X131549500Y-88943995D01*
X131549499Y-88943995D01*
X130576355Y-88943995D01*
X130577362Y-84693995D01*
X131549499Y-84693995D01*
X131576418Y-84829322D01*
X131576421Y-84829332D01*
X131629221Y-84956804D01*
X131629228Y-84956817D01*
X131705885Y-85071541D01*
X131705888Y-85071545D01*
X131803454Y-85169111D01*
X131803458Y-85169114D01*
X131918182Y-85245771D01*
X131918195Y-85245778D01*
X132043637Y-85297737D01*
X132045672Y-85298580D01*
X132045676Y-85298580D01*
X132045677Y-85298581D01*
X132181004Y-85325500D01*
X132181007Y-85325500D01*
X132318995Y-85325500D01*
X132410041Y-85307389D01*
X132454328Y-85298580D01*
X132581811Y-85245775D01*
X132696542Y-85169114D01*
X132794114Y-85071542D01*
X132841920Y-84999996D01*
X149694435Y-84999996D01*
X149694435Y-85000003D01*
X149714630Y-85179249D01*
X149714631Y-85179254D01*
X149774211Y-85349523D01*
X149837646Y-85450478D01*
X149870184Y-85502262D01*
X149997738Y-85629816D01*
X150088080Y-85686582D01*
X150103780Y-85696447D01*
X150150478Y-85725789D01*
X150242775Y-85758085D01*
X150320745Y-85785368D01*
X150320750Y-85785369D01*
X150499996Y-85805565D01*
X150500000Y-85805565D01*
X150500004Y-85805565D01*
X150679249Y-85785369D01*
X150679252Y-85785368D01*
X150679255Y-85785368D01*
X150849522Y-85725789D01*
X151002262Y-85629816D01*
X151129816Y-85502262D01*
X151225789Y-85349522D01*
X151285368Y-85179255D01*
X151285729Y-85176053D01*
X151305565Y-85000003D01*
X151305565Y-84999996D01*
X151285369Y-84820750D01*
X151285368Y-84820745D01*
X151270410Y-84777997D01*
X151225789Y-84650478D01*
X151210856Y-84626713D01*
X151166427Y-84556004D01*
X151129816Y-84497738D01*
X151002262Y-84370184D01*
X150969379Y-84349522D01*
X150849523Y-84274211D01*
X150679254Y-84214631D01*
X150679249Y-84214630D01*
X150500004Y-84194435D01*
X150499996Y-84194435D01*
X150320750Y-84214630D01*
X150320745Y-84214631D01*
X150150476Y-84274211D01*
X149997737Y-84370184D01*
X149870184Y-84497737D01*
X149774211Y-84650476D01*
X149714631Y-84820745D01*
X149714630Y-84820750D01*
X149694435Y-84999996D01*
X132841920Y-84999996D01*
X132870775Y-84956811D01*
X132923580Y-84829328D01*
X132933790Y-84777997D01*
X132950500Y-84693995D01*
X132950500Y-84556004D01*
X132923581Y-84420677D01*
X132923580Y-84420676D01*
X132923580Y-84420672D01*
X132908791Y-84384968D01*
X132870778Y-84293195D01*
X132870771Y-84293182D01*
X132794114Y-84178458D01*
X132794111Y-84178454D01*
X132696545Y-84080888D01*
X132696541Y-84080885D01*
X132581817Y-84004228D01*
X132581804Y-84004221D01*
X132454332Y-83951421D01*
X132454322Y-83951418D01*
X132318995Y-83924500D01*
X132318993Y-83924500D01*
X132181007Y-83924500D01*
X132181005Y-83924500D01*
X132045677Y-83951418D01*
X132045667Y-83951421D01*
X131918195Y-84004221D01*
X131918182Y-84004228D01*
X131803458Y-84080885D01*
X131803454Y-84080888D01*
X131705888Y-84178454D01*
X131705885Y-84178458D01*
X131629228Y-84293182D01*
X131629221Y-84293195D01*
X131576421Y-84420667D01*
X131576418Y-84420677D01*
X131549500Y-84556004D01*
X131549500Y-84556007D01*
X131549500Y-84693993D01*
X131549500Y-84693995D01*
X131549499Y-84693995D01*
X130577362Y-84693995D01*
X130577704Y-83249996D01*
X135944435Y-83249996D01*
X135944435Y-83250003D01*
X135964630Y-83429249D01*
X135964631Y-83429254D01*
X136024211Y-83599523D01*
X136096248Y-83714168D01*
X136120184Y-83752262D01*
X136247738Y-83879816D01*
X136318852Y-83924500D01*
X136361696Y-83951421D01*
X136400478Y-83975789D01*
X136481752Y-84004228D01*
X136570745Y-84035368D01*
X136570750Y-84035369D01*
X136749996Y-84055565D01*
X136750000Y-84055565D01*
X136750004Y-84055565D01*
X136929249Y-84035369D01*
X136929252Y-84035368D01*
X136929255Y-84035368D01*
X137099522Y-83975789D01*
X137252262Y-83879816D01*
X137379816Y-83752262D01*
X137475789Y-83599522D01*
X137535368Y-83429255D01*
X137535369Y-83429249D01*
X137555565Y-83250003D01*
X137555565Y-83249996D01*
X137535369Y-83070750D01*
X137535368Y-83070745D01*
X137475788Y-82900476D01*
X137397905Y-82776527D01*
X137379816Y-82747738D01*
X137252262Y-82620184D01*
X137099523Y-82524211D01*
X136929254Y-82464631D01*
X136929249Y-82464630D01*
X136750004Y-82444435D01*
X136749996Y-82444435D01*
X136570750Y-82464630D01*
X136570745Y-82464631D01*
X136400476Y-82524211D01*
X136247737Y-82620184D01*
X136120184Y-82747737D01*
X136024211Y-82900476D01*
X135964631Y-83070745D01*
X135964630Y-83070750D01*
X135944435Y-83249996D01*
X130577704Y-83249996D01*
X130577954Y-82193995D01*
X131549499Y-82193995D01*
X131576418Y-82329322D01*
X131576421Y-82329332D01*
X131629221Y-82456804D01*
X131629228Y-82456817D01*
X131705885Y-82571541D01*
X131705888Y-82571545D01*
X131803454Y-82669111D01*
X131803458Y-82669114D01*
X131918182Y-82745771D01*
X131918195Y-82745778D01*
X132043637Y-82797737D01*
X132045672Y-82798580D01*
X132045676Y-82798580D01*
X132045677Y-82798581D01*
X132181004Y-82825500D01*
X132181007Y-82825500D01*
X132318995Y-82825500D01*
X132410041Y-82807389D01*
X132454328Y-82798580D01*
X132581811Y-82745775D01*
X132696542Y-82669114D01*
X132794114Y-82571542D01*
X132870775Y-82456811D01*
X132923580Y-82329328D01*
X132943487Y-82229249D01*
X132950500Y-82193995D01*
X132950500Y-82056004D01*
X132949305Y-82049996D01*
X138544435Y-82049996D01*
X138544435Y-82050003D01*
X138564630Y-82229249D01*
X138564631Y-82229254D01*
X138624211Y-82399523D01*
X138718293Y-82549252D01*
X138720184Y-82552262D01*
X138847738Y-82679816D01*
X138908409Y-82717938D01*
X138955833Y-82747737D01*
X139000478Y-82775789D01*
X139065611Y-82798580D01*
X139170745Y-82835368D01*
X139170750Y-82835369D01*
X139349996Y-82855565D01*
X139350000Y-82855565D01*
X139350004Y-82855565D01*
X139529249Y-82835369D01*
X139529252Y-82835368D01*
X139529255Y-82835368D01*
X139699522Y-82775789D01*
X139852262Y-82679816D01*
X139979816Y-82552262D01*
X140075789Y-82399522D01*
X140135368Y-82229255D01*
X140138919Y-82197738D01*
X140149932Y-82100000D01*
X161844659Y-82100000D01*
X161863975Y-82296129D01*
X161863976Y-82296132D01*
X161911719Y-82453520D01*
X161921188Y-82484733D01*
X162014086Y-82658532D01*
X162014090Y-82658539D01*
X162139116Y-82810883D01*
X162291460Y-82935909D01*
X162291467Y-82935913D01*
X162465266Y-83028811D01*
X162465269Y-83028811D01*
X162465273Y-83028814D01*
X162653868Y-83086024D01*
X162850000Y-83105341D01*
X163046132Y-83086024D01*
X163234727Y-83028814D01*
X163408538Y-82935910D01*
X163560883Y-82810883D01*
X163685910Y-82658538D01*
X163743927Y-82549996D01*
X167745254Y-82549996D01*
X167745254Y-82550003D01*
X167764175Y-82717938D01*
X167764176Y-82717943D01*
X167819732Y-82876714D01*
X168146447Y-82550000D01*
X168116610Y-82520163D01*
X168350000Y-82520163D01*
X168350000Y-82579837D01*
X168372836Y-82634968D01*
X168415032Y-82677164D01*
X168470163Y-82700000D01*
X168529837Y-82700000D01*
X168584968Y-82677164D01*
X168627164Y-82634968D01*
X168650000Y-82579837D01*
X168650000Y-82549999D01*
X168853553Y-82549999D01*
X168853553Y-82550001D01*
X169180266Y-82876714D01*
X169180267Y-82876713D01*
X169235824Y-82717943D01*
X169251780Y-82576328D01*
X169262528Y-82550747D01*
X169261789Y-82549252D01*
X169487471Y-82549252D01*
X169497140Y-82568817D01*
X169498220Y-82576328D01*
X169514175Y-82717938D01*
X169514176Y-82717943D01*
X169569732Y-82876714D01*
X169896447Y-82550000D01*
X169866610Y-82520163D01*
X170100000Y-82520163D01*
X170100000Y-82579837D01*
X170122836Y-82634968D01*
X170165032Y-82677164D01*
X170220163Y-82700000D01*
X170279837Y-82700000D01*
X170334968Y-82677164D01*
X170377164Y-82634968D01*
X170400000Y-82579837D01*
X170400000Y-82549999D01*
X170603553Y-82549999D01*
X170603553Y-82550001D01*
X170930266Y-82876714D01*
X170930267Y-82876713D01*
X170985824Y-82717943D01*
X171001780Y-82576328D01*
X171012528Y-82550747D01*
X171011789Y-82549252D01*
X171237471Y-82549252D01*
X171247140Y-82568817D01*
X171248220Y-82576328D01*
X171264175Y-82717938D01*
X171264176Y-82717943D01*
X171319732Y-82876714D01*
X171646447Y-82550000D01*
X171616610Y-82520163D01*
X171850000Y-82520163D01*
X171850000Y-82579837D01*
X171872836Y-82634968D01*
X171915032Y-82677164D01*
X171970163Y-82700000D01*
X172029837Y-82700000D01*
X172084968Y-82677164D01*
X172127164Y-82634968D01*
X172150000Y-82579837D01*
X172150000Y-82549999D01*
X172353553Y-82549999D01*
X172353553Y-82550001D01*
X172680266Y-82876714D01*
X172680267Y-82876713D01*
X172735824Y-82717943D01*
X172754746Y-82550003D01*
X172754746Y-82549996D01*
X172735824Y-82382056D01*
X172698104Y-82274261D01*
X174594435Y-82274261D01*
X174594435Y-82274268D01*
X174614630Y-82453514D01*
X174614631Y-82453519D01*
X174674211Y-82623788D01*
X174709416Y-82679816D01*
X174769720Y-82775789D01*
X174773889Y-82782423D01*
X174772642Y-82783206D01*
X174796042Y-82840526D01*
X174790254Y-82889647D01*
X174790446Y-82889691D01*
X174790040Y-82891467D01*
X174789731Y-82894095D01*
X174788896Y-82896481D01*
X174768700Y-83075731D01*
X174768700Y-83075738D01*
X174788895Y-83254984D01*
X174788896Y-83254989D01*
X174848476Y-83425258D01*
X174944449Y-83577997D01*
X174981381Y-83614929D01*
X175014866Y-83676252D01*
X175009882Y-83745944D01*
X174998694Y-83768582D01*
X174899648Y-83926211D01*
X174840068Y-84096480D01*
X174840067Y-84096485D01*
X174819872Y-84275731D01*
X174819872Y-84275738D01*
X174840067Y-84454984D01*
X174840068Y-84454989D01*
X174899648Y-84625258D01*
X174978328Y-84750476D01*
X174995621Y-84777997D01*
X175123175Y-84905551D01*
X175147364Y-84920750D01*
X175273489Y-85000000D01*
X175275915Y-85001524D01*
X175422625Y-85052860D01*
X175446182Y-85061103D01*
X175446187Y-85061104D01*
X175625433Y-85081300D01*
X175625437Y-85081300D01*
X175625441Y-85081300D01*
X175804686Y-85061104D01*
X175804689Y-85061103D01*
X175804692Y-85061103D01*
X175974959Y-85001524D01*
X176127699Y-84905551D01*
X176255253Y-84777997D01*
X176351226Y-84625257D01*
X176410805Y-84454990D01*
X176410806Y-84454984D01*
X176431002Y-84275738D01*
X176431002Y-84275731D01*
X176410806Y-84096485D01*
X176410805Y-84096480D01*
X176389421Y-84035368D01*
X176351226Y-83926213D01*
X176255253Y-83773473D01*
X176218320Y-83736540D01*
X176184835Y-83675217D01*
X176189819Y-83605525D01*
X176201008Y-83582886D01*
X176204078Y-83577999D01*
X176204081Y-83577997D01*
X176280364Y-83456592D01*
X176300053Y-83425259D01*
X176311224Y-83393334D01*
X176359633Y-83254990D01*
X176360195Y-83250003D01*
X176379830Y-83075738D01*
X176379830Y-83075731D01*
X176359634Y-82896485D01*
X176359633Y-82896480D01*
X176329681Y-82810883D01*
X176300054Y-82726213D01*
X176294854Y-82717938D01*
X176283580Y-82699996D01*
X180594437Y-82699996D01*
X180594437Y-82700003D01*
X180614632Y-82879249D01*
X180614633Y-82879254D01*
X180674213Y-83049523D01*
X180770186Y-83202262D01*
X180830243Y-83262319D01*
X180863728Y-83323642D01*
X180858744Y-83393334D01*
X180830243Y-83437681D01*
X180770186Y-83497737D01*
X180674213Y-83650476D01*
X180614633Y-83820745D01*
X180614632Y-83820750D01*
X180594437Y-83999996D01*
X180594437Y-84000003D01*
X180614632Y-84179249D01*
X180614633Y-84179254D01*
X180674213Y-84349523D01*
X180746158Y-84464022D01*
X180770186Y-84502262D01*
X180897740Y-84629816D01*
X181050480Y-84725789D01*
X181199682Y-84777997D01*
X181220747Y-84785368D01*
X181220752Y-84785369D01*
X181399998Y-84805565D01*
X181400002Y-84805565D01*
X181400006Y-84805565D01*
X181579251Y-84785369D01*
X181579254Y-84785368D01*
X181579257Y-84785368D01*
X181749524Y-84725789D01*
X181902264Y-84629816D01*
X182029818Y-84502262D01*
X182125791Y-84349522D01*
X182185370Y-84179255D01*
X182185460Y-84178458D01*
X182205567Y-84000003D01*
X182205567Y-83999996D01*
X182185371Y-83820750D01*
X182185370Y-83820745D01*
X182165855Y-83764975D01*
X182125791Y-83650478D01*
X182125584Y-83650149D01*
X182029817Y-83497737D01*
X181969761Y-83437681D01*
X181936276Y-83376358D01*
X181941260Y-83306666D01*
X181969761Y-83262319D01*
X181982084Y-83249996D01*
X182029818Y-83202262D01*
X182125791Y-83049522D01*
X182185370Y-82879255D01*
X182185371Y-82879249D01*
X182205567Y-82700003D01*
X182205567Y-82699996D01*
X182185371Y-82520750D01*
X182185370Y-82520745D01*
X182165735Y-82464631D01*
X182125791Y-82350478D01*
X182029818Y-82197738D01*
X181902264Y-82070184D01*
X181749525Y-81974211D01*
X181579256Y-81914631D01*
X181579251Y-81914630D01*
X181400006Y-81894435D01*
X181399998Y-81894435D01*
X181220752Y-81914630D01*
X181220747Y-81914631D01*
X181050478Y-81974211D01*
X180897739Y-82070184D01*
X180770186Y-82197737D01*
X180674213Y-82350476D01*
X180614633Y-82520745D01*
X180614632Y-82520750D01*
X180594437Y-82699996D01*
X176283580Y-82699996D01*
X176205875Y-82576328D01*
X176204081Y-82573473D01*
X176204080Y-82573472D01*
X176200376Y-82567577D01*
X176201624Y-82566792D01*
X176178223Y-82509492D01*
X176184013Y-82460346D01*
X176183820Y-82460302D01*
X176184230Y-82458505D01*
X176184538Y-82455891D01*
X176185368Y-82453520D01*
X176196978Y-82350476D01*
X176205565Y-82274268D01*
X176205565Y-82274261D01*
X176185369Y-82095015D01*
X176185368Y-82095010D01*
X176143650Y-81975788D01*
X176125789Y-81924743D01*
X176112672Y-81903868D01*
X176050904Y-81805565D01*
X176029816Y-81772003D01*
X175902262Y-81644449D01*
X175830763Y-81599523D01*
X175749523Y-81548476D01*
X175579254Y-81488896D01*
X175579249Y-81488895D01*
X175400004Y-81468700D01*
X175399996Y-81468700D01*
X175220750Y-81488895D01*
X175220745Y-81488896D01*
X175050476Y-81548476D01*
X174897737Y-81644449D01*
X174770184Y-81772002D01*
X174674211Y-81924741D01*
X174614631Y-82095010D01*
X174614630Y-82095015D01*
X174594435Y-82274261D01*
X172698104Y-82274261D01*
X172680266Y-82223285D01*
X172353553Y-82549999D01*
X172150000Y-82549999D01*
X172150000Y-82520163D01*
X172127164Y-82465032D01*
X172084968Y-82422836D01*
X172029837Y-82400000D01*
X171970163Y-82400000D01*
X171915032Y-82422836D01*
X171872836Y-82465032D01*
X171850000Y-82520163D01*
X171616610Y-82520163D01*
X171319732Y-82223285D01*
X171264176Y-82382053D01*
X171264175Y-82382058D01*
X171248220Y-82523671D01*
X171237471Y-82549252D01*
X171011789Y-82549252D01*
X171002860Y-82531182D01*
X171001780Y-82523671D01*
X170985824Y-82382056D01*
X170930266Y-82223285D01*
X170603553Y-82549999D01*
X170400000Y-82549999D01*
X170400000Y-82520163D01*
X170377164Y-82465032D01*
X170334968Y-82422836D01*
X170279837Y-82400000D01*
X170220163Y-82400000D01*
X170165032Y-82422836D01*
X170122836Y-82465032D01*
X170100000Y-82520163D01*
X169866610Y-82520163D01*
X169569732Y-82223285D01*
X169514176Y-82382053D01*
X169514175Y-82382058D01*
X169498220Y-82523671D01*
X169487471Y-82549252D01*
X169261789Y-82549252D01*
X169252860Y-82531182D01*
X169251780Y-82523671D01*
X169235824Y-82382056D01*
X169180266Y-82223285D01*
X168853553Y-82549999D01*
X168650000Y-82549999D01*
X168650000Y-82520163D01*
X168627164Y-82465032D01*
X168584968Y-82422836D01*
X168529837Y-82400000D01*
X168470163Y-82400000D01*
X168415032Y-82422836D01*
X168372836Y-82465032D01*
X168350000Y-82520163D01*
X168116610Y-82520163D01*
X167819732Y-82223285D01*
X167764176Y-82382053D01*
X167764175Y-82382058D01*
X167745254Y-82549996D01*
X163743927Y-82549996D01*
X163759873Y-82520163D01*
X163778811Y-82484733D01*
X163778811Y-82484732D01*
X163778814Y-82484727D01*
X163836024Y-82296132D01*
X163855341Y-82100000D01*
X163836024Y-81903868D01*
X163825669Y-81869732D01*
X168173285Y-81869732D01*
X168500000Y-82196447D01*
X168500001Y-82196447D01*
X168826714Y-81869732D01*
X169923285Y-81869732D01*
X170250000Y-82196447D01*
X170250001Y-82196447D01*
X170576714Y-81869732D01*
X171673285Y-81869732D01*
X172000000Y-82196447D01*
X172000001Y-82196447D01*
X172326714Y-81869732D01*
X172167943Y-81814176D01*
X172167938Y-81814175D01*
X172000004Y-81795254D01*
X171999996Y-81795254D01*
X171832058Y-81814175D01*
X171832053Y-81814176D01*
X171673285Y-81869732D01*
X170576714Y-81869732D01*
X170417943Y-81814176D01*
X170417938Y-81814175D01*
X170250004Y-81795254D01*
X170249996Y-81795254D01*
X170082058Y-81814175D01*
X170082053Y-81814176D01*
X169923285Y-81869732D01*
X168826714Y-81869732D01*
X168667943Y-81814176D01*
X168667938Y-81814175D01*
X168500004Y-81795254D01*
X168499996Y-81795254D01*
X168332058Y-81814175D01*
X168332053Y-81814176D01*
X168173285Y-81869732D01*
X163825669Y-81869732D01*
X163778814Y-81715273D01*
X163778811Y-81715269D01*
X163778811Y-81715266D01*
X163685913Y-81541467D01*
X163685909Y-81541460D01*
X163560883Y-81389116D01*
X163408539Y-81264090D01*
X163408532Y-81264086D01*
X163234733Y-81171188D01*
X163234727Y-81171186D01*
X163046132Y-81113976D01*
X163046129Y-81113975D01*
X162850000Y-81094659D01*
X162653870Y-81113975D01*
X162465266Y-81171188D01*
X162291467Y-81264086D01*
X162291460Y-81264090D01*
X162139116Y-81389116D01*
X162014090Y-81541460D01*
X162014086Y-81541467D01*
X161921188Y-81715266D01*
X161863975Y-81903870D01*
X161844659Y-82100000D01*
X140149932Y-82100000D01*
X140155565Y-82050003D01*
X140155565Y-82049996D01*
X140135369Y-81870750D01*
X140135368Y-81870745D01*
X140115573Y-81814175D01*
X140075789Y-81700478D01*
X140061950Y-81678454D01*
X140012354Y-81599522D01*
X139979816Y-81547738D01*
X139852262Y-81420184D01*
X139699523Y-81324211D01*
X139529254Y-81264631D01*
X139529249Y-81264630D01*
X139399362Y-81249996D01*
X156194435Y-81249996D01*
X156194435Y-81250003D01*
X156214630Y-81429249D01*
X156214631Y-81429254D01*
X156274211Y-81599523D01*
X156337646Y-81700478D01*
X156370184Y-81752262D01*
X156497738Y-81879816D01*
X156562752Y-81920667D01*
X156647966Y-81974211D01*
X156650478Y-81975789D01*
X156820745Y-82035368D01*
X156820750Y-82035369D01*
X156999996Y-82055565D01*
X157000000Y-82055565D01*
X157000004Y-82055565D01*
X157179249Y-82035369D01*
X157179252Y-82035368D01*
X157179255Y-82035368D01*
X157349522Y-81975789D01*
X157502262Y-81879816D01*
X157629816Y-81752262D01*
X157725789Y-81599522D01*
X157785368Y-81429255D01*
X157797016Y-81325873D01*
X157824080Y-81261464D01*
X157854258Y-81234769D01*
X158002262Y-81141773D01*
X158018215Y-81125818D01*
X158079536Y-81092333D01*
X158149228Y-81097316D01*
X158205162Y-81139186D01*
X158210890Y-81147526D01*
X158220181Y-81162312D01*
X158347735Y-81289866D01*
X158500475Y-81385839D01*
X158610962Y-81424500D01*
X158670742Y-81445418D01*
X158670747Y-81445419D01*
X158849993Y-81465615D01*
X158849997Y-81465615D01*
X158850001Y-81465615D01*
X159029246Y-81445419D01*
X159029249Y-81445418D01*
X159029252Y-81445418D01*
X159199519Y-81385839D01*
X159352259Y-81289866D01*
X159479813Y-81162312D01*
X159575786Y-81009572D01*
X159635365Y-80839305D01*
X159637457Y-80820745D01*
X159656342Y-80653130D01*
X159659174Y-80653449D01*
X159675247Y-80598712D01*
X159728051Y-80552957D01*
X159765673Y-80542531D01*
X159829255Y-80535368D01*
X159999522Y-80475789D01*
X160152262Y-80379816D01*
X160279816Y-80252262D01*
X160375789Y-80099522D01*
X160414060Y-79990147D01*
X160442858Y-79949996D01*
X176594435Y-79949996D01*
X176594435Y-79950003D01*
X176614630Y-80129249D01*
X176614631Y-80129254D01*
X176674211Y-80299523D01*
X176718611Y-80370184D01*
X176770184Y-80452262D01*
X176897738Y-80579816D01*
X176927811Y-80598712D01*
X177025429Y-80660050D01*
X177050478Y-80675789D01*
X177220745Y-80735368D01*
X177220750Y-80735369D01*
X177399996Y-80755565D01*
X177400000Y-80755565D01*
X177400004Y-80755565D01*
X177579249Y-80735369D01*
X177579252Y-80735368D01*
X177579255Y-80735368D01*
X177749522Y-80675789D01*
X177902262Y-80579816D01*
X178029816Y-80452262D01*
X178125789Y-80299522D01*
X178185368Y-80129255D01*
X178185369Y-80129249D01*
X178205565Y-79950003D01*
X178205565Y-79949996D01*
X178185369Y-79770750D01*
X178185368Y-79770745D01*
X178154942Y-79683793D01*
X178125789Y-79600478D01*
X178116295Y-79585369D01*
X178029815Y-79447737D01*
X177902262Y-79320184D01*
X177749523Y-79224211D01*
X177579254Y-79164631D01*
X177579249Y-79164630D01*
X177400004Y-79144435D01*
X177399996Y-79144435D01*
X177220750Y-79164630D01*
X177220745Y-79164631D01*
X177050476Y-79224211D01*
X176897737Y-79320184D01*
X176770184Y-79447737D01*
X176674211Y-79600476D01*
X176614631Y-79770745D01*
X176614630Y-79770750D01*
X176594435Y-79949996D01*
X160442858Y-79949996D01*
X160454782Y-79933372D01*
X160490146Y-79914060D01*
X160599522Y-79875789D01*
X160752262Y-79779816D01*
X160879816Y-79652262D01*
X160975789Y-79499522D01*
X161035368Y-79329255D01*
X161036390Y-79320184D01*
X161055565Y-79150003D01*
X161055565Y-79149996D01*
X161035369Y-78970750D01*
X161035368Y-78970745D01*
X161001589Y-78874211D01*
X160975789Y-78800478D01*
X160940372Y-78744113D01*
X160879815Y-78647737D01*
X160752262Y-78520184D01*
X160599523Y-78424211D01*
X160429254Y-78364631D01*
X160429249Y-78364630D01*
X160250004Y-78344435D01*
X160249996Y-78344435D01*
X160070750Y-78364630D01*
X160070739Y-78364633D01*
X160005136Y-78387588D01*
X159935357Y-78391149D01*
X159874731Y-78356419D01*
X159847141Y-78311499D01*
X159825790Y-78250479D01*
X159741094Y-78115687D01*
X159729816Y-78097738D01*
X159602262Y-77970184D01*
X159602260Y-77970182D01*
X159596812Y-77965837D01*
X159598063Y-77964267D01*
X159558301Y-77919301D01*
X159547352Y-77880541D01*
X159527597Y-77705206D01*
X159527596Y-77705201D01*
X159527130Y-77703868D01*
X159468017Y-77534934D01*
X159464075Y-77528661D01*
X159427481Y-77470422D01*
X159372044Y-77382194D01*
X159244490Y-77254640D01*
X159158292Y-77200478D01*
X159091751Y-77158667D01*
X158921482Y-77099087D01*
X158921477Y-77099086D01*
X158742232Y-77078891D01*
X158742231Y-77078891D01*
X158742229Y-77078891D01*
X158742228Y-77078891D01*
X158714937Y-77081965D01*
X158705634Y-77083014D01*
X158636812Y-77070958D01*
X158585433Y-77023608D01*
X158567810Y-76955997D01*
X158585513Y-76897912D01*
X158585203Y-76897763D01*
X158586171Y-76895751D01*
X158586762Y-76893815D01*
X158588222Y-76891491D01*
X158588223Y-76891490D01*
X158647802Y-76721223D01*
X158649141Y-76709331D01*
X158676205Y-76644918D01*
X158733798Y-76605360D01*
X158786245Y-76599991D01*
X158822516Y-76604078D01*
X158835712Y-76605565D01*
X158835713Y-76605565D01*
X158835716Y-76605565D01*
X159014962Y-76585369D01*
X159014965Y-76585368D01*
X159014968Y-76585368D01*
X159185235Y-76525789D01*
X159337975Y-76429816D01*
X159465529Y-76302262D01*
X159561502Y-76149522D01*
X159621081Y-75979255D01*
X159621082Y-75979249D01*
X159641278Y-75800003D01*
X159641278Y-75799996D01*
X159621082Y-75620750D01*
X159621081Y-75620745D01*
X159606590Y-75579332D01*
X159561502Y-75450478D01*
X159559780Y-75447738D01*
X159479985Y-75320745D01*
X159465529Y-75297738D01*
X159337975Y-75170184D01*
X159329139Y-75164632D01*
X159185236Y-75074211D01*
X159014967Y-75014631D01*
X159014962Y-75014630D01*
X158835717Y-74994435D01*
X158835709Y-74994435D01*
X158656463Y-75014630D01*
X158656458Y-75014631D01*
X158486189Y-75074211D01*
X158333450Y-75170184D01*
X158205897Y-75297737D01*
X158109923Y-75450478D01*
X158050343Y-75620750D01*
X158049004Y-75632640D01*
X158021937Y-75697054D01*
X157964342Y-75736609D01*
X157911901Y-75741976D01*
X157862438Y-75736403D01*
X157862430Y-75736403D01*
X157683184Y-75756598D01*
X157683179Y-75756599D01*
X157512910Y-75816179D01*
X157360171Y-75912152D01*
X157232618Y-76039705D01*
X157136645Y-76192444D01*
X157077065Y-76362713D01*
X157077064Y-76362718D01*
X157056869Y-76541964D01*
X157056869Y-76541971D01*
X157077064Y-76721217D01*
X157077065Y-76721222D01*
X157136645Y-76891491D01*
X157219660Y-77023608D01*
X157232618Y-77044230D01*
X157360172Y-77171784D01*
X157407339Y-77201421D01*
X157491380Y-77254228D01*
X157512912Y-77267757D01*
X157650931Y-77316052D01*
X157683179Y-77327336D01*
X157683184Y-77327337D01*
X157862430Y-77347533D01*
X157862434Y-77347533D01*
X157862435Y-77347533D01*
X157871634Y-77346496D01*
X157899025Y-77343410D01*
X157967846Y-77355464D01*
X158019226Y-77402812D01*
X158036851Y-77470422D01*
X158019152Y-77528513D01*
X158019459Y-77528661D01*
X158018500Y-77530650D01*
X158017909Y-77532593D01*
X158016439Y-77534931D01*
X157956859Y-77705201D01*
X157956858Y-77705206D01*
X157936663Y-77884452D01*
X157936663Y-77884459D01*
X157956858Y-78063705D01*
X157956859Y-78063710D01*
X158016439Y-78233979D01*
X158112412Y-78386718D01*
X158239965Y-78514271D01*
X158245412Y-78518615D01*
X158244158Y-78520186D01*
X158283918Y-78565136D01*
X158294875Y-78603913D01*
X158307626Y-78717083D01*
X158295571Y-78785904D01*
X158248222Y-78837284D01*
X158225361Y-78848007D01*
X158150480Y-78874209D01*
X157997737Y-78970184D01*
X157870184Y-79097737D01*
X157774211Y-79250476D01*
X157714631Y-79420745D01*
X157714630Y-79420749D01*
X157694043Y-79603471D01*
X157666976Y-79667885D01*
X157609382Y-79707440D01*
X157556940Y-79712807D01*
X157500004Y-79706392D01*
X157499996Y-79706392D01*
X157320750Y-79726587D01*
X157320745Y-79726588D01*
X157150476Y-79786168D01*
X156997737Y-79882141D01*
X156870184Y-80009694D01*
X156774210Y-80162435D01*
X156714630Y-80332707D01*
X156702983Y-80436081D01*
X156675916Y-80500495D01*
X156645735Y-80527191D01*
X156497737Y-80620184D01*
X156370184Y-80747737D01*
X156274211Y-80900476D01*
X156214631Y-81070745D01*
X156214630Y-81070750D01*
X156194435Y-81249996D01*
X139399362Y-81249996D01*
X139350004Y-81244435D01*
X139349996Y-81244435D01*
X139170750Y-81264630D01*
X139170745Y-81264631D01*
X139000476Y-81324211D01*
X138847737Y-81420184D01*
X138720184Y-81547737D01*
X138624211Y-81700476D01*
X138564631Y-81870745D01*
X138564630Y-81870750D01*
X138544435Y-82049996D01*
X132949305Y-82049996D01*
X132923581Y-81920677D01*
X132923580Y-81920676D01*
X132923580Y-81920672D01*
X132921077Y-81914630D01*
X132870778Y-81793195D01*
X132870771Y-81793182D01*
X132794114Y-81678458D01*
X132794111Y-81678454D01*
X132696545Y-81580888D01*
X132696541Y-81580885D01*
X132581817Y-81504228D01*
X132581804Y-81504221D01*
X132454332Y-81451421D01*
X132454322Y-81451418D01*
X132318995Y-81424500D01*
X132318993Y-81424500D01*
X132181007Y-81424500D01*
X132181005Y-81424500D01*
X132045677Y-81451418D01*
X132045667Y-81451421D01*
X131918195Y-81504221D01*
X131918182Y-81504228D01*
X131803458Y-81580885D01*
X131803454Y-81580888D01*
X131705888Y-81678454D01*
X131705885Y-81678458D01*
X131629228Y-81793182D01*
X131629221Y-81793195D01*
X131576421Y-81920667D01*
X131576418Y-81920677D01*
X131549500Y-82056004D01*
X131549500Y-82056007D01*
X131549500Y-82193993D01*
X131549500Y-82193995D01*
X131549499Y-82193995D01*
X130577954Y-82193995D01*
X130578237Y-80999996D01*
X135694435Y-80999996D01*
X135694435Y-81000003D01*
X135714630Y-81179249D01*
X135714631Y-81179254D01*
X135774211Y-81349523D01*
X135861785Y-81488895D01*
X135870184Y-81502262D01*
X135997738Y-81629816D01*
X136075145Y-81678454D01*
X136133730Y-81715266D01*
X136150478Y-81725789D01*
X136282547Y-81772002D01*
X136320745Y-81785368D01*
X136320750Y-81785369D01*
X136499996Y-81805565D01*
X136500000Y-81805565D01*
X136500004Y-81805565D01*
X136679249Y-81785369D01*
X136679252Y-81785368D01*
X136679255Y-81785368D01*
X136849522Y-81725789D01*
X137002262Y-81629816D01*
X137129816Y-81502262D01*
X137225789Y-81349522D01*
X137285368Y-81179255D01*
X137287277Y-81162312D01*
X137305565Y-81000003D01*
X137305565Y-80999996D01*
X137285369Y-80820750D01*
X137285368Y-80820745D01*
X137225789Y-80650478D01*
X137225188Y-80649522D01*
X137157961Y-80542530D01*
X137129816Y-80497738D01*
X137002262Y-80370184D01*
X136890570Y-80300003D01*
X136849523Y-80274211D01*
X136679254Y-80214631D01*
X136679249Y-80214630D01*
X136500004Y-80194435D01*
X136499996Y-80194435D01*
X136320750Y-80214630D01*
X136320745Y-80214631D01*
X136150476Y-80274211D01*
X135997737Y-80370184D01*
X135870184Y-80497737D01*
X135774211Y-80650476D01*
X135714631Y-80820745D01*
X135714630Y-80820750D01*
X135694435Y-80999996D01*
X130578237Y-80999996D01*
X130578961Y-77943995D01*
X131549499Y-77943995D01*
X131576418Y-78079322D01*
X131576421Y-78079332D01*
X131629221Y-78206804D01*
X131629228Y-78206817D01*
X131705885Y-78321541D01*
X131705888Y-78321545D01*
X131803454Y-78419111D01*
X131803458Y-78419114D01*
X131918182Y-78495771D01*
X131918195Y-78495778D01*
X132045667Y-78548578D01*
X132045672Y-78548580D01*
X132045676Y-78548580D01*
X132045677Y-78548581D01*
X132181004Y-78575500D01*
X132181007Y-78575500D01*
X132318995Y-78575500D01*
X132437627Y-78551902D01*
X132454328Y-78548580D01*
X132581811Y-78495775D01*
X132696542Y-78419114D01*
X132794114Y-78321542D01*
X132870775Y-78206811D01*
X132923580Y-78079328D01*
X132936449Y-78014630D01*
X132950500Y-77943995D01*
X132950500Y-77900000D01*
X142494659Y-77900000D01*
X142513975Y-78096129D01*
X142513976Y-78096132D01*
X142568474Y-78275788D01*
X142571188Y-78284733D01*
X142664086Y-78458532D01*
X142664090Y-78458539D01*
X142789116Y-78610883D01*
X142941460Y-78735909D01*
X142941467Y-78735913D01*
X143115266Y-78828811D01*
X143115269Y-78828811D01*
X143115273Y-78828814D01*
X143303868Y-78886024D01*
X143500000Y-78905341D01*
X143696132Y-78886024D01*
X143884727Y-78828814D01*
X143965006Y-78785904D01*
X144016547Y-78758355D01*
X144084949Y-78744113D01*
X144133453Y-78758355D01*
X144211371Y-78800003D01*
X144265273Y-78828814D01*
X144453868Y-78886024D01*
X144650000Y-78905341D01*
X144846132Y-78886024D01*
X145034727Y-78828814D01*
X145208538Y-78735910D01*
X145360883Y-78610883D01*
X145485910Y-78458538D01*
X145559136Y-78321542D01*
X145578811Y-78284733D01*
X145578811Y-78284732D01*
X145578814Y-78284727D01*
X145636024Y-78096132D01*
X145655341Y-77900000D01*
X145636024Y-77703868D01*
X145578814Y-77515273D01*
X145578811Y-77515269D01*
X145578811Y-77515266D01*
X145485913Y-77341467D01*
X145485909Y-77341460D01*
X145360883Y-77189116D01*
X145208539Y-77064090D01*
X145208532Y-77064086D01*
X145034733Y-76971188D01*
X145034727Y-76971186D01*
X144846132Y-76913976D01*
X144846129Y-76913975D01*
X144650000Y-76894659D01*
X144453870Y-76913975D01*
X144265266Y-76971188D01*
X144133453Y-77041644D01*
X144065050Y-77055886D01*
X144016547Y-77041644D01*
X143884733Y-76971188D01*
X143884727Y-76971186D01*
X143696132Y-76913976D01*
X143696129Y-76913975D01*
X143500000Y-76894659D01*
X143303870Y-76913975D01*
X143115266Y-76971188D01*
X142941467Y-77064086D01*
X142941460Y-77064090D01*
X142789116Y-77189116D01*
X142664090Y-77341460D01*
X142664086Y-77341467D01*
X142571188Y-77515266D01*
X142513975Y-77703870D01*
X142494659Y-77900000D01*
X132950500Y-77900000D01*
X132950500Y-77806004D01*
X132923581Y-77670677D01*
X132923580Y-77670676D01*
X132923580Y-77670672D01*
X132899867Y-77613424D01*
X132870778Y-77543195D01*
X132870771Y-77543182D01*
X132794114Y-77428458D01*
X132794111Y-77428454D01*
X132696545Y-77330888D01*
X132696541Y-77330885D01*
X132581817Y-77254228D01*
X132581804Y-77254221D01*
X132454332Y-77201421D01*
X132454322Y-77201418D01*
X132318995Y-77174500D01*
X132318993Y-77174500D01*
X132181007Y-77174500D01*
X132181005Y-77174500D01*
X132045677Y-77201418D01*
X132045667Y-77201421D01*
X131918195Y-77254221D01*
X131918182Y-77254228D01*
X131803458Y-77330885D01*
X131803454Y-77330888D01*
X131705888Y-77428454D01*
X131705885Y-77428458D01*
X131629228Y-77543182D01*
X131629221Y-77543195D01*
X131576421Y-77670667D01*
X131576418Y-77670677D01*
X131549500Y-77806004D01*
X131549500Y-77806007D01*
X131549500Y-77943993D01*
X131549500Y-77943995D01*
X131549499Y-77943995D01*
X130578961Y-77943995D01*
X130579553Y-75443995D01*
X131549499Y-75443995D01*
X131576418Y-75579322D01*
X131576421Y-75579332D01*
X131629221Y-75706804D01*
X131629228Y-75706817D01*
X131705885Y-75821541D01*
X131705888Y-75821545D01*
X131803454Y-75919111D01*
X131803458Y-75919114D01*
X131918182Y-75995771D01*
X131918195Y-75995778D01*
X132024248Y-76039706D01*
X132045672Y-76048580D01*
X132045676Y-76048580D01*
X132045677Y-76048581D01*
X132181004Y-76075500D01*
X132181007Y-76075500D01*
X132318995Y-76075500D01*
X132410041Y-76057389D01*
X132454328Y-76048580D01*
X132581811Y-75995775D01*
X132696542Y-75919114D01*
X132794114Y-75821542D01*
X132870775Y-75706811D01*
X132874817Y-75697054D01*
X132900131Y-75635938D01*
X132923580Y-75579328D01*
X132939359Y-75500003D01*
X132939360Y-75499996D01*
X136394435Y-75499996D01*
X136394435Y-75500003D01*
X136414630Y-75679249D01*
X136414631Y-75679254D01*
X136474211Y-75849523D01*
X136537646Y-75950478D01*
X136570184Y-76002262D01*
X136697738Y-76129816D01*
X136850478Y-76225789D01*
X136919678Y-76250003D01*
X137020745Y-76285368D01*
X137020750Y-76285369D01*
X137199996Y-76305565D01*
X137200000Y-76305565D01*
X137200004Y-76305565D01*
X137379249Y-76285369D01*
X137379252Y-76285368D01*
X137379255Y-76285368D01*
X137480342Y-76249996D01*
X149744435Y-76249996D01*
X149744435Y-76250003D01*
X149764630Y-76429249D01*
X149764631Y-76429254D01*
X149824211Y-76599523D01*
X149909569Y-76735368D01*
X149920184Y-76752262D01*
X150047738Y-76879816D01*
X150138080Y-76936582D01*
X150193155Y-76971188D01*
X150200478Y-76975789D01*
X150354878Y-77029816D01*
X150370745Y-77035368D01*
X150370750Y-77035369D01*
X150549996Y-77055565D01*
X150550000Y-77055565D01*
X150550004Y-77055565D01*
X150729249Y-77035369D01*
X150729252Y-77035368D01*
X150729255Y-77035368D01*
X150899522Y-76975789D01*
X151052262Y-76879816D01*
X151179816Y-76752262D01*
X151275789Y-76599522D01*
X151335368Y-76429255D01*
X151342865Y-76362718D01*
X151355565Y-76250003D01*
X151355565Y-76249996D01*
X151335369Y-76070750D01*
X151335368Y-76070745D01*
X151321013Y-76029722D01*
X151275789Y-75900478D01*
X151179816Y-75747738D01*
X151052262Y-75620184D01*
X151012526Y-75595216D01*
X150899523Y-75524211D01*
X150729254Y-75464631D01*
X150729249Y-75464630D01*
X150550004Y-75444435D01*
X150549996Y-75444435D01*
X150370750Y-75464630D01*
X150370745Y-75464631D01*
X150200476Y-75524211D01*
X150047737Y-75620184D01*
X149920184Y-75747737D01*
X149824211Y-75900476D01*
X149764631Y-76070745D01*
X149764630Y-76070750D01*
X149744435Y-76249996D01*
X137480342Y-76249996D01*
X137549522Y-76225789D01*
X137702262Y-76129816D01*
X137829816Y-76002262D01*
X137925789Y-75849522D01*
X137985368Y-75679255D01*
X137985540Y-75677727D01*
X138005565Y-75500003D01*
X138005565Y-75499996D01*
X137985369Y-75320750D01*
X137985368Y-75320745D01*
X137980210Y-75306004D01*
X137925789Y-75150478D01*
X137829816Y-74997738D01*
X137702262Y-74870184D01*
X137639718Y-74830885D01*
X137549523Y-74774211D01*
X137379254Y-74714631D01*
X137379249Y-74714630D01*
X137200004Y-74694435D01*
X137199996Y-74694435D01*
X137020750Y-74714630D01*
X137020745Y-74714631D01*
X136850476Y-74774211D01*
X136697737Y-74870184D01*
X136570184Y-74997737D01*
X136474211Y-75150476D01*
X136414631Y-75320745D01*
X136414630Y-75320750D01*
X136394435Y-75499996D01*
X132939360Y-75499996D01*
X132950500Y-75443995D01*
X132950500Y-75306004D01*
X132923581Y-75170677D01*
X132923580Y-75170676D01*
X132923580Y-75170672D01*
X132921077Y-75164630D01*
X132870778Y-75043195D01*
X132870771Y-75043182D01*
X132794114Y-74928458D01*
X132794111Y-74928454D01*
X132696545Y-74830888D01*
X132696541Y-74830885D01*
X132581817Y-74754228D01*
X132581804Y-74754221D01*
X132454332Y-74701421D01*
X132454322Y-74701418D01*
X132318995Y-74674500D01*
X132318993Y-74674500D01*
X132181007Y-74674500D01*
X132181005Y-74674500D01*
X132045677Y-74701418D01*
X132045667Y-74701421D01*
X131918195Y-74754221D01*
X131918182Y-74754228D01*
X131803458Y-74830885D01*
X131803454Y-74830888D01*
X131705888Y-74928454D01*
X131705885Y-74928458D01*
X131629228Y-75043182D01*
X131629221Y-75043195D01*
X131576421Y-75170667D01*
X131576418Y-75170677D01*
X131549500Y-75306004D01*
X131549500Y-75306007D01*
X131549500Y-75443993D01*
X131549500Y-75443995D01*
X131549499Y-75443995D01*
X130579553Y-75443995D01*
X130579842Y-74224261D01*
X161218700Y-74224261D01*
X161218700Y-74224268D01*
X161238895Y-74403514D01*
X161238896Y-74403519D01*
X161298476Y-74573788D01*
X161361758Y-74674500D01*
X161394449Y-74726527D01*
X161522003Y-74854081D01*
X161674743Y-74950054D01*
X161746997Y-74975336D01*
X161803772Y-75016058D01*
X161829519Y-75081011D01*
X161829261Y-75106261D01*
X161818700Y-75199996D01*
X161818700Y-75200003D01*
X161838895Y-75379249D01*
X161838896Y-75379254D01*
X161898476Y-75549523D01*
X161952775Y-75635938D01*
X161994449Y-75702262D01*
X162122003Y-75829816D01*
X162212345Y-75886582D01*
X162264119Y-75919114D01*
X162274743Y-75925789D01*
X162427523Y-75979249D01*
X162445010Y-75985368D01*
X162445015Y-75985369D01*
X162598447Y-76002656D01*
X162662861Y-76029722D01*
X162701605Y-76084920D01*
X162724211Y-76149523D01*
X162724212Y-76149524D01*
X162787347Y-76250003D01*
X162820184Y-76302262D01*
X162947738Y-76429816D01*
X163100478Y-76525789D01*
X163146724Y-76541971D01*
X163209851Y-76564060D01*
X163266627Y-76604782D01*
X163285938Y-76640146D01*
X163324211Y-76749523D01*
X163324212Y-76749524D01*
X163328008Y-76755565D01*
X163420184Y-76902262D01*
X163547738Y-77029816D01*
X163602285Y-77064090D01*
X163690478Y-77119506D01*
X163700478Y-77125789D01*
X163809851Y-77164060D01*
X163866627Y-77204782D01*
X163885938Y-77240146D01*
X163924211Y-77349523D01*
X163924212Y-77349524D01*
X163944740Y-77382194D01*
X164020184Y-77502262D01*
X164147738Y-77629816D01*
X164300478Y-77725789D01*
X164429789Y-77771037D01*
X164486564Y-77811758D01*
X164505875Y-77847122D01*
X164524211Y-77899523D01*
X164524212Y-77899524D01*
X164568610Y-77970182D01*
X164620184Y-78052262D01*
X164747738Y-78179816D01*
X164900478Y-78275789D01*
X164926022Y-78284727D01*
X164995133Y-78308910D01*
X165051909Y-78349632D01*
X165071220Y-78384997D01*
X165099286Y-78465206D01*
X165190822Y-78610883D01*
X165195262Y-78617949D01*
X165322816Y-78745503D01*
X165343270Y-78758355D01*
X165455404Y-78828814D01*
X165475556Y-78841476D01*
X165602867Y-78886024D01*
X165645823Y-78901055D01*
X165645828Y-78901056D01*
X165825074Y-78921252D01*
X165825078Y-78921252D01*
X165825082Y-78921252D01*
X166004327Y-78901056D01*
X166004330Y-78901055D01*
X166004333Y-78901055D01*
X166174600Y-78841476D01*
X166240615Y-78799996D01*
X167994435Y-78799996D01*
X167994435Y-78800003D01*
X168014630Y-78979249D01*
X168014631Y-78979254D01*
X168074211Y-79149523D01*
X168137646Y-79250478D01*
X168170184Y-79302262D01*
X168297738Y-79429816D01*
X168326259Y-79447737D01*
X168432721Y-79514632D01*
X168450478Y-79525789D01*
X168579698Y-79571005D01*
X168620745Y-79585368D01*
X168620750Y-79585369D01*
X168799996Y-79605565D01*
X168800000Y-79605565D01*
X168800004Y-79605565D01*
X168979249Y-79585369D01*
X168979252Y-79585368D01*
X168979255Y-79585368D01*
X169149522Y-79525789D01*
X169302262Y-79429816D01*
X169429816Y-79302262D01*
X169525789Y-79149522D01*
X169585368Y-78979255D01*
X169585369Y-78979249D01*
X169605565Y-78800003D01*
X169605565Y-78799996D01*
X169585369Y-78620750D01*
X169585368Y-78620745D01*
X169569536Y-78575500D01*
X169525789Y-78450478D01*
X169514711Y-78432848D01*
X169459158Y-78344435D01*
X169429816Y-78297738D01*
X169302262Y-78170184D01*
X169149523Y-78074211D01*
X168979254Y-78014631D01*
X168979249Y-78014630D01*
X168800004Y-77994435D01*
X168799996Y-77994435D01*
X168620750Y-78014630D01*
X168620745Y-78014631D01*
X168450476Y-78074211D01*
X168297737Y-78170184D01*
X168170184Y-78297737D01*
X168074211Y-78450476D01*
X168014631Y-78620745D01*
X168014630Y-78620750D01*
X167994435Y-78799996D01*
X166240615Y-78799996D01*
X166327340Y-78745503D01*
X166454894Y-78617949D01*
X166550867Y-78465209D01*
X166610446Y-78294942D01*
X166610447Y-78294936D01*
X166630643Y-78115690D01*
X166630643Y-78115683D01*
X166610447Y-77936437D01*
X166610446Y-77936432D01*
X166579195Y-77847122D01*
X166550867Y-77766165D01*
X166454894Y-77613425D01*
X166327340Y-77485871D01*
X166302753Y-77470422D01*
X166174597Y-77389895D01*
X166079942Y-77356774D01*
X166023166Y-77316052D01*
X166003856Y-77280690D01*
X165993085Y-77249910D01*
X165989523Y-77180134D01*
X166024251Y-77119506D01*
X166086244Y-77087278D01*
X166124011Y-77085736D01*
X166299997Y-77105565D01*
X166300000Y-77105565D01*
X166300004Y-77105565D01*
X166479249Y-77085369D01*
X166479252Y-77085368D01*
X166479255Y-77085368D01*
X166649522Y-77025789D01*
X166802262Y-76929816D01*
X166929816Y-76802262D01*
X167025789Y-76649522D01*
X167085368Y-76479255D01*
X167085369Y-76479249D01*
X167105565Y-76300003D01*
X167105565Y-76299996D01*
X167085369Y-76120750D01*
X167085368Y-76120745D01*
X167041639Y-75995775D01*
X167025789Y-75950478D01*
X167025486Y-75949996D01*
X169244432Y-75949996D01*
X169244432Y-75950003D01*
X169264627Y-76129249D01*
X169264628Y-76129254D01*
X169324208Y-76299523D01*
X169405721Y-76429249D01*
X169420181Y-76452262D01*
X169547735Y-76579816D01*
X169638077Y-76636582D01*
X169698251Y-76674392D01*
X169700475Y-76675789D01*
X169830301Y-76721217D01*
X169870742Y-76735368D01*
X169870747Y-76735369D01*
X170049993Y-76755565D01*
X170049997Y-76755565D01*
X170050001Y-76755565D01*
X170229246Y-76735369D01*
X170229248Y-76735368D01*
X170229252Y-76735368D01*
X170229255Y-76735366D01*
X170229259Y-76735366D01*
X170406092Y-76673489D01*
X170406843Y-76675637D01*
X170465125Y-76666035D01*
X170493589Y-76674391D01*
X170493905Y-76673489D01*
X170670745Y-76735368D01*
X170670750Y-76735369D01*
X170849996Y-76755565D01*
X170850000Y-76755565D01*
X170850004Y-76755565D01*
X171029249Y-76735369D01*
X171029251Y-76735368D01*
X171029255Y-76735368D01*
X171029258Y-76735366D01*
X171029262Y-76735366D01*
X171206095Y-76673489D01*
X171206846Y-76675637D01*
X171265128Y-76666035D01*
X171293588Y-76674392D01*
X171293905Y-76673489D01*
X171470737Y-76735366D01*
X171470743Y-76735367D01*
X171470745Y-76735368D01*
X171470746Y-76735368D01*
X171470750Y-76735369D01*
X171649996Y-76755565D01*
X171650000Y-76755565D01*
X171650004Y-76755565D01*
X171829249Y-76735369D01*
X171829252Y-76735368D01*
X171829255Y-76735368D01*
X171999522Y-76675789D01*
X172152262Y-76579816D01*
X172279816Y-76452262D01*
X172375789Y-76299522D01*
X172435368Y-76129255D01*
X172435369Y-76129249D01*
X172455565Y-75950003D01*
X172455565Y-75949996D01*
X172435369Y-75770750D01*
X172435368Y-75770745D01*
X172430418Y-75756598D01*
X172375789Y-75600478D01*
X172279816Y-75447738D01*
X172152262Y-75320184D01*
X171999523Y-75224211D01*
X171829254Y-75164631D01*
X171829249Y-75164630D01*
X171650004Y-75144435D01*
X171649996Y-75144435D01*
X171470750Y-75164630D01*
X171470737Y-75164633D01*
X171293906Y-75226510D01*
X171293155Y-75224364D01*
X171234856Y-75233962D01*
X171206409Y-75225609D01*
X171206094Y-75226510D01*
X171029262Y-75164633D01*
X171029249Y-75164630D01*
X170850004Y-75144435D01*
X170849996Y-75144435D01*
X170670750Y-75164630D01*
X170670737Y-75164633D01*
X170493906Y-75226510D01*
X170493157Y-75224369D01*
X170434821Y-75233958D01*
X170406405Y-75225611D01*
X170406091Y-75226510D01*
X170229259Y-75164633D01*
X170229246Y-75164630D01*
X170050001Y-75144435D01*
X170049993Y-75144435D01*
X169870747Y-75164630D01*
X169870742Y-75164631D01*
X169700473Y-75224211D01*
X169547734Y-75320184D01*
X169420181Y-75447737D01*
X169324208Y-75600476D01*
X169264628Y-75770745D01*
X169264627Y-75770750D01*
X169244432Y-75949996D01*
X167025486Y-75949996D01*
X166929816Y-75797738D01*
X166802262Y-75670184D01*
X166747760Y-75635938D01*
X166649523Y-75574211D01*
X166479254Y-75514631D01*
X166479249Y-75514630D01*
X166300004Y-75494435D01*
X166299996Y-75494435D01*
X166120750Y-75514630D01*
X166120745Y-75514631D01*
X165950476Y-75574211D01*
X165815972Y-75658727D01*
X165748736Y-75677727D01*
X165684028Y-75658727D01*
X165549523Y-75574211D01*
X165379254Y-75514631D01*
X165379249Y-75514630D01*
X165200004Y-75494435D01*
X165199996Y-75494435D01*
X165020750Y-75514630D01*
X165020745Y-75514631D01*
X164850476Y-75574211D01*
X164697737Y-75670184D01*
X164650112Y-75717809D01*
X164588789Y-75751293D01*
X164519097Y-75746308D01*
X164496460Y-75735121D01*
X164399524Y-75674212D01*
X164399523Y-75674211D01*
X164290146Y-75635938D01*
X164233371Y-75595216D01*
X164214060Y-75559851D01*
X164198237Y-75514631D01*
X164175789Y-75450478D01*
X164174067Y-75447738D01*
X164094272Y-75320745D01*
X164079816Y-75297738D01*
X163952262Y-75170184D01*
X163943426Y-75164632D01*
X163799523Y-75074211D01*
X163629254Y-75014631D01*
X163629250Y-75014630D01*
X163475816Y-74997343D01*
X163411402Y-74970276D01*
X163372658Y-74915077D01*
X163350054Y-74850478D01*
X163337745Y-74830888D01*
X163254081Y-74697738D01*
X163126527Y-74570184D01*
X162973787Y-74474211D01*
X162973788Y-74474211D01*
X162973786Y-74474210D01*
X162901533Y-74448928D01*
X162844757Y-74408207D01*
X162819010Y-74343254D01*
X162819268Y-74318003D01*
X162829830Y-74224267D01*
X162829830Y-74224261D01*
X162809634Y-74045015D01*
X162809633Y-74045010D01*
X162750053Y-73874741D01*
X162654080Y-73722002D01*
X162526527Y-73594449D01*
X162373788Y-73498476D01*
X162203519Y-73438896D01*
X162203514Y-73438895D01*
X162024269Y-73418700D01*
X162024261Y-73418700D01*
X161845015Y-73438895D01*
X161845010Y-73438896D01*
X161674741Y-73498476D01*
X161522002Y-73594449D01*
X161394449Y-73722002D01*
X161298476Y-73874741D01*
X161238896Y-74045010D01*
X161238895Y-74045015D01*
X161218700Y-74224261D01*
X130579842Y-74224261D01*
X130580380Y-71954518D01*
X130580399Y-71954274D01*
X130580399Y-71883649D01*
X130580625Y-71876162D01*
X130581884Y-71855341D01*
X130596712Y-71610206D01*
X130598517Y-71595346D01*
X130602879Y-71571542D01*
X130645868Y-71336956D01*
X130649447Y-71322438D01*
X130689471Y-71193995D01*
X131549499Y-71193995D01*
X131576418Y-71329322D01*
X131576421Y-71329332D01*
X131629221Y-71456804D01*
X131629228Y-71456817D01*
X131705885Y-71571541D01*
X131705888Y-71571545D01*
X131803454Y-71669111D01*
X131803458Y-71669114D01*
X131918182Y-71745771D01*
X131918195Y-71745778D01*
X131997945Y-71778811D01*
X132045672Y-71798580D01*
X132045676Y-71798580D01*
X132045677Y-71798581D01*
X132181004Y-71825500D01*
X132181007Y-71825500D01*
X132318995Y-71825500D01*
X132410041Y-71807389D01*
X132454328Y-71798580D01*
X132581811Y-71745775D01*
X132696542Y-71669114D01*
X132794114Y-71571542D01*
X132870775Y-71456811D01*
X132923580Y-71329328D01*
X132942396Y-71234733D01*
X132950500Y-71193995D01*
X132950500Y-71056004D01*
X132923581Y-70920677D01*
X132923580Y-70920676D01*
X132923580Y-70920672D01*
X132894307Y-70850000D01*
X149994659Y-70850000D01*
X150013975Y-71046129D01*
X150017470Y-71057651D01*
X150058829Y-71193993D01*
X150071188Y-71234733D01*
X150164086Y-71408532D01*
X150164090Y-71408539D01*
X150289116Y-71560883D01*
X150441460Y-71685909D01*
X150441467Y-71685913D01*
X150615266Y-71778811D01*
X150615269Y-71778811D01*
X150615273Y-71778814D01*
X150803868Y-71836024D01*
X151000000Y-71855341D01*
X151196132Y-71836024D01*
X151314900Y-71799996D01*
X161644435Y-71799996D01*
X161644435Y-71800003D01*
X161664630Y-71979249D01*
X161664631Y-71979254D01*
X161724211Y-72149523D01*
X161753496Y-72196129D01*
X161820184Y-72302262D01*
X161947738Y-72429816D01*
X162100478Y-72525789D01*
X162270745Y-72585368D01*
X162270750Y-72585369D01*
X162449996Y-72605565D01*
X162450000Y-72605565D01*
X162450004Y-72605565D01*
X162629249Y-72585369D01*
X162629252Y-72585368D01*
X162629255Y-72585368D01*
X162799522Y-72525789D01*
X162934029Y-72441272D01*
X163001264Y-72422272D01*
X163065970Y-72441272D01*
X163130720Y-72481957D01*
X163200475Y-72525788D01*
X163370745Y-72585368D01*
X163370750Y-72585369D01*
X163549996Y-72605565D01*
X163550000Y-72605565D01*
X163550004Y-72605565D01*
X163729249Y-72585369D01*
X163729252Y-72585368D01*
X163729255Y-72585368D01*
X163899522Y-72525789D01*
X164052262Y-72429816D01*
X164179816Y-72302262D01*
X164275789Y-72149522D01*
X164328109Y-72000000D01*
X169444659Y-72000000D01*
X169463975Y-72196129D01*
X169463976Y-72196132D01*
X169520382Y-72382078D01*
X169521188Y-72384733D01*
X169614086Y-72558532D01*
X169614090Y-72558539D01*
X169739116Y-72710883D01*
X169891460Y-72835909D01*
X169891467Y-72835913D01*
X170065266Y-72928811D01*
X170065269Y-72928811D01*
X170065273Y-72928814D01*
X170253868Y-72986024D01*
X170450000Y-73005341D01*
X170646132Y-72986024D01*
X170834727Y-72928814D01*
X171008538Y-72835910D01*
X171160883Y-72710883D01*
X171285910Y-72558538D01*
X171348590Y-72441273D01*
X171378811Y-72384733D01*
X171378811Y-72384732D01*
X171378814Y-72384727D01*
X171436024Y-72196132D01*
X171455341Y-72000000D01*
X171443030Y-71875000D01*
X174869659Y-71875000D01*
X174888975Y-72071129D01*
X174888976Y-72071132D01*
X174912755Y-72149522D01*
X174946188Y-72259733D01*
X175039086Y-72433532D01*
X175039090Y-72433539D01*
X175164116Y-72585883D01*
X175316460Y-72710909D01*
X175316467Y-72710913D01*
X175490266Y-72803811D01*
X175490269Y-72803811D01*
X175490273Y-72803814D01*
X175678868Y-72861024D01*
X175875000Y-72880341D01*
X176071132Y-72861024D01*
X176259727Y-72803814D01*
X176433538Y-72710910D01*
X176585883Y-72585883D01*
X176710910Y-72433538D01*
X176803814Y-72259727D01*
X176861024Y-72071132D01*
X176880341Y-71875000D01*
X176861024Y-71678868D01*
X176803814Y-71490273D01*
X176803811Y-71490269D01*
X176803811Y-71490266D01*
X176710913Y-71316467D01*
X176710909Y-71316460D01*
X176585883Y-71164116D01*
X176433539Y-71039090D01*
X176433532Y-71039086D01*
X176259733Y-70946188D01*
X176259727Y-70946186D01*
X176071132Y-70888976D01*
X176071129Y-70888975D01*
X175875000Y-70869659D01*
X175678870Y-70888975D01*
X175490266Y-70946188D01*
X175316467Y-71039086D01*
X175316460Y-71039090D01*
X175164116Y-71164116D01*
X175039090Y-71316460D01*
X175039086Y-71316467D01*
X174946188Y-71490266D01*
X174888975Y-71678870D01*
X174869659Y-71875000D01*
X171443030Y-71875000D01*
X171436024Y-71803868D01*
X171378814Y-71615273D01*
X171378811Y-71615269D01*
X171378811Y-71615266D01*
X171285913Y-71441467D01*
X171285909Y-71441460D01*
X171160883Y-71289116D01*
X171008539Y-71164090D01*
X171008532Y-71164086D01*
X170834733Y-71071188D01*
X170834727Y-71071186D01*
X170648295Y-71014632D01*
X170646129Y-71013975D01*
X170450000Y-70994659D01*
X170253870Y-71013975D01*
X170065266Y-71071188D01*
X169891467Y-71164086D01*
X169891460Y-71164090D01*
X169739116Y-71289116D01*
X169614090Y-71441460D01*
X169614086Y-71441467D01*
X169521188Y-71615266D01*
X169463975Y-71803870D01*
X169444659Y-72000000D01*
X164328109Y-72000000D01*
X164335368Y-71979255D01*
X164339132Y-71945847D01*
X164355565Y-71800003D01*
X164355565Y-71799996D01*
X164335369Y-71620750D01*
X164335368Y-71620745D01*
X164331682Y-71610210D01*
X164275789Y-71450478D01*
X164179816Y-71297738D01*
X164052262Y-71170184D01*
X164042605Y-71164116D01*
X163899523Y-71074211D01*
X163729254Y-71014631D01*
X163729249Y-71014630D01*
X163550004Y-70994435D01*
X163549996Y-70994435D01*
X163370750Y-71014630D01*
X163370745Y-71014631D01*
X163200476Y-71074211D01*
X163065972Y-71158727D01*
X162998736Y-71177727D01*
X162934028Y-71158727D01*
X162799523Y-71074211D01*
X162629254Y-71014631D01*
X162629249Y-71014630D01*
X162450004Y-70994435D01*
X162449996Y-70994435D01*
X162270750Y-71014630D01*
X162270745Y-71014631D01*
X162100476Y-71074211D01*
X161947737Y-71170184D01*
X161820184Y-71297737D01*
X161724211Y-71450476D01*
X161664631Y-71620745D01*
X161664630Y-71620750D01*
X161644435Y-71799996D01*
X151314900Y-71799996D01*
X151384727Y-71778814D01*
X151558538Y-71685910D01*
X151710883Y-71560883D01*
X151835910Y-71408538D01*
X151899742Y-71289117D01*
X151928811Y-71234733D01*
X151928811Y-71234732D01*
X151928814Y-71234727D01*
X151986024Y-71046132D01*
X152005341Y-70850000D01*
X151986024Y-70653868D01*
X151928814Y-70465273D01*
X151928811Y-70465269D01*
X151928811Y-70465266D01*
X151835913Y-70291467D01*
X151835909Y-70291460D01*
X151710883Y-70139116D01*
X151558539Y-70014090D01*
X151558532Y-70014086D01*
X151384733Y-69921188D01*
X151384727Y-69921186D01*
X151196132Y-69863976D01*
X151196129Y-69863975D01*
X151000000Y-69844659D01*
X150803870Y-69863975D01*
X150615266Y-69921188D01*
X150441467Y-70014086D01*
X150441460Y-70014090D01*
X150289116Y-70139116D01*
X150164090Y-70291460D01*
X150164086Y-70291467D01*
X150071188Y-70465266D01*
X150013975Y-70653870D01*
X149994659Y-70850000D01*
X132894307Y-70850000D01*
X132870778Y-70793195D01*
X132870771Y-70793182D01*
X132794114Y-70678458D01*
X132794111Y-70678454D01*
X132696545Y-70580888D01*
X132696541Y-70580885D01*
X132581817Y-70504228D01*
X132581804Y-70504221D01*
X132454332Y-70451421D01*
X132454322Y-70451418D01*
X132318995Y-70424500D01*
X132318993Y-70424500D01*
X132181007Y-70424500D01*
X132181005Y-70424500D01*
X132045677Y-70451418D01*
X132045667Y-70451421D01*
X131918195Y-70504221D01*
X131918182Y-70504228D01*
X131803458Y-70580885D01*
X131803454Y-70580888D01*
X131705888Y-70678454D01*
X131705885Y-70678458D01*
X131629228Y-70793182D01*
X131629221Y-70793195D01*
X131576421Y-70920667D01*
X131576418Y-70920677D01*
X131549500Y-71056004D01*
X131549500Y-71056007D01*
X131549500Y-71193993D01*
X131549500Y-71193995D01*
X131549499Y-71193995D01*
X130689471Y-71193995D01*
X130727598Y-71071642D01*
X130732900Y-71057661D01*
X130840721Y-70818093D01*
X130847666Y-70804860D01*
X130983576Y-70580038D01*
X130992063Y-70567742D01*
X131154082Y-70360941D01*
X131163997Y-70349750D01*
X131349750Y-70163997D01*
X131360941Y-70154082D01*
X131567742Y-69992063D01*
X131580038Y-69983576D01*
X131804860Y-69847666D01*
X131818093Y-69840721D01*
X132057661Y-69732900D01*
X132071642Y-69727598D01*
X132322438Y-69649447D01*
X132336956Y-69645868D01*
X132595349Y-69598516D01*
X132610206Y-69596712D01*
X132869091Y-69581051D01*
X132881857Y-69580939D01*
X133730105Y-69617209D01*
X133746135Y-69619670D01*
X133746153Y-69619540D01*
X133754209Y-69620601D01*
X133806751Y-69620601D01*
X133812047Y-69620713D01*
X133864551Y-69622959D01*
X133864559Y-69622957D01*
X133872650Y-69622243D01*
X133872661Y-69622373D01*
X133888780Y-69620601D01*
X133993069Y-69620601D01*
X133993073Y-69620601D01*
X134337122Y-69584439D01*
X134675505Y-69512514D01*
X135004517Y-69405611D01*
X135320553Y-69264903D01*
X135620149Y-69091931D01*
X135806549Y-68956504D01*
X167780000Y-68956504D01*
X167780000Y-69355000D01*
X168480000Y-69355000D01*
X168480000Y-69855000D01*
X167780000Y-69855000D01*
X167780000Y-70253495D01*
X167818427Y-70446681D01*
X167818430Y-70446693D01*
X167893807Y-70628671D01*
X167893814Y-70628684D01*
X168003248Y-70792462D01*
X168003251Y-70792466D01*
X168142533Y-70931748D01*
X168142537Y-70931751D01*
X168306315Y-71041185D01*
X168306328Y-71041192D01*
X168488308Y-71116569D01*
X168530000Y-71124862D01*
X168530000Y-70321988D01*
X168539940Y-70339205D01*
X168595795Y-70395060D01*
X168664204Y-70434556D01*
X168740504Y-70455000D01*
X168819496Y-70455000D01*
X168895796Y-70434556D01*
X168964205Y-70395060D01*
X169020060Y-70339205D01*
X169030000Y-70321988D01*
X169030000Y-71124862D01*
X169071690Y-71116569D01*
X169071692Y-71116569D01*
X169253671Y-71041192D01*
X169253684Y-71041185D01*
X169417462Y-70931751D01*
X169417466Y-70931748D01*
X169556748Y-70792466D01*
X169556751Y-70792462D01*
X169666185Y-70628684D01*
X169666192Y-70628671D01*
X169741569Y-70446693D01*
X169741572Y-70446681D01*
X169779999Y-70253495D01*
X169780000Y-70253492D01*
X169780000Y-69736044D01*
X169799685Y-69669005D01*
X169852489Y-69623250D01*
X169921647Y-69613306D01*
X169966000Y-69628657D01*
X169987865Y-69641281D01*
X170134234Y-69680500D01*
X170134236Y-69680500D01*
X170285764Y-69680500D01*
X170285766Y-69680500D01*
X170432135Y-69641281D01*
X170563365Y-69565515D01*
X170670515Y-69458365D01*
X170746281Y-69327135D01*
X170785500Y-69180766D01*
X170785500Y-69029234D01*
X175414500Y-69029234D01*
X175414500Y-69180765D01*
X175453719Y-69327136D01*
X175469807Y-69355000D01*
X175529485Y-69458365D01*
X175636635Y-69565515D01*
X175767865Y-69641281D01*
X175914234Y-69680500D01*
X175914236Y-69680500D01*
X176065764Y-69680500D01*
X176065766Y-69680500D01*
X176212135Y-69641281D01*
X176233999Y-69628657D01*
X176301897Y-69612184D01*
X176367925Y-69635035D01*
X176411117Y-69689955D01*
X176420000Y-69736044D01*
X176420000Y-70253495D01*
X176458427Y-70446681D01*
X176458430Y-70446693D01*
X176533807Y-70628671D01*
X176533814Y-70628684D01*
X176643248Y-70792462D01*
X176643251Y-70792466D01*
X176782533Y-70931748D01*
X176782537Y-70931751D01*
X176946315Y-71041185D01*
X176946328Y-71041192D01*
X177128308Y-71116569D01*
X177170000Y-71124862D01*
X177170000Y-70321988D01*
X177179940Y-70339205D01*
X177235795Y-70395060D01*
X177304204Y-70434556D01*
X177380504Y-70455000D01*
X177459496Y-70455000D01*
X177535796Y-70434556D01*
X177604205Y-70395060D01*
X177660060Y-70339205D01*
X177670000Y-70321988D01*
X177670000Y-71124862D01*
X177711690Y-71116569D01*
X177711692Y-71116569D01*
X177893671Y-71041192D01*
X177893684Y-71041185D01*
X178057462Y-70931751D01*
X178057466Y-70931748D01*
X178196748Y-70792466D01*
X178196751Y-70792462D01*
X178306185Y-70628684D01*
X178306192Y-70628671D01*
X178381569Y-70446693D01*
X178381572Y-70446681D01*
X178419999Y-70253495D01*
X178420000Y-70253492D01*
X178420000Y-69855000D01*
X177720000Y-69855000D01*
X177720000Y-69355000D01*
X178420000Y-69355000D01*
X178420000Y-68956508D01*
X178419999Y-68956504D01*
X178381572Y-68763318D01*
X178381569Y-68763306D01*
X178306192Y-68581328D01*
X178306185Y-68581315D01*
X178196751Y-68417537D01*
X178196748Y-68417533D01*
X178057466Y-68278251D01*
X178057462Y-68278248D01*
X177893684Y-68168814D01*
X177893671Y-68168807D01*
X177711691Y-68093429D01*
X177711683Y-68093427D01*
X177670000Y-68085135D01*
X177670000Y-68888011D01*
X177660060Y-68870795D01*
X177604205Y-68814940D01*
X177535796Y-68775444D01*
X177459496Y-68755000D01*
X177380504Y-68755000D01*
X177304204Y-68775444D01*
X177235795Y-68814940D01*
X177179940Y-68870795D01*
X177170000Y-68888011D01*
X177170000Y-68085136D01*
X177169999Y-68085135D01*
X177128316Y-68093427D01*
X177128308Y-68093429D01*
X176946328Y-68168807D01*
X176946315Y-68168814D01*
X176782537Y-68278248D01*
X176782533Y-68278251D01*
X176643251Y-68417533D01*
X176643248Y-68417537D01*
X176533814Y-68581315D01*
X176533809Y-68581324D01*
X176529866Y-68590845D01*
X176486023Y-68645247D01*
X176419728Y-68667310D01*
X176352030Y-68650029D01*
X176346597Y-68646351D01*
X176212136Y-68568719D01*
X176138950Y-68549109D01*
X176065766Y-68529500D01*
X175914234Y-68529500D01*
X175767863Y-68568719D01*
X175636635Y-68644485D01*
X175636632Y-68644487D01*
X175529487Y-68751632D01*
X175529485Y-68751635D01*
X175453719Y-68882863D01*
X175414500Y-69029234D01*
X170785500Y-69029234D01*
X170746281Y-68882865D01*
X170670515Y-68751635D01*
X170563365Y-68644485D01*
X170475528Y-68593772D01*
X170432136Y-68568719D01*
X170358950Y-68549109D01*
X170285766Y-68529500D01*
X170134234Y-68529500D01*
X169987863Y-68568719D01*
X169900199Y-68619333D01*
X169856635Y-68644485D01*
X169856633Y-68644486D01*
X169849597Y-68648549D01*
X169848327Y-68646349D01*
X169794995Y-68666960D01*
X169726552Y-68652914D01*
X169676568Y-68604094D01*
X169670131Y-68590838D01*
X169666192Y-68581328D01*
X169666185Y-68581315D01*
X169556751Y-68417537D01*
X169556748Y-68417533D01*
X169417466Y-68278251D01*
X169417462Y-68278248D01*
X169253684Y-68168814D01*
X169253671Y-68168807D01*
X169071691Y-68093429D01*
X169071683Y-68093427D01*
X169030000Y-68085135D01*
X169030000Y-68888011D01*
X169020060Y-68870795D01*
X168964205Y-68814940D01*
X168895796Y-68775444D01*
X168819496Y-68755000D01*
X168740504Y-68755000D01*
X168664204Y-68775444D01*
X168595795Y-68814940D01*
X168539940Y-68870795D01*
X168530000Y-68888011D01*
X168530000Y-68085136D01*
X168529999Y-68085135D01*
X168488316Y-68093427D01*
X168488308Y-68093429D01*
X168306328Y-68168807D01*
X168306315Y-68168814D01*
X168142537Y-68278248D01*
X168142533Y-68278251D01*
X168003251Y-68417533D01*
X168003248Y-68417537D01*
X167893814Y-68581315D01*
X167893807Y-68581328D01*
X167818430Y-68763306D01*
X167818427Y-68763318D01*
X167780000Y-68956504D01*
X135806549Y-68956504D01*
X135900023Y-68888591D01*
X136157109Y-68657109D01*
X136388591Y-68400023D01*
X136591931Y-68120149D01*
X136632434Y-68049996D01*
X155144435Y-68049996D01*
X155144435Y-68050003D01*
X155164630Y-68229249D01*
X155164631Y-68229254D01*
X155224211Y-68399523D01*
X155274371Y-68479351D01*
X155320184Y-68552262D01*
X155447738Y-68679816D01*
X155459945Y-68687486D01*
X155580630Y-68763318D01*
X155600478Y-68775789D01*
X155653634Y-68794389D01*
X155770745Y-68835368D01*
X155770750Y-68835369D01*
X155949996Y-68855565D01*
X155950000Y-68855565D01*
X155950004Y-68855565D01*
X156129249Y-68835369D01*
X156129252Y-68835368D01*
X156129255Y-68835368D01*
X156299522Y-68775789D01*
X156452262Y-68679816D01*
X156579816Y-68552262D01*
X156675789Y-68399522D01*
X156735368Y-68229255D01*
X156738517Y-68201307D01*
X156755565Y-68050003D01*
X156755565Y-68049996D01*
X156735369Y-67870750D01*
X156735368Y-67870745D01*
X156675788Y-67700476D01*
X156629221Y-67626366D01*
X156579816Y-67547738D01*
X156452262Y-67420184D01*
X156299523Y-67324211D01*
X156129254Y-67264631D01*
X156129249Y-67264630D01*
X155950004Y-67244435D01*
X155949996Y-67244435D01*
X155770750Y-67264630D01*
X155770745Y-67264631D01*
X155600476Y-67324211D01*
X155447737Y-67420184D01*
X155320184Y-67547737D01*
X155224211Y-67700476D01*
X155164631Y-67870745D01*
X155164630Y-67870750D01*
X155144435Y-68049996D01*
X136632434Y-68049996D01*
X136764903Y-67820553D01*
X136905611Y-67504517D01*
X137012514Y-67175505D01*
X137084439Y-66837122D01*
X137120601Y-66493073D01*
X137120601Y-66393677D01*
X137121430Y-66379367D01*
X137121545Y-66378373D01*
X137121544Y-66378369D01*
X137121546Y-66378365D01*
X137120615Y-66317221D01*
X137120601Y-66315334D01*
X137120601Y-66254215D01*
X137120601Y-66254209D01*
X137120599Y-66254203D01*
X137120470Y-66253221D01*
X137119422Y-66238923D01*
X137115784Y-65999996D01*
X156194435Y-65999996D01*
X156194435Y-66000003D01*
X156214630Y-66179249D01*
X156214631Y-66179254D01*
X156274211Y-66349523D01*
X156345176Y-66462462D01*
X156370184Y-66502262D01*
X156497738Y-66629816D01*
X156650478Y-66725789D01*
X156820745Y-66785368D01*
X156820750Y-66785369D01*
X156999996Y-66805565D01*
X157000000Y-66805565D01*
X157000004Y-66805565D01*
X157179249Y-66785369D01*
X157179252Y-66785368D01*
X157179255Y-66785368D01*
X157349522Y-66725789D01*
X157502262Y-66629816D01*
X157629816Y-66502262D01*
X157725789Y-66349522D01*
X157785368Y-66179255D01*
X157792417Y-66116693D01*
X157805565Y-66000003D01*
X157805565Y-65999996D01*
X157785369Y-65820750D01*
X157785368Y-65820745D01*
X157725789Y-65650478D01*
X157629816Y-65497738D01*
X157502262Y-65370184D01*
X157349523Y-65274211D01*
X157179254Y-65214631D01*
X157179249Y-65214630D01*
X157000004Y-65194435D01*
X156999996Y-65194435D01*
X156820750Y-65214630D01*
X156820745Y-65214631D01*
X156650476Y-65274211D01*
X156497737Y-65370184D01*
X156370184Y-65497737D01*
X156274211Y-65650476D01*
X156214631Y-65820745D01*
X156214630Y-65820750D01*
X156194435Y-65999996D01*
X137115784Y-65999996D01*
X137100617Y-65003908D01*
X137100829Y-64994544D01*
X137104024Y-64941736D01*
X137104945Y-64926504D01*
X167780000Y-64926504D01*
X167780000Y-65175000D01*
X168480000Y-65175000D01*
X168480000Y-65675000D01*
X167780000Y-65675000D01*
X167780000Y-65923495D01*
X167818427Y-66116681D01*
X167818430Y-66116693D01*
X167893807Y-66298671D01*
X167893814Y-66298684D01*
X168003248Y-66462462D01*
X168003251Y-66462466D01*
X168142533Y-66601748D01*
X168142537Y-66601751D01*
X168306315Y-66711185D01*
X168306328Y-66711192D01*
X168488308Y-66786569D01*
X168530000Y-66794862D01*
X168530000Y-65991988D01*
X168539940Y-66009205D01*
X168595795Y-66065060D01*
X168664204Y-66104556D01*
X168740504Y-66125000D01*
X168819496Y-66125000D01*
X168895796Y-66104556D01*
X168964205Y-66065060D01*
X169020060Y-66009205D01*
X169030000Y-65991988D01*
X169030000Y-66794862D01*
X169071690Y-66786569D01*
X169071692Y-66786569D01*
X169253671Y-66711192D01*
X169253684Y-66711185D01*
X169417462Y-66601751D01*
X169417466Y-66601748D01*
X169556748Y-66462466D01*
X169556751Y-66462462D01*
X169666185Y-66298684D01*
X169666192Y-66298671D01*
X169741569Y-66116693D01*
X169741572Y-66116681D01*
X169779999Y-65923495D01*
X169780000Y-65923492D01*
X169780000Y-65675000D01*
X169080000Y-65675000D01*
X169080000Y-65175000D01*
X169780000Y-65175000D01*
X169780000Y-64926508D01*
X169779999Y-64926504D01*
X176420000Y-64926504D01*
X176420000Y-65175000D01*
X177120000Y-65175000D01*
X177120000Y-65675000D01*
X176420000Y-65675000D01*
X176420000Y-65923495D01*
X176458427Y-66116681D01*
X176458430Y-66116693D01*
X176533807Y-66298671D01*
X176533814Y-66298684D01*
X176643248Y-66462462D01*
X176643251Y-66462466D01*
X176782533Y-66601748D01*
X176782537Y-66601751D01*
X176946315Y-66711185D01*
X176946328Y-66711192D01*
X177128308Y-66786569D01*
X177170000Y-66794862D01*
X177170000Y-65991988D01*
X177179940Y-66009205D01*
X177235795Y-66065060D01*
X177304204Y-66104556D01*
X177380504Y-66125000D01*
X177459496Y-66125000D01*
X177535796Y-66104556D01*
X177604205Y-66065060D01*
X177660060Y-66009205D01*
X177670000Y-65991988D01*
X177670000Y-66794862D01*
X177711690Y-66786569D01*
X177711692Y-66786569D01*
X177893671Y-66711192D01*
X177893684Y-66711185D01*
X178057462Y-66601751D01*
X178057466Y-66601748D01*
X178196748Y-66462466D01*
X178196751Y-66462462D01*
X178306185Y-66298684D01*
X178306192Y-66298671D01*
X178381569Y-66116693D01*
X178381572Y-66116681D01*
X178419999Y-65923495D01*
X178420000Y-65923492D01*
X178420000Y-65675000D01*
X177720000Y-65675000D01*
X177720000Y-65175000D01*
X178420000Y-65175000D01*
X178420000Y-64926508D01*
X178419999Y-64926504D01*
X178381572Y-64733318D01*
X178381569Y-64733306D01*
X178306192Y-64551328D01*
X178306185Y-64551315D01*
X178196751Y-64387537D01*
X178196748Y-64387533D01*
X178057466Y-64248251D01*
X178057462Y-64248248D01*
X177893684Y-64138814D01*
X177893671Y-64138807D01*
X177711691Y-64063429D01*
X177711683Y-64063427D01*
X177670000Y-64055135D01*
X177670000Y-64858011D01*
X177660060Y-64840795D01*
X177604205Y-64784940D01*
X177535796Y-64745444D01*
X177459496Y-64725000D01*
X177380504Y-64725000D01*
X177304204Y-64745444D01*
X177235795Y-64784940D01*
X177179940Y-64840795D01*
X177170000Y-64858011D01*
X177170000Y-64055136D01*
X177169999Y-64055135D01*
X177128316Y-64063427D01*
X177128308Y-64063429D01*
X176946328Y-64138807D01*
X176946315Y-64138814D01*
X176782537Y-64248248D01*
X176782533Y-64248251D01*
X176643251Y-64387533D01*
X176643248Y-64387537D01*
X176533814Y-64551315D01*
X176533807Y-64551328D01*
X176458430Y-64733306D01*
X176458427Y-64733318D01*
X176420000Y-64926504D01*
X169779999Y-64926504D01*
X169741572Y-64733318D01*
X169741569Y-64733306D01*
X169666192Y-64551328D01*
X169666185Y-64551315D01*
X169556751Y-64387537D01*
X169556748Y-64387533D01*
X169417466Y-64248251D01*
X169417462Y-64248248D01*
X169253684Y-64138814D01*
X169253671Y-64138807D01*
X169071691Y-64063429D01*
X169071683Y-64063427D01*
X169030000Y-64055135D01*
X169030000Y-64858011D01*
X169020060Y-64840795D01*
X168964205Y-64784940D01*
X168895796Y-64745444D01*
X168819496Y-64725000D01*
X168740504Y-64725000D01*
X168664204Y-64745444D01*
X168595795Y-64784940D01*
X168539940Y-64840795D01*
X168530000Y-64858011D01*
X168530000Y-64055136D01*
X168529999Y-64055135D01*
X168488316Y-64063427D01*
X168488308Y-64063429D01*
X168306328Y-64138807D01*
X168306315Y-64138814D01*
X168142537Y-64248248D01*
X168142533Y-64248251D01*
X168003251Y-64387533D01*
X168003248Y-64387537D01*
X167893814Y-64551315D01*
X167893807Y-64551328D01*
X167818430Y-64733306D01*
X167818427Y-64733318D01*
X167780000Y-64926504D01*
X137104945Y-64926504D01*
X137116813Y-64730307D01*
X137118618Y-64715447D01*
X137165969Y-64457057D01*
X137169548Y-64442539D01*
X137247699Y-64191743D01*
X137253001Y-64177762D01*
X137360822Y-63938194D01*
X137367767Y-63924961D01*
X137443311Y-63799996D01*
X154294435Y-63799996D01*
X154294435Y-63800003D01*
X154314630Y-63979249D01*
X154314631Y-63979254D01*
X154374211Y-64149523D01*
X154470184Y-64302262D01*
X154597738Y-64429816D01*
X154750478Y-64525789D01*
X154920745Y-64585368D01*
X154920750Y-64585369D01*
X155099996Y-64605565D01*
X155100000Y-64605565D01*
X155100004Y-64605565D01*
X155279249Y-64585369D01*
X155279252Y-64585368D01*
X155279255Y-64585368D01*
X155449522Y-64525789D01*
X155602262Y-64429816D01*
X155729816Y-64302262D01*
X155825789Y-64149522D01*
X155885368Y-63979255D01*
X155889993Y-63938208D01*
X155905565Y-63800003D01*
X155905565Y-63799996D01*
X159494435Y-63799996D01*
X159494435Y-63800003D01*
X159514630Y-63979249D01*
X159514631Y-63979254D01*
X159574211Y-64149523D01*
X159670184Y-64302262D01*
X159797738Y-64429816D01*
X159950478Y-64525789D01*
X160120745Y-64585368D01*
X160120750Y-64585369D01*
X160299996Y-64605565D01*
X160300000Y-64605565D01*
X160300004Y-64605565D01*
X160479249Y-64585369D01*
X160479252Y-64585368D01*
X160479255Y-64585368D01*
X160649522Y-64525789D01*
X160802262Y-64429816D01*
X160929816Y-64302262D01*
X161025789Y-64149522D01*
X161085368Y-63979255D01*
X161089993Y-63938208D01*
X161105565Y-63800003D01*
X161105565Y-63799996D01*
X161085369Y-63620750D01*
X161085368Y-63620745D01*
X161025789Y-63450478D01*
X160929816Y-63297738D01*
X160802262Y-63170184D01*
X160649523Y-63074211D01*
X160479254Y-63014631D01*
X160479249Y-63014630D01*
X160300004Y-62994435D01*
X160299996Y-62994435D01*
X160120750Y-63014630D01*
X160120745Y-63014631D01*
X159950476Y-63074211D01*
X159797737Y-63170184D01*
X159670184Y-63297737D01*
X159574211Y-63450476D01*
X159514631Y-63620745D01*
X159514630Y-63620750D01*
X159494435Y-63799996D01*
X155905565Y-63799996D01*
X155885369Y-63620750D01*
X155885368Y-63620745D01*
X155825789Y-63450478D01*
X155729816Y-63297738D01*
X155602262Y-63170184D01*
X155449523Y-63074211D01*
X155279254Y-63014631D01*
X155279249Y-63014630D01*
X155100004Y-62994435D01*
X155099996Y-62994435D01*
X154920750Y-63014630D01*
X154920745Y-63014631D01*
X154750476Y-63074211D01*
X154597737Y-63170184D01*
X154470184Y-63297737D01*
X154374211Y-63450476D01*
X154314631Y-63620745D01*
X154314630Y-63620750D01*
X154294435Y-63799996D01*
X137443311Y-63799996D01*
X137503677Y-63700139D01*
X137512164Y-63687843D01*
X137674183Y-63481041D01*
X137684098Y-63469850D01*
X137869850Y-63284098D01*
X137881041Y-63274183D01*
X138087843Y-63112164D01*
X138100139Y-63103677D01*
X138324961Y-62967767D01*
X138338194Y-62960822D01*
X138577762Y-62853001D01*
X138591743Y-62847699D01*
X138842539Y-62769548D01*
X138857057Y-62765969D01*
X139115450Y-62718617D01*
X139130307Y-62716813D01*
X139396265Y-62700725D01*
X139403761Y-62700500D01*
X176895390Y-62705388D01*
G37*
%TD.AperFunction*%
%TD*%
D17*
X132873000Y-103800000D02*
G75*
G02*
X130073000Y-101000000I0J2800000D01*
G01*
X176970101Y-62204899D02*
X139400000Y-62200000D01*
X186624568Y-100999053D02*
G75*
G02*
X183647004Y-103799936I-2818968J13653D01*
G01*
X130079899Y-71879899D02*
G75*
G02*
X132879899Y-69079899I2800001J-1D01*
G01*
X132873000Y-103800000D02*
X183647000Y-103800000D01*
X136600000Y-65000000D02*
G75*
G02*
X139400000Y-62200000I2800000J0D01*
G01*
X133820101Y-69120101D02*
X132879899Y-69079899D01*
X136600000Y-65000000D02*
X136620101Y-66320101D01*
X181675506Y-69070020D02*
G75*
G02*
X179779899Y-66420101I904394J2649920D01*
G01*
X181675506Y-69070020D02*
G75*
G02*
X183102045Y-70950000I-525506J-1879980D01*
G01*
X186620000Y-96500000D02*
X186620000Y-101000000D01*
X130079899Y-71879899D02*
X130073000Y-101000000D01*
X184400000Y-95000000D02*
X185120000Y-95000000D01*
X183102045Y-70950000D02*
X183100000Y-93500000D01*
X136620101Y-66320101D02*
G75*
G02*
X133820101Y-69120101I-2800001J1D01*
G01*
X176970101Y-62204899D02*
G75*
G02*
X179770101Y-65004899I-1J-2800001D01*
G01*
X184400000Y-95000000D02*
G75*
G02*
X183100000Y-93500000I100000J1400000D01*
G01*
X179770101Y-65004899D02*
X179779899Y-66420101D01*
X185120000Y-95000000D02*
G75*
G02*
X186620000Y-96500000I0J-1500000D01*
G01*
M02*
