%TF.GenerationSoftware,KiCad,Pcbnew,8.0.1*%
%TF.CreationDate,2024-07-24T10:43:19-04:00*%
%TF.ProjectId,bitaxe-ESP-OLED,62697461-7865-42d4-9553-502d4f4c4544,rev?*%
%TF.SameCoordinates,Original*%
%TF.FileFunction,Copper,L1,Top*%
%TF.FilePolarity,Positive*%
%FSLAX46Y46*%
G04 Gerber Fmt 4.6, Leading zero omitted, Abs format (unit mm)*
G04 Created by KiCad (PCBNEW 8.0.1) date 2024-07-24 10:43:19*
%MOMM*%
%LPD*%
G01*
G04 APERTURE LIST*
%TA.AperFunction,SMDPad,CuDef*%
%ADD10C,1.000000*%
%TD*%
%TA.AperFunction,ConnectorPad*%
%ADD11C,0.787400*%
%TD*%
%TA.AperFunction,ComponentPad*%
%ADD12C,0.800000*%
%TD*%
%TA.AperFunction,ComponentPad*%
%ADD13C,6.000000*%
%TD*%
%TA.AperFunction,ComponentPad*%
%ADD14O,1.000000X1.800000*%
%TD*%
%TA.AperFunction,ComponentPad*%
%ADD15O,1.000000X2.100000*%
%TD*%
%TA.AperFunction,HeatsinkPad*%
%ADD16C,0.500000*%
%TD*%
%TA.AperFunction,HeatsinkPad*%
%ADD17R,4.000000X4.000000*%
%TD*%
%TA.AperFunction,ViaPad*%
%ADD18C,0.600000*%
%TD*%
%TA.AperFunction,ViaPad*%
%ADD19C,1.000000*%
%TD*%
%TA.AperFunction,Conductor*%
%ADD20C,0.200000*%
%TD*%
%TA.AperFunction,Conductor*%
%ADD21C,0.500000*%
%TD*%
%TA.AperFunction,Profile*%
%ADD22C,0.100000*%
%TD*%
G04 APERTURE END LIST*
D10*
%TO.P,TP3,1,1*%
%TO.N,/GPIO1*%
X160500000Y-73000000D03*
%TD*%
D11*
%TO.P,J3,1,Pin_1*%
%TO.N,/RESET*%
X176355000Y-99285000D03*
%TO.P,J3,2,Pin_2*%
%TO.N,/3V3*%
X176355000Y-100555000D03*
%TO.P,J3,3,Pin_3*%
%TO.N,/P_TX*%
X175085000Y-99285000D03*
%TO.P,J3,4,Pin_4*%
%TO.N,GND*%
X175085000Y-100555000D03*
%TO.P,J3,5,Pin_5*%
%TO.N,/P_RX*%
X173815000Y-99285000D03*
%TO.P,J3,6,Pin_6*%
%TO.N,/GPIO0*%
X173815000Y-100555000D03*
%TD*%
D10*
%TO.P,TP7,1,1*%
%TO.N,/P_RX*%
X173250000Y-96850000D03*
%TD*%
D12*
%TO.P,H3,1*%
%TO.N,N/C*%
X131323000Y-100000000D03*
X131982010Y-98409010D03*
X131982010Y-101590990D03*
X133573000Y-97750000D03*
D13*
X133573000Y-100000000D03*
D12*
X133573000Y-102250000D03*
X135163990Y-98409010D03*
X135163990Y-101590990D03*
X135823000Y-100000000D03*
%TD*%
D10*
%TO.P,TP6,1,1*%
%TO.N,/P_TX*%
X175750000Y-96850000D03*
%TD*%
D12*
%TO.P,H4,1*%
%TO.N,N/C*%
X180750000Y-100000000D03*
X181409010Y-98409010D03*
X181409010Y-101590990D03*
X183000000Y-97750000D03*
D13*
X183000000Y-100000000D03*
D12*
X183000000Y-102250000D03*
X184590990Y-98409010D03*
X184590990Y-101590990D03*
X185250000Y-100000000D03*
%TD*%
D10*
%TO.P,TP4,1,1*%
%TO.N,/GPIO2*%
X157000000Y-71000000D03*
%TD*%
D14*
%TO.P,J2,S1,SHIELD*%
%TO.N,GND*%
X168780000Y-65425000D03*
D15*
X168780000Y-69605000D03*
D14*
X177420000Y-65425000D03*
D15*
X177420000Y-69605000D03*
%TD*%
D16*
%TO.P,U2,57,PAD*%
%TO.N,GND*%
X168500000Y-82550000D03*
X168500000Y-84300000D03*
X168500000Y-86050000D03*
X170250000Y-82550000D03*
X170250000Y-84300000D03*
D17*
X170250000Y-84300000D03*
D16*
X170250000Y-86050000D03*
X172000000Y-82550000D03*
X172000000Y-84300000D03*
X172000000Y-86050000D03*
%TD*%
D18*
%TO.N,GND*%
X135500000Y-75250000D03*
X150600000Y-77250000D03*
X133750000Y-95500000D03*
X164815000Y-94900000D03*
D19*
X145200000Y-72400000D03*
D18*
X169700000Y-77200000D03*
X134000000Y-84750000D03*
X151800000Y-88050000D03*
X171650000Y-94670000D03*
X136510000Y-86750000D03*
D19*
X140250000Y-72500000D03*
D18*
X133750000Y-89250000D03*
X134250000Y-91250000D03*
D19*
X142700000Y-66550000D03*
D18*
X134750000Y-71750000D03*
X174850000Y-73900000D03*
X171850000Y-73900000D03*
X175100000Y-101600000D03*
X161000000Y-68000000D03*
X151950000Y-80250000D03*
X181900000Y-86500000D03*
X144650000Y-87850000D03*
X136500000Y-93200000D03*
D19*
X158800000Y-74600000D03*
D18*
X176250000Y-79650000D03*
X168400000Y-91200000D03*
X151650000Y-75350000D03*
D19*
X175550000Y-90950000D03*
X160700000Y-89200000D03*
X158450000Y-91500000D03*
D18*
X136500000Y-79750000D03*
X133500000Y-82250000D03*
X150550000Y-83600000D03*
X134750000Y-78250000D03*
D19*
X161450000Y-82150000D03*
D18*
X151900000Y-90600000D03*
D19*
%TO.N,/VBUS*%
X175875000Y-71875000D03*
X170450000Y-72000000D03*
X151000000Y-70850000D03*
D18*
%TO.N,/5V_BAP*%
X155100000Y-63800000D03*
X160300000Y-63800000D03*
%TO.N,/RESET*%
X164500000Y-85050000D03*
X139350000Y-82050000D03*
%TO.N,/3V3*%
X136500000Y-81000000D03*
X137200000Y-75500000D03*
D19*
X162850000Y-82100000D03*
X174250000Y-91000000D03*
X165005971Y-88950000D03*
D18*
X150500000Y-85000000D03*
D19*
X144650000Y-77900000D03*
D18*
X150550000Y-76250000D03*
X136510000Y-88500000D03*
X176350000Y-101600000D03*
X136500000Y-94750000D03*
D19*
X143500000Y-77900000D03*
X164900000Y-91450000D03*
D18*
X147300000Y-94550000D03*
X168800000Y-78800000D03*
%TO.N,/GPIO0*%
X136750000Y-83250000D03*
X164500000Y-84250000D03*
%TO.N,/I2C_SCL*%
X158849997Y-80660050D03*
X171500000Y-78700000D03*
%TO.N,/I2C_SCK*%
X159650000Y-79750000D03*
X171500000Y-77800000D03*
%TO.N,/TP_INT*%
X160250000Y-79150000D03*
X171500000Y-76850000D03*
%TO.N,/LCD_BLK*%
X177000000Y-93600000D03*
X144550000Y-88850000D03*
%TO.N,/SPI_CS*%
X175625000Y-82682028D03*
X181900000Y-80300000D03*
%TO.N,/SPI_Q*%
X181400002Y-82700000D03*
X175625437Y-84275735D03*
%TO.N,/SPI_WP*%
X174874265Y-82274265D03*
X181400002Y-84000000D03*
%TO.N,/LCD_D5*%
X169591469Y-90346804D03*
X157939272Y-85796801D03*
%TO.N,/LCD_WR*%
X165250000Y-77550000D03*
X159100000Y-78600000D03*
%TO.N,/LCD_D2*%
X157939272Y-83300000D03*
X173217157Y-90832843D03*
%TO.N,/LCD_D3*%
X157930576Y-84114497D03*
X172400000Y-91200000D03*
%TO.N,/LCD_D4*%
X170191469Y-90906468D03*
X157939272Y-84996798D03*
%TO.N,/LCD_CS*%
X164050000Y-76400000D03*
X157862434Y-76541968D03*
%TO.N,/LCD_D0*%
X157500000Y-80511957D03*
X175299264Y-88099264D03*
%TO.N,/LCD_D6*%
X174838815Y-86937935D03*
X157939272Y-87174265D03*
%TO.N,/TP_RESET*%
X156500000Y-88150000D03*
X174000000Y-80150000D03*
%TO.N,/LCD_DC*%
X158742228Y-77884456D03*
X164650000Y-77000000D03*
%TO.N,/LCD_RD*%
X158500000Y-79600000D03*
X165825078Y-78115687D03*
%TO.N,/LCD_D1*%
X175323529Y-88923529D03*
X157000000Y-81250000D03*
%TO.N,/LCD_D7*%
X157339272Y-87754259D03*
X175850000Y-86900000D03*
%TO.N,/LCD_RES*%
X163450000Y-75800000D03*
X158835713Y-75800000D03*
%TO.N,/BAP_RX*%
X162450000Y-71800000D03*
X166300000Y-76300000D03*
%TO.N,/BAP_TX*%
X165200000Y-76300000D03*
X163550000Y-71800000D03*
%TO.N,/GPIO2*%
X162624265Y-75200000D03*
X155950000Y-68050000D03*
%TO.N,/GPIO1*%
X157000000Y-66000000D03*
X162024265Y-74224265D03*
%TO.N,/P_RX*%
X173800000Y-98250000D03*
%TO.N,/P_TX*%
X175100000Y-98250000D03*
%TD*%
D20*
%TO.N,GND*%
X175085000Y-100555000D02*
X175085000Y-101585000D01*
X175085000Y-101585000D02*
X175100000Y-101600000D01*
D21*
%TO.N,/5V_BAP*%
X155100000Y-63800000D02*
X160300000Y-63800000D01*
D20*
%TO.N,/RESET*%
X156200000Y-82700000D02*
X158281372Y-82700000D01*
X155550000Y-82050000D02*
X156200000Y-82700000D01*
X139350000Y-82050000D02*
X139350000Y-93350000D01*
X171100000Y-96350000D02*
X173000000Y-94450000D01*
X139350000Y-93350000D02*
X141600000Y-95600000D01*
X141600000Y-95600000D02*
X153500000Y-95600000D01*
X177200000Y-95900000D02*
X177200000Y-97150000D01*
X139350000Y-82050000D02*
X155550000Y-82050000D01*
X177200000Y-97150000D02*
X176355000Y-97995000D01*
X161050000Y-94300000D02*
X163100000Y-96350000D01*
X175750000Y-94450000D02*
X177200000Y-95900000D01*
X154800000Y-94300000D02*
X161050000Y-94300000D01*
X163100000Y-96350000D02*
X171100000Y-96350000D01*
X160631372Y-85050000D02*
X164500000Y-85050000D01*
X158281372Y-82700000D02*
X160631372Y-85050000D01*
X176355000Y-97995000D02*
X176355000Y-99285000D01*
X153500000Y-95600000D02*
X154800000Y-94300000D01*
X173000000Y-94450000D02*
X175750000Y-94450000D01*
%TO.N,/3V3*%
X176350000Y-100560000D02*
X176355000Y-100555000D01*
X176350000Y-101600000D02*
X176350000Y-100560000D01*
%TO.N,/GPIO0*%
X173815000Y-102235000D02*
X173815000Y-100555000D01*
X138700000Y-81000000D02*
X139650000Y-81000000D01*
X137450000Y-92600000D02*
X140950000Y-96100000D01*
X169850000Y-99750000D02*
X171150000Y-101050000D01*
X136750000Y-83250000D02*
X137000000Y-83500000D01*
X160900000Y-94800000D02*
X165850000Y-99750000D01*
X140300000Y-81650000D02*
X156150000Y-81650000D01*
X171150000Y-101050000D02*
X171150000Y-102150000D01*
X160397058Y-84250000D02*
X164500000Y-84250000D01*
X173400000Y-102650000D02*
X173815000Y-102235000D01*
X139650000Y-81000000D02*
X140300000Y-81650000D01*
X156677669Y-82177669D02*
X158324727Y-82177669D01*
X165850000Y-99750000D02*
X169850000Y-99750000D01*
X171150000Y-102150000D02*
X171650000Y-102650000D01*
X138700000Y-81000000D02*
X137450000Y-82250000D01*
X137000000Y-83500000D02*
X137450000Y-83500000D01*
X137450000Y-83500000D02*
X137450000Y-92600000D01*
X156150000Y-81650000D02*
X156677669Y-82177669D01*
X137450000Y-82250000D02*
X137450000Y-83500000D01*
X140950000Y-96100000D02*
X153700000Y-96100000D01*
X171650000Y-102650000D02*
X173400000Y-102650000D01*
X153700000Y-96100000D02*
X155000000Y-94800000D01*
X158324727Y-82177669D02*
X160397058Y-84250000D01*
X155000000Y-94800000D02*
X160900000Y-94800000D01*
%TO.N,/I2C_SCL*%
X159160047Y-80350000D02*
X169850000Y-80350000D01*
X158849997Y-80660050D02*
X159160047Y-80350000D01*
X169850000Y-80350000D02*
X171500000Y-78700000D01*
%TO.N,/I2C_SCK*%
X169400000Y-79900000D02*
X171500000Y-77800000D01*
X159650000Y-79750000D02*
X160401471Y-79750000D01*
X160551471Y-79900000D02*
X169400000Y-79900000D01*
X160401471Y-79750000D02*
X160551471Y-79900000D01*
%TO.N,/TP_INT*%
X160667157Y-79450000D02*
X168998529Y-79450000D01*
X169400000Y-79000000D02*
X171500000Y-76900000D01*
X169400000Y-79048529D02*
X169400000Y-79000000D01*
X160250000Y-79150000D02*
X160450000Y-79350000D01*
X160450000Y-79350000D02*
X160567157Y-79350000D01*
X160567157Y-79350000D02*
X160667157Y-79450000D01*
X171500000Y-76900000D02*
X171500000Y-76850000D01*
X168998529Y-79450000D02*
X169400000Y-79048529D01*
%TO.N,/LCD_BLK*%
X177000000Y-93600000D02*
X148550000Y-93600000D01*
X144550000Y-89600000D02*
X144550000Y-88850000D01*
X148550000Y-93600000D02*
X144550000Y-89600000D01*
%TO.N,/SPI_CS*%
X176857028Y-81450000D02*
X175625000Y-82682028D01*
X180750000Y-81450000D02*
X176857028Y-81450000D01*
X181900000Y-80300000D02*
X180750000Y-81450000D01*
%TO.N,/SPI_Q*%
X175924265Y-84275735D02*
X177500000Y-82700000D01*
X175625437Y-84275735D02*
X175924265Y-84275735D01*
X177500000Y-82700000D02*
X181400002Y-82700000D01*
%TO.N,/SPI_WP*%
X174974265Y-84524264D02*
X174974265Y-84027206D01*
X175000000Y-82400000D02*
X174874265Y-82274265D01*
X175000000Y-84001471D02*
X175000000Y-82400000D01*
X181400002Y-84000000D02*
X177400000Y-84000000D01*
X177400000Y-84000000D02*
X176524265Y-84875735D01*
X176524265Y-84875735D02*
X175325736Y-84875735D01*
X174974265Y-84027206D02*
X175000000Y-84001471D01*
X175325736Y-84875735D02*
X174974265Y-84524264D01*
%TO.N,/LCD_D5*%
X160050000Y-88150000D02*
X165350000Y-88150000D01*
X167546804Y-90346804D02*
X169591469Y-90346804D01*
X165350000Y-88150000D02*
X167546804Y-90346804D01*
X157939272Y-85796801D02*
X157939272Y-86039272D01*
X157939272Y-86039272D02*
X160050000Y-88150000D01*
%TO.N,/LCD_WR*%
X160100000Y-77600000D02*
X165200000Y-77600000D01*
X165200000Y-77600000D02*
X165250000Y-77550000D01*
X159100000Y-78600000D02*
X160100000Y-77600000D01*
%TO.N,/LCD_D2*%
X161165686Y-86150000D02*
X166215686Y-86150000D01*
X158615686Y-83600000D02*
X161165686Y-86150000D01*
X157939272Y-83300000D02*
X158239272Y-83600000D01*
X173217157Y-90517157D02*
X173217157Y-90832843D01*
X168065686Y-88000000D02*
X170700000Y-88000000D01*
X170700000Y-88000000D02*
X173217157Y-90517157D01*
X158239272Y-83600000D02*
X158615686Y-83600000D01*
X166215686Y-86150000D02*
X168065686Y-88000000D01*
%TO.N,/LCD_D3*%
X168000000Y-88500000D02*
X170400000Y-88500000D01*
X166050000Y-86550000D02*
X168000000Y-88500000D01*
X170400000Y-88500000D02*
X172400000Y-90500000D01*
X158416079Y-84600000D02*
X159050000Y-84600000D01*
X161000000Y-86550000D02*
X166050000Y-86550000D01*
X157930576Y-84114497D02*
X158416079Y-84600000D01*
X159050000Y-84600000D02*
X161000000Y-86550000D01*
X172400000Y-90500000D02*
X172400000Y-91200000D01*
%TO.N,/LCD_D4*%
X170191469Y-90098275D02*
X170191469Y-90906468D01*
X157939272Y-84996798D02*
X157942474Y-85000000D01*
X167512490Y-89746804D02*
X169839998Y-89746804D01*
X161350000Y-87750000D02*
X165515686Y-87750000D01*
X165515686Y-87750000D02*
X167512490Y-89746804D01*
X158600000Y-85000000D02*
X161350000Y-87750000D01*
X169839998Y-89746804D02*
X170191469Y-90098275D01*
X157942474Y-85000000D02*
X158600000Y-85000000D01*
%TO.N,/LCD_CS*%
X158250000Y-76400000D02*
X164050000Y-76400000D01*
X158108032Y-76541968D02*
X158250000Y-76400000D01*
X157862434Y-76541968D02*
X158108032Y-76541968D01*
%TO.N,/LCD_D0*%
X157811957Y-80511957D02*
X160500000Y-83200000D01*
X165115686Y-83200000D02*
X165850000Y-83934314D01*
X165850000Y-84600000D02*
X168350000Y-87100000D01*
X157500000Y-80511957D02*
X157811957Y-80511957D01*
X171100000Y-87100000D02*
X172099264Y-88099264D01*
X160500000Y-83200000D02*
X165115686Y-83200000D01*
X165850000Y-83934314D02*
X165850000Y-84600000D01*
X172099264Y-88099264D02*
X175299264Y-88099264D01*
X168350000Y-87100000D02*
X171100000Y-87100000D01*
%TO.N,/LCD_D6*%
X176298529Y-87850000D02*
X175950000Y-87850000D01*
X160150000Y-90250000D02*
X165700000Y-90250000D01*
X175950000Y-91800000D02*
X176650000Y-91100000D01*
X175950000Y-87850000D02*
X175037935Y-86937935D01*
X176650000Y-91100000D02*
X176650000Y-88201471D01*
X157939272Y-87174265D02*
X157939272Y-88039272D01*
X157939272Y-88039272D02*
X160150000Y-90250000D01*
X176650000Y-88201471D02*
X176298529Y-87850000D01*
X167250000Y-91800000D02*
X175950000Y-91800000D01*
X165700000Y-90250000D02*
X167250000Y-91800000D01*
X175037935Y-86937935D02*
X174838815Y-86937935D01*
%TO.N,/TP_RESET*%
X176500000Y-92600000D02*
X177600000Y-91500000D01*
X177600000Y-87550000D02*
X175500000Y-85450000D01*
X156750000Y-88150000D02*
X159700000Y-91100000D01*
X163200000Y-91100000D02*
X164700000Y-92600000D01*
X164700000Y-92600000D02*
X176500000Y-92600000D01*
X175150000Y-85450000D02*
X174250000Y-84550000D01*
X159700000Y-91100000D02*
X163200000Y-91100000D01*
X174550000Y-81750000D02*
X174550000Y-80700000D01*
X174250000Y-84550000D02*
X174250000Y-82050000D01*
X175500000Y-85450000D02*
X175150000Y-85450000D01*
X174550000Y-80700000D02*
X174000000Y-80150000D01*
X156500000Y-88150000D02*
X156750000Y-88150000D01*
X177600000Y-91500000D02*
X177600000Y-87550000D01*
X174250000Y-82050000D02*
X174550000Y-81750000D01*
%TO.N,/LCD_DC*%
X159626684Y-77000000D02*
X164650000Y-77000000D01*
X158742228Y-77884456D02*
X159626684Y-77000000D01*
%TO.N,/LCD_RD*%
X158500000Y-79600000D02*
X158951471Y-79600000D01*
X165790765Y-78150000D02*
X165825078Y-78115687D01*
X160401471Y-78150000D02*
X165790765Y-78150000D01*
X158951471Y-79600000D02*
X160401471Y-78150000D01*
%TO.N,/LCD_D1*%
X165000000Y-83650000D02*
X165450000Y-84100000D01*
X165450000Y-84100000D02*
X165450000Y-84818628D01*
X172223529Y-88923529D02*
X175323529Y-88923529D01*
X157000000Y-81250000D02*
X157962744Y-81250000D01*
X170900000Y-87600000D02*
X172223529Y-88923529D01*
X165450000Y-84818628D02*
X168231372Y-87600000D01*
X157962744Y-81250000D02*
X160362744Y-83650000D01*
X160362744Y-83650000D02*
X165000000Y-83650000D01*
X168231372Y-87600000D02*
X170900000Y-87600000D01*
%TO.N,/LCD_D7*%
X157339272Y-88089272D02*
X159900000Y-90650000D01*
X157339272Y-87754259D02*
X157339272Y-88089272D01*
X177100000Y-91350000D02*
X177100000Y-88085785D01*
X175914215Y-86900000D02*
X175850000Y-86900000D01*
X165400000Y-90650000D02*
X166950000Y-92200000D01*
X177100000Y-88085785D02*
X175914215Y-86900000D01*
X159900000Y-90650000D02*
X165400000Y-90650000D01*
X176250000Y-92200000D02*
X177100000Y-91350000D01*
X166950000Y-92200000D02*
X176250000Y-92200000D01*
%TO.N,/LCD_RES*%
X158835713Y-75800000D02*
X163450000Y-75800000D01*
%TO.N,/BAP_RX*%
X164000000Y-71150000D02*
X166300000Y-73450000D01*
X162450000Y-71800000D02*
X163100000Y-71150000D01*
X166300000Y-73450000D02*
X166300000Y-76300000D01*
X163100000Y-71150000D02*
X164000000Y-71150000D01*
%TO.N,/BAP_TX*%
X163550000Y-71800000D02*
X163550000Y-73100000D01*
X165200000Y-74750000D02*
X165200000Y-76300000D01*
X163550000Y-73100000D02*
X165200000Y-74750000D01*
%TO.N,/GPIO2*%
X155900000Y-68100000D02*
X155900000Y-69900000D01*
X161200000Y-75200000D02*
X157000000Y-71000000D01*
X162624265Y-75200000D02*
X161200000Y-75200000D01*
X155950000Y-68050000D02*
X155900000Y-68100000D01*
X155900000Y-69900000D02*
X157000000Y-71000000D01*
%TO.N,/GPIO1*%
X157300000Y-69500000D02*
X157300000Y-66300000D01*
X162024265Y-74224265D02*
X157300000Y-69500000D01*
X157300000Y-66300000D02*
X157000000Y-66000000D01*
%TO.N,/P_RX*%
X173800000Y-98250000D02*
X173800000Y-97400000D01*
X173800000Y-97400000D02*
X173250000Y-96850000D01*
X173815000Y-99285000D02*
X173815000Y-98265000D01*
X173815000Y-98265000D02*
X173800000Y-98250000D01*
%TO.N,/P_TX*%
X175085000Y-99285000D02*
X175085000Y-98265000D01*
X175085000Y-98265000D02*
X175100000Y-98250000D01*
X175100000Y-98250000D02*
X175100000Y-97500000D01*
X175100000Y-97500000D02*
X175750000Y-96850000D01*
%TD*%
D22*
X132873000Y-103800000D02*
G75*
G02*
X130073000Y-101000000I0J2800000D01*
G01*
X176970101Y-62204899D02*
X139400000Y-62200000D01*
X186624568Y-100999053D02*
G75*
G02*
X183647004Y-103799936I-2818968J13653D01*
G01*
X130079899Y-71879899D02*
G75*
G02*
X132879899Y-69079899I2800001J-1D01*
G01*
X132873000Y-103800000D02*
X183647000Y-103800000D01*
X136600000Y-65000000D02*
G75*
G02*
X139400000Y-62200000I2800000J0D01*
G01*
X133820101Y-69120101D02*
X132879899Y-69079899D01*
X136600000Y-65000000D02*
X136620101Y-66320101D01*
X181675506Y-69070019D02*
G75*
G02*
X179779900Y-66420101I904394J2649919D01*
G01*
X181675506Y-69070020D02*
G75*
G02*
X183102045Y-70950000I-525506J-1879980D01*
G01*
X186620000Y-96500000D02*
X186620000Y-101000000D01*
X130079899Y-71879899D02*
X130073000Y-101000000D01*
X184400000Y-95000000D02*
X185120000Y-95000000D01*
X183102045Y-70950000D02*
X183100000Y-93500000D01*
X136620101Y-66320101D02*
G75*
G02*
X133820101Y-69120101I-2800001J1D01*
G01*
X176970101Y-62204899D02*
G75*
G02*
X179770101Y-65004899I-1J-2800001D01*
G01*
X184400000Y-94999999D02*
G75*
G02*
X183100001Y-93500000I100000J1399999D01*
G01*
X179770101Y-65004899D02*
X179779899Y-66420101D01*
X185120000Y-95000000D02*
G75*
G02*
X186620000Y-96500000I0J-1500000D01*
G01*
M02*
