%TF.GenerationSoftware,KiCad,Pcbnew,8.0.6*%
%TF.CreationDate,2024-11-01T22:46:24-06:00*%
%TF.ProjectId,bitaxe-ESP-OLED,62697461-7865-42d4-9553-502d4f4c4544,v0.4*%
%TF.SameCoordinates,Original*%
%TF.FileFunction,Copper,L1,Top*%
%TF.FilePolarity,Positive*%
%FSLAX46Y46*%
G04 Gerber Fmt 4.6, Leading zero omitted, Abs format (unit mm)*
G04 Created by KiCad (PCBNEW 8.0.6) date 2024-11-01 22:46:24*
%MOMM*%
%LPD*%
G01*
G04 APERTURE LIST*
%TA.AperFunction,SMDPad,CuDef*%
%ADD10C,1.000000*%
%TD*%
%TA.AperFunction,ConnectorPad*%
%ADD11C,0.787400*%
%TD*%
%TA.AperFunction,ComponentPad*%
%ADD12C,0.800000*%
%TD*%
%TA.AperFunction,ComponentPad*%
%ADD13C,6.000000*%
%TD*%
%TA.AperFunction,ComponentPad*%
%ADD14O,1.000000X1.800000*%
%TD*%
%TA.AperFunction,ComponentPad*%
%ADD15O,1.000000X2.100000*%
%TD*%
%TA.AperFunction,HeatsinkPad*%
%ADD16C,0.500000*%
%TD*%
%TA.AperFunction,HeatsinkPad*%
%ADD17R,4.000000X4.000000*%
%TD*%
%TA.AperFunction,ViaPad*%
%ADD18C,0.600000*%
%TD*%
%TA.AperFunction,ViaPad*%
%ADD19C,1.000000*%
%TD*%
%TA.AperFunction,Conductor*%
%ADD20C,0.200000*%
%TD*%
%TA.AperFunction,Conductor*%
%ADD21C,0.500000*%
%TD*%
%TA.AperFunction,Profile*%
%ADD22C,0.100000*%
%TD*%
G04 APERTURE END LIST*
D10*
%TO.P,TP3,1,1*%
%TO.N,/GPIO1*%
X160500000Y-73000000D03*
%TD*%
D11*
%TO.P,J3,1,Pin_1*%
%TO.N,/RESET*%
X176355000Y-99285000D03*
%TO.P,J3,2,Pin_2*%
%TO.N,/3V3*%
X176355000Y-100555000D03*
%TO.P,J3,3,Pin_3*%
%TO.N,/P_TX*%
X175085000Y-99285000D03*
%TO.P,J3,4,Pin_4*%
%TO.N,GND*%
X175085000Y-100555000D03*
%TO.P,J3,5,Pin_5*%
%TO.N,/P_RX*%
X173815000Y-99285000D03*
%TO.P,J3,6,Pin_6*%
%TO.N,/GPIO0*%
X173815000Y-100555000D03*
%TD*%
D10*
%TO.P,TP7,1,1*%
%TO.N,/P_RX*%
X173250000Y-96850000D03*
%TD*%
D12*
%TO.P,H3,1*%
%TO.N,N/C*%
X131323000Y-100000000D03*
X131982010Y-98409010D03*
X131982010Y-101590990D03*
X133573000Y-97750000D03*
D13*
X133573000Y-100000000D03*
D12*
X133573000Y-102250000D03*
X135163990Y-98409010D03*
X135163990Y-101590990D03*
X135823000Y-100000000D03*
%TD*%
D10*
%TO.P,TP6,1,1*%
%TO.N,/P_TX*%
X175750000Y-96850000D03*
%TD*%
D12*
%TO.P,H4,1*%
%TO.N,N/C*%
X180750000Y-100000000D03*
X181409010Y-98409010D03*
X181409010Y-101590990D03*
X183000000Y-97750000D03*
D13*
X183000000Y-100000000D03*
D12*
X183000000Y-102250000D03*
X184590990Y-98409010D03*
X184590990Y-101590990D03*
X185250000Y-100000000D03*
%TD*%
D10*
%TO.P,TP4,1,1*%
%TO.N,/GPIO2*%
X157000000Y-71000000D03*
%TD*%
D14*
%TO.P,J2,S1,SHIELD*%
%TO.N,GND*%
X168780000Y-65425000D03*
D15*
X168780000Y-69605000D03*
D14*
X177420000Y-65425000D03*
D15*
X177420000Y-69605000D03*
%TD*%
D16*
%TO.P,U2,57,PAD*%
%TO.N,GND*%
X168500000Y-82550000D03*
X168500000Y-84300000D03*
X168500000Y-86050000D03*
X170250000Y-82550000D03*
X170250000Y-84300000D03*
D17*
X170250000Y-84300000D03*
D16*
X170250000Y-86050000D03*
X172000000Y-82550000D03*
X172000000Y-84300000D03*
X172000000Y-86050000D03*
%TD*%
D18*
%TO.N,GND*%
X135500000Y-75250000D03*
X150600000Y-77250000D03*
X133750000Y-95500000D03*
X164815000Y-94900000D03*
D19*
X145200000Y-72400000D03*
D18*
X169000000Y-76750000D03*
X134000000Y-84750000D03*
X151800000Y-88050000D03*
X171650000Y-94670000D03*
X136510000Y-86750000D03*
D19*
X140250000Y-72500000D03*
D18*
X133750000Y-89250000D03*
X134250000Y-91250000D03*
D19*
X142700000Y-66550000D03*
D18*
X134750000Y-71750000D03*
X174850000Y-73900000D03*
X171850000Y-73900000D03*
X175100000Y-101600000D03*
X161000000Y-68000000D03*
X151950000Y-80250000D03*
X181900000Y-86500000D03*
X144650000Y-87850000D03*
X136500000Y-93200000D03*
D19*
X158800000Y-74600000D03*
D18*
X176250000Y-79650000D03*
X168400000Y-91200000D03*
X151650000Y-75350000D03*
D19*
X175550000Y-90950000D03*
X160700000Y-89200000D03*
X158450000Y-91500000D03*
D18*
X136500000Y-79750000D03*
X133500000Y-82250000D03*
X150550000Y-83600000D03*
X134750000Y-78250000D03*
D19*
X161450000Y-82150000D03*
D18*
X151900000Y-90600000D03*
D19*
%TO.N,/VBUS*%
X175875000Y-71875000D03*
X170450000Y-72000000D03*
X151000000Y-70850000D03*
D18*
%TO.N,/5V_BAP*%
X155100000Y-63800000D03*
X160300000Y-63800000D03*
%TO.N,/RESET*%
X164850000Y-85800000D03*
X139350000Y-82050000D03*
%TO.N,/3V3*%
X136500000Y-81000000D03*
X137200000Y-75500000D03*
D19*
X162850000Y-82100000D03*
X174250000Y-91000000D03*
X165005971Y-88950000D03*
D18*
X150500000Y-85000000D03*
D19*
X144650000Y-77900000D03*
D18*
X150550000Y-76250000D03*
X136510000Y-88500000D03*
X176350000Y-101600000D03*
X136500000Y-94750000D03*
D19*
X143500000Y-77900000D03*
X164900000Y-91450000D03*
D18*
X147300000Y-94550000D03*
X168800000Y-78800000D03*
%TO.N,/GPIO0*%
X136750000Y-83250000D03*
X164450000Y-85100000D03*
%TO.N,/I2C_SCL*%
X158849997Y-80660050D03*
X171650000Y-75950000D03*
%TO.N,/I2C_SCK*%
X159650000Y-79750000D03*
X170850000Y-75950000D03*
%TO.N,/TP_INT*%
X160250000Y-79150000D03*
X170049997Y-75950000D03*
%TO.N,/LCD_BLK*%
X177000000Y-93600000D03*
X144550000Y-88850000D03*
%TO.N,/SPI_CS*%
X175574265Y-83075735D03*
X181900000Y-80300000D03*
%TO.N,/SPI_Q*%
X181400002Y-82700000D03*
X175625437Y-84275735D03*
%TO.N,/SPI_WP*%
X175400000Y-82274265D03*
X181400002Y-84000000D03*
%TO.N,/LCD_D5*%
X169591469Y-90346804D03*
X157939272Y-85796801D03*
%TO.N,/LCD_WR*%
X165250000Y-77550000D03*
X159100000Y-78600000D03*
%TO.N,/LCD_D2*%
X157939272Y-83300000D03*
X173217157Y-90832843D03*
%TO.N,/LCD_D3*%
X157930576Y-84114497D03*
X172400000Y-91200000D03*
%TO.N,/LCD_D4*%
X170191469Y-90906468D03*
X157939272Y-84996798D03*
%TO.N,/LCD_CS*%
X164050000Y-76400000D03*
X157862434Y-76541968D03*
%TO.N,/LCD_D0*%
X157500000Y-80511957D03*
X175299264Y-88099264D03*
%TO.N,/LCD_D6*%
X174838815Y-86937935D03*
X157939272Y-87174265D03*
%TO.N,/TP_RESET*%
X156500000Y-88150000D03*
X177400000Y-79950000D03*
%TO.N,/LCD_DC*%
X158742228Y-77884456D03*
X164650000Y-77000000D03*
%TO.N,/LCD_RD*%
X158500000Y-79600000D03*
X165825078Y-78115687D03*
%TO.N,/LCD_D1*%
X175323529Y-88923529D03*
X157000000Y-81250000D03*
%TO.N,/LCD_D7*%
X157339272Y-87754259D03*
X175850000Y-86900000D03*
%TO.N,/LCD_RES*%
X163450000Y-75800000D03*
X158835713Y-75800000D03*
%TO.N,/BAP_RX*%
X162450000Y-71800000D03*
X166300000Y-76300000D03*
%TO.N,/BAP_TX*%
X165200000Y-76300000D03*
X163550000Y-71800000D03*
%TO.N,/GPIO2*%
X162624265Y-75200000D03*
X155950000Y-68050000D03*
%TO.N,/GPIO1*%
X157000000Y-66000000D03*
X162024265Y-74224265D03*
%TO.N,/P_RX*%
X173800000Y-98250000D03*
%TO.N,/P_TX*%
X175100000Y-98250000D03*
%TD*%
D20*
%TO.N,/TP_RESET*%
X156750000Y-88150000D02*
X156500000Y-88150000D01*
X159700000Y-91100000D02*
X156750000Y-88150000D01*
X163200000Y-91100000D02*
X159700000Y-91100000D01*
X164700000Y-92600000D02*
X163200000Y-91100000D01*
X176500000Y-92600000D02*
X164700000Y-92600000D01*
X177600000Y-91500000D02*
X176500000Y-92600000D01*
X174550000Y-82150000D02*
X174550000Y-84850000D01*
X177600000Y-87550000D02*
X177600000Y-91500000D01*
X176000000Y-81350000D02*
X175350000Y-81350000D01*
X174550000Y-84850000D02*
X175150000Y-85450000D01*
X175350000Y-81350000D02*
X174550000Y-82150000D01*
X177400000Y-79950000D02*
X176000000Y-81350000D01*
X175150000Y-85450000D02*
X175500000Y-85450000D01*
X175500000Y-85450000D02*
X177600000Y-87550000D01*
%TO.N,/SPI_WP*%
X177400000Y-84000000D02*
X181400002Y-84000000D01*
X175325736Y-84875735D02*
X176524265Y-84875735D01*
X174974265Y-84524264D02*
X175325736Y-84875735D01*
X174974265Y-82700000D02*
X174974265Y-84524264D01*
X176524265Y-84875735D02*
X177400000Y-84000000D01*
X175400000Y-82274265D02*
X174974265Y-82700000D01*
%TO.N,/SPI_CS*%
X177200000Y-81450000D02*
X180750000Y-81450000D01*
X180750000Y-81450000D02*
X181900000Y-80300000D01*
X175574265Y-83075735D02*
X177200000Y-81450000D01*
%TO.N,/I2C_SCL*%
X168250000Y-78200000D02*
X166500000Y-79950000D01*
X161115685Y-79950000D02*
X160415685Y-80650000D01*
X169448529Y-78200000D02*
X168250000Y-78200000D01*
X171650000Y-75998529D02*
X169448529Y-78200000D01*
X171650000Y-75950000D02*
X171650000Y-75998529D01*
X158860047Y-80650000D02*
X158849997Y-80660050D01*
X166500000Y-79950000D02*
X161115685Y-79950000D01*
X160415685Y-80650000D02*
X158860047Y-80650000D01*
%TO.N,/I2C_SCK*%
X169050000Y-77800000D02*
X170850000Y-76000000D01*
X168050000Y-77800000D02*
X169050000Y-77800000D01*
X166450000Y-79400000D02*
X168050000Y-77800000D01*
X170850000Y-76000000D02*
X170850000Y-75950000D01*
X161100000Y-79400000D02*
X166450000Y-79400000D01*
X160750000Y-79750000D02*
X161100000Y-79400000D01*
X159650000Y-79750000D02*
X160750000Y-79750000D01*
%TO.N,/TP_INT*%
X168400000Y-75950000D02*
X170049997Y-75950000D01*
X166250000Y-78950000D02*
X167800000Y-77400000D01*
X167800000Y-76550000D02*
X168400000Y-75950000D01*
X160450000Y-78950000D02*
X166250000Y-78950000D01*
X160250000Y-79150000D02*
X160450000Y-78950000D01*
X167800000Y-77400000D02*
X167800000Y-76550000D01*
%TO.N,/RESET*%
X155550000Y-82050000D02*
X139350000Y-82050000D01*
X156200000Y-82700000D02*
X155550000Y-82050000D01*
X158281372Y-82700000D02*
X156200000Y-82700000D01*
X161381372Y-85800000D02*
X158281372Y-82700000D01*
X164850000Y-85800000D02*
X161381372Y-85800000D01*
%TO.N,/GPIO0*%
X137450000Y-82250000D02*
X137450000Y-83500000D01*
X138700000Y-81000000D02*
X137450000Y-82250000D01*
X156150000Y-81650000D02*
X140300000Y-81650000D01*
X156677669Y-82177669D02*
X156150000Y-81650000D01*
X140300000Y-81650000D02*
X139650000Y-81000000D01*
X158324727Y-82177669D02*
X156677669Y-82177669D01*
X161247058Y-85100000D02*
X158324727Y-82177669D01*
X164450000Y-85100000D02*
X161247058Y-85100000D01*
X139650000Y-81000000D02*
X138700000Y-81000000D01*
%TO.N,/LCD_D0*%
X173600000Y-89350000D02*
X174850736Y-88099264D01*
X171950000Y-89350000D02*
X173600000Y-89350000D01*
X168250000Y-88000000D02*
X170600000Y-88000000D01*
X170600000Y-88000000D02*
X171950000Y-89350000D01*
X174850736Y-88099264D02*
X175299264Y-88099264D01*
X165850000Y-84800000D02*
X165850000Y-85600000D01*
X165850000Y-85600000D02*
X168250000Y-88000000D01*
X161350000Y-84050000D02*
X165100000Y-84050000D01*
X165100000Y-84050000D02*
X165850000Y-84800000D01*
X157811957Y-80511957D02*
X161350000Y-84050000D01*
X157500000Y-80511957D02*
X157811957Y-80511957D01*
%TO.N,/LCD_D1*%
X174676471Y-88923529D02*
X175323529Y-88923529D01*
X173800000Y-89800000D02*
X174676471Y-88923529D01*
X165450000Y-85800000D02*
X168100000Y-88450000D01*
X165450000Y-85000000D02*
X165450000Y-85800000D01*
X168100000Y-88450000D02*
X170450000Y-88450000D01*
X164900000Y-84450000D02*
X165450000Y-85000000D01*
X161162744Y-84450000D02*
X164900000Y-84450000D01*
X157962744Y-81250000D02*
X161162744Y-84450000D01*
X157000000Y-81250000D02*
X157962744Y-81250000D01*
X170450000Y-88450000D02*
X171800000Y-89800000D01*
X171800000Y-89800000D02*
X173800000Y-89800000D01*
%TO.N,/LCD_D2*%
X171650000Y-90250000D02*
X172634314Y-90250000D01*
X167900000Y-88850000D02*
X170250000Y-88850000D01*
X165900000Y-86850000D02*
X167900000Y-88850000D01*
X161865686Y-86850000D02*
X165900000Y-86850000D01*
X158615686Y-83600000D02*
X161865686Y-86850000D01*
X158239272Y-83600000D02*
X158615686Y-83600000D01*
X157939272Y-83300000D02*
X158239272Y-83600000D01*
X170250000Y-88850000D02*
X171650000Y-90250000D01*
X172634314Y-90250000D02*
X173217157Y-90832843D01*
%TO.N,/LCD_D3*%
X161750000Y-87300000D02*
X165700000Y-87300000D01*
X165700000Y-87300000D02*
X167700000Y-89300000D01*
X170050000Y-89300000D02*
X171950000Y-91200000D01*
X159050000Y-84600000D02*
X161750000Y-87300000D01*
X167700000Y-89300000D02*
X170050000Y-89300000D01*
X171950000Y-91200000D02*
X172400000Y-91200000D01*
X158416079Y-84600000D02*
X159050000Y-84600000D01*
X157930576Y-84114497D02*
X158416079Y-84600000D01*
%TO.N,GND*%
X175085000Y-100555000D02*
X175085000Y-101585000D01*
X175085000Y-101585000D02*
X175100000Y-101600000D01*
D21*
%TO.N,/5V_BAP*%
X155100000Y-63800000D02*
X160300000Y-63800000D01*
D20*
%TO.N,/RESET*%
X139350000Y-82050000D02*
X139350000Y-93350000D01*
X171100000Y-96350000D02*
X173000000Y-94450000D01*
X139350000Y-93350000D02*
X141600000Y-95600000D01*
X141600000Y-95600000D02*
X153500000Y-95600000D01*
X177200000Y-95900000D02*
X177200000Y-97150000D01*
X177200000Y-97150000D02*
X176355000Y-97995000D01*
X161050000Y-94300000D02*
X163100000Y-96350000D01*
X175750000Y-94450000D02*
X177200000Y-95900000D01*
X154800000Y-94300000D02*
X161050000Y-94300000D01*
X163100000Y-96350000D02*
X171100000Y-96350000D01*
X176355000Y-97995000D02*
X176355000Y-99285000D01*
X153500000Y-95600000D02*
X154800000Y-94300000D01*
X173000000Y-94450000D02*
X175750000Y-94450000D01*
%TO.N,/3V3*%
X176350000Y-100560000D02*
X176355000Y-100555000D01*
X176350000Y-101600000D02*
X176350000Y-100560000D01*
%TO.N,/GPIO0*%
X173815000Y-102235000D02*
X173815000Y-100555000D01*
X137450000Y-92600000D02*
X140950000Y-96100000D01*
X169850000Y-99750000D02*
X171150000Y-101050000D01*
X136750000Y-83250000D02*
X137000000Y-83500000D01*
X160900000Y-94800000D02*
X165850000Y-99750000D01*
X171150000Y-101050000D02*
X171150000Y-102150000D01*
X173400000Y-102650000D02*
X173815000Y-102235000D01*
X165850000Y-99750000D02*
X169850000Y-99750000D01*
X171150000Y-102150000D02*
X171650000Y-102650000D01*
X137000000Y-83500000D02*
X137450000Y-83500000D01*
X137450000Y-83500000D02*
X137450000Y-92600000D01*
X140950000Y-96100000D02*
X153700000Y-96100000D01*
X171650000Y-102650000D02*
X173400000Y-102650000D01*
X153700000Y-96100000D02*
X155000000Y-94800000D01*
X155000000Y-94800000D02*
X160900000Y-94800000D01*
%TO.N,/LCD_BLK*%
X177000000Y-93600000D02*
X148550000Y-93600000D01*
X144550000Y-89600000D02*
X144550000Y-88850000D01*
X148550000Y-93600000D02*
X144550000Y-89600000D01*
%TO.N,/SPI_Q*%
X175924265Y-84275735D02*
X177500000Y-82700000D01*
X175625437Y-84275735D02*
X175924265Y-84275735D01*
X177500000Y-82700000D02*
X181400002Y-82700000D01*
%TO.N,/LCD_D5*%
X160050000Y-88150000D02*
X165350000Y-88150000D01*
X167546804Y-90346804D02*
X169591469Y-90346804D01*
X165350000Y-88150000D02*
X167546804Y-90346804D01*
X157939272Y-85796801D02*
X157939272Y-86039272D01*
X157939272Y-86039272D02*
X160050000Y-88150000D01*
%TO.N,/LCD_WR*%
X160100000Y-77600000D02*
X165200000Y-77600000D01*
X165200000Y-77600000D02*
X165250000Y-77550000D01*
X159100000Y-78600000D02*
X160100000Y-77600000D01*
%TO.N,/LCD_D4*%
X170191469Y-90098275D02*
X170191469Y-90906468D01*
X157939272Y-84996798D02*
X157942474Y-85000000D01*
X167512490Y-89746804D02*
X169839998Y-89746804D01*
X161350000Y-87750000D02*
X165515686Y-87750000D01*
X165515686Y-87750000D02*
X167512490Y-89746804D01*
X158600000Y-85000000D02*
X161350000Y-87750000D01*
X169839998Y-89746804D02*
X170191469Y-90098275D01*
X157942474Y-85000000D02*
X158600000Y-85000000D01*
%TO.N,/LCD_CS*%
X158250000Y-76400000D02*
X164050000Y-76400000D01*
X158108032Y-76541968D02*
X158250000Y-76400000D01*
X157862434Y-76541968D02*
X158108032Y-76541968D01*
%TO.N,/LCD_D6*%
X176298529Y-87850000D02*
X175950000Y-87850000D01*
X160150000Y-90250000D02*
X165700000Y-90250000D01*
X175950000Y-91800000D02*
X176650000Y-91100000D01*
X175950000Y-87850000D02*
X175037935Y-86937935D01*
X176650000Y-91100000D02*
X176650000Y-88201471D01*
X157939272Y-87174265D02*
X157939272Y-88039272D01*
X157939272Y-88039272D02*
X160150000Y-90250000D01*
X176650000Y-88201471D02*
X176298529Y-87850000D01*
X167250000Y-91800000D02*
X175950000Y-91800000D01*
X165700000Y-90250000D02*
X167250000Y-91800000D01*
X175037935Y-86937935D02*
X174838815Y-86937935D01*
%TO.N,/LCD_DC*%
X159626684Y-77000000D02*
X164650000Y-77000000D01*
X158742228Y-77884456D02*
X159626684Y-77000000D01*
%TO.N,/LCD_RD*%
X158500000Y-79600000D02*
X158951471Y-79600000D01*
X165790765Y-78150000D02*
X165825078Y-78115687D01*
X160401471Y-78150000D02*
X165790765Y-78150000D01*
X158951471Y-79600000D02*
X160401471Y-78150000D01*
%TO.N,/LCD_D7*%
X157339272Y-88089272D02*
X159900000Y-90650000D01*
X157339272Y-87754259D02*
X157339272Y-88089272D01*
X177100000Y-91350000D02*
X177100000Y-88085785D01*
X175914215Y-86900000D02*
X175850000Y-86900000D01*
X165400000Y-90650000D02*
X166950000Y-92200000D01*
X177100000Y-88085785D02*
X175914215Y-86900000D01*
X159900000Y-90650000D02*
X165400000Y-90650000D01*
X176250000Y-92200000D02*
X177100000Y-91350000D01*
X166950000Y-92200000D02*
X176250000Y-92200000D01*
%TO.N,/LCD_RES*%
X158835713Y-75800000D02*
X163450000Y-75800000D01*
%TO.N,/BAP_RX*%
X164000000Y-71150000D02*
X166300000Y-73450000D01*
X162450000Y-71800000D02*
X163100000Y-71150000D01*
X166300000Y-73450000D02*
X166300000Y-76300000D01*
X163100000Y-71150000D02*
X164000000Y-71150000D01*
%TO.N,/BAP_TX*%
X163550000Y-71800000D02*
X163550000Y-73100000D01*
X165200000Y-74750000D02*
X165200000Y-76300000D01*
X163550000Y-73100000D02*
X165200000Y-74750000D01*
%TO.N,/GPIO2*%
X155900000Y-68100000D02*
X155900000Y-69900000D01*
X161200000Y-75200000D02*
X157000000Y-71000000D01*
X162624265Y-75200000D02*
X161200000Y-75200000D01*
X155950000Y-68050000D02*
X155900000Y-68100000D01*
X155900000Y-69900000D02*
X157000000Y-71000000D01*
%TO.N,/GPIO1*%
X157300000Y-69500000D02*
X157300000Y-66300000D01*
X162024265Y-74224265D02*
X157300000Y-69500000D01*
X157300000Y-66300000D02*
X157000000Y-66000000D01*
%TO.N,/P_RX*%
X173800000Y-98250000D02*
X173800000Y-97400000D01*
X173800000Y-97400000D02*
X173250000Y-96850000D01*
X173815000Y-99285000D02*
X173815000Y-98265000D01*
X173815000Y-98265000D02*
X173800000Y-98250000D01*
%TO.N,/P_TX*%
X175085000Y-99285000D02*
X175085000Y-98265000D01*
X175085000Y-98265000D02*
X175100000Y-98250000D01*
X175100000Y-98250000D02*
X175100000Y-97500000D01*
X175100000Y-97500000D02*
X175750000Y-96850000D01*
%TD*%
%TA.AperFunction,Conductor*%
%TO.N,GND*%
G36*
X180415677Y-74519685D02*
G01*
X180436319Y-74536319D01*
X181513681Y-75613681D01*
X181547166Y-75675004D01*
X181550000Y-75701362D01*
X181550000Y-78148638D01*
X181530315Y-78215677D01*
X181513681Y-78236319D01*
X179636319Y-80113681D01*
X179574996Y-80147166D01*
X179548638Y-80150000D01*
X178321787Y-80150000D01*
X178254748Y-80130315D01*
X178208993Y-80077511D01*
X178198567Y-80012117D01*
X178205565Y-79950004D01*
X178205565Y-79949996D01*
X178185369Y-79770750D01*
X178185368Y-79770745D01*
X178125788Y-79600476D01*
X178029815Y-79447737D01*
X177902262Y-79320184D01*
X177749523Y-79224211D01*
X177579254Y-79164631D01*
X177579249Y-79164630D01*
X177400004Y-79144435D01*
X177399996Y-79144435D01*
X177220750Y-79164630D01*
X177220745Y-79164631D01*
X177050476Y-79224211D01*
X176897737Y-79320184D01*
X176770184Y-79447737D01*
X176674210Y-79600478D01*
X176614630Y-79770750D01*
X176604837Y-79857668D01*
X176577770Y-79922082D01*
X176569298Y-79931465D01*
X176387083Y-80113681D01*
X176325760Y-80147166D01*
X176299402Y-80150000D01*
X175299999Y-80150000D01*
X174300000Y-81149999D01*
X174300000Y-81499402D01*
X174280315Y-81566441D01*
X174263681Y-81587083D01*
X174069481Y-81781282D01*
X174069479Y-81781284D01*
X174049499Y-81815891D01*
X174041054Y-81830520D01*
X173990423Y-81918215D01*
X173949499Y-82070943D01*
X173949499Y-82070945D01*
X173949499Y-82239046D01*
X173949500Y-82239059D01*
X173949500Y-84763330D01*
X173949499Y-84763348D01*
X173949499Y-84929054D01*
X173949498Y-84929054D01*
X173990424Y-85081789D01*
X173990425Y-85081790D01*
X174012186Y-85119480D01*
X174012187Y-85119482D01*
X174069475Y-85218709D01*
X174069481Y-85218717D01*
X174188349Y-85337585D01*
X174188355Y-85337590D01*
X174263681Y-85412916D01*
X174297166Y-85474239D01*
X174300000Y-85500597D01*
X174300000Y-86293310D01*
X174280315Y-86360349D01*
X174263681Y-86380991D01*
X174208999Y-86435672D01*
X174113026Y-86588411D01*
X174053446Y-86758680D01*
X174053445Y-86758685D01*
X174033250Y-86937931D01*
X174033250Y-86937938D01*
X174053445Y-87117184D01*
X174053446Y-87117189D01*
X174113026Y-87287458D01*
X174208999Y-87440197D01*
X174263681Y-87494879D01*
X174297166Y-87556202D01*
X174300000Y-87582560D01*
X174300000Y-87749402D01*
X174280315Y-87816441D01*
X174263681Y-87837083D01*
X173387584Y-88713181D01*
X173326261Y-88746666D01*
X173299903Y-88749500D01*
X172250097Y-88749500D01*
X172183058Y-88729815D01*
X172162416Y-88713181D01*
X171087590Y-87638355D01*
X171087588Y-87638352D01*
X170968717Y-87519481D01*
X170968716Y-87519480D01*
X170864960Y-87459577D01*
X170864959Y-87459576D01*
X170831783Y-87440422D01*
X170775881Y-87425443D01*
X170679057Y-87399499D01*
X170520943Y-87399499D01*
X170513347Y-87399499D01*
X170513331Y-87399500D01*
X168550098Y-87399500D01*
X168483059Y-87379815D01*
X168462417Y-87363181D01*
X166486819Y-85387583D01*
X166453334Y-85326260D01*
X166450500Y-85299902D01*
X166450500Y-84720945D01*
X166450500Y-84720943D01*
X166428790Y-84639923D01*
X166422974Y-84618214D01*
X166422974Y-84618213D01*
X166409578Y-84568217D01*
X166409577Y-84568216D01*
X166409577Y-84568215D01*
X166358946Y-84480520D01*
X166330520Y-84431284D01*
X166218716Y-84319480D01*
X166218715Y-84319479D01*
X166214385Y-84315149D01*
X166214374Y-84315139D01*
X165587590Y-83688355D01*
X165587588Y-83688352D01*
X165468717Y-83569481D01*
X165468716Y-83569480D01*
X165358012Y-83505565D01*
X165358010Y-83505564D01*
X165331785Y-83490423D01*
X165331784Y-83490422D01*
X165331783Y-83490422D01*
X165275881Y-83475443D01*
X165179057Y-83449499D01*
X165020943Y-83449499D01*
X165013347Y-83449499D01*
X165013331Y-83449500D01*
X164250862Y-83449500D01*
X164183823Y-83429815D01*
X164163181Y-83413181D01*
X163736319Y-82986319D01*
X163702834Y-82924996D01*
X163700000Y-82898638D01*
X163700000Y-82663237D01*
X163714641Y-82604785D01*
X163778814Y-82484727D01*
X163836024Y-82296132D01*
X163855341Y-82100000D01*
X163836024Y-81903868D01*
X163778814Y-81715273D01*
X163714642Y-81595215D01*
X163700000Y-81536762D01*
X163700000Y-80701362D01*
X163719685Y-80634323D01*
X163736319Y-80613681D01*
X163763181Y-80586819D01*
X163824504Y-80553334D01*
X163850862Y-80550500D01*
X166413331Y-80550500D01*
X166413347Y-80550501D01*
X166420943Y-80550501D01*
X166579054Y-80550501D01*
X166579057Y-80550501D01*
X166731785Y-80509577D01*
X166784304Y-80479255D01*
X166784305Y-80479255D01*
X166868709Y-80430524D01*
X166868708Y-80430524D01*
X166868716Y-80430520D01*
X166980520Y-80318716D01*
X166980520Y-80318714D01*
X166990724Y-80308511D01*
X166990728Y-80308506D01*
X167862915Y-79436319D01*
X167924238Y-79402834D01*
X167950596Y-79400000D01*
X168216961Y-79400000D01*
X168284000Y-79419685D01*
X168294276Y-79427055D01*
X168297736Y-79429814D01*
X168297738Y-79429816D01*
X168450478Y-79525789D01*
X168521098Y-79550500D01*
X168620745Y-79585368D01*
X168620750Y-79585369D01*
X168799996Y-79605565D01*
X168800000Y-79605565D01*
X168800004Y-79605565D01*
X168979249Y-79585369D01*
X168979252Y-79585368D01*
X168979255Y-79585368D01*
X169149522Y-79525789D01*
X169302262Y-79429816D01*
X169429816Y-79302262D01*
X169525789Y-79149522D01*
X169585368Y-78979255D01*
X169598493Y-78862761D01*
X169625559Y-78798348D01*
X169674264Y-78762082D01*
X169680304Y-78759579D01*
X169680314Y-78759577D01*
X169751953Y-78718216D01*
X169817245Y-78680520D01*
X169929049Y-78568716D01*
X169929049Y-78568714D01*
X169939253Y-78558511D01*
X169939257Y-78558506D01*
X171723226Y-76774536D01*
X171784547Y-76741053D01*
X171797006Y-76739001D01*
X171829255Y-76735368D01*
X171999522Y-76675789D01*
X172152262Y-76579816D01*
X172279816Y-76452262D01*
X172375789Y-76299522D01*
X172435368Y-76129255D01*
X172442103Y-76069480D01*
X172455565Y-75950003D01*
X172455565Y-75949996D01*
X172435369Y-75770750D01*
X172435368Y-75770745D01*
X172434555Y-75768422D01*
X172375789Y-75600478D01*
X172355517Y-75568216D01*
X172293477Y-75469480D01*
X172279816Y-75447738D01*
X172279814Y-75447736D01*
X172279813Y-75447734D01*
X172277050Y-75444269D01*
X172250644Y-75379582D01*
X172250000Y-75366960D01*
X172250000Y-75101362D01*
X172269685Y-75034323D01*
X172286319Y-75013681D01*
X172763681Y-74536319D01*
X172825004Y-74502834D01*
X172851362Y-74500000D01*
X180348638Y-74500000D01*
X180415677Y-74519685D01*
G37*
%TD.AperFunction*%
%TD*%
D22*
X132873000Y-103800000D02*
G75*
G02*
X130073000Y-101000000I0J2800000D01*
G01*
X176970101Y-62204899D02*
X139400000Y-62200000D01*
X186624568Y-100999053D02*
G75*
G02*
X183647004Y-103799936I-2818968J13653D01*
G01*
X130079899Y-71879899D02*
G75*
G02*
X132879899Y-69079899I2800001J-1D01*
G01*
X132873000Y-103800000D02*
X183647000Y-103800000D01*
X136600000Y-65000000D02*
G75*
G02*
X139400000Y-62200000I2800000J0D01*
G01*
X133820101Y-69120101D02*
X132879899Y-69079899D01*
X136600000Y-65000000D02*
X136620101Y-66320101D01*
X181675506Y-69070020D02*
G75*
G02*
X179779899Y-66420101I904394J2649920D01*
G01*
X181675506Y-69070020D02*
G75*
G02*
X183102045Y-70950000I-525506J-1879980D01*
G01*
X186620000Y-96500000D02*
X186620000Y-101000000D01*
X130079899Y-71879899D02*
X130073000Y-101000000D01*
X184400000Y-95000000D02*
X185120000Y-95000000D01*
X183102045Y-70950000D02*
X183100000Y-93500000D01*
X136620101Y-66320101D02*
G75*
G02*
X133820101Y-69120101I-2800001J1D01*
G01*
X176970101Y-62204899D02*
G75*
G02*
X179770101Y-65004899I-1J-2800001D01*
G01*
X184400000Y-95000000D02*
G75*
G02*
X183100000Y-93500000I100000J1400000D01*
G01*
X179770101Y-65004899D02*
X179779899Y-66420101D01*
X185120000Y-95000000D02*
G75*
G02*
X186620000Y-96500000I0J-1500000D01*
G01*
M02*
