%TF.GenerationSoftware,KiCad,Pcbnew,8.0.1*%
%TF.CreationDate,2024-07-24T10:43:19-04:00*%
%TF.ProjectId,bitaxe-ESP-OLED,62697461-7865-42d4-9553-502d4f4c4544,rev?*%
%TF.SameCoordinates,Original*%
%TF.FileFunction,Legend,Bot*%
%TF.FilePolarity,Positive*%
%FSLAX46Y46*%
G04 Gerber Fmt 4.6, Leading zero omitted, Abs format (unit mm)*
G04 Created by KiCad (PCBNEW 8.0.1) date 2024-07-24 10:43:19*
%MOMM*%
%LPD*%
G01*
G04 APERTURE LIST*
%ADD10C,0.150000*%
%ADD11C,0.120000*%
%ADD12C,0.127000*%
%ADD13C,0.200000*%
%TA.AperFunction,Profile*%
%ADD14C,0.100000*%
%TD*%
G04 APERTURE END LIST*
D10*
X159791792Y-72069819D02*
X160125125Y-71593628D01*
X160363220Y-72069819D02*
X160363220Y-71069819D01*
X160363220Y-71069819D02*
X159982268Y-71069819D01*
X159982268Y-71069819D02*
X159887030Y-71117438D01*
X159887030Y-71117438D02*
X159839411Y-71165057D01*
X159839411Y-71165057D02*
X159791792Y-71260295D01*
X159791792Y-71260295D02*
X159791792Y-71403152D01*
X159791792Y-71403152D02*
X159839411Y-71498390D01*
X159839411Y-71498390D02*
X159887030Y-71546009D01*
X159887030Y-71546009D02*
X159982268Y-71593628D01*
X159982268Y-71593628D02*
X160363220Y-71593628D01*
X159458458Y-71069819D02*
X158791792Y-72069819D01*
X158791792Y-71069819D02*
X159458458Y-72069819D01*
X166156077Y-69919819D02*
X165584649Y-69919819D01*
X165870363Y-70919819D02*
X165870363Y-69919819D01*
X165346553Y-69919819D02*
X164679887Y-70919819D01*
X164679887Y-69919819D02*
X165346553Y-70919819D01*
X142489411Y-82817438D02*
X142584649Y-82769819D01*
X142584649Y-82769819D02*
X142727506Y-82769819D01*
X142727506Y-82769819D02*
X142870363Y-82817438D01*
X142870363Y-82817438D02*
X142965601Y-82912676D01*
X142965601Y-82912676D02*
X143013220Y-83007914D01*
X143013220Y-83007914D02*
X143060839Y-83198390D01*
X143060839Y-83198390D02*
X143060839Y-83341247D01*
X143060839Y-83341247D02*
X143013220Y-83531723D01*
X143013220Y-83531723D02*
X142965601Y-83626961D01*
X142965601Y-83626961D02*
X142870363Y-83722200D01*
X142870363Y-83722200D02*
X142727506Y-83769819D01*
X142727506Y-83769819D02*
X142632268Y-83769819D01*
X142632268Y-83769819D02*
X142489411Y-83722200D01*
X142489411Y-83722200D02*
X142441792Y-83674580D01*
X142441792Y-83674580D02*
X142441792Y-83341247D01*
X142441792Y-83341247D02*
X142632268Y-83341247D01*
X142013220Y-83769819D02*
X142013220Y-82769819D01*
X142013220Y-82769819D02*
X141441792Y-83769819D01*
X141441792Y-83769819D02*
X141441792Y-82769819D01*
X140965601Y-83769819D02*
X140965601Y-82769819D01*
X140965601Y-82769819D02*
X140727506Y-82769819D01*
X140727506Y-82769819D02*
X140584649Y-82817438D01*
X140584649Y-82817438D02*
X140489411Y-82912676D01*
X140489411Y-82912676D02*
X140441792Y-83007914D01*
X140441792Y-83007914D02*
X140394173Y-83198390D01*
X140394173Y-83198390D02*
X140394173Y-83341247D01*
X140394173Y-83341247D02*
X140441792Y-83531723D01*
X140441792Y-83531723D02*
X140489411Y-83626961D01*
X140489411Y-83626961D02*
X140584649Y-83722200D01*
X140584649Y-83722200D02*
X140727506Y-83769819D01*
X140727506Y-83769819D02*
X140965601Y-83769819D01*
X153270112Y-66446009D02*
X153412969Y-66493628D01*
X153412969Y-66493628D02*
X153460588Y-66541247D01*
X153460588Y-66541247D02*
X153508207Y-66636485D01*
X153508207Y-66636485D02*
X153508207Y-66779342D01*
X153508207Y-66779342D02*
X153460588Y-66874580D01*
X153460588Y-66874580D02*
X153412969Y-66922200D01*
X153412969Y-66922200D02*
X153317731Y-66969819D01*
X153317731Y-66969819D02*
X152936779Y-66969819D01*
X152936779Y-66969819D02*
X152936779Y-65969819D01*
X152936779Y-65969819D02*
X153270112Y-65969819D01*
X153270112Y-65969819D02*
X153365350Y-66017438D01*
X153365350Y-66017438D02*
X153412969Y-66065057D01*
X153412969Y-66065057D02*
X153460588Y-66160295D01*
X153460588Y-66160295D02*
X153460588Y-66255533D01*
X153460588Y-66255533D02*
X153412969Y-66350771D01*
X153412969Y-66350771D02*
X153365350Y-66398390D01*
X153365350Y-66398390D02*
X153270112Y-66446009D01*
X153270112Y-66446009D02*
X152936779Y-66446009D01*
X153889160Y-66684104D02*
X154365350Y-66684104D01*
X153793922Y-66969819D02*
X154127255Y-65969819D01*
X154127255Y-65969819D02*
X154460588Y-66969819D01*
X154793922Y-66969819D02*
X154793922Y-65969819D01*
X154793922Y-65969819D02*
X155174874Y-65969819D01*
X155174874Y-65969819D02*
X155270112Y-66017438D01*
X155270112Y-66017438D02*
X155317731Y-66065057D01*
X155317731Y-66065057D02*
X155365350Y-66160295D01*
X155365350Y-66160295D02*
X155365350Y-66303152D01*
X155365350Y-66303152D02*
X155317731Y-66398390D01*
X155317731Y-66398390D02*
X155270112Y-66446009D01*
X155270112Y-66446009D02*
X155174874Y-66493628D01*
X155174874Y-66493628D02*
X154793922Y-66493628D01*
X148308458Y-82719819D02*
X147689411Y-82719819D01*
X147689411Y-82719819D02*
X148022744Y-83100771D01*
X148022744Y-83100771D02*
X147879887Y-83100771D01*
X147879887Y-83100771D02*
X147784649Y-83148390D01*
X147784649Y-83148390D02*
X147737030Y-83196009D01*
X147737030Y-83196009D02*
X147689411Y-83291247D01*
X147689411Y-83291247D02*
X147689411Y-83529342D01*
X147689411Y-83529342D02*
X147737030Y-83624580D01*
X147737030Y-83624580D02*
X147784649Y-83672200D01*
X147784649Y-83672200D02*
X147879887Y-83719819D01*
X147879887Y-83719819D02*
X148165601Y-83719819D01*
X148165601Y-83719819D02*
X148260839Y-83672200D01*
X148260839Y-83672200D02*
X148308458Y-83624580D01*
X147260839Y-83624580D02*
X147213220Y-83672200D01*
X147213220Y-83672200D02*
X147260839Y-83719819D01*
X147260839Y-83719819D02*
X147308458Y-83672200D01*
X147308458Y-83672200D02*
X147260839Y-83624580D01*
X147260839Y-83624580D02*
X147260839Y-83719819D01*
X146879887Y-82719819D02*
X146260840Y-82719819D01*
X146260840Y-82719819D02*
X146594173Y-83100771D01*
X146594173Y-83100771D02*
X146451316Y-83100771D01*
X146451316Y-83100771D02*
X146356078Y-83148390D01*
X146356078Y-83148390D02*
X146308459Y-83196009D01*
X146308459Y-83196009D02*
X146260840Y-83291247D01*
X146260840Y-83291247D02*
X146260840Y-83529342D01*
X146260840Y-83529342D02*
X146308459Y-83624580D01*
X146308459Y-83624580D02*
X146356078Y-83672200D01*
X146356078Y-83672200D02*
X146451316Y-83719819D01*
X146451316Y-83719819D02*
X146737030Y-83719819D01*
X146737030Y-83719819D02*
X146832268Y-83672200D01*
X146832268Y-83672200D02*
X146879887Y-83624580D01*
X145975125Y-82719819D02*
X145641792Y-83719819D01*
X145641792Y-83719819D02*
X145308459Y-82719819D01*
X144992857Y-67959580D02*
X145040476Y-68007200D01*
X145040476Y-68007200D02*
X145183333Y-68054819D01*
X145183333Y-68054819D02*
X145278571Y-68054819D01*
X145278571Y-68054819D02*
X145421428Y-68007200D01*
X145421428Y-68007200D02*
X145516666Y-67911961D01*
X145516666Y-67911961D02*
X145564285Y-67816723D01*
X145564285Y-67816723D02*
X145611904Y-67626247D01*
X145611904Y-67626247D02*
X145611904Y-67483390D01*
X145611904Y-67483390D02*
X145564285Y-67292914D01*
X145564285Y-67292914D02*
X145516666Y-67197676D01*
X145516666Y-67197676D02*
X145421428Y-67102438D01*
X145421428Y-67102438D02*
X145278571Y-67054819D01*
X145278571Y-67054819D02*
X145183333Y-67054819D01*
X145183333Y-67054819D02*
X145040476Y-67102438D01*
X145040476Y-67102438D02*
X144992857Y-67150057D01*
X144040476Y-68054819D02*
X144611904Y-68054819D01*
X144326190Y-68054819D02*
X144326190Y-67054819D01*
X144326190Y-67054819D02*
X144421428Y-67197676D01*
X144421428Y-67197676D02*
X144516666Y-67292914D01*
X144516666Y-67292914D02*
X144611904Y-67340533D01*
X143135714Y-67054819D02*
X143611904Y-67054819D01*
X143611904Y-67054819D02*
X143659523Y-67531009D01*
X143659523Y-67531009D02*
X143611904Y-67483390D01*
X143611904Y-67483390D02*
X143516666Y-67435771D01*
X143516666Y-67435771D02*
X143278571Y-67435771D01*
X143278571Y-67435771D02*
X143183333Y-67483390D01*
X143183333Y-67483390D02*
X143135714Y-67531009D01*
X143135714Y-67531009D02*
X143088095Y-67626247D01*
X143088095Y-67626247D02*
X143088095Y-67864342D01*
X143088095Y-67864342D02*
X143135714Y-67959580D01*
X143135714Y-67959580D02*
X143183333Y-68007200D01*
X143183333Y-68007200D02*
X143278571Y-68054819D01*
X143278571Y-68054819D02*
X143516666Y-68054819D01*
X143516666Y-68054819D02*
X143611904Y-68007200D01*
X143611904Y-68007200D02*
X143659523Y-67959580D01*
X157133333Y-71154819D02*
X157133333Y-71869104D01*
X157133333Y-71869104D02*
X157180952Y-72011961D01*
X157180952Y-72011961D02*
X157276190Y-72107200D01*
X157276190Y-72107200D02*
X157419047Y-72154819D01*
X157419047Y-72154819D02*
X157514285Y-72154819D01*
X156228571Y-71488152D02*
X156228571Y-72154819D01*
X156466666Y-71107200D02*
X156704761Y-71821485D01*
X156704761Y-71821485D02*
X156085714Y-71821485D01*
X176516666Y-73204819D02*
X176849999Y-72728628D01*
X177088094Y-73204819D02*
X177088094Y-72204819D01*
X177088094Y-72204819D02*
X176707142Y-72204819D01*
X176707142Y-72204819D02*
X176611904Y-72252438D01*
X176611904Y-72252438D02*
X176564285Y-72300057D01*
X176564285Y-72300057D02*
X176516666Y-72395295D01*
X176516666Y-72395295D02*
X176516666Y-72538152D01*
X176516666Y-72538152D02*
X176564285Y-72633390D01*
X176564285Y-72633390D02*
X176611904Y-72681009D01*
X176611904Y-72681009D02*
X176707142Y-72728628D01*
X176707142Y-72728628D02*
X177088094Y-72728628D01*
X175659523Y-72204819D02*
X175849999Y-72204819D01*
X175849999Y-72204819D02*
X175945237Y-72252438D01*
X175945237Y-72252438D02*
X175992856Y-72300057D01*
X175992856Y-72300057D02*
X176088094Y-72442914D01*
X176088094Y-72442914D02*
X176135713Y-72633390D01*
X176135713Y-72633390D02*
X176135713Y-73014342D01*
X176135713Y-73014342D02*
X176088094Y-73109580D01*
X176088094Y-73109580D02*
X176040475Y-73157200D01*
X176040475Y-73157200D02*
X175945237Y-73204819D01*
X175945237Y-73204819D02*
X175754761Y-73204819D01*
X175754761Y-73204819D02*
X175659523Y-73157200D01*
X175659523Y-73157200D02*
X175611904Y-73109580D01*
X175611904Y-73109580D02*
X175564285Y-73014342D01*
X175564285Y-73014342D02*
X175564285Y-72776247D01*
X175564285Y-72776247D02*
X175611904Y-72681009D01*
X175611904Y-72681009D02*
X175659523Y-72633390D01*
X175659523Y-72633390D02*
X175754761Y-72585771D01*
X175754761Y-72585771D02*
X175945237Y-72585771D01*
X175945237Y-72585771D02*
X176040475Y-72633390D01*
X176040475Y-72633390D02*
X176088094Y-72681009D01*
X176088094Y-72681009D02*
X176135713Y-72776247D01*
X134333332Y-90407200D02*
X134190475Y-90454819D01*
X134190475Y-90454819D02*
X133952380Y-90454819D01*
X133952380Y-90454819D02*
X133857142Y-90407200D01*
X133857142Y-90407200D02*
X133809523Y-90359580D01*
X133809523Y-90359580D02*
X133761904Y-90264342D01*
X133761904Y-90264342D02*
X133761904Y-90169104D01*
X133761904Y-90169104D02*
X133809523Y-90073866D01*
X133809523Y-90073866D02*
X133857142Y-90026247D01*
X133857142Y-90026247D02*
X133952380Y-89978628D01*
X133952380Y-89978628D02*
X134142856Y-89931009D01*
X134142856Y-89931009D02*
X134238094Y-89883390D01*
X134238094Y-89883390D02*
X134285713Y-89835771D01*
X134285713Y-89835771D02*
X134333332Y-89740533D01*
X134333332Y-89740533D02*
X134333332Y-89645295D01*
X134333332Y-89645295D02*
X134285713Y-89550057D01*
X134285713Y-89550057D02*
X134238094Y-89502438D01*
X134238094Y-89502438D02*
X134142856Y-89454819D01*
X134142856Y-89454819D02*
X133904761Y-89454819D01*
X133904761Y-89454819D02*
X133761904Y-89502438D01*
X133428570Y-89454819D02*
X133190475Y-90454819D01*
X133190475Y-90454819D02*
X132999999Y-89740533D01*
X132999999Y-89740533D02*
X132809523Y-90454819D01*
X132809523Y-90454819D02*
X132571428Y-89454819D01*
X131761904Y-89788152D02*
X131761904Y-90454819D01*
X131999999Y-89407200D02*
X132238094Y-90121485D01*
X132238094Y-90121485D02*
X131619047Y-90121485D01*
X133833332Y-83907200D02*
X133690475Y-83954819D01*
X133690475Y-83954819D02*
X133452380Y-83954819D01*
X133452380Y-83954819D02*
X133357142Y-83907200D01*
X133357142Y-83907200D02*
X133309523Y-83859580D01*
X133309523Y-83859580D02*
X133261904Y-83764342D01*
X133261904Y-83764342D02*
X133261904Y-83669104D01*
X133261904Y-83669104D02*
X133309523Y-83573866D01*
X133309523Y-83573866D02*
X133357142Y-83526247D01*
X133357142Y-83526247D02*
X133452380Y-83478628D01*
X133452380Y-83478628D02*
X133642856Y-83431009D01*
X133642856Y-83431009D02*
X133738094Y-83383390D01*
X133738094Y-83383390D02*
X133785713Y-83335771D01*
X133785713Y-83335771D02*
X133833332Y-83240533D01*
X133833332Y-83240533D02*
X133833332Y-83145295D01*
X133833332Y-83145295D02*
X133785713Y-83050057D01*
X133785713Y-83050057D02*
X133738094Y-83002438D01*
X133738094Y-83002438D02*
X133642856Y-82954819D01*
X133642856Y-82954819D02*
X133404761Y-82954819D01*
X133404761Y-82954819D02*
X133261904Y-83002438D01*
X132928570Y-82954819D02*
X132690475Y-83954819D01*
X132690475Y-83954819D02*
X132499999Y-83240533D01*
X132499999Y-83240533D02*
X132309523Y-83954819D01*
X132309523Y-83954819D02*
X132071428Y-82954819D01*
X131738094Y-83050057D02*
X131690475Y-83002438D01*
X131690475Y-83002438D02*
X131595237Y-82954819D01*
X131595237Y-82954819D02*
X131357142Y-82954819D01*
X131357142Y-82954819D02*
X131261904Y-83002438D01*
X131261904Y-83002438D02*
X131214285Y-83050057D01*
X131214285Y-83050057D02*
X131166666Y-83145295D01*
X131166666Y-83145295D02*
X131166666Y-83240533D01*
X131166666Y-83240533D02*
X131214285Y-83383390D01*
X131214285Y-83383390D02*
X131785713Y-83954819D01*
X131785713Y-83954819D02*
X131166666Y-83954819D01*
X170516666Y-73154819D02*
X170849999Y-72678628D01*
X171088094Y-73154819D02*
X171088094Y-72154819D01*
X171088094Y-72154819D02*
X170707142Y-72154819D01*
X170707142Y-72154819D02*
X170611904Y-72202438D01*
X170611904Y-72202438D02*
X170564285Y-72250057D01*
X170564285Y-72250057D02*
X170516666Y-72345295D01*
X170516666Y-72345295D02*
X170516666Y-72488152D01*
X170516666Y-72488152D02*
X170564285Y-72583390D01*
X170564285Y-72583390D02*
X170611904Y-72631009D01*
X170611904Y-72631009D02*
X170707142Y-72678628D01*
X170707142Y-72678628D02*
X171088094Y-72678628D01*
X169611904Y-72154819D02*
X170088094Y-72154819D01*
X170088094Y-72154819D02*
X170135713Y-72631009D01*
X170135713Y-72631009D02*
X170088094Y-72583390D01*
X170088094Y-72583390D02*
X169992856Y-72535771D01*
X169992856Y-72535771D02*
X169754761Y-72535771D01*
X169754761Y-72535771D02*
X169659523Y-72583390D01*
X169659523Y-72583390D02*
X169611904Y-72631009D01*
X169611904Y-72631009D02*
X169564285Y-72726247D01*
X169564285Y-72726247D02*
X169564285Y-72964342D01*
X169564285Y-72964342D02*
X169611904Y-73059580D01*
X169611904Y-73059580D02*
X169659523Y-73107200D01*
X169659523Y-73107200D02*
X169754761Y-73154819D01*
X169754761Y-73154819D02*
X169992856Y-73154819D01*
X169992856Y-73154819D02*
X170088094Y-73107200D01*
X170088094Y-73107200D02*
X170135713Y-73059580D01*
X146042857Y-94104819D02*
X146376190Y-93628628D01*
X146614285Y-94104819D02*
X146614285Y-93104819D01*
X146614285Y-93104819D02*
X146233333Y-93104819D01*
X146233333Y-93104819D02*
X146138095Y-93152438D01*
X146138095Y-93152438D02*
X146090476Y-93200057D01*
X146090476Y-93200057D02*
X146042857Y-93295295D01*
X146042857Y-93295295D02*
X146042857Y-93438152D01*
X146042857Y-93438152D02*
X146090476Y-93533390D01*
X146090476Y-93533390D02*
X146138095Y-93581009D01*
X146138095Y-93581009D02*
X146233333Y-93628628D01*
X146233333Y-93628628D02*
X146614285Y-93628628D01*
X145090476Y-94104819D02*
X145661904Y-94104819D01*
X145376190Y-94104819D02*
X145376190Y-93104819D01*
X145376190Y-93104819D02*
X145471428Y-93247676D01*
X145471428Y-93247676D02*
X145566666Y-93342914D01*
X145566666Y-93342914D02*
X145661904Y-93390533D01*
X144471428Y-93104819D02*
X144376190Y-93104819D01*
X144376190Y-93104819D02*
X144280952Y-93152438D01*
X144280952Y-93152438D02*
X144233333Y-93200057D01*
X144233333Y-93200057D02*
X144185714Y-93295295D01*
X144185714Y-93295295D02*
X144138095Y-93485771D01*
X144138095Y-93485771D02*
X144138095Y-93723866D01*
X144138095Y-93723866D02*
X144185714Y-93914342D01*
X144185714Y-93914342D02*
X144233333Y-94009580D01*
X144233333Y-94009580D02*
X144280952Y-94057200D01*
X144280952Y-94057200D02*
X144376190Y-94104819D01*
X144376190Y-94104819D02*
X144471428Y-94104819D01*
X144471428Y-94104819D02*
X144566666Y-94057200D01*
X144566666Y-94057200D02*
X144614285Y-94009580D01*
X144614285Y-94009580D02*
X144661904Y-93914342D01*
X144661904Y-93914342D02*
X144709523Y-93723866D01*
X144709523Y-93723866D02*
X144709523Y-93485771D01*
X144709523Y-93485771D02*
X144661904Y-93295295D01*
X144661904Y-93295295D02*
X144614285Y-93200057D01*
X144614285Y-93200057D02*
X144566666Y-93152438D01*
X144566666Y-93152438D02*
X144471428Y-93104819D01*
X165416666Y-87859580D02*
X165464285Y-87907200D01*
X165464285Y-87907200D02*
X165607142Y-87954819D01*
X165607142Y-87954819D02*
X165702380Y-87954819D01*
X165702380Y-87954819D02*
X165845237Y-87907200D01*
X165845237Y-87907200D02*
X165940475Y-87811961D01*
X165940475Y-87811961D02*
X165988094Y-87716723D01*
X165988094Y-87716723D02*
X166035713Y-87526247D01*
X166035713Y-87526247D02*
X166035713Y-87383390D01*
X166035713Y-87383390D02*
X165988094Y-87192914D01*
X165988094Y-87192914D02*
X165940475Y-87097676D01*
X165940475Y-87097676D02*
X165845237Y-87002438D01*
X165845237Y-87002438D02*
X165702380Y-86954819D01*
X165702380Y-86954819D02*
X165607142Y-86954819D01*
X165607142Y-86954819D02*
X165464285Y-87002438D01*
X165464285Y-87002438D02*
X165416666Y-87050057D01*
X164559523Y-87288152D02*
X164559523Y-87954819D01*
X164797618Y-86907200D02*
X165035713Y-87621485D01*
X165035713Y-87621485D02*
X164416666Y-87621485D01*
X169580952Y-96431341D02*
X169580952Y-96812294D01*
X169847619Y-96012294D02*
X169580952Y-96431341D01*
X169580952Y-96431341D02*
X169314286Y-96012294D01*
X168628572Y-96812294D02*
X169085715Y-96812294D01*
X168857143Y-96812294D02*
X168857143Y-96012294D01*
X168857143Y-96012294D02*
X168933334Y-96126579D01*
X168933334Y-96126579D02*
X169009524Y-96202770D01*
X169009524Y-96202770D02*
X169085715Y-96240865D01*
X133583332Y-77007200D02*
X133440475Y-77054819D01*
X133440475Y-77054819D02*
X133202380Y-77054819D01*
X133202380Y-77054819D02*
X133107142Y-77007200D01*
X133107142Y-77007200D02*
X133059523Y-76959580D01*
X133059523Y-76959580D02*
X133011904Y-76864342D01*
X133011904Y-76864342D02*
X133011904Y-76769104D01*
X133011904Y-76769104D02*
X133059523Y-76673866D01*
X133059523Y-76673866D02*
X133107142Y-76626247D01*
X133107142Y-76626247D02*
X133202380Y-76578628D01*
X133202380Y-76578628D02*
X133392856Y-76531009D01*
X133392856Y-76531009D02*
X133488094Y-76483390D01*
X133488094Y-76483390D02*
X133535713Y-76435771D01*
X133535713Y-76435771D02*
X133583332Y-76340533D01*
X133583332Y-76340533D02*
X133583332Y-76245295D01*
X133583332Y-76245295D02*
X133535713Y-76150057D01*
X133535713Y-76150057D02*
X133488094Y-76102438D01*
X133488094Y-76102438D02*
X133392856Y-76054819D01*
X133392856Y-76054819D02*
X133154761Y-76054819D01*
X133154761Y-76054819D02*
X133011904Y-76102438D01*
X132678570Y-76054819D02*
X132440475Y-77054819D01*
X132440475Y-77054819D02*
X132249999Y-76340533D01*
X132249999Y-76340533D02*
X132059523Y-77054819D01*
X132059523Y-77054819D02*
X131821428Y-76054819D01*
X131535713Y-76054819D02*
X130916666Y-76054819D01*
X130916666Y-76054819D02*
X131249999Y-76435771D01*
X131249999Y-76435771D02*
X131107142Y-76435771D01*
X131107142Y-76435771D02*
X131011904Y-76483390D01*
X131011904Y-76483390D02*
X130964285Y-76531009D01*
X130964285Y-76531009D02*
X130916666Y-76626247D01*
X130916666Y-76626247D02*
X130916666Y-76864342D01*
X130916666Y-76864342D02*
X130964285Y-76959580D01*
X130964285Y-76959580D02*
X131011904Y-77007200D01*
X131011904Y-77007200D02*
X131107142Y-77054819D01*
X131107142Y-77054819D02*
X131392856Y-77054819D01*
X131392856Y-77054819D02*
X131488094Y-77007200D01*
X131488094Y-77007200D02*
X131535713Y-76959580D01*
X138392857Y-80109580D02*
X138440476Y-80157200D01*
X138440476Y-80157200D02*
X138583333Y-80204819D01*
X138583333Y-80204819D02*
X138678571Y-80204819D01*
X138678571Y-80204819D02*
X138821428Y-80157200D01*
X138821428Y-80157200D02*
X138916666Y-80061961D01*
X138916666Y-80061961D02*
X138964285Y-79966723D01*
X138964285Y-79966723D02*
X139011904Y-79776247D01*
X139011904Y-79776247D02*
X139011904Y-79633390D01*
X139011904Y-79633390D02*
X138964285Y-79442914D01*
X138964285Y-79442914D02*
X138916666Y-79347676D01*
X138916666Y-79347676D02*
X138821428Y-79252438D01*
X138821428Y-79252438D02*
X138678571Y-79204819D01*
X138678571Y-79204819D02*
X138583333Y-79204819D01*
X138583333Y-79204819D02*
X138440476Y-79252438D01*
X138440476Y-79252438D02*
X138392857Y-79300057D01*
X138011904Y-79300057D02*
X137964285Y-79252438D01*
X137964285Y-79252438D02*
X137869047Y-79204819D01*
X137869047Y-79204819D02*
X137630952Y-79204819D01*
X137630952Y-79204819D02*
X137535714Y-79252438D01*
X137535714Y-79252438D02*
X137488095Y-79300057D01*
X137488095Y-79300057D02*
X137440476Y-79395295D01*
X137440476Y-79395295D02*
X137440476Y-79490533D01*
X137440476Y-79490533D02*
X137488095Y-79633390D01*
X137488095Y-79633390D02*
X138059523Y-80204819D01*
X138059523Y-80204819D02*
X137440476Y-80204819D01*
X136821428Y-79204819D02*
X136726190Y-79204819D01*
X136726190Y-79204819D02*
X136630952Y-79252438D01*
X136630952Y-79252438D02*
X136583333Y-79300057D01*
X136583333Y-79300057D02*
X136535714Y-79395295D01*
X136535714Y-79395295D02*
X136488095Y-79585771D01*
X136488095Y-79585771D02*
X136488095Y-79823866D01*
X136488095Y-79823866D02*
X136535714Y-80014342D01*
X136535714Y-80014342D02*
X136583333Y-80109580D01*
X136583333Y-80109580D02*
X136630952Y-80157200D01*
X136630952Y-80157200D02*
X136726190Y-80204819D01*
X136726190Y-80204819D02*
X136821428Y-80204819D01*
X136821428Y-80204819D02*
X136916666Y-80157200D01*
X136916666Y-80157200D02*
X136964285Y-80109580D01*
X136964285Y-80109580D02*
X137011904Y-80014342D01*
X137011904Y-80014342D02*
X137059523Y-79823866D01*
X137059523Y-79823866D02*
X137059523Y-79585771D01*
X137059523Y-79585771D02*
X137011904Y-79395295D01*
X137011904Y-79395295D02*
X136964285Y-79300057D01*
X136964285Y-79300057D02*
X136916666Y-79252438D01*
X136916666Y-79252438D02*
X136821428Y-79204819D01*
X134966666Y-76859580D02*
X135014285Y-76907200D01*
X135014285Y-76907200D02*
X135157142Y-76954819D01*
X135157142Y-76954819D02*
X135252380Y-76954819D01*
X135252380Y-76954819D02*
X135395237Y-76907200D01*
X135395237Y-76907200D02*
X135490475Y-76811961D01*
X135490475Y-76811961D02*
X135538094Y-76716723D01*
X135538094Y-76716723D02*
X135585713Y-76526247D01*
X135585713Y-76526247D02*
X135585713Y-76383390D01*
X135585713Y-76383390D02*
X135538094Y-76192914D01*
X135538094Y-76192914D02*
X135490475Y-76097676D01*
X135490475Y-76097676D02*
X135395237Y-76002438D01*
X135395237Y-76002438D02*
X135252380Y-75954819D01*
X135252380Y-75954819D02*
X135157142Y-75954819D01*
X135157142Y-75954819D02*
X135014285Y-76002438D01*
X135014285Y-76002438D02*
X134966666Y-76050057D01*
X134014285Y-76954819D02*
X134585713Y-76954819D01*
X134299999Y-76954819D02*
X134299999Y-75954819D01*
X134299999Y-75954819D02*
X134395237Y-76097676D01*
X134395237Y-76097676D02*
X134490475Y-76192914D01*
X134490475Y-76192914D02*
X134585713Y-76240533D01*
X173816666Y-93779580D02*
X173864285Y-93827200D01*
X173864285Y-93827200D02*
X174007142Y-93874819D01*
X174007142Y-93874819D02*
X174102380Y-93874819D01*
X174102380Y-93874819D02*
X174245237Y-93827200D01*
X174245237Y-93827200D02*
X174340475Y-93731961D01*
X174340475Y-93731961D02*
X174388094Y-93636723D01*
X174388094Y-93636723D02*
X174435713Y-93446247D01*
X174435713Y-93446247D02*
X174435713Y-93303390D01*
X174435713Y-93303390D02*
X174388094Y-93112914D01*
X174388094Y-93112914D02*
X174340475Y-93017676D01*
X174340475Y-93017676D02*
X174245237Y-92922438D01*
X174245237Y-92922438D02*
X174102380Y-92874819D01*
X174102380Y-92874819D02*
X174007142Y-92874819D01*
X174007142Y-92874819D02*
X173864285Y-92922438D01*
X173864285Y-92922438D02*
X173816666Y-92970057D01*
X173483332Y-92874819D02*
X172816666Y-92874819D01*
X172816666Y-92874819D02*
X173245237Y-93874819D01*
X143288094Y-81404819D02*
X142716666Y-81404819D01*
X143002380Y-82404819D02*
X143002380Y-81404819D01*
X142383332Y-82404819D02*
X142383332Y-81404819D01*
X142383332Y-81404819D02*
X142002380Y-81404819D01*
X142002380Y-81404819D02*
X141907142Y-81452438D01*
X141907142Y-81452438D02*
X141859523Y-81500057D01*
X141859523Y-81500057D02*
X141811904Y-81595295D01*
X141811904Y-81595295D02*
X141811904Y-81738152D01*
X141811904Y-81738152D02*
X141859523Y-81833390D01*
X141859523Y-81833390D02*
X141907142Y-81881009D01*
X141907142Y-81881009D02*
X142002380Y-81928628D01*
X142002380Y-81928628D02*
X142383332Y-81928628D01*
X140859523Y-82404819D02*
X141430951Y-82404819D01*
X141145237Y-82404819D02*
X141145237Y-81404819D01*
X141145237Y-81404819D02*
X141240475Y-81547676D01*
X141240475Y-81547676D02*
X141335713Y-81642914D01*
X141335713Y-81642914D02*
X141430951Y-81690533D01*
X140240475Y-81404819D02*
X140145237Y-81404819D01*
X140145237Y-81404819D02*
X140049999Y-81452438D01*
X140049999Y-81452438D02*
X140002380Y-81500057D01*
X140002380Y-81500057D02*
X139954761Y-81595295D01*
X139954761Y-81595295D02*
X139907142Y-81785771D01*
X139907142Y-81785771D02*
X139907142Y-82023866D01*
X139907142Y-82023866D02*
X139954761Y-82214342D01*
X139954761Y-82214342D02*
X140002380Y-82309580D01*
X140002380Y-82309580D02*
X140049999Y-82357200D01*
X140049999Y-82357200D02*
X140145237Y-82404819D01*
X140145237Y-82404819D02*
X140240475Y-82404819D01*
X140240475Y-82404819D02*
X140335713Y-82357200D01*
X140335713Y-82357200D02*
X140383332Y-82309580D01*
X140383332Y-82309580D02*
X140430951Y-82214342D01*
X140430951Y-82214342D02*
X140478570Y-82023866D01*
X140478570Y-82023866D02*
X140478570Y-81785771D01*
X140478570Y-81785771D02*
X140430951Y-81595295D01*
X140430951Y-81595295D02*
X140383332Y-81500057D01*
X140383332Y-81500057D02*
X140335713Y-81452438D01*
X140335713Y-81452438D02*
X140240475Y-81404819D01*
X179783333Y-69894819D02*
X179783333Y-70609104D01*
X179783333Y-70609104D02*
X179830952Y-70751961D01*
X179830952Y-70751961D02*
X179926190Y-70847200D01*
X179926190Y-70847200D02*
X180069047Y-70894819D01*
X180069047Y-70894819D02*
X180164285Y-70894819D01*
X179354761Y-69990057D02*
X179307142Y-69942438D01*
X179307142Y-69942438D02*
X179211904Y-69894819D01*
X179211904Y-69894819D02*
X178973809Y-69894819D01*
X178973809Y-69894819D02*
X178878571Y-69942438D01*
X178878571Y-69942438D02*
X178830952Y-69990057D01*
X178830952Y-69990057D02*
X178783333Y-70085295D01*
X178783333Y-70085295D02*
X178783333Y-70180533D01*
X178783333Y-70180533D02*
X178830952Y-70323390D01*
X178830952Y-70323390D02*
X179402380Y-70894819D01*
X179402380Y-70894819D02*
X178783333Y-70894819D01*
X144088094Y-90004819D02*
X143516666Y-90004819D01*
X143802380Y-91004819D02*
X143802380Y-90004819D01*
X143183332Y-91004819D02*
X143183332Y-90004819D01*
X143183332Y-90004819D02*
X142802380Y-90004819D01*
X142802380Y-90004819D02*
X142707142Y-90052438D01*
X142707142Y-90052438D02*
X142659523Y-90100057D01*
X142659523Y-90100057D02*
X142611904Y-90195295D01*
X142611904Y-90195295D02*
X142611904Y-90338152D01*
X142611904Y-90338152D02*
X142659523Y-90433390D01*
X142659523Y-90433390D02*
X142707142Y-90481009D01*
X142707142Y-90481009D02*
X142802380Y-90528628D01*
X142802380Y-90528628D02*
X143183332Y-90528628D01*
X141659523Y-91004819D02*
X142230951Y-91004819D01*
X141945237Y-91004819D02*
X141945237Y-90004819D01*
X141945237Y-90004819D02*
X142040475Y-90147676D01*
X142040475Y-90147676D02*
X142135713Y-90242914D01*
X142135713Y-90242914D02*
X142230951Y-90290533D01*
X141326189Y-90004819D02*
X140707142Y-90004819D01*
X140707142Y-90004819D02*
X141040475Y-90385771D01*
X141040475Y-90385771D02*
X140897618Y-90385771D01*
X140897618Y-90385771D02*
X140802380Y-90433390D01*
X140802380Y-90433390D02*
X140754761Y-90481009D01*
X140754761Y-90481009D02*
X140707142Y-90576247D01*
X140707142Y-90576247D02*
X140707142Y-90814342D01*
X140707142Y-90814342D02*
X140754761Y-90909580D01*
X140754761Y-90909580D02*
X140802380Y-90957200D01*
X140802380Y-90957200D02*
X140897618Y-91004819D01*
X140897618Y-91004819D02*
X141183332Y-91004819D01*
X141183332Y-91004819D02*
X141278570Y-90957200D01*
X141278570Y-90957200D02*
X141326189Y-90909580D01*
X148524404Y-74454819D02*
X148524404Y-75264342D01*
X148524404Y-75264342D02*
X148476785Y-75359580D01*
X148476785Y-75359580D02*
X148429166Y-75407200D01*
X148429166Y-75407200D02*
X148333928Y-75454819D01*
X148333928Y-75454819D02*
X148143452Y-75454819D01*
X148143452Y-75454819D02*
X148048214Y-75407200D01*
X148048214Y-75407200D02*
X148000595Y-75359580D01*
X148000595Y-75359580D02*
X147952976Y-75264342D01*
X147952976Y-75264342D02*
X147952976Y-74454819D01*
X146952976Y-75454819D02*
X147524404Y-75454819D01*
X147238690Y-75454819D02*
X147238690Y-74454819D01*
X147238690Y-74454819D02*
X147333928Y-74597676D01*
X147333928Y-74597676D02*
X147429166Y-74692914D01*
X147429166Y-74692914D02*
X147524404Y-74740533D01*
X138816666Y-74904819D02*
X139149999Y-74428628D01*
X139388094Y-74904819D02*
X139388094Y-73904819D01*
X139388094Y-73904819D02*
X139007142Y-73904819D01*
X139007142Y-73904819D02*
X138911904Y-73952438D01*
X138911904Y-73952438D02*
X138864285Y-74000057D01*
X138864285Y-74000057D02*
X138816666Y-74095295D01*
X138816666Y-74095295D02*
X138816666Y-74238152D01*
X138816666Y-74238152D02*
X138864285Y-74333390D01*
X138864285Y-74333390D02*
X138911904Y-74381009D01*
X138911904Y-74381009D02*
X139007142Y-74428628D01*
X139007142Y-74428628D02*
X139388094Y-74428628D01*
X137864285Y-74904819D02*
X138435713Y-74904819D01*
X138149999Y-74904819D02*
X138149999Y-73904819D01*
X138149999Y-73904819D02*
X138245237Y-74047676D01*
X138245237Y-74047676D02*
X138340475Y-74142914D01*
X138340475Y-74142914D02*
X138435713Y-74190533D01*
X173911904Y-78854819D02*
X173911904Y-79664342D01*
X173911904Y-79664342D02*
X173864285Y-79759580D01*
X173864285Y-79759580D02*
X173816666Y-79807200D01*
X173816666Y-79807200D02*
X173721428Y-79854819D01*
X173721428Y-79854819D02*
X173530952Y-79854819D01*
X173530952Y-79854819D02*
X173435714Y-79807200D01*
X173435714Y-79807200D02*
X173388095Y-79759580D01*
X173388095Y-79759580D02*
X173340476Y-79664342D01*
X173340476Y-79664342D02*
X173340476Y-78854819D01*
X172911904Y-78950057D02*
X172864285Y-78902438D01*
X172864285Y-78902438D02*
X172769047Y-78854819D01*
X172769047Y-78854819D02*
X172530952Y-78854819D01*
X172530952Y-78854819D02*
X172435714Y-78902438D01*
X172435714Y-78902438D02*
X172388095Y-78950057D01*
X172388095Y-78950057D02*
X172340476Y-79045295D01*
X172340476Y-79045295D02*
X172340476Y-79140533D01*
X172340476Y-79140533D02*
X172388095Y-79283390D01*
X172388095Y-79283390D02*
X172959523Y-79854819D01*
X172959523Y-79854819D02*
X172340476Y-79854819D01*
X147995238Y-64900057D02*
X148090476Y-64852438D01*
X148090476Y-64852438D02*
X148185714Y-64757200D01*
X148185714Y-64757200D02*
X148328571Y-64614342D01*
X148328571Y-64614342D02*
X148423809Y-64566723D01*
X148423809Y-64566723D02*
X148519047Y-64566723D01*
X148471428Y-64804819D02*
X148566666Y-64757200D01*
X148566666Y-64757200D02*
X148661904Y-64661961D01*
X148661904Y-64661961D02*
X148709523Y-64471485D01*
X148709523Y-64471485D02*
X148709523Y-64138152D01*
X148709523Y-64138152D02*
X148661904Y-63947676D01*
X148661904Y-63947676D02*
X148566666Y-63852438D01*
X148566666Y-63852438D02*
X148471428Y-63804819D01*
X148471428Y-63804819D02*
X148280952Y-63804819D01*
X148280952Y-63804819D02*
X148185714Y-63852438D01*
X148185714Y-63852438D02*
X148090476Y-63947676D01*
X148090476Y-63947676D02*
X148042857Y-64138152D01*
X148042857Y-64138152D02*
X148042857Y-64471485D01*
X148042857Y-64471485D02*
X148090476Y-64661961D01*
X148090476Y-64661961D02*
X148185714Y-64757200D01*
X148185714Y-64757200D02*
X148280952Y-64804819D01*
X148280952Y-64804819D02*
X148471428Y-64804819D01*
X147090476Y-64804819D02*
X147661904Y-64804819D01*
X147376190Y-64804819D02*
X147376190Y-63804819D01*
X147376190Y-63804819D02*
X147471428Y-63947676D01*
X147471428Y-63947676D02*
X147566666Y-64042914D01*
X147566666Y-64042914D02*
X147661904Y-64090533D01*
X162766666Y-81509580D02*
X162814285Y-81557200D01*
X162814285Y-81557200D02*
X162957142Y-81604819D01*
X162957142Y-81604819D02*
X163052380Y-81604819D01*
X163052380Y-81604819D02*
X163195237Y-81557200D01*
X163195237Y-81557200D02*
X163290475Y-81461961D01*
X163290475Y-81461961D02*
X163338094Y-81366723D01*
X163338094Y-81366723D02*
X163385713Y-81176247D01*
X163385713Y-81176247D02*
X163385713Y-81033390D01*
X163385713Y-81033390D02*
X163338094Y-80842914D01*
X163338094Y-80842914D02*
X163290475Y-80747676D01*
X163290475Y-80747676D02*
X163195237Y-80652438D01*
X163195237Y-80652438D02*
X163052380Y-80604819D01*
X163052380Y-80604819D02*
X162957142Y-80604819D01*
X162957142Y-80604819D02*
X162814285Y-80652438D01*
X162814285Y-80652438D02*
X162766666Y-80700057D01*
X162290475Y-81604819D02*
X162099999Y-81604819D01*
X162099999Y-81604819D02*
X162004761Y-81557200D01*
X162004761Y-81557200D02*
X161957142Y-81509580D01*
X161957142Y-81509580D02*
X161861904Y-81366723D01*
X161861904Y-81366723D02*
X161814285Y-81176247D01*
X161814285Y-81176247D02*
X161814285Y-80795295D01*
X161814285Y-80795295D02*
X161861904Y-80700057D01*
X161861904Y-80700057D02*
X161909523Y-80652438D01*
X161909523Y-80652438D02*
X162004761Y-80604819D01*
X162004761Y-80604819D02*
X162195237Y-80604819D01*
X162195237Y-80604819D02*
X162290475Y-80652438D01*
X162290475Y-80652438D02*
X162338094Y-80700057D01*
X162338094Y-80700057D02*
X162385713Y-80795295D01*
X162385713Y-80795295D02*
X162385713Y-81033390D01*
X162385713Y-81033390D02*
X162338094Y-81128628D01*
X162338094Y-81128628D02*
X162290475Y-81176247D01*
X162290475Y-81176247D02*
X162195237Y-81223866D01*
X162195237Y-81223866D02*
X162004761Y-81223866D01*
X162004761Y-81223866D02*
X161909523Y-81176247D01*
X161909523Y-81176247D02*
X161861904Y-81128628D01*
X161861904Y-81128628D02*
X161814285Y-81033390D01*
X145916666Y-92804819D02*
X146249999Y-92328628D01*
X146488094Y-92804819D02*
X146488094Y-91804819D01*
X146488094Y-91804819D02*
X146107142Y-91804819D01*
X146107142Y-91804819D02*
X146011904Y-91852438D01*
X146011904Y-91852438D02*
X145964285Y-91900057D01*
X145964285Y-91900057D02*
X145916666Y-91995295D01*
X145916666Y-91995295D02*
X145916666Y-92138152D01*
X145916666Y-92138152D02*
X145964285Y-92233390D01*
X145964285Y-92233390D02*
X146011904Y-92281009D01*
X146011904Y-92281009D02*
X146107142Y-92328628D01*
X146107142Y-92328628D02*
X146488094Y-92328628D01*
X145440475Y-92804819D02*
X145249999Y-92804819D01*
X145249999Y-92804819D02*
X145154761Y-92757200D01*
X145154761Y-92757200D02*
X145107142Y-92709580D01*
X145107142Y-92709580D02*
X145011904Y-92566723D01*
X145011904Y-92566723D02*
X144964285Y-92376247D01*
X144964285Y-92376247D02*
X144964285Y-91995295D01*
X144964285Y-91995295D02*
X145011904Y-91900057D01*
X145011904Y-91900057D02*
X145059523Y-91852438D01*
X145059523Y-91852438D02*
X145154761Y-91804819D01*
X145154761Y-91804819D02*
X145345237Y-91804819D01*
X145345237Y-91804819D02*
X145440475Y-91852438D01*
X145440475Y-91852438D02*
X145488094Y-91900057D01*
X145488094Y-91900057D02*
X145535713Y-91995295D01*
X145535713Y-91995295D02*
X145535713Y-92233390D01*
X145535713Y-92233390D02*
X145488094Y-92328628D01*
X145488094Y-92328628D02*
X145440475Y-92376247D01*
X145440475Y-92376247D02*
X145345237Y-92423866D01*
X145345237Y-92423866D02*
X145154761Y-92423866D01*
X145154761Y-92423866D02*
X145059523Y-92376247D01*
X145059523Y-92376247D02*
X145011904Y-92328628D01*
X145011904Y-92328628D02*
X144964285Y-92233390D01*
X166761904Y-68454819D02*
X166190476Y-68454819D01*
X166476190Y-69454819D02*
X166476190Y-68454819D01*
X165857142Y-69454819D02*
X165857142Y-68454819D01*
X165857142Y-68454819D02*
X165476190Y-68454819D01*
X165476190Y-68454819D02*
X165380952Y-68502438D01*
X165380952Y-68502438D02*
X165333333Y-68550057D01*
X165333333Y-68550057D02*
X165285714Y-68645295D01*
X165285714Y-68645295D02*
X165285714Y-68788152D01*
X165285714Y-68788152D02*
X165333333Y-68883390D01*
X165333333Y-68883390D02*
X165380952Y-68931009D01*
X165380952Y-68931009D02*
X165476190Y-68978628D01*
X165476190Y-68978628D02*
X165857142Y-68978628D01*
X164333333Y-69454819D02*
X164904761Y-69454819D01*
X164619047Y-69454819D02*
X164619047Y-68454819D01*
X164619047Y-68454819D02*
X164714285Y-68597676D01*
X164714285Y-68597676D02*
X164809523Y-68692914D01*
X164809523Y-68692914D02*
X164904761Y-68740533D01*
X152092858Y-82959579D02*
X152140477Y-83007199D01*
X152140477Y-83007199D02*
X152283334Y-83054818D01*
X152283334Y-83054818D02*
X152378572Y-83054818D01*
X152378572Y-83054818D02*
X152521429Y-83007199D01*
X152521429Y-83007199D02*
X152616667Y-82911960D01*
X152616667Y-82911960D02*
X152664286Y-82816722D01*
X152664286Y-82816722D02*
X152711905Y-82626246D01*
X152711905Y-82626246D02*
X152711905Y-82483389D01*
X152711905Y-82483389D02*
X152664286Y-82292913D01*
X152664286Y-82292913D02*
X152616667Y-82197675D01*
X152616667Y-82197675D02*
X152521429Y-82102437D01*
X152521429Y-82102437D02*
X152378572Y-82054818D01*
X152378572Y-82054818D02*
X152283334Y-82054818D01*
X152283334Y-82054818D02*
X152140477Y-82102437D01*
X152140477Y-82102437D02*
X152092858Y-82150056D01*
X151140477Y-83054818D02*
X151711905Y-83054818D01*
X151426191Y-83054818D02*
X151426191Y-82054818D01*
X151426191Y-82054818D02*
X151521429Y-82197675D01*
X151521429Y-82197675D02*
X151616667Y-82292913D01*
X151616667Y-82292913D02*
X151711905Y-82340532D01*
X150569048Y-82483389D02*
X150664286Y-82435770D01*
X150664286Y-82435770D02*
X150711905Y-82388151D01*
X150711905Y-82388151D02*
X150759524Y-82292913D01*
X150759524Y-82292913D02*
X150759524Y-82245294D01*
X150759524Y-82245294D02*
X150711905Y-82150056D01*
X150711905Y-82150056D02*
X150664286Y-82102437D01*
X150664286Y-82102437D02*
X150569048Y-82054818D01*
X150569048Y-82054818D02*
X150378572Y-82054818D01*
X150378572Y-82054818D02*
X150283334Y-82102437D01*
X150283334Y-82102437D02*
X150235715Y-82150056D01*
X150235715Y-82150056D02*
X150188096Y-82245294D01*
X150188096Y-82245294D02*
X150188096Y-82292913D01*
X150188096Y-82292913D02*
X150235715Y-82388151D01*
X150235715Y-82388151D02*
X150283334Y-82435770D01*
X150283334Y-82435770D02*
X150378572Y-82483389D01*
X150378572Y-82483389D02*
X150569048Y-82483389D01*
X150569048Y-82483389D02*
X150664286Y-82531008D01*
X150664286Y-82531008D02*
X150711905Y-82578627D01*
X150711905Y-82578627D02*
X150759524Y-82673865D01*
X150759524Y-82673865D02*
X150759524Y-82864341D01*
X150759524Y-82864341D02*
X150711905Y-82959579D01*
X150711905Y-82959579D02*
X150664286Y-83007199D01*
X150664286Y-83007199D02*
X150569048Y-83054818D01*
X150569048Y-83054818D02*
X150378572Y-83054818D01*
X150378572Y-83054818D02*
X150283334Y-83007199D01*
X150283334Y-83007199D02*
X150235715Y-82959579D01*
X150235715Y-82959579D02*
X150188096Y-82864341D01*
X150188096Y-82864341D02*
X150188096Y-82673865D01*
X150188096Y-82673865D02*
X150235715Y-82578627D01*
X150235715Y-82578627D02*
X150283334Y-82531008D01*
X150283334Y-82531008D02*
X150378572Y-82483389D01*
X179756904Y-86264819D02*
X179756904Y-87074342D01*
X179756904Y-87074342D02*
X179709285Y-87169580D01*
X179709285Y-87169580D02*
X179661666Y-87217200D01*
X179661666Y-87217200D02*
X179566428Y-87264819D01*
X179566428Y-87264819D02*
X179375952Y-87264819D01*
X179375952Y-87264819D02*
X179280714Y-87217200D01*
X179280714Y-87217200D02*
X179233095Y-87169580D01*
X179233095Y-87169580D02*
X179185476Y-87074342D01*
X179185476Y-87074342D02*
X179185476Y-86264819D01*
X178280714Y-86598152D02*
X178280714Y-87264819D01*
X178518809Y-86217200D02*
X178756904Y-86931485D01*
X178756904Y-86931485D02*
X178137857Y-86931485D01*
X137466666Y-95204819D02*
X137799999Y-94728628D01*
X138038094Y-95204819D02*
X138038094Y-94204819D01*
X138038094Y-94204819D02*
X137657142Y-94204819D01*
X137657142Y-94204819D02*
X137561904Y-94252438D01*
X137561904Y-94252438D02*
X137514285Y-94300057D01*
X137514285Y-94300057D02*
X137466666Y-94395295D01*
X137466666Y-94395295D02*
X137466666Y-94538152D01*
X137466666Y-94538152D02*
X137514285Y-94633390D01*
X137514285Y-94633390D02*
X137561904Y-94681009D01*
X137561904Y-94681009D02*
X137657142Y-94728628D01*
X137657142Y-94728628D02*
X138038094Y-94728628D01*
X136609523Y-94538152D02*
X136609523Y-95204819D01*
X136847618Y-94157200D02*
X137085713Y-94871485D01*
X137085713Y-94871485D02*
X136466666Y-94871485D01*
X166716666Y-90104819D02*
X167192856Y-90104819D01*
X167192856Y-90104819D02*
X167192856Y-89104819D01*
X165859523Y-90104819D02*
X166430951Y-90104819D01*
X166145237Y-90104819D02*
X166145237Y-89104819D01*
X166145237Y-89104819D02*
X166240475Y-89247676D01*
X166240475Y-89247676D02*
X166335713Y-89342914D01*
X166335713Y-89342914D02*
X166430951Y-89390533D01*
X167866666Y-78159580D02*
X167914285Y-78207200D01*
X167914285Y-78207200D02*
X168057142Y-78254819D01*
X168057142Y-78254819D02*
X168152380Y-78254819D01*
X168152380Y-78254819D02*
X168295237Y-78207200D01*
X168295237Y-78207200D02*
X168390475Y-78111961D01*
X168390475Y-78111961D02*
X168438094Y-78016723D01*
X168438094Y-78016723D02*
X168485713Y-77826247D01*
X168485713Y-77826247D02*
X168485713Y-77683390D01*
X168485713Y-77683390D02*
X168438094Y-77492914D01*
X168438094Y-77492914D02*
X168390475Y-77397676D01*
X168390475Y-77397676D02*
X168295237Y-77302438D01*
X168295237Y-77302438D02*
X168152380Y-77254819D01*
X168152380Y-77254819D02*
X168057142Y-77254819D01*
X168057142Y-77254819D02*
X167914285Y-77302438D01*
X167914285Y-77302438D02*
X167866666Y-77350057D01*
X167009523Y-77254819D02*
X167199999Y-77254819D01*
X167199999Y-77254819D02*
X167295237Y-77302438D01*
X167295237Y-77302438D02*
X167342856Y-77350057D01*
X167342856Y-77350057D02*
X167438094Y-77492914D01*
X167438094Y-77492914D02*
X167485713Y-77683390D01*
X167485713Y-77683390D02*
X167485713Y-78064342D01*
X167485713Y-78064342D02*
X167438094Y-78159580D01*
X167438094Y-78159580D02*
X167390475Y-78207200D01*
X167390475Y-78207200D02*
X167295237Y-78254819D01*
X167295237Y-78254819D02*
X167104761Y-78254819D01*
X167104761Y-78254819D02*
X167009523Y-78207200D01*
X167009523Y-78207200D02*
X166961904Y-78159580D01*
X166961904Y-78159580D02*
X166914285Y-78064342D01*
X166914285Y-78064342D02*
X166914285Y-77826247D01*
X166914285Y-77826247D02*
X166961904Y-77731009D01*
X166961904Y-77731009D02*
X167009523Y-77683390D01*
X167009523Y-77683390D02*
X167104761Y-77635771D01*
X167104761Y-77635771D02*
X167295237Y-77635771D01*
X167295237Y-77635771D02*
X167390475Y-77683390D01*
X167390475Y-77683390D02*
X167438094Y-77731009D01*
X167438094Y-77731009D02*
X167485713Y-77826247D01*
X135654820Y-82883334D02*
X135178629Y-82550001D01*
X135654820Y-82311906D02*
X134654820Y-82311906D01*
X134654820Y-82311906D02*
X134654820Y-82692858D01*
X134654820Y-82692858D02*
X134702439Y-82788096D01*
X134702439Y-82788096D02*
X134750058Y-82835715D01*
X134750058Y-82835715D02*
X134845296Y-82883334D01*
X134845296Y-82883334D02*
X134988153Y-82883334D01*
X134988153Y-82883334D02*
X135083391Y-82835715D01*
X135083391Y-82835715D02*
X135131010Y-82788096D01*
X135131010Y-82788096D02*
X135178629Y-82692858D01*
X135178629Y-82692858D02*
X135178629Y-82311906D01*
X134654820Y-83216668D02*
X134654820Y-83835715D01*
X134654820Y-83835715D02*
X135035772Y-83502382D01*
X135035772Y-83502382D02*
X135035772Y-83645239D01*
X135035772Y-83645239D02*
X135083391Y-83740477D01*
X135083391Y-83740477D02*
X135131010Y-83788096D01*
X135131010Y-83788096D02*
X135226248Y-83835715D01*
X135226248Y-83835715D02*
X135464343Y-83835715D01*
X135464343Y-83835715D02*
X135559581Y-83788096D01*
X135559581Y-83788096D02*
X135607201Y-83740477D01*
X135607201Y-83740477D02*
X135654820Y-83645239D01*
X135654820Y-83645239D02*
X135654820Y-83359525D01*
X135654820Y-83359525D02*
X135607201Y-83264287D01*
X135607201Y-83264287D02*
X135559581Y-83216668D01*
X142392857Y-74109580D02*
X142440476Y-74157200D01*
X142440476Y-74157200D02*
X142583333Y-74204819D01*
X142583333Y-74204819D02*
X142678571Y-74204819D01*
X142678571Y-74204819D02*
X142821428Y-74157200D01*
X142821428Y-74157200D02*
X142916666Y-74061961D01*
X142916666Y-74061961D02*
X142964285Y-73966723D01*
X142964285Y-73966723D02*
X143011904Y-73776247D01*
X143011904Y-73776247D02*
X143011904Y-73633390D01*
X143011904Y-73633390D02*
X142964285Y-73442914D01*
X142964285Y-73442914D02*
X142916666Y-73347676D01*
X142916666Y-73347676D02*
X142821428Y-73252438D01*
X142821428Y-73252438D02*
X142678571Y-73204819D01*
X142678571Y-73204819D02*
X142583333Y-73204819D01*
X142583333Y-73204819D02*
X142440476Y-73252438D01*
X142440476Y-73252438D02*
X142392857Y-73300057D01*
X141440476Y-74204819D02*
X142011904Y-74204819D01*
X141726190Y-74204819D02*
X141726190Y-73204819D01*
X141726190Y-73204819D02*
X141821428Y-73347676D01*
X141821428Y-73347676D02*
X141916666Y-73442914D01*
X141916666Y-73442914D02*
X142011904Y-73490533D01*
X140583333Y-73204819D02*
X140773809Y-73204819D01*
X140773809Y-73204819D02*
X140869047Y-73252438D01*
X140869047Y-73252438D02*
X140916666Y-73300057D01*
X140916666Y-73300057D02*
X141011904Y-73442914D01*
X141011904Y-73442914D02*
X141059523Y-73633390D01*
X141059523Y-73633390D02*
X141059523Y-74014342D01*
X141059523Y-74014342D02*
X141011904Y-74109580D01*
X141011904Y-74109580D02*
X140964285Y-74157200D01*
X140964285Y-74157200D02*
X140869047Y-74204819D01*
X140869047Y-74204819D02*
X140678571Y-74204819D01*
X140678571Y-74204819D02*
X140583333Y-74157200D01*
X140583333Y-74157200D02*
X140535714Y-74109580D01*
X140535714Y-74109580D02*
X140488095Y-74014342D01*
X140488095Y-74014342D02*
X140488095Y-73776247D01*
X140488095Y-73776247D02*
X140535714Y-73681009D01*
X140535714Y-73681009D02*
X140583333Y-73633390D01*
X140583333Y-73633390D02*
X140678571Y-73585771D01*
X140678571Y-73585771D02*
X140869047Y-73585771D01*
X140869047Y-73585771D02*
X140964285Y-73633390D01*
X140964285Y-73633390D02*
X141011904Y-73681009D01*
X141011904Y-73681009D02*
X141059523Y-73776247D01*
X151888095Y-71404818D02*
X151888095Y-70404818D01*
X151888095Y-70404818D02*
X151650000Y-70404818D01*
X151650000Y-70404818D02*
X151507143Y-70452437D01*
X151507143Y-70452437D02*
X151411905Y-70547675D01*
X151411905Y-70547675D02*
X151364286Y-70642913D01*
X151364286Y-70642913D02*
X151316667Y-70833389D01*
X151316667Y-70833389D02*
X151316667Y-70976246D01*
X151316667Y-70976246D02*
X151364286Y-71166722D01*
X151364286Y-71166722D02*
X151411905Y-71261960D01*
X151411905Y-71261960D02*
X151507143Y-71357199D01*
X151507143Y-71357199D02*
X151650000Y-71404818D01*
X151650000Y-71404818D02*
X151888095Y-71404818D01*
X150364286Y-71404818D02*
X150935714Y-71404818D01*
X150650000Y-71404818D02*
X150650000Y-70404818D01*
X150650000Y-70404818D02*
X150745238Y-70547675D01*
X150745238Y-70547675D02*
X150840476Y-70642913D01*
X150840476Y-70642913D02*
X150935714Y-70690532D01*
X161742857Y-92009580D02*
X161790476Y-92057200D01*
X161790476Y-92057200D02*
X161933333Y-92104819D01*
X161933333Y-92104819D02*
X162028571Y-92104819D01*
X162028571Y-92104819D02*
X162171428Y-92057200D01*
X162171428Y-92057200D02*
X162266666Y-91961961D01*
X162266666Y-91961961D02*
X162314285Y-91866723D01*
X162314285Y-91866723D02*
X162361904Y-91676247D01*
X162361904Y-91676247D02*
X162361904Y-91533390D01*
X162361904Y-91533390D02*
X162314285Y-91342914D01*
X162314285Y-91342914D02*
X162266666Y-91247676D01*
X162266666Y-91247676D02*
X162171428Y-91152438D01*
X162171428Y-91152438D02*
X162028571Y-91104819D01*
X162028571Y-91104819D02*
X161933333Y-91104819D01*
X161933333Y-91104819D02*
X161790476Y-91152438D01*
X161790476Y-91152438D02*
X161742857Y-91200057D01*
X160790476Y-92104819D02*
X161361904Y-92104819D01*
X161076190Y-92104819D02*
X161076190Y-91104819D01*
X161076190Y-91104819D02*
X161171428Y-91247676D01*
X161171428Y-91247676D02*
X161266666Y-91342914D01*
X161266666Y-91342914D02*
X161361904Y-91390533D01*
X160457142Y-91104819D02*
X159838095Y-91104819D01*
X159838095Y-91104819D02*
X160171428Y-91485771D01*
X160171428Y-91485771D02*
X160028571Y-91485771D01*
X160028571Y-91485771D02*
X159933333Y-91533390D01*
X159933333Y-91533390D02*
X159885714Y-91581009D01*
X159885714Y-91581009D02*
X159838095Y-91676247D01*
X159838095Y-91676247D02*
X159838095Y-91914342D01*
X159838095Y-91914342D02*
X159885714Y-92009580D01*
X159885714Y-92009580D02*
X159933333Y-92057200D01*
X159933333Y-92057200D02*
X160028571Y-92104819D01*
X160028571Y-92104819D02*
X160314285Y-92104819D01*
X160314285Y-92104819D02*
X160409523Y-92057200D01*
X160409523Y-92057200D02*
X160457142Y-92009580D01*
X137488094Y-69454819D02*
X136916666Y-69454819D01*
X137202380Y-70454819D02*
X137202380Y-69454819D01*
X136583332Y-70454819D02*
X136583332Y-69454819D01*
X136583332Y-69454819D02*
X136202380Y-69454819D01*
X136202380Y-69454819D02*
X136107142Y-69502438D01*
X136107142Y-69502438D02*
X136059523Y-69550057D01*
X136059523Y-69550057D02*
X136011904Y-69645295D01*
X136011904Y-69645295D02*
X136011904Y-69788152D01*
X136011904Y-69788152D02*
X136059523Y-69883390D01*
X136059523Y-69883390D02*
X136107142Y-69931009D01*
X136107142Y-69931009D02*
X136202380Y-69978628D01*
X136202380Y-69978628D02*
X136583332Y-69978628D01*
X135059523Y-70454819D02*
X135630951Y-70454819D01*
X135345237Y-70454819D02*
X135345237Y-69454819D01*
X135345237Y-69454819D02*
X135440475Y-69597676D01*
X135440475Y-69597676D02*
X135535713Y-69692914D01*
X135535713Y-69692914D02*
X135630951Y-69740533D01*
X134107142Y-70454819D02*
X134678570Y-70454819D01*
X134392856Y-70454819D02*
X134392856Y-69454819D01*
X134392856Y-69454819D02*
X134488094Y-69597676D01*
X134488094Y-69597676D02*
X134583332Y-69692914D01*
X134583332Y-69692914D02*
X134678570Y-69740533D01*
X161642857Y-90659580D02*
X161690476Y-90707200D01*
X161690476Y-90707200D02*
X161833333Y-90754819D01*
X161833333Y-90754819D02*
X161928571Y-90754819D01*
X161928571Y-90754819D02*
X162071428Y-90707200D01*
X162071428Y-90707200D02*
X162166666Y-90611961D01*
X162166666Y-90611961D02*
X162214285Y-90516723D01*
X162214285Y-90516723D02*
X162261904Y-90326247D01*
X162261904Y-90326247D02*
X162261904Y-90183390D01*
X162261904Y-90183390D02*
X162214285Y-89992914D01*
X162214285Y-89992914D02*
X162166666Y-89897676D01*
X162166666Y-89897676D02*
X162071428Y-89802438D01*
X162071428Y-89802438D02*
X161928571Y-89754819D01*
X161928571Y-89754819D02*
X161833333Y-89754819D01*
X161833333Y-89754819D02*
X161690476Y-89802438D01*
X161690476Y-89802438D02*
X161642857Y-89850057D01*
X160690476Y-90754819D02*
X161261904Y-90754819D01*
X160976190Y-90754819D02*
X160976190Y-89754819D01*
X160976190Y-89754819D02*
X161071428Y-89897676D01*
X161071428Y-89897676D02*
X161166666Y-89992914D01*
X161166666Y-89992914D02*
X161261904Y-90040533D01*
X159738095Y-90754819D02*
X160309523Y-90754819D01*
X160023809Y-90754819D02*
X160023809Y-89754819D01*
X160023809Y-89754819D02*
X160119047Y-89897676D01*
X160119047Y-89897676D02*
X160214285Y-89992914D01*
X160214285Y-89992914D02*
X160309523Y-90040533D01*
X160816666Y-87059580D02*
X160864285Y-87107200D01*
X160864285Y-87107200D02*
X161007142Y-87154819D01*
X161007142Y-87154819D02*
X161102380Y-87154819D01*
X161102380Y-87154819D02*
X161245237Y-87107200D01*
X161245237Y-87107200D02*
X161340475Y-87011961D01*
X161340475Y-87011961D02*
X161388094Y-86916723D01*
X161388094Y-86916723D02*
X161435713Y-86726247D01*
X161435713Y-86726247D02*
X161435713Y-86583390D01*
X161435713Y-86583390D02*
X161388094Y-86392914D01*
X161388094Y-86392914D02*
X161340475Y-86297676D01*
X161340475Y-86297676D02*
X161245237Y-86202438D01*
X161245237Y-86202438D02*
X161102380Y-86154819D01*
X161102380Y-86154819D02*
X161007142Y-86154819D01*
X161007142Y-86154819D02*
X160864285Y-86202438D01*
X160864285Y-86202438D02*
X160816666Y-86250057D01*
X159911904Y-86154819D02*
X160388094Y-86154819D01*
X160388094Y-86154819D02*
X160435713Y-86631009D01*
X160435713Y-86631009D02*
X160388094Y-86583390D01*
X160388094Y-86583390D02*
X160292856Y-86535771D01*
X160292856Y-86535771D02*
X160054761Y-86535771D01*
X160054761Y-86535771D02*
X159959523Y-86583390D01*
X159959523Y-86583390D02*
X159911904Y-86631009D01*
X159911904Y-86631009D02*
X159864285Y-86726247D01*
X159864285Y-86726247D02*
X159864285Y-86964342D01*
X159864285Y-86964342D02*
X159911904Y-87059580D01*
X159911904Y-87059580D02*
X159959523Y-87107200D01*
X159959523Y-87107200D02*
X160054761Y-87154819D01*
X160054761Y-87154819D02*
X160292856Y-87154819D01*
X160292856Y-87154819D02*
X160388094Y-87107200D01*
X160388094Y-87107200D02*
X160435713Y-87059580D01*
X177142857Y-90259580D02*
X177190476Y-90307200D01*
X177190476Y-90307200D02*
X177333333Y-90354819D01*
X177333333Y-90354819D02*
X177428571Y-90354819D01*
X177428571Y-90354819D02*
X177571428Y-90307200D01*
X177571428Y-90307200D02*
X177666666Y-90211961D01*
X177666666Y-90211961D02*
X177714285Y-90116723D01*
X177714285Y-90116723D02*
X177761904Y-89926247D01*
X177761904Y-89926247D02*
X177761904Y-89783390D01*
X177761904Y-89783390D02*
X177714285Y-89592914D01*
X177714285Y-89592914D02*
X177666666Y-89497676D01*
X177666666Y-89497676D02*
X177571428Y-89402438D01*
X177571428Y-89402438D02*
X177428571Y-89354819D01*
X177428571Y-89354819D02*
X177333333Y-89354819D01*
X177333333Y-89354819D02*
X177190476Y-89402438D01*
X177190476Y-89402438D02*
X177142857Y-89450057D01*
X176190476Y-90354819D02*
X176761904Y-90354819D01*
X176476190Y-90354819D02*
X176476190Y-89354819D01*
X176476190Y-89354819D02*
X176571428Y-89497676D01*
X176571428Y-89497676D02*
X176666666Y-89592914D01*
X176666666Y-89592914D02*
X176761904Y-89640533D01*
X175571428Y-89354819D02*
X175476190Y-89354819D01*
X175476190Y-89354819D02*
X175380952Y-89402438D01*
X175380952Y-89402438D02*
X175333333Y-89450057D01*
X175333333Y-89450057D02*
X175285714Y-89545295D01*
X175285714Y-89545295D02*
X175238095Y-89735771D01*
X175238095Y-89735771D02*
X175238095Y-89973866D01*
X175238095Y-89973866D02*
X175285714Y-90164342D01*
X175285714Y-90164342D02*
X175333333Y-90259580D01*
X175333333Y-90259580D02*
X175380952Y-90307200D01*
X175380952Y-90307200D02*
X175476190Y-90354819D01*
X175476190Y-90354819D02*
X175571428Y-90354819D01*
X175571428Y-90354819D02*
X175666666Y-90307200D01*
X175666666Y-90307200D02*
X175714285Y-90259580D01*
X175714285Y-90259580D02*
X175761904Y-90164342D01*
X175761904Y-90164342D02*
X175809523Y-89973866D01*
X175809523Y-89973866D02*
X175809523Y-89735771D01*
X175809523Y-89735771D02*
X175761904Y-89545295D01*
X175761904Y-89545295D02*
X175714285Y-89450057D01*
X175714285Y-89450057D02*
X175666666Y-89402438D01*
X175666666Y-89402438D02*
X175571428Y-89354819D01*
X137626666Y-88904819D02*
X137959999Y-88428628D01*
X138198094Y-88904819D02*
X138198094Y-87904819D01*
X138198094Y-87904819D02*
X137817142Y-87904819D01*
X137817142Y-87904819D02*
X137721904Y-87952438D01*
X137721904Y-87952438D02*
X137674285Y-88000057D01*
X137674285Y-88000057D02*
X137626666Y-88095295D01*
X137626666Y-88095295D02*
X137626666Y-88238152D01*
X137626666Y-88238152D02*
X137674285Y-88333390D01*
X137674285Y-88333390D02*
X137721904Y-88381009D01*
X137721904Y-88381009D02*
X137817142Y-88428628D01*
X137817142Y-88428628D02*
X138198094Y-88428628D01*
X137245713Y-88000057D02*
X137198094Y-87952438D01*
X137198094Y-87952438D02*
X137102856Y-87904819D01*
X137102856Y-87904819D02*
X136864761Y-87904819D01*
X136864761Y-87904819D02*
X136769523Y-87952438D01*
X136769523Y-87952438D02*
X136721904Y-88000057D01*
X136721904Y-88000057D02*
X136674285Y-88095295D01*
X136674285Y-88095295D02*
X136674285Y-88190533D01*
X136674285Y-88190533D02*
X136721904Y-88333390D01*
X136721904Y-88333390D02*
X137293332Y-88904819D01*
X137293332Y-88904819D02*
X136674285Y-88904819D01*
X137506666Y-87359580D02*
X137554285Y-87407200D01*
X137554285Y-87407200D02*
X137697142Y-87454819D01*
X137697142Y-87454819D02*
X137792380Y-87454819D01*
X137792380Y-87454819D02*
X137935237Y-87407200D01*
X137935237Y-87407200D02*
X138030475Y-87311961D01*
X138030475Y-87311961D02*
X138078094Y-87216723D01*
X138078094Y-87216723D02*
X138125713Y-87026247D01*
X138125713Y-87026247D02*
X138125713Y-86883390D01*
X138125713Y-86883390D02*
X138078094Y-86692914D01*
X138078094Y-86692914D02*
X138030475Y-86597676D01*
X138030475Y-86597676D02*
X137935237Y-86502438D01*
X137935237Y-86502438D02*
X137792380Y-86454819D01*
X137792380Y-86454819D02*
X137697142Y-86454819D01*
X137697142Y-86454819D02*
X137554285Y-86502438D01*
X137554285Y-86502438D02*
X137506666Y-86550057D01*
X137125713Y-86550057D02*
X137078094Y-86502438D01*
X137078094Y-86502438D02*
X136982856Y-86454819D01*
X136982856Y-86454819D02*
X136744761Y-86454819D01*
X136744761Y-86454819D02*
X136649523Y-86502438D01*
X136649523Y-86502438D02*
X136601904Y-86550057D01*
X136601904Y-86550057D02*
X136554285Y-86645295D01*
X136554285Y-86645295D02*
X136554285Y-86740533D01*
X136554285Y-86740533D02*
X136601904Y-86883390D01*
X136601904Y-86883390D02*
X137173332Y-87454819D01*
X137173332Y-87454819D02*
X136554285Y-87454819D01*
X165916666Y-96459580D02*
X165964285Y-96507200D01*
X165964285Y-96507200D02*
X166107142Y-96554819D01*
X166107142Y-96554819D02*
X166202380Y-96554819D01*
X166202380Y-96554819D02*
X166345237Y-96507200D01*
X166345237Y-96507200D02*
X166440475Y-96411961D01*
X166440475Y-96411961D02*
X166488094Y-96316723D01*
X166488094Y-96316723D02*
X166535713Y-96126247D01*
X166535713Y-96126247D02*
X166535713Y-95983390D01*
X166535713Y-95983390D02*
X166488094Y-95792914D01*
X166488094Y-95792914D02*
X166440475Y-95697676D01*
X166440475Y-95697676D02*
X166345237Y-95602438D01*
X166345237Y-95602438D02*
X166202380Y-95554819D01*
X166202380Y-95554819D02*
X166107142Y-95554819D01*
X166107142Y-95554819D02*
X165964285Y-95602438D01*
X165964285Y-95602438D02*
X165916666Y-95650057D01*
X165345237Y-95983390D02*
X165440475Y-95935771D01*
X165440475Y-95935771D02*
X165488094Y-95888152D01*
X165488094Y-95888152D02*
X165535713Y-95792914D01*
X165535713Y-95792914D02*
X165535713Y-95745295D01*
X165535713Y-95745295D02*
X165488094Y-95650057D01*
X165488094Y-95650057D02*
X165440475Y-95602438D01*
X165440475Y-95602438D02*
X165345237Y-95554819D01*
X165345237Y-95554819D02*
X165154761Y-95554819D01*
X165154761Y-95554819D02*
X165059523Y-95602438D01*
X165059523Y-95602438D02*
X165011904Y-95650057D01*
X165011904Y-95650057D02*
X164964285Y-95745295D01*
X164964285Y-95745295D02*
X164964285Y-95792914D01*
X164964285Y-95792914D02*
X165011904Y-95888152D01*
X165011904Y-95888152D02*
X165059523Y-95935771D01*
X165059523Y-95935771D02*
X165154761Y-95983390D01*
X165154761Y-95983390D02*
X165345237Y-95983390D01*
X165345237Y-95983390D02*
X165440475Y-96031009D01*
X165440475Y-96031009D02*
X165488094Y-96078628D01*
X165488094Y-96078628D02*
X165535713Y-96173866D01*
X165535713Y-96173866D02*
X165535713Y-96364342D01*
X165535713Y-96364342D02*
X165488094Y-96459580D01*
X165488094Y-96459580D02*
X165440475Y-96507200D01*
X165440475Y-96507200D02*
X165345237Y-96554819D01*
X165345237Y-96554819D02*
X165154761Y-96554819D01*
X165154761Y-96554819D02*
X165059523Y-96507200D01*
X165059523Y-96507200D02*
X165011904Y-96459580D01*
X165011904Y-96459580D02*
X164964285Y-96364342D01*
X164964285Y-96364342D02*
X164964285Y-96173866D01*
X164964285Y-96173866D02*
X165011904Y-96078628D01*
X165011904Y-96078628D02*
X165059523Y-96031009D01*
X165059523Y-96031009D02*
X165154761Y-95983390D01*
X151366666Y-73454819D02*
X151699999Y-72978628D01*
X151938094Y-73454819D02*
X151938094Y-72454819D01*
X151938094Y-72454819D02*
X151557142Y-72454819D01*
X151557142Y-72454819D02*
X151461904Y-72502438D01*
X151461904Y-72502438D02*
X151414285Y-72550057D01*
X151414285Y-72550057D02*
X151366666Y-72645295D01*
X151366666Y-72645295D02*
X151366666Y-72788152D01*
X151366666Y-72788152D02*
X151414285Y-72883390D01*
X151414285Y-72883390D02*
X151461904Y-72931009D01*
X151461904Y-72931009D02*
X151557142Y-72978628D01*
X151557142Y-72978628D02*
X151938094Y-72978628D01*
X151033332Y-72454819D02*
X150366666Y-72454819D01*
X150366666Y-72454819D02*
X150795237Y-73454819D01*
X137566666Y-93659580D02*
X137614285Y-93707200D01*
X137614285Y-93707200D02*
X137757142Y-93754819D01*
X137757142Y-93754819D02*
X137852380Y-93754819D01*
X137852380Y-93754819D02*
X137995237Y-93707200D01*
X137995237Y-93707200D02*
X138090475Y-93611961D01*
X138090475Y-93611961D02*
X138138094Y-93516723D01*
X138138094Y-93516723D02*
X138185713Y-93326247D01*
X138185713Y-93326247D02*
X138185713Y-93183390D01*
X138185713Y-93183390D02*
X138138094Y-92992914D01*
X138138094Y-92992914D02*
X138090475Y-92897676D01*
X138090475Y-92897676D02*
X137995237Y-92802438D01*
X137995237Y-92802438D02*
X137852380Y-92754819D01*
X137852380Y-92754819D02*
X137757142Y-92754819D01*
X137757142Y-92754819D02*
X137614285Y-92802438D01*
X137614285Y-92802438D02*
X137566666Y-92850057D01*
X137233332Y-92754819D02*
X136614285Y-92754819D01*
X136614285Y-92754819D02*
X136947618Y-93135771D01*
X136947618Y-93135771D02*
X136804761Y-93135771D01*
X136804761Y-93135771D02*
X136709523Y-93183390D01*
X136709523Y-93183390D02*
X136661904Y-93231009D01*
X136661904Y-93231009D02*
X136614285Y-93326247D01*
X136614285Y-93326247D02*
X136614285Y-93564342D01*
X136614285Y-93564342D02*
X136661904Y-93659580D01*
X136661904Y-93659580D02*
X136709523Y-93707200D01*
X136709523Y-93707200D02*
X136804761Y-93754819D01*
X136804761Y-93754819D02*
X137090475Y-93754819D01*
X137090475Y-93754819D02*
X137185713Y-93707200D01*
X137185713Y-93707200D02*
X137233332Y-93659580D01*
X137008332Y-72207200D02*
X136865475Y-72254819D01*
X136865475Y-72254819D02*
X136627380Y-72254819D01*
X136627380Y-72254819D02*
X136532142Y-72207200D01*
X136532142Y-72207200D02*
X136484523Y-72159580D01*
X136484523Y-72159580D02*
X136436904Y-72064342D01*
X136436904Y-72064342D02*
X136436904Y-71969104D01*
X136436904Y-71969104D02*
X136484523Y-71873866D01*
X136484523Y-71873866D02*
X136532142Y-71826247D01*
X136532142Y-71826247D02*
X136627380Y-71778628D01*
X136627380Y-71778628D02*
X136817856Y-71731009D01*
X136817856Y-71731009D02*
X136913094Y-71683390D01*
X136913094Y-71683390D02*
X136960713Y-71635771D01*
X136960713Y-71635771D02*
X137008332Y-71540533D01*
X137008332Y-71540533D02*
X137008332Y-71445295D01*
X137008332Y-71445295D02*
X136960713Y-71350057D01*
X136960713Y-71350057D02*
X136913094Y-71302438D01*
X136913094Y-71302438D02*
X136817856Y-71254819D01*
X136817856Y-71254819D02*
X136579761Y-71254819D01*
X136579761Y-71254819D02*
X136436904Y-71302438D01*
X136103570Y-71254819D02*
X135865475Y-72254819D01*
X135865475Y-72254819D02*
X135674999Y-71540533D01*
X135674999Y-71540533D02*
X135484523Y-72254819D01*
X135484523Y-72254819D02*
X135246428Y-71254819D01*
X134341666Y-72254819D02*
X134913094Y-72254819D01*
X134627380Y-72254819D02*
X134627380Y-71254819D01*
X134627380Y-71254819D02*
X134722618Y-71397676D01*
X134722618Y-71397676D02*
X134817856Y-71492914D01*
X134817856Y-71492914D02*
X134913094Y-71540533D01*
X139492857Y-69409580D02*
X139540476Y-69457200D01*
X139540476Y-69457200D02*
X139683333Y-69504819D01*
X139683333Y-69504819D02*
X139778571Y-69504819D01*
X139778571Y-69504819D02*
X139921428Y-69457200D01*
X139921428Y-69457200D02*
X140016666Y-69361961D01*
X140016666Y-69361961D02*
X140064285Y-69266723D01*
X140064285Y-69266723D02*
X140111904Y-69076247D01*
X140111904Y-69076247D02*
X140111904Y-68933390D01*
X140111904Y-68933390D02*
X140064285Y-68742914D01*
X140064285Y-68742914D02*
X140016666Y-68647676D01*
X140016666Y-68647676D02*
X139921428Y-68552438D01*
X139921428Y-68552438D02*
X139778571Y-68504819D01*
X139778571Y-68504819D02*
X139683333Y-68504819D01*
X139683333Y-68504819D02*
X139540476Y-68552438D01*
X139540476Y-68552438D02*
X139492857Y-68600057D01*
X138540476Y-69504819D02*
X139111904Y-69504819D01*
X138826190Y-69504819D02*
X138826190Y-68504819D01*
X138826190Y-68504819D02*
X138921428Y-68647676D01*
X138921428Y-68647676D02*
X139016666Y-68742914D01*
X139016666Y-68742914D02*
X139111904Y-68790533D01*
X137683333Y-68838152D02*
X137683333Y-69504819D01*
X137921428Y-68457200D02*
X138159523Y-69171485D01*
X138159523Y-69171485D02*
X137540476Y-69171485D01*
X148061904Y-81354819D02*
X147490476Y-81354819D01*
X147776190Y-82354819D02*
X147776190Y-81354819D01*
X147157142Y-82354819D02*
X147157142Y-81354819D01*
X147157142Y-81354819D02*
X146776190Y-81354819D01*
X146776190Y-81354819D02*
X146680952Y-81402438D01*
X146680952Y-81402438D02*
X146633333Y-81450057D01*
X146633333Y-81450057D02*
X146585714Y-81545295D01*
X146585714Y-81545295D02*
X146585714Y-81688152D01*
X146585714Y-81688152D02*
X146633333Y-81783390D01*
X146633333Y-81783390D02*
X146680952Y-81831009D01*
X146680952Y-81831009D02*
X146776190Y-81878628D01*
X146776190Y-81878628D02*
X147157142Y-81878628D01*
X146014285Y-81783390D02*
X146109523Y-81735771D01*
X146109523Y-81735771D02*
X146157142Y-81688152D01*
X146157142Y-81688152D02*
X146204761Y-81592914D01*
X146204761Y-81592914D02*
X146204761Y-81545295D01*
X146204761Y-81545295D02*
X146157142Y-81450057D01*
X146157142Y-81450057D02*
X146109523Y-81402438D01*
X146109523Y-81402438D02*
X146014285Y-81354819D01*
X146014285Y-81354819D02*
X145823809Y-81354819D01*
X145823809Y-81354819D02*
X145728571Y-81402438D01*
X145728571Y-81402438D02*
X145680952Y-81450057D01*
X145680952Y-81450057D02*
X145633333Y-81545295D01*
X145633333Y-81545295D02*
X145633333Y-81592914D01*
X145633333Y-81592914D02*
X145680952Y-81688152D01*
X145680952Y-81688152D02*
X145728571Y-81735771D01*
X145728571Y-81735771D02*
X145823809Y-81783390D01*
X145823809Y-81783390D02*
X146014285Y-81783390D01*
X146014285Y-81783390D02*
X146109523Y-81831009D01*
X146109523Y-81831009D02*
X146157142Y-81878628D01*
X146157142Y-81878628D02*
X146204761Y-81973866D01*
X146204761Y-81973866D02*
X146204761Y-82164342D01*
X146204761Y-82164342D02*
X146157142Y-82259580D01*
X146157142Y-82259580D02*
X146109523Y-82307200D01*
X146109523Y-82307200D02*
X146014285Y-82354819D01*
X146014285Y-82354819D02*
X145823809Y-82354819D01*
X145823809Y-82354819D02*
X145728571Y-82307200D01*
X145728571Y-82307200D02*
X145680952Y-82259580D01*
X145680952Y-82259580D02*
X145633333Y-82164342D01*
X145633333Y-82164342D02*
X145633333Y-81973866D01*
X145633333Y-81973866D02*
X145680952Y-81878628D01*
X145680952Y-81878628D02*
X145728571Y-81831009D01*
X145728571Y-81831009D02*
X145823809Y-81783390D01*
X161292857Y-85759580D02*
X161340476Y-85807200D01*
X161340476Y-85807200D02*
X161483333Y-85854819D01*
X161483333Y-85854819D02*
X161578571Y-85854819D01*
X161578571Y-85854819D02*
X161721428Y-85807200D01*
X161721428Y-85807200D02*
X161816666Y-85711961D01*
X161816666Y-85711961D02*
X161864285Y-85616723D01*
X161864285Y-85616723D02*
X161911904Y-85426247D01*
X161911904Y-85426247D02*
X161911904Y-85283390D01*
X161911904Y-85283390D02*
X161864285Y-85092914D01*
X161864285Y-85092914D02*
X161816666Y-84997676D01*
X161816666Y-84997676D02*
X161721428Y-84902438D01*
X161721428Y-84902438D02*
X161578571Y-84854819D01*
X161578571Y-84854819D02*
X161483333Y-84854819D01*
X161483333Y-84854819D02*
X161340476Y-84902438D01*
X161340476Y-84902438D02*
X161292857Y-84950057D01*
X160340476Y-85854819D02*
X160911904Y-85854819D01*
X160626190Y-85854819D02*
X160626190Y-84854819D01*
X160626190Y-84854819D02*
X160721428Y-84997676D01*
X160721428Y-84997676D02*
X160816666Y-85092914D01*
X160816666Y-85092914D02*
X160911904Y-85140533D01*
X159959523Y-84950057D02*
X159911904Y-84902438D01*
X159911904Y-84902438D02*
X159816666Y-84854819D01*
X159816666Y-84854819D02*
X159578571Y-84854819D01*
X159578571Y-84854819D02*
X159483333Y-84902438D01*
X159483333Y-84902438D02*
X159435714Y-84950057D01*
X159435714Y-84950057D02*
X159388095Y-85045295D01*
X159388095Y-85045295D02*
X159388095Y-85140533D01*
X159388095Y-85140533D02*
X159435714Y-85283390D01*
X159435714Y-85283390D02*
X160007142Y-85854819D01*
X160007142Y-85854819D02*
X159388095Y-85854819D01*
X160859819Y-65666666D02*
X161574104Y-65666666D01*
X161574104Y-65666666D02*
X161716961Y-65619047D01*
X161716961Y-65619047D02*
X161812200Y-65523809D01*
X161812200Y-65523809D02*
X161859819Y-65380952D01*
X161859819Y-65380952D02*
X161859819Y-65285714D01*
X161859819Y-66666666D02*
X161859819Y-66095238D01*
X161859819Y-66380952D02*
X160859819Y-66380952D01*
X160859819Y-66380952D02*
X161002676Y-66285714D01*
X161002676Y-66285714D02*
X161097914Y-66190476D01*
X161097914Y-66190476D02*
X161145533Y-66095238D01*
X145966666Y-91504819D02*
X146299999Y-91028628D01*
X146538094Y-91504819D02*
X146538094Y-90504819D01*
X146538094Y-90504819D02*
X146157142Y-90504819D01*
X146157142Y-90504819D02*
X146061904Y-90552438D01*
X146061904Y-90552438D02*
X146014285Y-90600057D01*
X146014285Y-90600057D02*
X145966666Y-90695295D01*
X145966666Y-90695295D02*
X145966666Y-90838152D01*
X145966666Y-90838152D02*
X146014285Y-90933390D01*
X146014285Y-90933390D02*
X146061904Y-90981009D01*
X146061904Y-90981009D02*
X146157142Y-91028628D01*
X146157142Y-91028628D02*
X146538094Y-91028628D01*
X145395237Y-90933390D02*
X145490475Y-90885771D01*
X145490475Y-90885771D02*
X145538094Y-90838152D01*
X145538094Y-90838152D02*
X145585713Y-90742914D01*
X145585713Y-90742914D02*
X145585713Y-90695295D01*
X145585713Y-90695295D02*
X145538094Y-90600057D01*
X145538094Y-90600057D02*
X145490475Y-90552438D01*
X145490475Y-90552438D02*
X145395237Y-90504819D01*
X145395237Y-90504819D02*
X145204761Y-90504819D01*
X145204761Y-90504819D02*
X145109523Y-90552438D01*
X145109523Y-90552438D02*
X145061904Y-90600057D01*
X145061904Y-90600057D02*
X145014285Y-90695295D01*
X145014285Y-90695295D02*
X145014285Y-90742914D01*
X145014285Y-90742914D02*
X145061904Y-90838152D01*
X145061904Y-90838152D02*
X145109523Y-90885771D01*
X145109523Y-90885771D02*
X145204761Y-90933390D01*
X145204761Y-90933390D02*
X145395237Y-90933390D01*
X145395237Y-90933390D02*
X145490475Y-90981009D01*
X145490475Y-90981009D02*
X145538094Y-91028628D01*
X145538094Y-91028628D02*
X145585713Y-91123866D01*
X145585713Y-91123866D02*
X145585713Y-91314342D01*
X145585713Y-91314342D02*
X145538094Y-91409580D01*
X145538094Y-91409580D02*
X145490475Y-91457200D01*
X145490475Y-91457200D02*
X145395237Y-91504819D01*
X145395237Y-91504819D02*
X145204761Y-91504819D01*
X145204761Y-91504819D02*
X145109523Y-91457200D01*
X145109523Y-91457200D02*
X145061904Y-91409580D01*
X145061904Y-91409580D02*
X145014285Y-91314342D01*
X145014285Y-91314342D02*
X145014285Y-91123866D01*
X145014285Y-91123866D02*
X145061904Y-91028628D01*
X145061904Y-91028628D02*
X145109523Y-90981009D01*
X145109523Y-90981009D02*
X145204761Y-90933390D01*
X160661904Y-69704819D02*
X160090476Y-69704819D01*
X160376190Y-70704819D02*
X160376190Y-69704819D01*
X159757142Y-70704819D02*
X159757142Y-69704819D01*
X159757142Y-69704819D02*
X159376190Y-69704819D01*
X159376190Y-69704819D02*
X159280952Y-69752438D01*
X159280952Y-69752438D02*
X159233333Y-69800057D01*
X159233333Y-69800057D02*
X159185714Y-69895295D01*
X159185714Y-69895295D02*
X159185714Y-70038152D01*
X159185714Y-70038152D02*
X159233333Y-70133390D01*
X159233333Y-70133390D02*
X159280952Y-70181009D01*
X159280952Y-70181009D02*
X159376190Y-70228628D01*
X159376190Y-70228628D02*
X159757142Y-70228628D01*
X158804761Y-69800057D02*
X158757142Y-69752438D01*
X158757142Y-69752438D02*
X158661904Y-69704819D01*
X158661904Y-69704819D02*
X158423809Y-69704819D01*
X158423809Y-69704819D02*
X158328571Y-69752438D01*
X158328571Y-69752438D02*
X158280952Y-69800057D01*
X158280952Y-69800057D02*
X158233333Y-69895295D01*
X158233333Y-69895295D02*
X158233333Y-69990533D01*
X158233333Y-69990533D02*
X158280952Y-70133390D01*
X158280952Y-70133390D02*
X158852380Y-70704819D01*
X158852380Y-70704819D02*
X158233333Y-70704819D01*
X152092858Y-78759579D02*
X152140477Y-78807199D01*
X152140477Y-78807199D02*
X152283334Y-78854818D01*
X152283334Y-78854818D02*
X152378572Y-78854818D01*
X152378572Y-78854818D02*
X152521429Y-78807199D01*
X152521429Y-78807199D02*
X152616667Y-78711960D01*
X152616667Y-78711960D02*
X152664286Y-78616722D01*
X152664286Y-78616722D02*
X152711905Y-78426246D01*
X152711905Y-78426246D02*
X152711905Y-78283389D01*
X152711905Y-78283389D02*
X152664286Y-78092913D01*
X152664286Y-78092913D02*
X152616667Y-77997675D01*
X152616667Y-77997675D02*
X152521429Y-77902437D01*
X152521429Y-77902437D02*
X152378572Y-77854818D01*
X152378572Y-77854818D02*
X152283334Y-77854818D01*
X152283334Y-77854818D02*
X152140477Y-77902437D01*
X152140477Y-77902437D02*
X152092858Y-77950056D01*
X151140477Y-78854818D02*
X151711905Y-78854818D01*
X151426191Y-78854818D02*
X151426191Y-77854818D01*
X151426191Y-77854818D02*
X151521429Y-77997675D01*
X151521429Y-77997675D02*
X151616667Y-78092913D01*
X151616667Y-78092913D02*
X151711905Y-78140532D01*
X150807143Y-77854818D02*
X150140477Y-77854818D01*
X150140477Y-77854818D02*
X150569048Y-78854818D01*
X176792857Y-78959580D02*
X176840476Y-79007200D01*
X176840476Y-79007200D02*
X176983333Y-79054819D01*
X176983333Y-79054819D02*
X177078571Y-79054819D01*
X177078571Y-79054819D02*
X177221428Y-79007200D01*
X177221428Y-79007200D02*
X177316666Y-78911961D01*
X177316666Y-78911961D02*
X177364285Y-78816723D01*
X177364285Y-78816723D02*
X177411904Y-78626247D01*
X177411904Y-78626247D02*
X177411904Y-78483390D01*
X177411904Y-78483390D02*
X177364285Y-78292914D01*
X177364285Y-78292914D02*
X177316666Y-78197676D01*
X177316666Y-78197676D02*
X177221428Y-78102438D01*
X177221428Y-78102438D02*
X177078571Y-78054819D01*
X177078571Y-78054819D02*
X176983333Y-78054819D01*
X176983333Y-78054819D02*
X176840476Y-78102438D01*
X176840476Y-78102438D02*
X176792857Y-78150057D01*
X175840476Y-79054819D02*
X176411904Y-79054819D01*
X176126190Y-79054819D02*
X176126190Y-78054819D01*
X176126190Y-78054819D02*
X176221428Y-78197676D01*
X176221428Y-78197676D02*
X176316666Y-78292914D01*
X176316666Y-78292914D02*
X176411904Y-78340533D01*
X175364285Y-79054819D02*
X175173809Y-79054819D01*
X175173809Y-79054819D02*
X175078571Y-79007200D01*
X175078571Y-79007200D02*
X175030952Y-78959580D01*
X175030952Y-78959580D02*
X174935714Y-78816723D01*
X174935714Y-78816723D02*
X174888095Y-78626247D01*
X174888095Y-78626247D02*
X174888095Y-78245295D01*
X174888095Y-78245295D02*
X174935714Y-78150057D01*
X174935714Y-78150057D02*
X174983333Y-78102438D01*
X174983333Y-78102438D02*
X175078571Y-78054819D01*
X175078571Y-78054819D02*
X175269047Y-78054819D01*
X175269047Y-78054819D02*
X175364285Y-78102438D01*
X175364285Y-78102438D02*
X175411904Y-78150057D01*
X175411904Y-78150057D02*
X175459523Y-78245295D01*
X175459523Y-78245295D02*
X175459523Y-78483390D01*
X175459523Y-78483390D02*
X175411904Y-78578628D01*
X175411904Y-78578628D02*
X175364285Y-78626247D01*
X175364285Y-78626247D02*
X175269047Y-78673866D01*
X175269047Y-78673866D02*
X175078571Y-78673866D01*
X175078571Y-78673866D02*
X174983333Y-78626247D01*
X174983333Y-78626247D02*
X174935714Y-78578628D01*
X174935714Y-78578628D02*
X174888095Y-78483390D01*
X148061904Y-84904819D02*
X148061904Y-85714342D01*
X148061904Y-85714342D02*
X148014285Y-85809580D01*
X148014285Y-85809580D02*
X147966666Y-85857200D01*
X147966666Y-85857200D02*
X147871428Y-85904819D01*
X147871428Y-85904819D02*
X147680952Y-85904819D01*
X147680952Y-85904819D02*
X147585714Y-85857200D01*
X147585714Y-85857200D02*
X147538095Y-85809580D01*
X147538095Y-85809580D02*
X147490476Y-85714342D01*
X147490476Y-85714342D02*
X147490476Y-84904819D01*
X147109523Y-84904819D02*
X146490476Y-84904819D01*
X146490476Y-84904819D02*
X146823809Y-85285771D01*
X146823809Y-85285771D02*
X146680952Y-85285771D01*
X146680952Y-85285771D02*
X146585714Y-85333390D01*
X146585714Y-85333390D02*
X146538095Y-85381009D01*
X146538095Y-85381009D02*
X146490476Y-85476247D01*
X146490476Y-85476247D02*
X146490476Y-85714342D01*
X146490476Y-85714342D02*
X146538095Y-85809580D01*
X146538095Y-85809580D02*
X146585714Y-85857200D01*
X146585714Y-85857200D02*
X146680952Y-85904819D01*
X146680952Y-85904819D02*
X146966666Y-85904819D01*
X146966666Y-85904819D02*
X147061904Y-85857200D01*
X147061904Y-85857200D02*
X147109523Y-85809580D01*
D11*
%TO.C,C15*%
X143315000Y-69638748D02*
X143315000Y-70161252D01*
X144785000Y-69638748D02*
X144785000Y-70161252D01*
D12*
%TO.C,J4*%
X156620000Y-73550000D02*
X157700000Y-73550000D01*
X156620000Y-92450000D02*
X157700000Y-92450000D01*
X157700000Y-73550000D02*
X157700000Y-72750000D01*
X157700000Y-92450000D02*
X157700000Y-93250000D01*
X157700000Y-93250000D02*
X159100000Y-93250000D01*
X159100000Y-72750000D02*
X157700000Y-72750000D01*
X159100000Y-93250000D02*
X159100000Y-72750000D01*
D13*
X153350000Y-75750000D02*
G75*
G02*
X153150000Y-75750000I-100000J0D01*
G01*
X153150000Y-75750000D02*
G75*
G02*
X153350000Y-75750000I100000J0D01*
G01*
D11*
%TO.C,R6*%
X174470000Y-72703641D02*
X174470000Y-72396359D01*
X175230000Y-72703641D02*
X175230000Y-72396359D01*
D13*
%TO.C,SW4*%
X131010000Y-92770000D02*
X131610000Y-92770000D01*
X131010000Y-93770000D02*
X131010000Y-92770000D01*
X131610000Y-93770000D02*
X131010000Y-93770000D01*
X131610000Y-94170000D02*
X131610000Y-92370000D01*
%TO.C,SW2*%
X131010000Y-86270000D02*
X131610000Y-86270000D01*
X131010000Y-87270000D02*
X131010000Y-86270000D01*
X131610000Y-87270000D02*
X131010000Y-87270000D01*
X131610000Y-87670000D02*
X131610000Y-85870000D01*
D11*
%TO.C,R5*%
X171470000Y-72703641D02*
X171470000Y-72396359D01*
X172230000Y-72703641D02*
X172230000Y-72396359D01*
%TO.C,R10*%
X147953641Y-93170000D02*
X147646359Y-93170000D01*
X147953641Y-93930000D02*
X147646359Y-93930000D01*
%TO.C,C4*%
X162588748Y-87465000D02*
X163111252Y-87465000D01*
X162588748Y-88935000D02*
X163111252Y-88935000D01*
D12*
%TO.C,Y1*%
X167650000Y-95800000D02*
X167650000Y-91800000D01*
X170750000Y-91800000D02*
X167650000Y-91800000D01*
X170750000Y-95800000D02*
X167650000Y-95800000D01*
X170750000Y-95800000D02*
X170750000Y-91800000D01*
D13*
%TO.C,SW3*%
X131010000Y-79520000D02*
X131610000Y-79520000D01*
X131010000Y-80520000D02*
X131010000Y-79520000D01*
X131610000Y-80520000D02*
X131010000Y-80520000D01*
X131610000Y-80920000D02*
X131610000Y-79120000D01*
D11*
%TO.C,C20*%
X135357836Y-79640000D02*
X135142164Y-79640000D01*
X135357836Y-80360000D02*
X135142164Y-80360000D01*
%TO.C,C1*%
X134640000Y-74107836D02*
X134640000Y-73892164D01*
X135360000Y-74107836D02*
X135360000Y-73892164D01*
%TO.C,C7*%
X171290000Y-93312164D02*
X171290000Y-93527836D01*
X172010000Y-93312164D02*
X172010000Y-93527836D01*
%TO.C,TP10*%
X142100000Y-80350000D02*
G75*
G02*
X140700000Y-80350000I-700000J0D01*
G01*
X140700000Y-80350000D02*
G75*
G02*
X142100000Y-80350000I700000J0D01*
G01*
%TO.C,J2*%
X168430000Y-68300000D02*
X168430000Y-66600000D01*
X177770000Y-68300000D02*
X177770000Y-66600000D01*
%TO.C,TP13*%
X143650000Y-88800000D02*
G75*
G02*
X142250000Y-88800000I-700000J0D01*
G01*
X142250000Y-88800000D02*
G75*
G02*
X143650000Y-88800000I700000J0D01*
G01*
%TO.C,U1*%
X143490000Y-74200000D02*
X143490000Y-75000000D01*
X143490000Y-75800000D02*
X143490000Y-75000000D01*
X146610000Y-74200000D02*
X146610000Y-75000000D01*
X146610000Y-75800000D02*
X146610000Y-75000000D01*
X143540000Y-73700000D02*
X143210000Y-73940000D01*
X143210000Y-73460000D01*
X143540000Y-73700000D01*
G36*
X143540000Y-73700000D02*
G01*
X143210000Y-73940000D01*
X143210000Y-73460000D01*
X143540000Y-73700000D01*
G37*
%TO.C,R1*%
X136546359Y-74120000D02*
X136853641Y-74120000D01*
X136546359Y-74880000D02*
X136853641Y-74880000D01*
%TO.C,U2*%
X166640000Y-80690000D02*
X167290000Y-80690000D01*
X166640000Y-81340000D02*
X166640000Y-80690000D01*
X166640000Y-87670000D02*
X166640000Y-87260000D01*
X166940000Y-87910000D02*
X167290000Y-87910000D01*
X173860000Y-80690000D02*
X173210000Y-80690000D01*
X173860000Y-81340000D02*
X173860000Y-80690000D01*
X173860000Y-87260000D02*
X173860000Y-87910000D01*
X173860000Y-87910000D02*
X173210000Y-87910000D01*
X166880000Y-88240000D02*
X166400000Y-88240000D01*
X166640000Y-87910000D01*
X166880000Y-88240000D01*
G36*
X166880000Y-88240000D02*
G01*
X166400000Y-88240000D01*
X166640000Y-87910000D01*
X166880000Y-88240000D01*
G37*
%TO.C,Q1*%
X146240000Y-66350000D02*
X146240000Y-67150000D01*
X146240000Y-67950000D02*
X146240000Y-67150000D01*
X149360000Y-66350000D02*
X149360000Y-67150000D01*
X149360000Y-67950000D02*
X149360000Y-67150000D01*
X149640000Y-68690000D02*
X149310000Y-68450000D01*
X149640000Y-68210000D01*
X149640000Y-68690000D01*
G36*
X149640000Y-68690000D02*
G01*
X149310000Y-68450000D01*
X149640000Y-68210000D01*
X149640000Y-68690000D01*
G37*
%TO.C,C9*%
X162238748Y-83065000D02*
X162761252Y-83065000D01*
X162238748Y-84535000D02*
X162761252Y-84535000D01*
%TO.C,R9*%
X147953641Y-91870000D02*
X147646359Y-91870000D01*
X147953641Y-92630000D02*
X147646359Y-92630000D01*
%TO.C,TP1*%
X164000000Y-68850000D02*
G75*
G02*
X162600000Y-68850000I-700000J0D01*
G01*
X162600000Y-68850000D02*
G75*
G02*
X164000000Y-68850000I700000J0D01*
G01*
%TO.C,C18*%
X151290000Y-84307836D02*
X151290000Y-84092164D01*
X152010000Y-84307836D02*
X152010000Y-84092164D01*
%TO.C,U4*%
X176200000Y-80745000D02*
X182190000Y-80745000D01*
X176200000Y-85965000D02*
X182200000Y-85965000D01*
X182910000Y-81045000D02*
X182430000Y-81045000D01*
X182430000Y-80565000D01*
X182910000Y-81045000D01*
G36*
X182910000Y-81045000D02*
G01*
X182430000Y-81045000D01*
X182430000Y-80565000D01*
X182910000Y-81045000D01*
G37*
%TO.C,R4*%
X135096359Y-94370000D02*
X135403641Y-94370000D01*
X135096359Y-95130000D02*
X135403641Y-95130000D01*
%TO.C,L1*%
X166040000Y-91637221D02*
X166040000Y-91962779D01*
X167060000Y-91637221D02*
X167060000Y-91962779D01*
%TO.C,C6*%
X169290000Y-78442164D02*
X169290000Y-78657836D01*
X170010000Y-78442164D02*
X170010000Y-78657836D01*
%TO.C,R3*%
X135096359Y-81120000D02*
X135403641Y-81120000D01*
X135096359Y-81880000D02*
X135403641Y-81880000D01*
%TO.C,C16*%
X141942164Y-72140000D02*
X142157836Y-72140000D01*
X141942164Y-72860000D02*
X142157836Y-72860000D01*
%TO.C,D1*%
X145340000Y-69850000D02*
X145340000Y-71850000D01*
X149350000Y-69850000D02*
X145340000Y-69850000D01*
X149350000Y-71850000D02*
X145340000Y-71850000D01*
%TO.C,C13*%
X163342164Y-91090000D02*
X163557836Y-91090000D01*
X163342164Y-91810000D02*
X163557836Y-91810000D01*
%TO.C,TP11*%
X138650000Y-70900000D02*
G75*
G02*
X137250000Y-70900000I-700000J0D01*
G01*
X137250000Y-70900000D02*
G75*
G02*
X138650000Y-70900000I700000J0D01*
G01*
%TO.C,C11*%
X163342164Y-89840000D02*
X163557836Y-89840000D01*
X163342164Y-90560000D02*
X163557836Y-90560000D01*
%TO.C,C5*%
X162942164Y-86190000D02*
X163157836Y-86190000D01*
X162942164Y-86910000D02*
X163157836Y-86910000D01*
%TO.C,C10*%
X173942164Y-89490000D02*
X174157836Y-89490000D01*
X173942164Y-90210000D02*
X174157836Y-90210000D01*
%TO.C,R2*%
X135106359Y-88120000D02*
X135413641Y-88120000D01*
X135106359Y-88880000D02*
X135413641Y-88880000D01*
%TO.C,C2*%
X135347836Y-86640000D02*
X135132164Y-86640000D01*
X135347836Y-87360000D02*
X135132164Y-87360000D01*
%TO.C,C8*%
X166157836Y-94540000D02*
X165942164Y-94540000D01*
X166157836Y-95260000D02*
X165942164Y-95260000D01*
%TO.C,R7*%
X149046359Y-72570000D02*
X149353641Y-72570000D01*
X149046359Y-73330000D02*
X149353641Y-73330000D01*
%TO.C,C3*%
X135357836Y-92840000D02*
X135142164Y-92840000D01*
X135357836Y-93560000D02*
X135142164Y-93560000D01*
D13*
%TO.C,SW1*%
X131010000Y-72770000D02*
X131610000Y-72770000D01*
X131010000Y-73770000D02*
X131010000Y-72770000D01*
X131610000Y-73770000D02*
X131010000Y-73770000D01*
X131610000Y-74170000D02*
X131610000Y-72370000D01*
D11*
%TO.C,C14*%
X140440000Y-68638748D02*
X140440000Y-70061252D01*
X142260000Y-68638748D02*
X142260000Y-70061252D01*
%TO.C,TP8*%
X147600000Y-80400000D02*
G75*
G02*
X146200000Y-80400000I-700000J0D01*
G01*
X146200000Y-80400000D02*
G75*
G02*
X147600000Y-80400000I700000J0D01*
G01*
%TO.C,C12*%
X162942164Y-85040000D02*
X163157836Y-85040000D01*
X162942164Y-85760000D02*
X163157836Y-85760000D01*
%TO.C,J1*%
X156035000Y-64670000D02*
X156035000Y-67330000D01*
X156035000Y-64670000D02*
X156095000Y-64670000D01*
X156035000Y-67330000D02*
X156095000Y-67330000D01*
X159905000Y-63210000D02*
X159905000Y-64670000D01*
X159905000Y-64670000D02*
X159965000Y-64670000D01*
X159905000Y-67330000D02*
X159965000Y-67330000D01*
X159965000Y-64670000D02*
X159965000Y-67330000D01*
%TO.C,R8*%
X147953641Y-90620000D02*
X147646359Y-90620000D01*
X147953641Y-91380000D02*
X147646359Y-91380000D01*
%TO.C,TP2*%
X162250000Y-70850000D02*
G75*
G02*
X160850000Y-70850000I-700000J0D01*
G01*
X160850000Y-70850000D02*
G75*
G02*
X162250000Y-70850000I700000J0D01*
G01*
%TO.C,C17*%
X151090000Y-76857836D02*
X151090000Y-76642164D01*
X151810000Y-76857836D02*
X151810000Y-76642164D01*
%TO.C,C19*%
X174940000Y-80042164D02*
X174940000Y-80257836D01*
X175660000Y-80042164D02*
X175660000Y-80257836D01*
%TO.C,U3*%
X146500000Y-86302500D02*
X147300000Y-86302500D01*
X146500000Y-89422500D02*
X147300000Y-89422500D01*
X148100000Y-86302500D02*
X147300000Y-86302500D01*
X148100000Y-89422500D02*
X147300000Y-89422500D01*
X146240000Y-89702500D02*
X145760000Y-89702500D01*
X146000000Y-89372500D01*
X146240000Y-89702500D01*
G36*
X146240000Y-89702500D02*
G01*
X145760000Y-89702500D01*
X146000000Y-89372500D01*
X146240000Y-89702500D01*
G37*
%TD*%
D14*
X132873000Y-103800000D02*
G75*
G02*
X130073000Y-101000000I0J2800000D01*
G01*
X176970101Y-62204899D02*
X139400000Y-62200000D01*
X186624568Y-100999053D02*
G75*
G02*
X183647004Y-103799936I-2818968J13653D01*
G01*
X130079899Y-71879899D02*
G75*
G02*
X132879899Y-69079899I2800001J-1D01*
G01*
X132873000Y-103800000D02*
X183647000Y-103800000D01*
X136600000Y-65000000D02*
G75*
G02*
X139400000Y-62200000I2800000J0D01*
G01*
X133820101Y-69120101D02*
X132879899Y-69079899D01*
X136600000Y-65000000D02*
X136620101Y-66320101D01*
X181675506Y-69070019D02*
G75*
G02*
X179779900Y-66420101I904394J2649919D01*
G01*
X181675506Y-69070020D02*
G75*
G02*
X183102045Y-70950000I-525506J-1879980D01*
G01*
X186620000Y-96500000D02*
X186620000Y-101000000D01*
X130079899Y-71879899D02*
X130073000Y-101000000D01*
X184400000Y-95000000D02*
X185120000Y-95000000D01*
X183102045Y-70950000D02*
X183100000Y-93500000D01*
X136620101Y-66320101D02*
G75*
G02*
X133820101Y-69120101I-2800001J1D01*
G01*
X176970101Y-62204899D02*
G75*
G02*
X179770101Y-65004899I-1J-2800001D01*
G01*
X184400000Y-94999999D02*
G75*
G02*
X183100001Y-93500000I100000J1399999D01*
G01*
X179770101Y-65004899D02*
X179779899Y-66420101D01*
X185120000Y-95000000D02*
G75*
G02*
X186620000Y-96500000I0J-1500000D01*
G01*
M02*
